<svg xmlns="http://www.w3.org/2000/svg" xmlns:xlink="http://www.w3.org/1999/xlink" width="500" zoomAndPan="magnify" viewBox="0 0 375 374.999991" height="500" preserveAspectRatio="xMidYMid meet" version="1.0"><path fill="#fdf2d5" d="M 67.554688 292.359375 C 66.40625 289.304688 77.761719 282.808594 80.355469 281.144531 C 85.050781 278.117188 89.042969 274.664062 93.238281 270.992188 C 100.773438 264.390625 108.53125 258.128906 115.984375 251.257812 C 123.425781 244.402344 130.554688 237.453125 138.476562 231.183594 C 146.703125 224.683594 153.570312 217.019531 161.421875 210.433594 C 166.410156 206.253906 171.59375 202.414062 176.574219 198.28125 C 179.765625 195.625 182.730469 192.132812 186.105469 189.691406 C 186.957031 189.070312 190.546875 186.324219 191.421875 186.632812 C 194.109375 187.585938 196.011719 197.882812 195.722656 200.710938 C 194.886719 208.992188 183.894531 214.679688 178.308594 219.914062 C 166.238281 231.238281 152.859375 241.65625 139.347656 251.203125 C 127.441406 259.621094 116.734375 268.199219 106.0625 278.109375 C 99.644531 284.078125 92.738281 287.109375 85.203125 291.25 C 79.21875 294.53125 70.570312 304.664062 67.554688 292.359375 Z M 67.554688 292.359375 " fill-opacity="1" fill-rule="nonzero"/><path fill="#57271a" d="M 361.699219 163.226562 C 357.117188 166.871094 353.308594 170.863281 349.21875 174.867188 C 347.292969 176.753906 349.308594 176.464844 346.101562 176.464844 C 343.542969 176.464844 340.472656 173.714844 337.90625 174.738281 C 335.9375 175.523438 335.792969 177.71875 334.714844 179.257812 C 331.929688 183.246094 327.675781 185.5625 324.136719 188.6875 C 320.886719 191.558594 314.863281 205.109375 310.917969 208.230469 C 313.988281 202.84375 308.617188 208.609375 306.457031 201.949219 C 304.882812 197.082031 298.292969 197.511719 293.972656 195.496094 C 287.375 192.429688 287.375 186.867188 280.796875 183.769531 C 269.433594 178.40625 263.769531 175.410156 251.265625 175.386719 C 245.296875 175.371094 239.078125 165.515625 233.210938 166.75 C 230.9375 167.234375 227.574219 164.96875 224.699219 166.109375 C 223.105469 166.070312 219.945312 166.804688 218.472656 167.285156 C 210.753906 165.226562 226.101562 157.140625 228.101562 155.480469 C 232.339844 151.949219 235.511719 147.507812 239.472656 143.707031 C 242.90625 140.402344 262.113281 121.355469 270.257812 120.546875 L 264.761719 118.460938 C 267.34375 119.304688 270.257812 117.246094 273.070312 117.238281 C 275.679688 117.230469 278.148438 118.074219 280.804688 118.058594 C 286.457031 118.023438 284.734375 115.992188 288.386719 113.246094 C 291.632812 110.804688 293.34375 111.875 295.214844 113.871094 C 295.457031 112.46875 295.199219 110.855469 295.625 109.445312 C 296.273438 107.289062 296.882812 107.046875 298.324219 105.558594 C 301.125 102.6875 303.832031 99.730469 306.996094 97.980469 C 313.429688 94.410156 323.382812 91.222656 330.1875 95.21875 C 332.988281 96.863281 336.390625 102.21875 338.203125 104.738281 C 341.03125 108.660156 340.660156 112.582031 340.503906 117.070312 C 340.359375 121.0625 338.503906 125.59375 335.636719 129.246094 C 340.375 132.1875 344.886719 135.054688 348.289062 140.125 C 353.351562 147.644531 357.148438 155.59375 361.699219 163.226562 Z M 361.699219 163.226562 " fill-opacity="1" fill-rule="nonzero"/><path fill="#a6ac37" d="M 19.867188 173.578125 C 27.207031 169.195312 31.824219 169.050781 40.285156 168.960938 C 50.628906 168.855469 60.777344 166.359375 71.144531 166.15625 C 81.332031 165.953125 91.878906 166.96875 101.953125 168.5 C 115.425781 170.546875 127.871094 175.085938 140.023438 181.050781 C 143.546875 182.78125 146.703125 184.167969 150.453125 185.042969 C 151.175781 190.714844 144.097656 192.511719 141.179688 195.921875 C 138.589844 198.945312 140.425781 198.824219 142.207031 202.605469 C 144.644531 207.777344 145.34375 213.625 143.351562 218.859375 C 138.703125 231.09375 119.261719 234.007812 107.695312 234.253906 C 99.515625 234.4375 90.589844 234.332031 82.441406 233.492188 C 77.90625 233.023438 73.234375 232.46875 68.902344 230.882812 C 64.988281 229.457031 61.78125 226.863281 57.925781 225.234375 C 51.859375 222.683594 45.761719 221.183594 39.90625 218.113281 C 35.902344 216.007812 31.945312 215.433594 28.265625 212.597656 C 23.980469 209.292969 20.019531 205.976562 16.644531 201.691406 C 10.738281 194.191406 8.074219 188.867188 7.023438 179.347656 C 9.078125 176.453125 17.496094 174.996094 19.867188 173.578125 Z M 299.304688 189.960938 C 291.59375 183.761719 285.453125 178.925781 276.40625 174.988281 C 272.226562 173.171875 268.484375 171.285156 264.007812 170.25 C 258.449219 168.96875 252.933594 170.046875 247.371094 169.066406 C 240.558594 167.859375 233.578125 165.785156 226.765625 164.917969 C 226.335938 164.863281 225.914062 164.835938 225.496094 164.828125 C 223.824219 165.492188 222.246094 165.882812 220.992188 165.558594 C 220.964844 165.550781 217.378906 168.054688 217.339844 168.046875 C 213.808594 169.195312 214.15625 169.027344 211.175781 171.320312 C 200.507812 179.519531 192.625 190.917969 181.367188 198.410156 C 175.367188 202.398438 171.261719 208.15625 165.746094 212.726562 C 160.941406 216.710938 156.542969 220.964844 151.886719 225.097656 C 141.171875 234.609375 130.863281 244.800781 120.355469 254.597656 C 110.492188 263.785156 100.863281 275.378906 89.148438 282.273438 C 84.832031 284.816406 76.464844 287.375 78.078125 292.683594 C 79.339844 296.832031 82.878906 296.175781 85.863281 298.0625 C 90.234375 300.824219 91.28125 307.621094 94.171875 311.59375 C 97.378906 316.007812 99.988281 317.804688 104.441406 314.007812 C 122.558594 298.582031 140.78125 282.816406 160.976562 269.714844 C 178.890625 258.097656 196.140625 244.152344 211.304688 229.1875 C 217.191406 223.378906 224.585938 217.5 232.417969 214.523438 C 236.847656 212.832031 242.601562 214.628906 247.113281 215.683594 C 239.507812 221.054688 233.617188 230.511719 227.777344 237.597656 C 224.578125 241.472656 220.925781 243.351562 219 248.398438 C 216.421875 255.179688 216.113281 263.003906 212.609375 269.429688 C 210.015625 274.1875 205.1875 276.902344 202.113281 281.316406 C 198.945312 285.878906 196.578125 291.0625 193.695312 295.816406 C 189.183594 303.246094 186.089844 305.53125 179.078125 309.640625 C 179.644531 309.40625 180.363281 309.378906 180.890625 309.226562 C 181.765625 311.488281 180.816406 313.902344 181.554688 316.175781 C 182.363281 318.6875 184.042969 319.589844 185.679688 321.75 C 190.707031 328.378906 194.984375 334.316406 200.90625 340.28125 C 203.894531 343.300781 207.074219 347.757812 211.832031 347.289062 C 216.949219 346.785156 219.832031 341.019531 223.1875 337.625 C 230.238281 330.507812 239.359375 326.214844 244.746094 317.605469 C 253.203125 304.089844 256.394531 288.285156 262.363281 273.75 C 267.132812 262.140625 276.8125 253.558594 285.496094 244.882812 C 291.714844 238.667969 298.808594 232.777344 301.457031 224.269531 C 303.710938 217.019531 309.929688 210.523438 313.964844 203.441406 C 313.128906 204.097656 312.253906 204.511719 311.324219 204.566406 C 310.09375 198.128906 304.226562 193.914062 299.304688 189.960938 Z M 299.304688 189.960938 " fill-opacity="1" fill-rule="nonzero"/><path fill="#786b5d" d="M 169.699219 188.519531 C 169.90625 184.46875 170.953125 173.644531 168.152344 170.847656 C 165.949219 168.652344 161.574219 168.960938 158.867188 168.578125 C 154.269531 167.921875 149.726562 166.652344 145.238281 165.535156 C 135.40625 163.101562 126.894531 156.808594 118.386719 151.632812 C 114.589844 149.324219 113.8125 149.304688 113.15625 145.238281 C 112.226562 139.496094 111.648438 134.429688 109.601562 129.003906 C 114.304688 132.777344 118.679688 137.144531 123.363281 140.824219 C 127.695312 144.226562 132.1875 143.058594 137.308594 142.890625 C 139.8125 142.816406 143.449219 142.234375 145.84375 142.890625 C 147.367188 143.304688 148.476562 144.859375 149.941406 145.261719 C 153.183594 146.144531 153.703125 144.070312 155.710938 144.03125 C 155.742188 144.054688 155.78125 144.074219 155.816406 144.082031 C 155.855469 144.089844 155.894531 144.097656 155.9375 144.105469 L 155.9375 144.113281 C 155.984375 144.121094 156.011719 144.121094 156.058594 144.121094 C 158.738281 144.632812 161.152344 140.863281 162.417969 139.03125 C 162.554688 138.839844 162.503906 138.613281 162.375 138.464844 C 162.8125 137.972656 163.144531 137.363281 163.398438 136.714844 C 164.058594 135.753906 164.488281 134.746094 164.269531 133.785156 C 164.277344 133.773438 164.277344 133.765625 164.28125 133.75 C 165.90625 128.542969 158.8125 125.089844 155.363281 122.835938 C 153.425781 121.566406 151.871094 119.71875 149.832031 118.527344 C 147.285156 117.035156 144.800781 116.996094 142.109375 115.992188 C 135.882812 113.660156 128.441406 103.816406 124.269531 98.554688 C 121.207031 94.691406 117.472656 87.933594 115.707031 83.339844 C 113.738281 78.230469 115.351562 72.429688 113.765625 67.25 C 112.332031 62.542969 107.511719 58.386719 103.363281 55.894531 C 96.121094 51.550781 83.660156 54.703125 77.550781 48.398438 C 77.664062 48.292969 77.808594 48.140625 77.988281 47.90625 C 73.777344 46.082031 64.339844 54.898438 60.988281 57.117188 C 52.136719 62.996094 48.109375 69.414062 41.558594 77.304688 C 32.914062 87.707031 23.8125 97.472656 18.101562 110.019531 C 14.734375 117.417969 12.519531 125.148438 10.035156 132.867188 C 7.847656 139.6875 4.066406 146.65625 3.011719 153.738281 C 2.015625 160.453125 0 173.296875 3.804688 179.542969 C 8.519531 187.289062 20.78125 185.15625 28.167969 184.070312 C 35.710938 182.960938 42.496094 178.972656 50.125 178.539062 C 55.871094 178.214844 61.742188 179.007812 67.453125 179.542969 C 74.941406 180.253906 82.652344 180.796875 90.046875 182.0625 C 91.492188 182.3125 93.929688 183.398438 95.378906 182.96875 C 96.917969 182.515625 96.601562 181.316406 97.597656 180.828125 C 104.085938 177.636719 116.945312 184.183594 123.027344 187.253906 C 128.542969 190.035156 133.84375 191.078125 140.101562 190.601562 C 144.980469 190.234375 150.566406 187.992188 155.523438 188.949219 C 158.464844 189.523438 160.050781 191.628906 163.113281 191.136719 C 165.152344 190.828125 167.542969 188.949219 169.699219 188.519531 Z M 194.773438 362.996094 C 189.332031 369.253906 182.574219 378.964844 173.148438 375.824219 C 167.617188 373.984375 162.894531 368.054688 162.957031 362.089844 C 163.015625 355.429688 169.203125 351.007812 170.109375 344.824219 C 171.195312 337.414062 166.636719 330.234375 168.144531 322.480469 C 169.359375 316.234375 173.992188 308.390625 178.996094 304.367188 C 180.605469 303.078125 186.570312 302.25 188.585938 302.703125 C 189.324219 301.976562 195.996094 304.097656 197.84375 305.191406 C 203.050781 308.253906 207.523438 312.921875 209.359375 318.785156 C 214.6875 335.824219 205.425781 350.730469 194.773438 362.996094 Z M 194.773438 362.996094 " fill-opacity="1" fill-rule="nonzero"/><path fill="#d5986c" d="M 274.804688 128.507812 C 275.589844 130.066406 285.285156 142.621094 279.183594 142.425781 C 278.011719 142.386719 271.773438 131.410156 270.722656 129.503906 C 272.339844 133.726562 276.730469 140.832031 273.695312 143.925781 C 272.972656 143.96875 272.242188 143.941406 271.523438 143.828125 C 271.425781 143.554688 271.335938 143.214844 271.199219 142.800781 C 270.632812 141.066406 270.171875 139.203125 269.390625 137.550781 C 268.914062 136.546875 267.644531 134.429688 266.332031 134.769531 C 265.617188 134.21875 264.742188 133.839844 263.625 133.742188 C 262.742188 137.105469 262.914062 140.757812 261.882812 144.039062 C 256.917969 145.554688 259.722656 139.777344 259.128906 137.089844 C 258.484375 134.203125 257.375 133.90625 255.625 131.417969 C 248.625 136.984375 242.261719 145.382812 236.402344 152.132812 C 232.199219 156.980469 224.878906 160.914062 218.496094 161.929688 C 215.257812 162.445312 215.90625 162.753906 214.058594 160.128906 C 212.753906 158.273438 211.847656 155.851562 212.25 153.519531 C 213.3125 147.289062 222.757812 142.347656 227.082031 138.386719 C 230.25 135.492188 239.734375 123.859375 246.875 118.691406 C 247.855469 117.320312 249.410156 116.46875 251.082031 116.152344 C 252.667969 115.335938 254.320312 115.382812 256.09375 115.523438 C 261.59375 115.601562 267.1875 117.042969 271.5625 120.140625 C 274.8125 122.449219 286.992188 130.273438 285.25 134.941406 C 284.722656 135.078125 284.132812 135.097656 283.4375 134.957031 C 281.097656 132.253906 278.148438 129.949219 274.804688 128.507812 Z M 366.527344 160.074219 C 359.699219 150.382812 349.421875 143.941406 342.628906 134.117188 C 340.820312 131.5 339.210938 129.222656 337.371094 127.367188 C 338.375 125.609375 339.0625 123.6875 338.835938 122.132812 C 337.199219 121.316406 339.523438 113.972656 339.21875 111.242188 C 338.765625 107.183594 336.488281 103.992188 335.304688 100.21875 C 333.507812 94.472656 333.53125 95.226562 327.480469 94.847656 C 321.074219 94.449219 309.6875 95.777344 306.777344 103.152344 C 304.226562 101.953125 302.6875 100.753906 299.941406 103.613281 C 298.152344 105.476562 296.167969 111.40625 300.777344 110.492188 C 299.109375 114.929688 295.207031 116.1875 292.816406 120.050781 C 295.625 122.714844 303.289062 125.527344 306.007812 126.296875 C 303.378906 128.152344 300.949219 130.324219 298.070312 131.871094 C 295.789062 133.09375 293.109375 133.898438 291.578125 136.074219 C 294.855469 141.195312 302.460938 134.875 306.382812 132.527344 C 302.566406 137.179688 299.925781 140.214844 298.484375 146.40625 C 298.957031 146.648438 299.507812 146.867188 300.074219 147.0625 C 301.078125 146.917969 301.960938 146.582031 302.890625 146.148438 C 305.128906 141.957031 306.851562 137.664062 311.128906 134.886719 C 309.507812 137.996094 302.390625 147.734375 309.257812 149.324219 C 311.386719 147.886719 312.171875 144.589844 313.21875 142.273438 C 315 138.359375 314.644531 138.9375 318.660156 138.078125 C 321.691406 137.429688 324.742188 134.5625 327.382812 134.132812 C 332.828125 133.242188 335.886719 146.066406 337.613281 149.847656 C 341.378906 158.070312 343.839844 166.578125 347.738281 174.707031 C 349.785156 178.972656 354.128906 183.84375 358.46875 186.097656 C 363.273438 188.589844 367.9375 186.144531 370.441406 181.671875 C 375.007812 173.523438 371.527344 167.171875 366.527344 160.074219 Z M 79.691406 292.527344 C 76.320312 292.164062 74.140625 294.351562 70.964844 294.367188 C 69.242188 294.375 67.101562 293.695312 65.554688 293.167969 C 58.929688 290.910156 51.457031 286.347656 46.148438 281.933594 C 44.726562 280.75 43.511719 279.613281 42.246094 278.796875 C 41.445312 278.773438 40.644531 278.675781 39.875 278.429688 C 38.351562 277.945312 37.003906 277.214844 35.492188 276.769531 C 34.617188 276.875 33.757812 277.101562 33.03125 277.453125 C 32.15625 277.882812 31.132812 278.820312 30.476562 279.90625 C 29.804688 280.578125 29.546875 281.792969 29.636719 282.894531 C 28.144531 282.886719 26.582031 283.882812 25.773438 285.097656 C 25.011719 286.234375 24.953125 288.242188 25.992188 289.230469 C 25.941406 289.261719 25.878906 289.296875 25.851562 289.351562 C 23.902344 290.261719 24.816406 294.609375 26.746094 295.527344 C 25.992188 296.222656 26 297.503906 26.347656 298.410156 C 26.703125 299.335938 27.578125 299.765625 28.5 299.804688 C 28.535156 299.859375 28.558594 299.925781 28.597656 299.980469 C 27.488281 302.609375 31.027344 303.492188 33.175781 302.679688 C 34.382812 307.3125 61.148438 318.460938 63.191406 320.640625 C 66.578125 324.261719 68.003906 332.269531 73.394531 327.253906 C 77.835938 323.105469 80.175781 316.289062 83.78125 311.472656 C 85.230469 309.542969 90.4375 307.105469 90.511719 304.792969 C 90.597656 301.140625 82.785156 292.859375 79.691406 292.527344 Z M 79.691406 292.527344 " fill-opacity="1" fill-rule="nonzero"/><path fill="#d5986c" d="M 132.804688 43.820312 C 130.109375 48.414062 128.804688 52.175781 131.621094 57.472656 C 131.589844 57.496094 131.558594 57.511719 131.527344 57.53125 C 131.6875 57.949219 131.726562 58.324219 131.671875 58.648438 C 131.648438 59.523438 131.296875 60.375 130.398438 60.574219 C 130.367188 60.582031 130.335938 60.566406 130.308594 60.574219 C 129.832031 60.777344 129.371094 60.707031 128.972656 60.480469 C 128.8125 60.445312 128.65625 60.390625 128.503906 60.339844 C 127.976562 60.261719 127.445312 60.210938 126.910156 60.21875 C 126.820312 60.21875 126.753906 60.195312 126.691406 60.15625 C 125.6875 60.882812 124.941406 61.863281 124.796875 63.5 C 123.976562 63.53125 123.472656 64.09375 122.527344 64.027344 C 122.609375 64.527344 121.960938 65.519531 121.042969 66.628906 C 121.132812 66.707031 121.183594 66.820312 121.183594 66.960938 C 121.230469 67.007812 121.269531 67.066406 121.296875 67.144531 C 121.8125 68.5625 120.195312 69.941406 118.882812 69.253906 C 118.816406 69.21875 118.769531 69.179688 118.730469 69.125 C 118.726562 69.125 118.71875 69.125 118.703125 69.125 C 117.660156 70.136719 116.679688 70.976562 116.152344 71.277344 C 112.566406 73.367188 107.4375 69.414062 103.316406 69.609375 C 102.285156 72.070312 100.851562 74.59375 100.132812 77.214844 C 99.953125 77.273438 99.777344 77.394531 99.644531 77.589844 C 99.539062 77.742188 99.4375 77.890625 99.339844 78.042969 C 92.84375 71.09375 82.558594 59.246094 81.964844 47.929688 C 81.683594 42.574219 81.632812 35.070312 85.179688 31.101562 C 89.570312 26.199219 97.28125 24.554688 103.507812 23.769531 C 110.25 22.917969 127.566406 21.402344 132.101562 28.515625 C 134.707031 32.59375 135.1875 39.761719 132.804688 43.820312 Z M 172.574219 141.511719 C 170.296875 139.445312 166.019531 135.363281 163.25 134.480469 C 160.164062 133.492188 156.21875 137.398438 156.917969 141.066406 C 156.894531 141.125 156.882812 141.195312 156.890625 141.261719 C 156.890625 141.277344 156.894531 141.300781 156.894531 141.316406 C 156.894531 141.445312 156.902344 141.578125 156.925781 141.714844 C 156.828125 141.835938 156.78125 141.988281 156.867188 142.144531 C 157.242188 142.882812 157.613281 143.625 158.003906 144.347656 C 158.019531 144.378906 158.035156 144.40625 158.050781 144.429688 C 158.351562 145.238281 158.675781 146.039062 158.992188 146.84375 C 159.460938 149.832031 159.417969 149.953125 161.445312 152.507812 C 163.777344 155.445312 165 161.71875 167.730469 163.839844 C 169.875 165.5 171.421875 165.265625 172.070312 162.542969 C 172.644531 160.152344 170.222656 158.167969 169.429688 156.121094 C 166.683594 148.992188 172.332031 152.570312 175.359375 156.054688 C 177.488281 158.507812 178.175781 164.164062 181.304688 166.117188 C 183.644531 155.097656 180.746094 148.933594 172.574219 141.511719 Z M 196.8125 182.976562 C 194.253906 182.628906 190.878906 179.945312 189.460938 177.816406 C 191.777344 178.789062 198.3125 177.878906 194.917969 174.632812 C 194.035156 173.789062 188.667969 172.355469 187.09375 171.644531 C 182.90625 169.78125 173.804688 169.359375 169.382812 172.777344 C 169.253906 173.050781 169.113281 173.3125 168.960938 173.570312 C 168.789062 174.03125 168.613281 174.496094 168.441406 174.957031 C 168.449219 179.371094 168.976562 184.117188 169.027344 188.511719 C 174.144531 188.792969 178.265625 190.867188 183.230469 191.378906 C 185.976562 191.664062 191.0625 192.074219 193.507812 191.101562 C 194.757812 190.601562 200.5 187.398438 201.195312 186.574219 C 205.050781 182.027344 198.902344 183.261719 196.8125 182.976562 Z M 196.8125 182.976562 " fill-opacity="1" fill-rule="nonzero"/><path fill="#fdf2d5" d="M 242.308594 212.621094 C 242.082031 217.246094 238.839844 218.367188 235.308594 221.054688 C 225.46875 228.53125 216.414062 237.023438 206.039062 243.683594 C 191.378906 253.097656 178.113281 264.503906 163.746094 274.445312 C 148.746094 284.816406 134.886719 296.046875 120.867188 307.761719 C 108.296875 318.269531 94.496094 328.371094 79.210938 334.640625 C 73.875 336.828125 71.90625 337.460938 69.25 332.4375 C 65.433594 325.226562 64.203125 317.167969 60.347656 309.996094 C 59.3125 306.820312 61.507812 306.707031 63.386719 305.800781 C 71.039062 302.128906 77.257812 296.304688 84.871094 292.277344 C 88.105469 290.566406 91.304688 288.769531 94.464844 286.921875 C 90.90625 282.921875 86.089844 280.269531 80.378906 280.742188 C 78.054688 281.753906 78.929688 279.160156 80.78125 277.320312 C 82.742188 275.371094 86.296875 274.363281 88.574219 272.558594 C 91.464844 270.273438 91.054688 269.707031 94.007812 269.738281 C 96.527344 269.769531 100.074219 271.425781 102.433594 272.429688 C 105.171875 273.601562 108.144531 275.039062 110.984375 276.609375 C 111.59375 276.210938 112.207031 275.804688 112.816406 275.402344 C 126.113281 266.539062 138.789062 256.363281 151.894531 247.101562 C 145.011719 241.601562 135.257812 240.320312 125.792969 239.8125 C 129.039062 236.132812 133.378906 232.398438 137.292969 229.457031 C 138.476562 228.914062 137.925781 229.304688 136.984375 228.972656 C 139.699219 226.628906 143.472656 228.597656 146.582031 229.058594 C 152.105469 229.878906 157.726562 230.355469 163.203125 231.351562 C 166.425781 231.929688 169.769531 232.234375 172.660156 233.410156 C 178.179688 229.75 183.628906 225.925781 189.03125 222.074219 C 187.222656 220.132812 185.03125 218.339844 182.882812 216.84375 C 179.863281 214.75 177.304688 213.027344 173.625 212.234375 C 169.269531 211.300781 162.917969 212.449219 158.980469 210.53125 C 161.824219 207.03125 167.285156 203.953125 170.960938 201.011719 C 170.09375 200.988281 169.617188 201.019531 169.15625 201.035156 C 176.25 198.757812 183.597656 202.429688 190.441406 204.21875 C 195.785156 205.613281 201.398438 207.070312 206.28125 209.800781 C 210.265625 207.007812 214.277344 204.203125 218.382812 201.570312 C 217.574219 200.257812 216.714844 198.984375 215.871094 197.804688 C 212.519531 193.113281 207.496094 182.976562 201.019531 183.785156 C 200.816406 184.085938 184.542969 182.175781 184.148438 178.164062 C 184 176.609375 187.335938 174.066406 188.203125 172.769531 C 189.542969 170.75 190.828125 168.167969 191.90625 165.785156 C 194.140625 169.761719 199.875 170.515625 203.660156 173.085938 C 206.289062 174.867188 208.679688 176.949219 211.449219 178.503906 C 219.023438 182.742188 227.84375 185.835938 233.308594 192.976562 C 235.3125 192.164062 236.855469 192.554688 238.394531 196.214844 C 240.308594 200.761719 242.550781 207.695312 242.308594 212.621094 Z M 242.308594 212.621094 " fill-opacity="1" fill-rule="nonzero"/><path fill="#57271a" d="M 80.757812 59.34375 C 83.859375 62.042969 83.972656 65.4375 89.304688 64.652344 C 92.648438 64.164062 93.417969 63.539062 93.921875 60.367188 C 93.984375 60 93.976562 59.636719 93.9375 59.289062 C 94.105469 59.433594 94.285156 59.570312 94.488281 59.683594 C 95.25 60.089844 96.121094 59.9375 96.882812 60.269531 C 97.394531 60.488281 97.695312 60.738281 97.871094 61.011719 C 97.808594 63.800781 97.539062 66.601562 97.742188 69.390625 C 97.816406 70.402344 98.050781 71.335938 98.328125 72.25 C 98.488281 73.253906 98.722656 74.25 99.0625 75.199219 C 99.160156 75.546875 99.265625 75.894531 99.378906 76.234375 C 99.460938 76.472656 99.875 76.503906 99.9375 76.234375 C 99.945312 76.640625 99.960938 77.046875 99.96875 77.433594 C 99.976562 77.71875 100.421875 77.726562 100.414062 77.4375 C 100.421875 76.902344 100.425781 76.359375 100.425781 75.824219 C 100.570312 75.507812 100.699219 75.191406 100.835938 74.875 C 100.972656 74.988281 101.167969 75.011719 101.28125 74.8125 C 101.296875 74.792969 101.308594 74.761719 101.324219 74.730469 C 102.222656 73.175781 102.902344 71.511719 103.945312 70.054688 C 104.0625 70.113281 104.183594 70.175781 104.296875 70.226562 C 104.722656 70.433594 105.023438 69.8125 104.621094 69.578125 C 104.507812 69.519531 104.402344 69.449219 104.289062 69.390625 C 104.253906 69.210938 104.042969 69.082031 103.851562 69.132812 C 102.625 68.425781 101.410156 67.6875 100.351562 66.707031 C 99.558594 65.972656 98.8125 65.089844 98.578125 64.011719 C 98.382812 63.085938 98.902344 62.367188 98.910156 61.492188 C 98.910156 61.03125 98.765625 60.695312 98.511719 60.414062 C 98.480469 60.292969 98.398438 60.226562 98.292969 60.203125 C 98.148438 60.089844 97.984375 59.984375 97.792969 59.886719 C 96.527344 59.246094 95.09375 59.699219 94.023438 58.519531 C 93.78125 58.257812 93.597656 57.949219 93.433594 57.617188 C 93.359375 57.457031 93.289062 57.304688 93.207031 57.15625 C 93.03125 56.757812 92.875 56.347656 92.714844 55.972656 C 92.65625 55.828125 92.519531 55.773438 92.398438 55.789062 C 92.082031 55.285156 91.960938 55.027344 92.398438 55.132812 C 89.410156 50.277344 87.722656 45.125 94.699219 42 C 100.519531 39.398438 106.054688 44.753906 107.695312 50.261719 C 111.15625 50.941406 112.886719 48.730469 114.882812 46.566406 C 117.199219 44.0625 116.867188 44.1875 120.226562 42.929688 C 123.839844 41.570312 124.453125 40.433594 126.84375 37.90625 C 130.132812 34.429688 129.589844 36.894531 132.675781 35.898438 C 144.324219 32.136719 135.378906 12.742188 129.792969 7.929688 C 120.671875 0.0546875 105.46875 -4.035156 94.898438 2.527344 C 90.835938 5.046875 86.476562 7.648438 83.210938 11.210938 C 80.128906 14.574219 79.148438 18.792969 76.359375 22.269531 C 73.363281 26.003906 67.523438 26.296875 65.636719 30.28125 C 62.550781 36.789062 67.484375 49.769531 72.109375 54.144531 C 74.714844 56.613281 78.386719 57.285156 80.757812 59.34375 Z M 99.113281 72.292969 C 98.988281 71.359375 98.917969 70.425781 98.992188 69.683594 C 99.007812 69.761719 99.015625 69.835938 99.03125 69.910156 C 98.992188 71.019531 99.128906 72.152344 99.394531 73.222656 C 99.304688 72.914062 99.210938 72.605469 99.113281 72.292969 Z M 100.101562 71.789062 C 100.082031 70.9375 99.996094 70.09375 99.839844 69.253906 C 99.953125 69.464844 100.074219 69.675781 100.203125 69.875 C 100.171875 70.3125 100.179688 70.75 100.214844 71.195312 C 100.1875 71.398438 100.140625 71.585938 100.101562 71.789062 Z M 101.175781 72.640625 C 101.136719 72.746094 101.097656 72.851562 101.0625 72.964844 C 101.136719 72.386719 101.167969 71.730469 101.105469 71.074219 C 101.257812 71.238281 101.429688 71.382812 101.597656 71.527344 C 101.453125 71.902344 101.308594 72.273438 101.175781 72.640625 Z M 102.207031 69.464844 C 102.003906 69.21875 101.808594 68.976562 101.613281 68.726562 C 101.921875 68.929688 102.238281 69.121094 102.546875 69.300781 C 102.335938 69.738281 102.132812 70.183594 101.945312 70.636719 C 101.839844 70.214844 101.703125 69.796875 101.523438 69.40625 C 101.65625 69.398438 101.800781 69.464844 101.972656 69.648438 C 102.101562 69.78125 102.328125 69.617188 102.207031 69.464844 Z M 101.160156 69.675781 C 101.167969 69.683594 101.167969 69.691406 101.175781 69.699219 C 101.304688 70.023438 101.410156 70.347656 101.5 70.6875 C 101.703125 71.199219 101.695312 71.300781 101.476562 70.980469 C 101.339844 70.945312 101.191406 70.824219 101.046875 70.65625 C 101.023438 70.484375 100.984375 70.3125 100.949219 70.136719 C 101.007812 69.957031 101.078125 69.804688 101.160156 69.675781 Z M 100.933594 73.351562 C 100.753906 73.902344 100.570312 74.488281 100.441406 74.898438 C 100.457031 74.277344 100.472656 73.652344 100.511719 73.035156 C 100.511719 73.011719 100.511719 72.980469 100.519531 72.953125 C 100.539062 73.050781 100.5625 73.148438 100.585938 73.238281 C 100.625 73.394531 100.8125 73.425781 100.933594 73.351562 Z M 100.050781 67.550781 C 100.253906 67.785156 100.464844 68.019531 100.675781 68.257812 C 100.585938 68.25 100.496094 68.289062 100.464844 68.386719 C 100.433594 68.484375 100.421875 68.589844 100.390625 68.6875 C 100.277344 68.5 100.140625 68.320312 99.988281 68.160156 C 100.074219 68.078125 100.117188 67.941406 100.058594 67.835938 C 99.777344 67.316406 99.492188 66.976562 99.070312 66.757812 C 99.015625 66.636719 98.964844 66.507812 98.910156 66.386719 C 99.242188 66.796875 99.628906 67.1875 100.050781 67.550781 Z M 98.753906 67.429688 C 98.746094 67.453125 98.738281 67.480469 98.746094 67.503906 C 98.753906 67.664062 98.769531 67.8125 98.78125 67.972656 C 98.773438 67.988281 98.769531 67.996094 98.769531 68.011719 C 98.691406 68.433594 98.632812 68.855469 98.585938 69.285156 C 98.519531 68.992188 98.457031 68.742188 98.421875 68.515625 C 98.40625 68.136719 98.390625 67.753906 98.390625 67.371094 C 98.457031 67.261719 98.578125 67.277344 98.753906 67.429688 Z M 215.613281 267.476562 C 215.484375 267.058594 216.105469 266.796875 216.238281 267.21875 C 218.074219 273.019531 216.964844 279.265625 218.878906 285.050781 C 219.03125 285.503906 218.359375 285.820312 218.203125 285.359375 C 216.164062 279.574219 217.417969 273.304688 215.613281 267.476562 Z M 234.832031 171.699219 C 236.65625 172.746094 238.265625 174.121094 240.054688 175.230469 C 240.316406 175.394531 240.046875 175.847656 239.78125 175.695312 C 237.941406 174.648438 236.324219 173.277344 234.484375 172.226562 C 234.128906 172.023438 234.484375 171.503906 234.832031 171.699219 Z M 227.234375 180.3125 C 233.707031 180.464844 234.96875 187.507812 237.148438 192.285156 C 237.335938 192.691406 236.734375 192.972656 236.523438 192.578125 C 234.226562 188.257812 233.441406 181.195312 227.261719 181.03125 C 226.8125 181.015625 226.773438 180.296875 227.234375 180.3125 Z M 188.65625 186.160156 C 192.742188 186.527344 196.578125 186.542969 200.621094 185.765625 C 200.847656 185.722656 200.914062 186.089844 200.703125 186.160156 C 196.742188 187.402344 192.652344 187.164062 188.570312 186.761719 C 188.179688 186.734375 188.261719 186.128906 188.65625 186.160156 Z M 227.996094 249.402344 C 230.9375 257.828125 232.96875 266.5625 235.425781 275.132812 C 235.53125 275.507812 234.898438 275.691406 234.777344 275.328125 C 231.964844 266.847656 230.28125 258.039062 227.371094 249.574219 C 227.242188 249.183594 227.859375 249.007812 227.996094 249.402344 Z M 169.445312 163.445312 C 169.542969 163.394531 169.566406 163.296875 169.542969 163.207031 C 169.625 163.25 169.722656 163.257812 169.828125 163.207031 C 172.144531 162.007812 169.164062 158.703125 167.429688 159.804688 C 166.570312 160.347656 166.386719 161.554688 166.71875 162.453125 C 167.15625 163.597656 168.363281 164.027344 169.445312 163.445312 Z M 167.488281 160.59375 C 167.996094 159.945312 168.742188 160.292969 169.285156 160.714844 C 169.957031 161.246094 170.5 162.132812 169.511719 162.640625 C 169.332031 162.730469 169.316406 162.910156 169.390625 163.046875 C 169.359375 163.039062 169.332031 163.023438 169.292969 163.03125 C 168.589844 163.183594 167.84375 163.214844 167.429688 162.511719 C 167.105469 161.960938 167.082031 161.125 167.488281 160.59375 Z M 200.136719 188.046875 C 199.050781 189.578125 196.15625 189.902344 194.472656 190.246094 C 193.355469 190.480469 192.207031 190.746094 191.0625 190.777344 C 189.113281 190.828125 187.191406 190.253906 185.273438 189.984375 C 184.972656 189.9375 185.0625 189.476562 185.363281 189.523438 C 188.414062 189.945312 191.082031 190.511719 194.148438 189.863281 C 196.117188 189.449219 198.207031 189.027344 199.84375 187.804688 C 200.003906 187.691406 200.273438 187.855469 200.136719 188.046875 Z M 181.238281 176.359375 C 182.007812 177.003906 182.769531 177.628906 183.578125 178.214844 C 184.226562 178.691406 184.941406 179.136719 185.507812 179.71875 C 185.71875 179.929688 185.410156 180.214844 185.183594 180.085938 C 184.421875 179.648438 183.726562 179.054688 183.03125 178.519531 C 182.460938 178.082031 181.894531 177.621094 181.367188 177.128906 C 181.296875 177.128906 181.230469 177.109375 181.175781 177.039062 C 181.09375 176.925781 181.003906 176.8125 180.90625 176.714844 C 180.714844 176.503906 181.027344 176.1875 181.238281 176.359375 Z M 176.191406 150.003906 C 177.351562 151.046875 178.4375 152.175781 179.09375 153.601562 C 180.242188 156.105469 180.882812 158.785156 181.507812 161.449219 C 180.703125 161.441406 180.054688 162.066406 179.886719 162.925781 C 179.667969 164.050781 180.316406 165.023438 181.359375 165.421875 C 182.164062 165.734375 182.753906 165.273438 182.808594 164.433594 C 182.851562 163.671875 182.617188 162.707031 182.144531 162.042969 C 182.136719 162.015625 182.136719 161.984375 182.128906 161.945312 C 182.261719 161.863281 182.285156 161.628906 182.089844 161.554688 C 182.082031 161.554688 182.082031 161.554688 182.074219 161.546875 C 181.660156 158.839844 180.714844 156.152344 179.714844 153.640625 C 179.191406 152.328125 178.511719 151.308594 177.515625 150.308594 C 176.761719 149.550781 175.425781 148.84375 174.710938 147.984375 C 174.742188 147.871094 174.710938 147.734375 174.582031 147.667969 C 174.507812 147.613281 174.425781 147.5625 174.347656 147.5 C 174.09375 147.289062 173.765625 147.652344 173.894531 147.90625 C 174.304688 148.753906 175.511719 149.394531 176.191406 150.003906 Z M 181.773438 164.925781 C 180.082031 164.757812 180.105469 162.097656 181.410156 161.921875 C 181.410156 161.960938 181.410156 162 181.433594 162.035156 C 181.652344 162.414062 182.875 165.03125 181.773438 164.925781 Z M 285.714844 193.859375 C 286.09375 194.003906 285.949219 194.585938 285.542969 194.480469 C 276.035156 191.921875 265.925781 195.890625 257.445312 200.054688 C 257.144531 200.199219 256.878906 199.761719 257.179688 199.609375 C 261.632812 197.382812 266.257812 195.4375 271.085938 194.179688 C 275.675781 192.976562 281.136719 192.109375 285.714844 193.859375 Z M 294.679688 188.996094 C 295.488281 190.253906 296.386719 191.453125 297.207031 192.707031 C 297.417969 193.023438 296.921875 193.332031 296.710938 193.023438 C 296.03125 192.042969 289.996094 184.28125 293.503906 184.3125 C 293.867188 184.3125 293.796875 184.855469 293.449219 184.863281 C 292.003906 184.90625 294.339844 188.46875 294.679688 188.996094 Z M 300.980469 144.671875 C 300.996094 144.226562 300.949219 143.417969 300.460938 143.199219 C 299.878906 142.9375 299.390625 143.773438 299.125 144.144531 C 298.988281 144.332031 298.65625 144.160156 298.726562 143.941406 C 298.945312 143.238281 299.585938 142.453125 300.40625 142.582031 C 301.148438 142.695312 301.457031 143.457031 301.523438 144.113281 C 301.597656 144.808594 301.53125 145.644531 300.875 146.042969 C 300.292969 146.398438 299.554688 146.285156 298.914062 146.203125 C 298.605469 146.164062 298.671875 145.699219 298.980469 145.726562 C 299.410156 145.765625 299.894531 145.8125 300.316406 145.691406 C 300.800781 145.554688 300.957031 145.148438 300.980469 144.671875 Z M 292.441406 135.71875 C 292.242188 135.410156 292.75 135.160156 292.945312 135.460938 C 293.546875 136.390625 294.679688 135.863281 295.328125 135.28125 C 296.160156 134.527344 296.113281 133.847656 295.871094 132.84375 C 295.789062 132.488281 296.332031 132.398438 296.421875 132.738281 C 296.582031 133.328125 296.746094 133.96875 296.535156 134.5625 C 296.324219 135.152344 295.8125 135.664062 295.308594 136.011719 C 294.332031 136.683594 293.132812 136.804688 292.441406 135.71875 Z M 299.441406 107.078125 C 299.667969 106.179688 300.121094 105.242188 301.019531 104.851562 C 301.824219 104.496094 302.722656 104.683594 303.53125 104.933594 C 303.855469 105.03125 303.914062 105.597656 303.5 105.589844 C 303.152344 105.589844 303.167969 105.589844 302.820312 105.5 C 302.753906 105.476562 302.714844 105.441406 302.699219 105.386719 C 302.679688 105.378906 302.648438 105.378906 302.617188 105.371094 C 302.40625 106.230469 301.820312 106.933594 301.261719 107.605469 C 301.035156 107.867188 300.808594 108.140625 300.589844 108.410156 C 300.6875 108.636719 300.574219 108.976562 300.25 108.976562 C 300.242188 108.976562 300.234375 108.96875 300.226562 108.96875 C 300.144531 109.128906 300.058594 109.277344 299.945312 109.398438 C 299.832031 109.511719 299.59375 109.511719 299.546875 109.324219 C 299.410156 108.789062 300.007812 108.207031 300.332031 107.832031 C 300.996094 107.0625 301.878906 106.292969 302.15625 105.289062 C 301.894531 105.257812 301.628906 105.265625 301.375 105.335938 C 300.496094 105.566406 300.089844 106.433594 299.75 107.183594 C 299.675781 107.363281 299.394531 107.25 299.441406 107.078125 Z M 242.617188 201.886719 C 244.027344 196.085938 245.109375 190.121094 247.539062 184.636719 C 248.699219 182.011719 250.125 179.671875 252.179688 177.652344 C 254.214844 175.644531 256.480469 173.902344 258.320312 171.707031 C 258.644531 171.3125 259.246094 171.835938 258.914062 172.226562 C 257.203125 174.269531 255.128906 175.929688 253.195312 177.765625 C 250.933594 179.921875 249.304688 182.394531 248.058594 185.261719 C 245.703125 190.648438 244.707031 196.484375 243.253906 202.152344 C 243.144531 202.566406 242.511719 202.308594 242.617188 201.886719 Z M 332.136719 99.1875 C 332.042969 98.757812 332.347656 98.394531 332.65625 98.144531 C 332.714844 98.101562 332.785156 98.085938 332.84375 98.078125 C 332.84375 98.007812 332.84375 97.941406 332.84375 97.875 C 332.859375 97.421875 333.539062 97.445312 333.546875 97.890625 C 333.554688 98.507812 333.539062 99.132812 333.457031 99.746094 C 333.425781 99.976562 333.167969 100.039062 332.988281 99.976562 C 332.609375 99.859375 332.226562 99.617188 332.136719 99.1875 Z M 329.304688 98.320312 C 329.878906 98.085938 330.160156 97.382812 330.460938 96.894531 C 330.609375 96.644531 330.378906 96.378906 330.113281 96.417969 C 329.3125 96.523438 328.597656 96.742188 327.925781 97.1875 C 327.886719 97.210938 327.855469 97.242188 327.84375 97.269531 C 327.644531 97.339844 327.523438 97.585938 327.699219 97.785156 C 328.0625 98.199219 328.753906 98.546875 329.304688 98.320312 Z M 329.59375 97.097656 C 329.496094 97.261719 329.382812 97.421875 329.246094 97.550781 C 328.980469 97.804688 328.710938 97.679688 328.453125 97.511719 C 328.808594 97.316406 329.191406 97.171875 329.59375 97.097656 Z M 321.316406 101.886719 C 323.398438 101.984375 325.066406 103.019531 326.960938 103.757812 C 329.15625 104.609375 331.15625 105.792969 333.199219 106.957031 C 333.472656 107.105469 333.726562 106.8125 333.710938 106.5625 C 333.5625 103.804688 333.320312 102.046875 330.460938 101.179688 C 329.035156 100.742188 327.609375 100.175781 326.128906 99.941406 C 324.46875 99.683594 323.148438 100.46875 321.578125 100.875 C 321.429688 100.914062 321.359375 101.027344 321.351562 101.148438 C 320.886719 101.140625 320.839844 101.863281 321.316406 101.886719 Z M 325.804688 100.574219 C 326.996094 100.710938 328.175781 101.238281 329.3125 101.585938 C 330.640625 102 331.910156 102.171875 332.550781 103.554688 C 332.890625 104.292969 332.925781 105.136719 332.957031 105.960938 C 330.980469 104.84375 329.0625 103.773438 326.9375 102.933594 C 325.414062 102.332031 324.054688 101.59375 322.492188 101.277344 C 323.570312 100.921875 324.644531 100.445312 325.804688 100.574219 Z M 328.394531 107.882812 C 328.589844 108.253906 328.210938 108.617188 327.855469 108.375 C 327.125 107.867188 326.46875 107.371094 325.640625 107.007812 C 324.710938 106.59375 323.738281 106.277344 322.824219 105.832031 C 322.363281 105.605469 322.671875 104.875 323.140625 105.09375 C 324.121094 105.554688 325.164062 105.878906 326.152344 106.308594 C 326.953125 106.648438 327.96875 107.089844 328.394531 107.882812 Z M 265.335938 126.386719 C 265.933594 125.617188 271.425781 130.492188 271.773438 131.019531 C 271.871094 131.167969 271.71875 131.457031 271.523438 131.335938 C 271.140625 131.109375 265.707031 126.667969 265.691406 126.6875 C 265.488281 126.898438 265.148438 126.628906 265.335938 126.386719 Z M 259.875 142.0625 C 259.90625 141.65625 260.078125 141.238281 260.441406 141.027344 C 261 140.703125 261.671875 141 262.175781 141.285156 C 262.46875 141.449219 262.242188 141.886719 261.933594 141.753906 C 261.59375 141.601562 261 141.367188 260.703125 141.65625 C 260.523438 141.835938 260.523438 142.226562 260.574219 142.542969 C 260.636719 142.90625 260.789062 143.253906 261.027344 143.496094 C 261.082031 143.546875 261.164062 143.570312 261.179688 143.5625 C 261.359375 143.488281 261.558594 143.230469 261.699219 143.019531 C 261.828125 142.824219 262.191406 142.960938 262.128906 143.199219 C 262.003906 143.75 261.585938 144.4375 260.914062 144.226562 C 260.117188 143.960938 259.820312 142.800781 259.875 142.0625 Z M 261.125 129.058594 C 261.050781 128.703125 261.601562 128.605469 261.675781 128.953125 C 262.007812 130.453125 263.082031 131.8125 263.457031 133.296875 C 263.503906 133.257812 263.5625 133.242188 263.648438 133.296875 C 263.972656 133.492188 264.4375 133.597656 264.792969 133.710938 C 265.292969 133.871094 265.78125 134.042969 266.265625 134.253906 C 266.476562 134.34375 266.347656 134.675781 266.128906 134.625 C 265.609375 134.503906 265.09375 134.398438 264.589844 134.21875 C 264.234375 134.097656 263.796875 133.96875 263.527344 133.679688 C 263.546875 133.808594 263.570312 133.929688 263.578125 134.058594 C 263.59375 134.285156 263.277344 134.421875 263.171875 134.1875 C 262.777344 133.304688 262.453125 132.398438 262.03125 131.515625 C 261.664062 130.730469 261.316406 129.933594 261.125 129.058594 Z M 249.160156 124.191406 C 250.464844 124.417969 250.699219 127.5625 251.03125 128.523438 C 251.558594 130.039062 252.304688 130.324219 253.851562 130.582031 C 254.820312 130.738281 255.65625 130.964844 256.222656 131.824219 C 256.433594 132.144531 255.9375 132.40625 255.714844 132.113281 C 254.546875 130.542969 251.914062 131.789062 250.78125 129.949219 C 250.320312 129.191406 250.109375 128.289062 249.882812 127.449219 C 249.710938 126.816406 249.558594 125.308594 248.941406 124.929688 C 248.546875 124.691406 248.632812 124.101562 249.160156 124.191406 Z M 284.125 130.835938 C 284.523438 130.625 284.855469 131.246094 284.457031 131.457031 C 283.511719 131.953125 283.730469 133.484375 284.585938 133.96875 C 284.621094 133.898438 284.667969 133.832031 284.722656 133.757812 C 284.917969 133.460938 285.363281 133.773438 285.234375 134.074219 C 285.171875 134.1875 285.136719 134.316406 285.128906 134.441406 C 285.121094 134.683594 284.894531 134.820312 284.675781 134.769531 C 282.96875 134.359375 282.5625 131.660156 284.125 130.835938 Z M 278.964844 140.5625 C 278.300781 139.609375 278.730469 138.386719 279.492188 137.648438 C 279.628906 137.511719 279.777344 137.566406 279.875 137.679688 C 279.898438 137.664062 279.9375 137.65625 279.96875 137.648438 C 280.285156 137.617188 280.480469 137.695312 280.660156 137.964844 C 280.773438 138.132812 280.539062 138.296875 280.390625 138.207031 C 280.269531 138.175781 280.15625 138.15625 280.035156 138.125 C 279.976562 138.132812 279.921875 138.117188 279.875 138.085938 C 279.871094 138.101562 279.863281 138.117188 279.847656 138.125 C 279.363281 138.601562 279.070312 139.347656 279.355469 140.003906 C 279.4375 140.199219 279.605469 140.449219 279.847656 140.449219 C 280.132812 140.449219 280.300781 140.117188 280.527344 139.996094 C 280.660156 139.917969 280.894531 139.996094 280.878906 140.183594 C 280.796875 141.226562 279.476562 141.300781 278.964844 140.5625 Z M 284.078125 202.980469 C 284.53125 203.199219 284.15625 203.878906 283.703125 203.660156 C 277.339844 200.664062 269.496094 202.121094 263.082031 204.226562 C 260.207031 205.167969 257.210938 206.316406 254.683594 207.996094 C 251.484375 210.125 249.242188 213.328125 246.707031 216.152344 C 246.414062 216.476562 245.847656 216.082031 246.140625 215.75 C 248.675781 212.929688 250.902344 209.738281 254.0625 207.550781 C 256.902344 205.589844 260.320312 204.308594 263.585938 203.273438 C 270 201.253906 277.757812 199.941406 284.078125 202.980469 Z M 274.722656 142.242188 C 274.949219 142.226562 275.101562 142.515625 274.941406 142.679688 C 274.097656 143.585938 272.058594 143.523438 271.820312 142.101562 C 271.585938 140.71875 272.90625 139.511719 274.164062 139.292969 C 274.375 139.253906 274.496094 139.496094 274.4375 139.671875 C 274.292969 140.046875 274.132812 139.964844 273.804688 140.085938 C 273.152344 140.484375 272.503906 141.027344 272.535156 141.835938 C 272.582031 143.027344 274.097656 142.28125 274.722656 142.242188 Z M 268.332031 123.761719 C 268.074219 123.589844 268.378906 123.21875 268.625 123.390625 C 269.757812 124.175781 270.632812 125.210938 271.507812 126.265625 C 272.445312 127.390625 273.441406 128.257812 274.542969 129.199219 C 274.6875 129.320312 274.542969 129.601562 274.359375 129.53125 C 273.214844 129.132812 272.332031 128.015625 271.578125 127.117188 C 270.566406 125.910156 269.628906 124.667969 268.332031 123.761719 Z M 315.484375 132.066406 C 314.304688 132.980469 313.128906 133.871094 311.996094 134.84375 C 311.6875 135.105469 311.289062 134.640625 311.589844 134.367188 C 312.707031 133.355469 313.84375 132.332031 315.097656 131.492188 C 315.421875 131.273438 315.792969 131.824219 315.484375 132.066406 Z M 190.003906 360.867188 C 190.117188 361.117188 189.785156 361.394531 189.597656 361.160156 C 187.121094 358.175781 184.429688 355.957031 181.09375 353.957031 C 178.226562 352.238281 175.261719 350.660156 172.605469 348.609375 C 172.289062 348.367188 172.644531 347.863281 172.96875 348.105469 C 175.859375 350.285156 179.117188 351.890625 182.195312 353.769531 C 185.070312 355.519531 188.570312 357.683594 190.003906 360.867188 Z M 119.742188 126.621094 C 120.195312 120.886719 124.082031 116.4375 126 111.195312 C 121.886719 113.117188 117.96875 117.34375 116.460938 121.523438 C 116.316406 121.90625 115.707031 121.742188 115.84375 121.347656 C 117.511719 116.6875 121.925781 112.070312 126.503906 110.199219 C 126.753906 110.101562 127.03125 110.378906 126.949219 110.628906 C 125.257812 115.910156 121.320312 120.359375 120.582031 125.925781 C 123.464844 124.199219 126.164062 122.191406 129.128906 120.601562 C 129.890625 120.1875 134.585938 117.578125 134.3125 120.179688 C 134.277344 120.542969 133.769531 120.480469 133.71875 120.164062 C 133.484375 118.761719 127.636719 122.335938 127.007812 122.714844 C 124.738281 124.085938 122.589844 125.664062 120.292969 126.992188 C 120.039062 127.132812 119.722656 126.890625 119.742188 126.621094 Z M 191.316406 354.652344 C 186.671875 348.480469 179.796875 345.441406 173.535156 341.21875 C 173.222656 341.007812 173.480469 340.476562 173.796875 340.6875 C 177.15625 342.890625 180.738281 344.71875 184.097656 346.925781 C 186.890625 348.777344 190.449219 351.097656 191.785156 354.320312 C 191.890625 354.589844 191.527344 354.929688 191.316406 354.652344 Z M 174.875 372.21875 C 171.753906 371.035156 169.707031 368.28125 166.96875 366.496094 C 166.621094 366.269531 166.9375 365.710938 167.285156 365.929688 C 170.03125 367.679688 172.113281 370.265625 175.148438 371.570312 C 175.519531 371.730469 175.246094 372.355469 174.875 372.21875 Z M 194.382812 347.710938 C 191.25 344.929688 187.996094 342.539062 184.453125 340.296875 C 180.730469 337.945312 177.019531 335.589844 173.894531 332.453125 C 173.632812 332.1875 174.03125 331.765625 174.304688 332.03125 C 177.464844 335.078125 181.207031 337.386719 184.90625 339.714844 C 188.367188 341.894531 192.191406 344.128906 194.828125 347.320312 C 195.046875 347.582031 194.621094 347.929688 194.382812 347.710938 Z M 163.339844 224.945312 C 162.96875 225.113281 162.714844 224.546875 163.082031 224.378906 C 169.136719 221.664062 175.957031 222.511719 182.390625 222.609375 C 182.800781 222.617188 182.777344 223.242188 182.371094 223.242188 C 176 223.273438 169.339844 222.277344 163.339844 224.945312 Z M 141.707031 202.308594 C 141.875 202.679688 141.339844 202.941406 141.140625 202.582031 C 139.558594 199.660156 136.3125 198.011719 133.40625 196.703125 C 130.519531 195.40625 127.507812 194.410156 124.566406 193.265625 C 120.929688 191.847656 117.480469 190.027344 113.804688 188.695312 C 109.359375 187.070312 104.828125 185.707031 100.390625 184.070312 C 99.960938 183.910156 100.132812 183.21875 100.5625 183.375 C 105.589844 185.222656 110.75 186.710938 115.753906 188.625 C 119.335938 190 122.714844 191.785156 126.316406 193.128906 C 129.5 194.320312 132.738281 195.429688 135.753906 197.007812 C 138.117188 198.234375 140.582031 199.789062 141.707031 202.308594 Z M 130.714844 222.40625 C 130.828125 222.488281 130.878906 222.675781 130.820312 222.804688 C 129.484375 225.542969 126.488281 227.367188 123.914062 228.785156 C 121.5 230.113281 118.921875 231.253906 116.226562 231.894531 C 115.972656 231.953125 115.789062 231.699219 115.894531 231.472656 C 116.761719 229.617188 118.175781 227.957031 119.828125 226.507812 C 117.714844 227.441406 115.519531 228.09375 113.203125 228.023438 C 112.992188 228.015625 112.777344 227.796875 112.863281 227.578125 C 113.089844 226.96875 113.375 226.386719 113.707031 225.820312 C 112.320312 227.027344 110.960938 228.273438 109.617188 229.539062 C 111.640625 229.539062 113.660156 229.53125 115.667969 229.539062 C 116.136719 229.539062 116.234375 230.273438 115.757812 230.273438 C 113.464844 230.273438 111.15625 230.273438 108.847656 230.265625 C 108.597656 230.507812 108.34375 230.730469 108.101562 230.964844 C 107.828125 231.230469 107.375 230.84375 107.648438 230.574219 C 107.761719 230.46875 107.875 230.363281 107.980469 230.257812 C 100.730469 230.226562 93.433594 230.0625 86.273438 229.238281 C 81.226562 228.65625 76.28125 227.429688 71.203125 227.050781 C 67.078125 226.75 62.867188 226.613281 58.988281 225.015625 C 58.574219 224.839844 58.753906 224.160156 59.175781 224.335938 C 63.386719 226.070312 67.976562 226.054688 72.441406 226.433594 C 76.902344 226.808594 81.246094 227.867188 85.675781 228.429688 C 93.257812 229.40625 101.039062 229.53125 108.742188 229.539062 C 110.894531 227.464844 113.109375 225.460938 115.390625 223.527344 C 117.503906 221.128906 120.347656 219.191406 122.859375 217.554688 C 123.222656 217.320312 123.605469 217.832031 123.257812 218.097656 C 120.792969 219.953125 118.371094 221.867188 116.007812 223.851562 C 115.066406 224.910156 114.28125 226.054688 113.746094 227.316406 C 117.730469 227.210938 121.273438 224.992188 124.753906 223.144531 C 125.265625 222.863281 125.773438 222.609375 126.269531 222.375 C 126.640625 222.199219 126.910156 222.742188 126.558594 222.941406 C 125.0625 223.746094 123.53125 224.660156 121.960938 225.480469 C 119.78125 227.011719 117.828125 228.945312 116.695312 231.164062 C 119.335938 230.398438 121.894531 229.230469 124.253906 227.84375 C 125.582031 227.066406 126.875 226.207031 128.027344 225.179688 C 128.554688 224.710938 129.0625 224.207031 129.492188 223.640625 C 130.066406 222.886719 130.042969 222.683594 129.136719 222.300781 C 128.84375 222.171875 128.992188 221.75 129.304688 221.832031 C 129.890625 221.972656 130.222656 222.066406 130.714844 222.40625 Z M 176.855469 319.789062 C 180.648438 322.335938 184.414062 324.953125 188.230469 327.464844 C 190.570312 329.003906 194.171875 330 195.671875 332.519531 C 195.816406 332.761719 195.511719 333.109375 195.277344 332.882812 C 193.074219 330.746094 190.328125 329.660156 187.808594 327.988281 C 184.027344 325.480469 180.332031 322.84375 176.574219 320.300781 C 176.265625 320.097656 176.535156 319.574219 176.855469 319.789062 Z M 187.574219 320.773438 C 184.035156 318.980469 180.558594 317.09375 177.417969 314.648438 C 177.101562 314.402344 177.433594 313.867188 177.757812 314.113281 C 184.035156 318.988281 191.980469 321.128906 198.222656 325.972656 C 198.433594 326.136719 198.175781 326.46875 197.957031 326.34375 C 194.515625 324.425781 191.082031 322.554688 187.574219 320.773438 Z M 311.726562 129.699219 C 310.089844 130.800781 308.246094 131.554688 306.707031 132.8125 C 306.453125 133.023438 306.089844 132.664062 306.34375 132.453125 C 307.921875 131.160156 309.761719 130.285156 311.535156 129.3125 C 311.785156 129.171875 311.953125 129.539062 311.726562 129.699219 Z M 307.832031 145.667969 C 307.6875 145.523438 307.71875 145.214844 307.984375 145.199219 C 308.488281 145.167969 308.972656 145.191406 309.460938 145.328125 C 309.800781 145.417969 309.742188 145.886719 309.386719 145.863281 C 308.8125 145.839844 308.140625 146 307.726562 146.421875 C 307.183594 146.972656 307.546875 147.679688 308.097656 148.074219 C 309.152344 148.820312 309.71875 146.988281 309.402344 146.226562 C 309.265625 145.902344 309.769531 145.691406 309.90625 146.015625 C 310.449219 147.3125 309.25 149.664062 307.71875 148.496094 C 307.039062 147.976562 306.578125 147.046875 307.121094 146.269531 C 307.3125 146.015625 307.554688 145.820312 307.832031 145.667969 Z M 337.554688 127.464844 C 337.832031 127.765625 337.378906 128.199219 337.09375 127.910156 C 332.996094 123.828125 328.792969 119.546875 322.492188 120.617188 C 319.867188 121.0625 317.390625 122.09375 314.828125 122.78125 C 311.988281 123.542969 309.09375 123.964844 306.65625 125.738281 C 306.414062 125.917969 306.15625 125.527344 306.398438 125.355469 C 308.617188 123.679688 311.191406 123.136719 313.839844 122.464844 C 317.347656 121.574219 320.792969 119.9375 324.460938 119.816406 C 325.773438 119.773438 327.003906 119.984375 328.175781 120.367188 C 326.800781 118.617188 325.609375 116.648438 324.097656 115.058594 C 323.042969 113.941406 321.542969 113.554688 320.117188 113.019531 C 320.078125 113.089844 320.015625 113.148438 319.917969 113.171875 C 319.761719 113.210938 319.601562 113.246094 319.445312 113.285156 C 319.367188 113.300781 319.300781 113.277344 319.242188 113.238281 C 317.082031 113.457031 315.046875 114.175781 312.941406 114.695312 C 311.515625 115.050781 309.671875 115.539062 308.222656 115.027344 C 307.085938 114.628906 306.332031 113.625 305.898438 112.539062 C 305.734375 112.117188 305.644531 110.335938 305.410156 110.125 C 305.0625 109.808594 302.753906 111.015625 302.542969 111.113281 C 302.242188 111.246094 301.96875 110.808594 302.277344 110.667969 C 303.363281 110.160156 304.453125 109.714844 305.597656 109.378906 C 305.75 109.332031 305.96875 109.414062 305.960938 109.605469 C 305.9375 110.910156 306.210938 112.222656 307.039062 113.277344 C 308.203125 114.753906 309.757812 114.605469 311.453125 114.304688 C 314.050781 113.84375 316.480469 112.855469 319.097656 112.589844 C 318.902344 112.5 318.710938 112.402344 318.523438 112.289062 C 318.183594 112.085938 318.554688 111.59375 318.894531 111.792969 C 320.546875 112.777344 322.679688 112.898438 324.144531 114.203125 C 326.089844 115.941406 327.410156 118.601562 329.011719 120.675781 C 331.109375 121.542969 332.980469 122.96875 334.691406 124.5625 C 335.710938 123.242188 336.804688 122.074219 337.476562 120.527344 C 337.554688 120.34375 337.855469 120.414062 337.816406 120.617188 C 337.53125 122.296875 336.019531 123.558594 335.011719 124.832031 C 335.003906 124.839844 334.996094 124.839844 334.996094 124.847656 C 335.355469 125.195312 335.710938 125.542969 336.058594 125.898438 C 336.179688 125.285156 336.390625 124.675781 336.609375 124.109375 C 336.785156 123.648438 337.53125 123.84375 337.355469 124.3125 C 337.085938 125.035156 336.949219 125.8125 336.683594 126.539062 C 336.980469 126.863281 337.265625 127.164062 337.554688 127.464844 Z M 310.539062 200.535156 C 305.125 211.261719 297.398438 220.375 290.046875 229.78125 C 282.617188 239.285156 275.734375 249.199219 268.875 259.125 C 268.6875 259.402344 268.492188 259.675781 268.292969 259.953125 C 269.085938 257.277344 269.773438 254.5 268.105469 252.375 C 267.96875 252.199219 267.644531 252.09375 267.488281 252.320312 C 266.203125 254.078125 265.269531 256.09375 264.566406 258.203125 C 264.523438 256.339844 264.175781 254.523438 263.261719 252.894531 C 263.132812 252.660156 262.878906 252.570312 262.644531 252.726562 C 260.054688 254.5 259.699219 258.394531 259.488281 261.246094 C 259.226562 264.902344 259.382812 268.621094 259.609375 272.289062 C 256.140625 277.25 252.75 282.265625 249.710938 287.488281 C 246.769531 292.527344 244.128906 297.753906 241.910156 303.15625 C 239.925781 308.003906 237.304688 312.425781 234.097656 316.574219 C 229.136719 323 223.234375 328.589844 217.328125 334.148438 C 217.121094 331.546875 216.527344 328.953125 215.914062 326.726562 C 214.542969 321.769531 212.308594 316.242188 208.25 312.863281 C 207.976562 312.636719 207.652344 313.082031 207.925781 313.308594 C 211.886719 316.613281 214.027344 322.074219 215.355469 326.90625 C 216.058594 329.464844 216.570312 332.136719 216.65625 334.796875 C 215.109375 336.253906 213.570312 337.703125 212.042969 339.171875 C 211.734375 336.933594 211.359375 334.707031 210.46875 332.59375 C 210.363281 332.339844 209.976562 332.519531 210.082031 332.777344 C 210.996094 335 211.246094 337.355469 211.492188 339.699219 C 210.988281 340.183594 210.492188 340.675781 209.992188 341.164062 C 209.652344 341.496094 210.234375 341.949219 210.566406 341.625 C 210.90625 341.292969 211.253906 340.96875 211.59375 340.636719 C 211.789062 342.410156 212.042969 344.175781 212.632812 345.863281 C 212.738281 346.164062 213.246094 346 213.160156 345.691406 C 212.664062 343.855469 212.414062 341.964844 212.164062 340.078125 C 213.652344 338.660156 215.152344 337.242188 216.664062 335.839844 C 216.632812 337.839844 216.339844 339.820312 215.667969 341.730469 C 215.5625 342.023438 216.035156 342.257812 216.179688 341.972656 C 217.183594 339.941406 217.484375 337.566406 217.402344 335.160156 C 222.796875 330.136719 228.183594 325.105469 232.929688 319.449219 C 236.0625 315.714844 238.882812 311.707031 241.042969 307.332031 C 243.507812 302.332031 245.433594 297.113281 248.074219 292.179688 C 253.40625 282.230469 260.167969 273.140625 266.597656 263.875 C 266.582031 264.011719 266.566406 264.140625 266.558594 264.269531 C 266.542969 264.714844 267.214844 264.753906 267.253906 264.308594 C 267.296875 263.71875 267.425781 263.09375 267.59375 262.445312 C 267.707031 262.285156 267.8125 262.125 267.925781 261.96875 C 274.746094 252.035156 281.582031 242.105469 288.921875 232.550781 C 296.816406 222.277344 305.394531 212.515625 311.273438 200.867188 C 311.492188 200.417969 310.765625 200.085938 310.539062 200.535156 Z M 266.996094 261.816406 C 264.816406 264.933594 262.597656 268.035156 260.410156 271.148438 C 260.476562 270.320312 260.507812 269.480469 260.5 268.636719 C 260.5 268.457031 260.230469 268.484375 260.222656 268.660156 C 260.222656 268.734375 260.214844 268.800781 260.214844 268.878906 C 260.160156 266.8125 260.078125 264.753906 260.167969 262.683594 C 260.296875 259.894531 260.410156 255.664062 262.75 253.664062 C 264.0625 256.410156 263.875 259.59375 263.441406 262.632812 C 263.261719 263.582031 263.109375 264.535156 262.996094 265.46875 C 262.9375 265.972656 263.707031 266.109375 263.78125 265.605469 C 263.941406 264.609375 264.121094 263.566406 264.265625 262.503906 C 264.882812 259.253906 265.949219 255.996094 267.765625 253.300781 C 269.117188 255.675781 267.765625 258.953125 266.996094 261.816406 Z M 201.707031 339.777344 C 200.347656 345.035156 198.28125 350.082031 196.140625 355.058594 C 193.574219 361.011719 190.449219 366.910156 186.542969 372.105469 C 186.316406 372.410156 185.839844 372.039062 186.011719 371.730469 C 187.855469 368.507812 189.996094 365.484375 191.800781 362.234375 C 193.273438 359.578125 194.507812 356.824219 195.710938 354.039062 C 197.679688 349.445312 199.578125 344.785156 200.847656 339.933594 C 202.039062 335.378906 202.914062 330.265625 201.464844 325.664062 C 199.769531 320.246094 195.722656 315.40625 191.21875 312.054688 C 188.769531 310.230469 185.839844 308.382812 182.707031 308.207031 C 179.886719 308.050781 177.191406 309.195312 174.65625 310.289062 C 174.324219 310.433594 174.085938 309.9375 174.417969 309.785156 C 177.1875 308.523438 180.113281 307.175781 183.238281 307.484375 C 186.359375 307.800781 189.226562 309.550781 191.6875 311.382812 C 196.199219 314.742188 200.023438 319.394531 202.003906 324.699219 C 203.789062 329.503906 202.953125 334.949219 201.707031 339.777344 Z M 206.621094 323.617188 C 208.527344 329.246094 207.367188 335.21875 205.375 340.652344 C 204.324219 343.527344 203.050781 346.308594 201.882812 349.128906 C 200.554688 352.351562 199.6875 355.578125 198.78125 358.929688 C 198.683594 359.285156 198.167969 359.09375 198.199219 358.769531 C 198.597656 353.347656 201.535156 348.089844 203.5625 343.140625 C 205.863281 337.535156 207.820312 331.289062 206.273438 325.210938 C 204.839844 319.582031 200.855469 315.660156 196.441406 312.191406 C 192.085938 308.773438 187.539062 304.292969 181.5625 304.730469 C 181.085938 304.769531 180.972656 304.03125 181.457031 303.992188 C 187.394531 303.539062 191.980469 307.597656 196.320312 311.074219 C 200.667969 314.574219 204.761719 318.15625 206.621094 323.617188 Z M 185.726562 364.117188 C 184.4375 361.246094 181.011719 359.207031 178.566406 357.425781 C 175.886719 355.480469 173.035156 353.714844 170.476562 351.613281 C 170.238281 351.410156 170.507812 351 170.757812 351.203125 C 173.746094 353.640625 177.09375 355.632812 180.1875 357.925781 C 181.644531 359.003906 183.101562 360.113281 184.390625 361.386719 C 185.054688 362.042969 186.125 363.003906 186.019531 364.042969 C 186.007812 364.179688 185.792969 364.277344 185.726562 364.117188 Z M 183.425781 369.722656 C 183.410156 369.910156 183.160156 369.917969 183.085938 369.769531 C 181.683594 366.910156 178.867188 365.03125 176.332031 363.25 C 173.519531 361.273438 170.476562 359.523438 167.84375 357.300781 C 167.574219 357.066406 167.882812 356.597656 168.152344 356.832031 C 171.261719 359.410156 174.882812 361.351562 178.136719 363.734375 C 179.820312 364.972656 183.589844 367.242188 183.425781 369.722656 Z M 180.390625 373.09375 C 180.484375 373.328125 180.195312 373.488281 180.03125 373.3125 C 178.511719 371.730469 177.335938 370.226562 175.511719 368.953125 C 174.136719 367.988281 172.695312 367.128906 171.300781 366.183594 C 169.246094 364.796875 167.375 363.234375 166.035156 361.132812 C 165.851562 360.84375 166.289062 360.566406 166.480469 360.851562 C 168.605469 364.109375 172.046875 365.875 175.195312 367.964844 C 177.109375 369.234375 179.539062 370.871094 180.390625 373.09375 Z M 174.296875 325.480469 C 177.652344 328.015625 181.328125 330.054688 184.792969 332.429688 C 188.5625 335.015625 191.605469 338.238281 195.964844 339.851562 C 196.222656 339.949219 196.148438 340.371094 195.859375 340.335938 C 191.980469 339.800781 189.046875 336.375 186.058594 334.148438 C 182.136719 331.222656 177.789062 328.914062 173.894531 325.941406 C 173.601562 325.699219 173.992188 325.25 174.296875 325.480469 Z M 107.792969 88.421875 C 107.800781 84.597656 107.828125 80.75 106.289062 77.175781 C 106.125 76.796875 106.683594 76.464844 106.847656 76.851562 C 108.144531 79.824219 108.441406 82.960938 108.476562 86.183594 C 108.523438 90.171875 108.570312 93.988281 109.390625 97.917969 C 111.105469 106.074219 110.992188 114.460938 110.847656 122.757812 C 110.839844 123.210938 110.152344 123.1875 110.144531 122.742188 C 110.003906 114.582031 110.460938 106.464844 108.78125 98.425781 C 108.078125 95.058594 107.785156 91.839844 107.792969 88.421875 Z M 117.035156 68.125 C 117.554688 68.515625 118.105469 68.574219 118.710938 68.773438 C 119.078125 68.894531 118.964844 69.359375 118.621094 69.398438 C 117.910156 69.480469 117.140625 69.125 116.582031 68.710938 C 116.195312 68.433594 116.648438 67.835938 117.035156 68.125 Z M 118.113281 66.085938 C 118.945312 66.699219 119.855469 66.832031 120.851562 66.984375 C 120.980469 67.007812 121.148438 66.976562 121.230469 66.855469 C 121.8125 66.058594 122.363281 65.257812 123.027344 64.53125 C 123.117188 64.433594 123.125 64.320312 123.085938 64.214844 C 123.328125 64.003906 123.167969 63.539062 122.8125 63.65625 C 121.273438 64.179688 119.183594 64.15625 118.082031 65.519531 C 117.957031 65.6875 117.941406 65.957031 118.113281 66.085938 Z M 121.929688 64.609375 C 121.507812 65.097656 121.140625 65.648438 120.761719 66.175781 C 120.160156 66.085938 119.5625 65.972656 119.019531 65.710938 C 119.78125 65.039062 120.898438 64.855469 121.929688 64.609375 Z M 98.746094 53.121094 C 98.269531 54.378906 98.050781 55.964844 99.847656 56.078125 C 100.253906 56.101562 100.253906 56.71875 99.839844 56.71875 C 96.058594 56.726562 98.179688 51.746094 99.816406 50.214844 C 99.734375 50.035156 99.652344 49.863281 99.582031 49.679688 C 99.21875 48.746094 99.121094 47.125 98.164062 46.691406 C 96.601562 45.984375 93.34375 49.097656 94.234375 50.820312 C 94.4375 51.21875 93.824219 51.5 93.605469 51.113281 C 92.476562 49.070312 95.34375 46.253906 97.183594 45.789062 C 98.335938 45.492188 98.992188 45.96875 99.476562 46.996094 C 99.800781 47.679688 99.945312 48.429688 100.195312 49.136719 C 100.359375 49.605469 100.578125 50.058594 100.796875 50.511719 C 101.402344 51.089844 101.746094 51.769531 101.824219 52.691406 C 101.859375 53.121094 101.28125 53.1875 101.121094 52.832031 C 100.828125 52.175781 100.480469 51.550781 100.148438 50.910156 C 99.597656 51.25 98.980469 52.515625 98.746094 53.121094 Z M 111.917969 170.988281 C 112.320312 166.820312 115.179688 163.152344 115.207031 158.957031 C 110.582031 159.601562 107.152344 162.933594 103.300781 165.300781 C 102.902344 165.550781 102.425781 164.984375 102.773438 164.652344 C 106.5 161.144531 110.378906 157.78125 113.667969 153.84375 C 114 153.453125 114.613281 153.957031 114.289062 154.351562 C 112.136719 156.929688 109.738281 159.269531 107.292969 161.5625 C 109.820312 159.847656 112.441406 158.339844 115.609375 158.039062 C 115.835938 158.015625 116.054688 158.210938 116.0625 158.4375 C 116.226562 162.542969 113.648438 166.050781 112.898438 169.980469 C 114.816406 168.109375 115.835938 165.265625 116.640625 162.804688 C 117.019531 161.644531 117.320312 160.460938 117.625 159.277344 C 117.78125 158.640625 117.96875 158.015625 118.089844 157.375 C 118.105469 157.285156 118.234375 156.101562 118.152344 156.152344 C 117.730469 156.453125 117.222656 155.828125 117.644531 155.519531 C 120.074219 153.730469 118.429688 159.402344 118.242188 160.136719 C 117.277344 163.929688 115.957031 168.878906 112.605469 171.300781 C 112.339844 171.511719 111.882812 171.390625 111.917969 170.988281 Z M 129.355469 51.195312 C 128.496094 51.316406 127.636719 51.347656 126.78125 51.46875 C 126.902344 51.738281 126.957031 52.054688 126.894531 52.394531 C 126.699219 53.460938 125.675781 54.394531 124.59375 54.457031 C 124.375 54.46875 124.21875 54.355469 124.164062 54.144531 C 123.902344 53.089844 124.445312 51.964844 125.34375 51.414062 C 125.003906 51.445312 124.648438 51.589844 124.398438 51.703125 C 123.726562 52.003906 123.101562 52.441406 122.542969 52.917969 C 122.421875 53.023438 121.472656 53.800781 121.546875 53.964844 C 121.710938 54.335938 121.175781 54.570312 120.980469 54.222656 C 120.589844 53.535156 121.824219 52.554688 122.242188 52.191406 C 123.0625 51.484375 124.171875 50.683594 125.304688 50.609375 C 125.628906 50.585938 125.914062 50.660156 126.164062 50.796875 C 127.191406 50.554688 128.253906 50.433594 129.304688 50.40625 C 129.808594 50.390625 129.855469 51.128906 129.355469 51.195312 Z M 55.84375 133.0625 C 54.589844 128.769531 55.730469 125.714844 58.832031 122.523438 C 58.945312 122.410156 59.078125 122.398438 59.199219 122.449219 C 62.582031 117.824219 66.261719 113.292969 70.789062 109.753906 C 74.5625 106.804688 78.570312 105.265625 83.335938 105.101562 C 83.707031 105.085938 84.085938 105.085938 84.453125 105.078125 C 84.152344 102.617188 83.917969 100.152344 83.683594 97.691406 C 83.390625 94.546875 82.757812 91.296875 82.921875 88.136719 C 83.230469 82.433594 86.113281 77.167969 85.753906 71.390625 C 85.746094 71.238281 85.820312 71.140625 85.917969 71.082031 C 83.875 68.28125 82.183594 65.175781 81.480469 61.824219 C 81.414062 61.507812 81.910156 61.394531 81.980469 61.710938 C 83.074219 66.824219 86.523438 71.375 90.03125 75.117188 C 93.371094 78.683594 97.347656 82.09375 101.921875 83.980469 C 102.382812 82.132812 103.21875 77.265625 100.902344 77.332031 C 100.519531 77.347656 100.503906 76.8125 100.828125 76.699219 C 104.246094 75.5625 102.902344 83.042969 102.472656 84.492188 C 102.410156 84.703125 102.214844 84.824219 102.003906 84.734375 C 96.980469 82.710938 92.632812 78.878906 89.050781 74.898438 C 88.160156 73.902344 87.277344 72.859375 86.4375 71.765625 C 86.636719 77.410156 83.917969 82.570312 83.625 88.160156 C 83.441406 91.53125 84.144531 95.046875 84.46875 98.402344 C 84.6875 100.628906 84.921875 102.851562 85.203125 105.070312 C 89.3125 105.0625 93.507812 105.53125 97.425781 106.714844 C 99.296875 107.28125 101.21875 108.035156 102.742188 109.285156 C 104.402344 110.652344 105.121094 112.679688 105.640625 114.710938 C 106.472656 117.910156 107.25 120.949219 108.484375 124.019531 C 109.625 126.855469 110.78125 129.691406 111.316406 132.722656 C 111.40625 133.238281 110.605469 133.328125 110.515625 132.820312 C 109.898438 129.304688 108.402344 126.054688 107.113281 122.75 C 106.109375 120.171875 105.574219 117.59375 104.894531 114.921875 C 104.3125 112.605469 103.4375 110.5625 101.371094 109.242188 C 99.597656 108.109375 97.515625 107.453125 95.484375 106.964844 C 92.179688 106.171875 88.71875 105.792969 85.292969 105.792969 C 85.382812 106.496094 85.480469 107.191406 85.578125 107.882812 C 85.644531 108.359375 84.914062 108.464844 84.847656 107.988281 C 84.734375 107.257812 84.636719 106.527344 84.542969 105.792969 C 83.730469 105.808594 82.921875 105.832031 82.121094 105.882812 C 72.011719 106.5625 64.875 115.8125 59.351562 123.378906 C 59.222656 123.558594 59.019531 123.542969 58.882812 123.4375 C 57.222656 125.253906 55.820312 127.351562 55.976562 129.933594 C 56.105469 132.050781 56.972656 134.105469 57.617188 136.101562 C 58.355469 138.402344 58.726562 140.605469 59.0625 142.988281 C 59.425781 145.554688 60.210938 147.136719 62.226562 148.804688 C 64.042969 150.3125 66.058594 151.550781 67.945312 152.96875 C 70.125 154.613281 72.179688 156.460938 74.296875 158.183594 C 78.816406 161.839844 83.308594 165.542969 87.035156 170.03125 C 90.429688 174.121094 93.457031 177.984375 98.820312 179.429688 C 99.304688 179.558594 99.097656 180.304688 98.617188 180.175781 C 92.226562 178.449219 89.117188 173.390625 84.898438 168.757812 C 80.449219 163.875 75.121094 159.953125 70.074219 155.746094 C 67.878906 153.917969 65.582031 152.296875 63.289062 150.609375 C 61.710938 149.445312 59.8125 148.132812 59.011719 146.269531 C 58.179688 144.355469 58.273438 142.105469 57.902344 140.078125 C 57.480469 137.671875 56.523438 135.394531 55.84375 133.0625 Z M 129.207031 48 C 129.078125 48.035156 128.964844 48.050781 128.84375 48.074219 C 128.78125 48.261719 128.570312 48.414062 128.328125 48.324219 C 128.179688 48.261719 128.019531 48.222656 127.871094 48.179688 C 127.539062 48.1875 127.199219 48.1875 126.835938 48.195312 C 125.652344 48.230469 124.632812 48.617188 123.5625 49.078125 C 121.929688 49.785156 120.386719 50.707031 118.679688 51.210938 C 118.679688 51.210938 118.679688 51.210938 118.671875 51.210938 C 118.640625 51.21875 118.613281 51.234375 118.582031 51.242188 C 118.144531 51.371094 118 50.738281 118.339844 50.53125 C 118.898438 50.207031 119.488281 49.839844 120.105469 49.46875 C 122.964844 47.554688 125.410156 46.496094 129.160156 47.25 C 129.582031 47.335938 129.628906 47.878906 129.207031 48 Z M 130.203125 60.203125 C 130.585938 60.519531 130.203125 61.046875 129.769531 60.828125 C 127.773438 59.789062 125.433594 61.222656 123.457031 60.355469 C 123.140625 60.21875 123.304688 59.765625 123.597656 59.742188 C 123.78125 59.726562 123.9375 59.71875 124.097656 59.726562 C 125.265625 59.699219 126.429688 59.644531 127.597656 59.613281 C 128.488281 59.59375 129.476562 59.621094 130.203125 60.203125 Z M 43.558594 288 C 42.773438 288.6875 41.914062 289.214844 41.136719 289.894531 C 41.195312 290.128906 40.933594 290.390625 40.675781 290.316406 C 39.679688 291.339844 38.851562 292.511719 38.125 293.734375 C 36.84375 295.90625 35.953125 298.214844 35.3125 300.628906 C 35.679688 300.128906 36.019531 299.609375 36.300781 299.042969 C 36.375 298.886719 36.648438 299.019531 36.570312 299.179688 C 36.074219 300.28125 35.621094 301.207031 34.882812 302.160156 C 34.664062 302.4375 34.300781 302.121094 34.347656 301.847656 C 34.835938 298.898438 35.984375 295.972656 37.492188 293.402344 C 38.117188 292.328125 38.949219 291.03125 39.929688 289.921875 C 38.609375 289.199219 37.347656 288.492188 35.902344 287.960938 C 34.785156 287.554688 33.675781 287.523438 32.527344 287.269531 C 30.921875 286.914062 30.355469 285.886719 30.429688 284.28125 C 30.453125 283.84375 31.117188 283.933594 31.101562 284.363281 C 31.035156 287.101562 34.015625 286.5 35.90625 287.101562 C 37.539062 287.621094 39.097656 288.339844 40.488281 289.335938 C 41.347656 288.492188 42.304688 287.828125 43.363281 287.5625 C 43.605469 287.511719 43.738281 287.847656 43.558594 288 Z M 36.738281 293.703125 C 33.335938 292.15625 28.023438 292.667969 25.699219 289.289062 C 25.464844 288.941406 26.023438 288.625 26.257812 288.964844 C 27.714844 291.0625 30.605469 291.355469 32.921875 291.816406 C 34.277344 292.082031 36.050781 292.253906 37.054688 293.304688 C 37.257812 293.523438 36.996094 293.816406 36.738281 293.703125 Z M 51.007812 206.164062 C 51.148438 205.613281 51.324219 205.085938 51.511719 204.550781 C 51.585938 204.339844 51.902344 204.480469 51.835938 204.691406 C 51.707031 205.070312 51.453125 205.605469 51.59375 205.605469 C 51.828125 205.605469 52.492188 204.851562 52.671875 204.699219 C 53.546875 203.960938 54.417969 203.222656 55.300781 202.492188 C 56.882812 201.179688 58.484375 199.878906 60.113281 198.628906 C 63.3125 196.160156 66.664062 193.851562 70.230469 191.9375 C 73.453125 190.203125 76.894531 188.964844 80.34375 187.773438 C 82.015625 187.191406 83.699219 186.628906 85.367188 186.039062 C 86.875 185.503906 88.386719 184.734375 89.941406 184.363281 C 90.1875 184.304688 90.363281 184.621094 90.144531 184.777344 C 87.652344 186.566406 83.964844 187.285156 81.097656 188.257812 C 77.808594 189.371094 74.488281 190.511719 71.378906 192.082031 C 63.984375 195.816406 57.828125 201.375 51.308594 206.375 C 51.171875 206.488281 50.96875 206.324219 51.007812 206.164062 Z M 34.136719 300.332031 C 32.332031 299.707031 30.519531 299.714844 28.640625 299.910156 C 28.203125 299.957031 28.097656 299.285156 28.535156 299.238281 C 30.511719 299.027344 32.480469 298.984375 34.367188 299.683594 C 34.785156 299.84375 34.558594 300.484375 34.136719 300.332031 Z M 57.675781 305.019531 C 52.304688 302.710938 44.628906 303.765625 41.839844 297.542969 C 41.6875 297.203125 42.1875 296.917969 42.34375 297.253906 C 45.210938 303.605469 52.792969 301.488281 57.878906 304.585938 C 58.128906 304.746094 57.960938 305.136719 57.675781 305.019531 Z M 31.199219 296.683594 C 29.722656 296.378906 28.160156 296.117188 26.753906 295.527344 C 26.386719 295.371094 26.558594 294.765625 26.945312 294.925781 C 29.433594 295.949219 32.308594 295.753906 34.777344 296.734375 C 34.988281 296.816406 35.019531 297.195312 34.746094 297.21875 C 33.585938 297.316406 32.316406 296.910156 31.199219 296.683594 Z M 60.484375 186.898438 C 55.261719 189.589844 50.386719 192.933594 45.777344 196.5625 C 45.492188 196.789062 45.089844 196.371094 45.386719 196.148438 C 50.019531 192.457031 54.890625 189.027344 60.160156 186.28125 C 62.730469 184.9375 65.410156 183.753906 68.1875 182.894531 C 70.878906 182.054688 74.148438 181.179688 76.984375 181.671875 C 77.316406 181.730469 77.363281 182.246094 77 182.28125 C 74.277344 182.546875 71.6875 182.652344 69.023438 183.40625 C 66.058594 184.25 63.214844 185.488281 60.484375 186.898438 Z M 20.222656 170.484375 C 19.890625 170.339844 20.070312 169.804688 20.402344 169.957031 C 29.871094 174.113281 37.953125 167.882812 46.734375 165.121094 C 51.503906 163.621094 55.730469 164.261719 60.542969 165.28125 C 63.710938 165.953125 66.933594 166.71875 70.1875 166.773438 C 73.210938 166.820312 75.777344 165.5 78.589844 164.625 C 79.066406 164.472656 79.269531 165.21875 78.796875 165.371094 C 76.261719 166.15625 73.851562 167.390625 71.160156 167.527344 C 68.066406 167.6875 64.898438 166.960938 61.886719 166.328125 C 58.945312 165.703125 55.910156 164.796875 52.878906 164.765625 C 50.539062 164.746094 48.246094 165.300781 46.042969 166.058594 C 37.476562 169.007812 29.449219 174.582031 20.222656 170.484375 Z M 35.207031 144.136719 C 38.957031 145.3125 42.804688 146.179688 46.699219 146.738281 C 50.515625 147.28125 54.71875 147.78125 58.5 146.761719 C 58.988281 146.625 59.304688 147.371094 58.808594 147.507812 C 55.074219 148.519531 50.992188 148.140625 47.210938 147.636719 C 43.121094 147.09375 38.925781 146.316406 35.039062 144.90625 C 34.574219 144.730469 34.714844 143.984375 35.207031 144.136719 Z M 35.207031 144.136719 " fill-opacity="1" fill-rule="nonzero"/><path fill="#d5986c" d="M 106.019531 315.578125 C 106.214844 316.414062 106.570312 317.441406 106.457031 318.308594 C 106.417969 318.582031 105.988281 318.792969 105.851562 318.460938 C 105.519531 317.644531 105.476562 316.679688 105.273438 315.820312 C 104.992188 314.644531 104.667969 313.449219 104.058594 312.402344 C 103.953125 312.214844 104.019531 312.039062 104.148438 311.933594 C 100.320312 306.324219 100.5625 299.148438 98.34375 292.902344 C 98.097656 292.210938 97.808594 291.558594 97.5 290.949219 C 88.273438 299.277344 75.90625 302.785156 65.863281 309.914062 C 65.808594 309.949219 65.757812 309.972656 65.710938 309.980469 C 69.542969 317.261719 73.195312 324.765625 75.980469 332.511719 C 76.148438 332.964844 75.476562 333.304688 75.300781 332.84375 C 72.328125 324.917969 68.859375 317.238281 64.933594 309.730469 C 64.792969 309.46875 65.109375 309.242188 65.320312 309.347656 C 65.34375 309.324219 65.355469 309.300781 65.378906 309.28125 C 75.476562 302.089844 87.78125 298.523438 97.078125 290.15625 C 95.789062 287.949219 94.015625 286.234375 91.691406 284.75 C 88.710938 282.839844 85.253906 280.847656 81.714844 280.261719 C 81.367188 280.199219 81.429688 279.65625 81.78125 279.71875 C 85.433594 280.304688 88.972656 282.3125 92.058594 284.257812 C 94.6875 285.917969 96.894531 287.789062 98.277344 290.625 C 101.558594 297.382812 100.546875 305.757812 105.152344 311.949219 C 105.324219 312.183594 105.210938 312.457031 105.023438 312.574219 C 105.46875 313.519531 105.777344 314.542969 106.019531 315.578125 Z M 119.410156 290.664062 C 117.960938 286.4375 115.78125 282.523438 113.859375 278.511719 C 113.660156 278.101562 113.042969 278.421875 113.238281 278.820312 C 115.140625 282.808594 117.296875 286.695312 118.730469 290.890625 C 120.25 295.324219 120.308594 300.136719 121.953125 304.519531 C 122.089844 304.890625 122.714844 304.671875 122.601562 304.292969 C 121.28125 299.804688 120.929688 295.097656 119.410156 290.664062 Z M 155.734375 249.703125 C 155.6875 249.652344 155.644531 249.605469 155.574219 249.566406 C 155.03125 249.121094 154.445312 248.707031 153.796875 248.34375 C 153.863281 248.277344 153.894531 248.179688 153.847656 248.066406 C 152.601562 245.09375 149.175781 244.839844 146.429688 244.113281 C 143.738281 243.40625 141.253906 242.007812 138.660156 241.019531 C 136.054688 240.03125 133.355469 239.40625 130.554688 239.429688 C 129.945312 239.4375 129.890625 240.351562 130.511719 240.378906 C 135.046875 240.628906 138.804688 242.070312 142.953125 243.789062 C 144.582031 244.46875 146.152344 244.949219 147.871094 245.320312 C 149.863281 245.75 152.113281 246.210938 153.246094 248.066406 C 153.125 248.007812 153.019531 247.945312 152.898438 247.886719 C 152.511719 247.703125 152.21875 248.285156 152.601562 248.472656 C 153.433594 248.890625 154.179688 249.378906 154.859375 249.914062 C 152.542969 253.542969 148.964844 256.257812 145.527344 258.753906 C 142.257812 261.117188 138.960938 263.515625 135.589844 265.726562 C 128.609375 270.320312 120.550781 273.320312 114.539062 279.289062 C 114.175781 279.648438 114.792969 280.15625 115.15625 279.792969 C 121.515625 273.488281 130.238281 270.546875 137.460938 265.445312 C 143.625 261.085938 151.296875 256.960938 155.507812 250.464844 C 161.710938 256.109375 161.195312 266.78125 164.609375 274.03125 C 164.8125 274.46875 165.484375 274.160156 165.285156 273.722656 C 162.058594 266.3125 162.292969 255.226562 155.734375 249.703125 Z M 196.296875 233.929688 C 194.507812 230.054688 191.777344 226.703125 190.066406 222.78125 C 189.898438 222.410156 189.339844 222.683594 189.5 223.054688 C 189.871094 223.90625 190.292969 224.726562 190.738281 225.542969 C 190.699219 225.535156 190.652344 225.527344 190.609375 225.535156 C 188.011719 225.996094 185.582031 228.121094 183.570312 229.683594 C 181.160156 231.546875 178.839844 233.523438 176.363281 235.304688 C 176.273438 235.265625 176.167969 235.273438 176.070312 235.339844 C 175.972656 235.417969 175.878906 235.492188 175.78125 235.566406 C 175.464844 234.789062 175.140625 234.011719 174.800781 233.242188 C 174.644531 232.875 174.078125 233.136719 174.234375 233.5 C 174.597656 234.324219 174.9375 235.152344 175.269531 235.980469 C 175.089844 236.132812 174.914062 236.292969 174.742188 236.449219 C 174.425781 236.742188 174.882812 237.195312 175.214844 236.992188 C 175.335938 236.917969 175.457031 236.835938 175.585938 236.757812 C 178.398438 243.910156 180.386719 251.300781 182.460938 258.710938 C 182.582031 259.140625 183.253906 259.003906 183.140625 258.566406 C 181.175781 251.082031 179.019531 243.601562 176.128906 236.414062 C 178.738281 234.691406 181.125 232.632812 183.597656 230.730469 C 185.792969 229.050781 188.097656 227.164062 190.796875 226.371094 C 190.933594 226.335938 191.007812 226.238281 191.046875 226.117188 C 192.683594 228.988281 194.609375 231.699219 195.914062 234.746094 C 197.769531 239.097656 197.65625 243.957031 199.480469 248.308594 C 199.648438 248.707031 200.273438 248.449219 200.109375 248.050781 C 198.214844 243.511719 198.371094 238.433594 196.296875 233.929688 Z M 213.53125 223.175781 C 212.226562 219.003906 210.054688 215.207031 207.976562 211.390625 C 207.738281 210.953125 207.074219 211.359375 207.3125 211.796875 C 209.472656 215.78125 211.71875 219.742188 212.988281 224.117188 C 214.074219 227.859375 213.808594 232.171875 215.582031 235.6875 C 215.792969 236.109375 216.429688 235.867188 216.269531 235.417969 C 214.875 231.433594 214.792969 227.195312 213.53125 223.175781 Z M 230.914062 222.171875 C 229.59375 221.417969 229.066406 219.582031 228.570312 218.253906 C 228.03125 216.816406 227.601562 215.328125 226.976562 213.925781 C 225.171875 209.914062 222.050781 206.585938 220.691406 202.363281 C 220.535156 201.855469 219.71875 202.039062 219.882812 202.542969 C 220.101562 203.230469 220.375 203.894531 220.667969 204.542969 C 217.304688 207.816406 212.722656 209.550781 209.539062 213.082031 C 209.199219 213.457031 209.78125 213.984375 210.121094 213.609375 C 213.238281 210.167969 217.75 208.496094 221.039062 205.3125 C 222.722656 208.628906 225.160156 211.558594 226.515625 215.042969 C 227.300781 217.0625 228.101562 222.214844 230.660156 222.84375 C 231.042969 222.925781 231.261719 222.375 230.914062 222.171875 Z M 240.503906 213.21875 C 239.828125 212.046875 239.601562 209.859375 239.390625 208.84375 C 239.035156 207.136719 238.777344 205.417969 238.46875 203.703125 C 237.886719 200.46875 237.09375 197.285156 235.398438 194.433594 C 235.164062 194.042969 234.550781 194.390625 234.777344 194.78125 C 236.855469 198.335938 237.449219 202.363281 238.128906 206.351562 C 238.421875 208.066406 238.730469 209.769531 239.191406 211.445312 C 239.441406 212.328125 239.601562 214.0625 240.640625 214.324219 C 240.851562 214.378906 241.046875 214.175781 241.035156 213.972656 C 241.003906 213.65625 240.671875 213.480469 240.511719 213.222656 C 240.511719 213.222656 240.503906 213.222656 240.503906 213.21875 Z M 159.320312 211.042969 C 161.21875 211.195312 163.039062 211.753906 164.933594 211.972656 C 165.429688 212.03125 165.4375 211.292969 164.96875 211.210938 C 163.113281 210.894531 161.257812 210.386719 159.371094 210.386719 L 159.371094 210.394531 C 159.023438 210.417969 158.933594 211.015625 159.320312 211.042969 Z M 216.570312 187.773438 C 216.753906 188.058594 217.167969 187.804688 217.015625 187.507812 C 215.515625 184.46875 212.042969 183.527344 209.132812 182.371094 C 204.183594 180.410156 199.609375 177.636719 194.707031 175.570312 C 194.304688 175.402344 194.042969 176.019531 194.449219 176.195312 C 198.789062 178.027344 202.871094 180.390625 207.179688 182.304688 C 210.496094 183.777344 214.464844 184.492188 216.570312 187.773438 Z M 98.875 269.617188 C 98.429688 269.4375 98.148438 270.121094 98.585938 270.304688 C 99.347656 270.613281 100.089844 271.011719 100.765625 271.472656 C 101 271.632812 101.265625 271.320312 101.089844 271.101562 C 100.53125 270.394531 99.695312 269.957031 98.875 269.617188 Z M 304.136719 185.535156 C 300 181.820312 295.40625 178.640625 290.71875 175.660156 C 288.546875 174.277344 286.34375 172.953125 284.140625 171.632812 C 281.597656 170.109375 279.25 168.222656 276.609375 166.871094 C 273.683594 165.371094 270.542969 165.195312 267.304688 165.210938 C 263.351562 165.234375 259.460938 164.984375 255.519531 164.863281 C 251.128906 164.730469 246.664062 164.878906 242.445312 163.46875 C 239.027344 162.324219 235.722656 160.679688 232.039062 160.785156 C 231.664062 160.792969 231.675781 161.378906 232.054688 161.371094 C 235.773438 161.289062 239.125 163.0625 242.582031 164.195312 C 245.703125 165.210938 248.957031 165.347656 252.222656 165.4375 C 255.949219 165.542969 259.6875 165.90625 263.40625 165.921875 C 266.964844 165.929688 270.792969 165.476562 274.234375 166.585938 C 277.320312 167.582031 279.839844 169.78125 282.5625 171.457031 C 284.53125 172.671875 286.539062 173.839844 288.507812 175.0625 C 293.34375 178.058594 298.105469 181.226562 302.445312 184.914062 C 306.777344 188.597656 311.105469 193.078125 312.738281 198.667969 C 312.863281 199.117188 313.542969 198.878906 313.421875 198.433594 C 311.980469 193.195312 308.058594 189.054688 304.136719 185.535156 Z M 338.570312 172.28125 C 336.292969 168.9375 334.714844 165.300781 333.570312 161.410156 C 332.707031 158.492188 331.09375 153.4375 333.265625 150.722656 C 333.394531 150.554688 333.144531 150.335938 332.996094 150.480469 C 330.390625 152.871094 332.148438 158.492188 332.949219 161.289062 C 333.589844 163.53125 334.398438 165.734375 335.363281 167.851562 C 336.074219 169.40625 336.882812 171.382812 338.164062 172.574219 C 338.359375 172.753906 338.746094 172.527344 338.570312 172.28125 Z M 89.757812 41.570312 C 90.121094 41.335938 89.765625 40.816406 89.394531 41.019531 C 85.433594 43.1875 77.074219 45.335938 79.679688 51.46875 C 79.851562 51.882812 80.46875 51.566406 80.296875 51.160156 C 77.890625 45.464844 86.339844 43.765625 89.757812 41.570312 Z M 76.734375 40.183594 C 81.902344 34.527344 89.570312 34.316406 96.535156 36.050781 C 102.207031 37.460938 107.550781 38.34375 113.214844 36.292969 C 113.488281 36.191406 113.324219 35.769531 113.058594 35.824219 C 109.4375 36.539062 106.085938 37.308594 102.382812 36.722656 C 98.867188 36.164062 95.484375 34.894531 91.9375 34.519531 C 86.167969 33.90625 80.28125 35.410156 76.28125 39.792969 C 76.027344 40.078125 76.480469 40.46875 76.734375 40.183594 Z M 98.554688 28.929688 C 102.546875 31.148438 107.4375 32.042969 111.875 30.746094 C 112.304688 30.617188 112.160156 29.941406 111.730469 30.066406 C 107.480469 31.34375 102.75 30.503906 98.910156 28.402344 C 98.554688 28.210938 98.203125 28.734375 98.554688 28.929688 Z M 116.167969 39.234375 C 114.921875 39.339844 113.730469 39.632812 112.574219 40.109375 C 112.191406 40.265625 112.378906 40.894531 112.765625 40.734375 C 113.878906 40.273438 115.019531 39.996094 116.226562 39.859375 C 116.582031 39.820312 116.527344 39.203125 116.167969 39.234375 Z M 119.894531 33.582031 C 119.507812 33.832031 119.878906 34.449219 120.265625 34.195312 C 121.289062 33.507812 122.390625 33.117188 123.597656 32.882812 C 123.976562 32.804688 123.929688 32.25 123.539062 32.277344 C 122.210938 32.390625 121.003906 32.859375 119.894531 33.582031 Z M 100.328125 19.273438 C 100.910156 18.550781 101.542969 17.847656 102.601562 18.050781 C 103.292969 18.1875 103.980469 18.820312 104.546875 19.222656 C 105.746094 20.058594 106.910156 20.578125 108.359375 20.902344 C 111.699219 21.636719 115.15625 21.28125 118.535156 21.136719 C 121.011719 21.03125 123.636719 20.910156 126.019531 21.6875 C 129.078125 22.683594 130.488281 25.261719 131.070312 28.289062 C 131.152344 28.71875 131.824219 28.613281 131.742188 28.183594 C 131.257812 25.550781 130.203125 23.007812 127.765625 21.636719 C 125.441406 20.324219 122.601562 20.277344 120.015625 20.328125 C 115.820312 20.421875 111.34375 21.183594 107.277344 19.816406 C 104.394531 18.851562 102.261719 15.34375 99.742188 18.898438 C 99.484375 19.257812 100.050781 19.621094 100.328125 19.273438 Z M 100.328125 19.273438 " fill-opacity="1" fill-rule="nonzero"/></svg>