<svg xmlns="http://www.w3.org/2000/svg" xmlns:xlink="http://www.w3.org/1999/xlink" width="500" zoomAndPan="magnify" viewBox="0 0 375 374.999991" height="500" preserveAspectRatio="xMidYMid meet" version="1.0"><defs><clipPath id="8cef4d3eb4"><path d="M 3 310 L 374.589844 310 L 374.589844 355 L 3 355 Z M 3 310 " clip-rule="nonzero"/></clipPath></defs><path fill="#fae0c2" d="M 305.390625 278.332031 C 304.921875 278.46875 304.605469 278.332031 304.433594 277.941406 C 306.8125 274.269531 307.390625 270.304688 309.355469 266.855469 C 310.707031 264.488281 316.398438 261.390625 319.105469 262.546875 C 322.367188 263.949219 322.492188 271.703125 322.128906 274.574219 C 321.523438 279.371094 318.277344 285.621094 315.25 289.109375 C 312.828125 287.222656 301.800781 279.90625 305.390625 278.332031 Z M 343.03125 313.363281 C 348.695312 306.769531 351.695312 297.25 356.285156 289.894531 C 360 283.945312 358.636719 276.976562 353.722656 272.007812 C 352.5625 270.835938 351.480469 270.503906 350.398438 269.761719 C 350.066406 269.53125 347.269531 267.582031 346.996094 267.492188 C 343.355469 266.335938 340.273438 268.375 337.863281 271.03125 C 334.765625 274.441406 333.96875 278.703125 332.828125 282.960938 C 331.859375 286.570312 327.90625 291.152344 327.683594 294.203125 C 319.402344 306.242188 332.25 325.90625 343.03125 313.363281 Z M 343.03125 313.363281 " fill-opacity="1" fill-rule="nonzero"/><path fill="#786b5d" d="M 85.058594 309.519531 C 85.058594 313.109375 84.820312 316.789062 85.25 320.355469 C 85.488281 322.296875 87.261719 325.953125 86.363281 327.867188 C 85.496094 329.710938 81.523438 331.386719 79.417969 331.863281 C 73.847656 333.117188 67.140625 330.484375 61.726562 329.371094 C 58.199219 328.644531 53.855469 328.976562 52.046875 325.855469 C 47.46875 317.945312 58.152344 308.855469 61.578125 303.21875 C 65.410156 296.90625 67.355469 282.820312 78.195312 286.484375 C 87.261719 282.234375 85.058594 306.191406 85.058594 309.519531 Z M 342.6875 313.273438 C 342.207031 308.503906 340.050781 303.886719 338.5 299.339844 C 337.003906 294.972656 335.089844 292.089844 331.382812 289.21875 C 326.636719 285.546875 319.898438 285.089844 314.117188 282.621094 C 309.347656 280.585938 305.804688 277.175781 301.164062 275.152344 C 297.472656 273.535156 292.867188 272.832031 288.9375 271.917969 C 287.847656 271.667969 286.773438 271.332031 285.699219 270.976562 C 289.449219 274.335938 292.824219 278.199219 295.664062 282.804688 C 301.75 293.460938 301.75 307.171875 308.609375 317.824219 C 312.597656 324.3125 318.875 328.511719 324.875 332.996094 C 325.957031 332.316406 327.03125 331.632812 328.105469 330.972656 C 331.160156 329.097656 335.058594 328.324219 337.972656 326.257812 C 342.378906 323.105469 343.214844 318.507812 342.6875 313.273438 Z M 342.6875 313.273438 " fill-opacity="1" fill-rule="nonzero"/><path fill="#a6ac37" d="M 98.648438 155.609375 C 110.523438 156.519531 121.519531 157.617188 133.121094 159.996094 C 142.160156 161.859375 150.894531 162.257812 160.003906 162.609375 C 159.878906 169.667969 164.328125 176.082031 166.09375 182.746094 C 167.242188 187.078125 167.988281 191.472656 168.761719 195.914062 C 170.703125 207.136719 171.238281 218.917969 170.6875 230.320312 C 169.851562 247.703125 171.882812 265.066406 172.066406 282.457031 C 172.105469 285.742188 172.304688 287.609375 169.570312 289.8125 C 165.179688 293.339844 157.542969 293.363281 152.28125 294.675781 C 145.4375 296.382812 139.578125 298.050781 133.878906 302.023438 C 130.816406 299.273438 130.527344 294.046875 130.15625 290.125 C 129.578125 283.945312 128.207031 277.960938 127.621094 271.785156 C 126.613281 261.25 123.234375 250.675781 121.171875 240.28125 C 120.265625 235.703125 118.074219 232.21875 117.207031 238.476562 C 116.613281 242.726562 116.960938 247.738281 116.796875 252.167969 C 116.1875 268.78125 116.183594 285.101562 114.078125 301.601562 C 113.535156 305.835938 114.882812 312.546875 113.246094 316.519531 C 111.140625 321.644531 101.941406 321.519531 97.285156 322.46875 C 92.355469 323.476562 82.695312 328.167969 78.1875 324.246094 C 75.644531 322.039062 73.738281 315.328125 73.574219 311.988281 C 73.300781 306.457031 73.910156 300.445312 73.910156 294.734375 C 73.910156 288.640625 74.003906 282.53125 73.070312 276.628906 C 71.34375 265.742188 66.257812 255.925781 64.914062 245.003906 C 62.832031 228.046875 59.835938 212.191406 61.058594 194.914062 C 61.667969 186.3125 65.886719 179.890625 70.253906 172.589844 C 72.300781 169.15625 75.199219 165.996094 77.105469 162.578125 C 78.121094 160.761719 78.832031 158.828125 78.625 158.738281 C 73.945312 154.050781 96.394531 155.4375 98.648438 155.609375 Z M 98.648438 155.609375 " fill-opacity="1" fill-rule="nonzero"/><path fill="#fae0c2" d="M 179.5625 50.695312 C 184.539062 50.101562 188.875 49.195312 194.078125 49.484375 C 207.949219 50.257812 213.453125 58.277344 220.515625 68.992188 C 226.90625 78.683594 233.359375 86.765625 233.371094 98.652344 C 233.378906 102.042969 233.320312 105.808594 232.503906 108.9375 C 231.074219 114.425781 227.351562 120.378906 225.015625 125.777344 C 223.355469 129.609375 221.226562 133.109375 219.449219 136.832031 C 217.804688 140.273438 218.484375 142.964844 217.964844 146.570312 C 216.566406 156.328125 207.320312 149.082031 201.226562 148.851562 C 196.257812 148.667969 189.253906 149.957031 184.835938 151.9375 C 183.226562 154 183.648438 154.636719 179.148438 155.28125 C 174.90625 155.890625 173.601562 154.414062 171.214844 154 C 169.28125 159.507812 168.351562 166.507812 164.03125 169.957031 C 161.457031 172.003906 156.667969 174.347656 153.671875 175.828125 C 146.15625 179.550781 137.265625 178.511719 129.164062 178.839844 C 117.820312 179.300781 106.707031 180.597656 96.269531 176.050781 C 91.128906 173.8125 85.933594 172.507812 82.027344 168.234375 C 80.558594 166.625 75.027344 160.175781 74.960938 157.65625 C 74.886719 154.957031 81.894531 150.453125 83.8125 147.828125 C 90.753906 138.347656 94.917969 125.148438 98.457031 114.003906 C 101.148438 105.535156 105.097656 98.023438 107.449219 89.445312 C 109.242188 82.898438 112.164062 76.660156 115.390625 70.707031 C 120.058594 62.089844 127.167969 54.261719 134.992188 48.148438 C 139.054688 44.976562 141.796875 45.785156 146.769531 46.371094 C 155.410156 47.386719 164.691406 50.195312 173.355469 49.796875 C 172.125 50.003906 177.738281 50.910156 179.5625 50.695312 Z M 179.5625 50.695312 " fill-opacity="1" fill-rule="nonzero"/><g clip-path="url(#8cef4d3eb4)"><path fill="#f19c74" d="M 71.253906 319.523438 C 71.789062 323.535156 69.675781 325.996094 68.753906 329.660156 C 67.265625 335.621094 65.484375 341.984375 64.90625 348.152344 C 64.367188 353.929688 63.410156 353.34375 57.730469 353.90625 C 50.960938 354.574219 45.34375 352.957031 38.96875 350.949219 C 33.347656 349.175781 28.59375 344.59375 23.351562 343.050781 C 19.046875 341.785156 12.773438 342.539062 8.324219 342.214844 C 0.320312 341.636719 4.683594 337.617188 7.480469 333.210938 C 8.148438 332.167969 7.746094 331.171875 8.753906 329.941406 C 9.421875 329.125 10.640625 329.058594 11.222656 328.382812 C 12.890625 326.441406 12.320312 325.113281 13.582031 323.023438 C 15.53125 319.785156 20.839844 316.46875 24.175781 316.929688 C 29.171875 317.617188 32.25 321.183594 38.136719 320.363281 C 43.808594 319.566406 47.847656 315.90625 54.015625 316.0625 C 59.429688 316.203125 66.441406 316.144531 71.34375 318.203125 C 70.386719 320.546875 70.742188 319.871094 71.253906 319.523438 Z M 289.945312 329.222656 C 292.402344 336.199219 299.222656 352.277344 307.519531 352.949219 C 311.097656 353.238281 315.464844 351.320312 319.113281 351 C 322.902344 350.675781 326.867188 351.199219 330.613281 350.578125 C 335.023438 349.84375 340.6875 348.136719 344.75 346.179688 C 348.191406 344.527344 350.5625 341.21875 353.839844 339.460938 C 356.695312 337.933594 358.316406 339.097656 361.429688 338.789062 C 366.191406 338.304688 374.035156 334.339844 374.421875 328.949219 C 374.546875 327.191406 373.664062 326.332031 373.34375 324.855469 C 373.195312 324.171875 372.929688 322.273438 372.6875 321.636719 C 371.640625 318.929688 371.367188 318.574219 369.46875 316.5 C 366.960938 313.753906 363.34375 311.257812 359.183594 310.914062 C 354.015625 310.484375 349.984375 315.5625 344.617188 315.636719 C 338.484375 315.71875 332.992188 313.511719 326.785156 313.496094 C 323.367188 313.488281 321.691406 314.273438 318.652344 315.113281 C 315.769531 315.914062 312.5 315.558594 309.105469 315.207031 C 302.515625 314.527344 294.722656 312.132812 288.242188 314.355469 C 286.671875 317.484375 288.886719 326.21875 289.945312 329.222656 Z M 289.945312 329.222656 " fill-opacity="1" fill-rule="nonzero"/></g><path fill="#5f3a10" d="M 175.507812 45.101562 C 176.574219 35.425781 178.234375 28.691406 184.761719 20.878906 C 187.667969 17.394531 191.65625 14.621094 195.652344 12.519531 C 200.097656 10.183594 204.363281 10.511719 208.882812 9.019531 C 210.195312 0.0195312 223.207031 1.546875 229.300781 3.402344 C 239.117188 6.390625 245.199219 13.566406 246.761719 23.84375 C 248.222656 33.394531 244.109375 44.390625 247.628906 53.601562 C 249.503906 58.5 250.511719 57.136719 247.082031 60.109375 C 245.523438 61.460938 245.167969 59.84375 244.054688 62.699219 C 243.484375 64.167969 244.128906 66.984375 244.078125 68.578125 C 243.871094 74.820312 241.394531 81.085938 244.183594 87.136719 C 244.863281 88.613281 246.859375 90.15625 246.570312 91.726562 C 246.035156 94.648438 241.644531 95.132812 239.414062 94.894531 C 239.347656 97.734375 244.539062 108.25 236.769531 103.007812 C 235.765625 105.527344 236.6875 108.40625 237.589844 110.726562 C 226.261719 118.949219 219.5 100.1875 221.148438 91.363281 C 222.050781 86.5 224.855469 79.605469 223.125 74.734375 C 221.175781 69.230469 214.84375 69.417969 210.085938 68.726562 C 204.621094 67.933594 199.527344 67.175781 194.027344 67.71875 C 189.90625 68.125 187.265625 68.980469 183.929688 66.160156 C 179.851562 62.707031 171.257812 50.699219 175.507812 45.101562 Z M 316.40625 326.054688 C 319.359375 328.164062 322.730469 331.683594 326.253906 334.917969 C 331.191406 340.582031 333.464844 346.929688 325.554688 350.703125 C 313.011719 356.6875 295.746094 359.757812 281.960938 359.824219 C 274.957031 359.855469 267.949219 359.128906 260.898438 359.460938 C 251.890625 359.882812 242.246094 356.84375 233.402344 358.058594 C 229.117188 358.644531 225.152344 360.394531 220.792969 361.070312 C 214.660156 362.011719 208.582031 362.9375 202.449219 363.546875 C 187.703125 365 173.261719 363.398438 158.683594 360.402344 C 144.050781 357.390625 130.578125 357.222656 115.640625 357.222656 C 102.769531 357.222656 90.128906 360.417969 77.324219 359.816406 C 69.042969 359.425781 47.035156 355.597656 44.230469 345.121094 C 42.40625 338.285156 52.703125 331.410156 56.746094 327.289062 C 62.9375 320.976562 67.769531 312.574219 75 307.453125 C 82.195312 302.34375 90.210938 299.457031 98.03125 295.632812 C 103.898438 292.761719 108.855469 288.550781 114.617188 285.539062 C 136.035156 274.351562 158.996094 263.097656 183.535156 261.636719 C 186.488281 261.457031 190.351562 255.769531 191.871094 258.113281 C 195.800781 255.191406 208.972656 251.179688 213.769531 250.808594 C 220.546875 250.289062 237.132812 250.015625 252.351562 254.457031 C 264.867188 258.105469 282.191406 269.792969 285.699219 270.96875 C 289.449219 274.328125 292.824219 278.191406 295.664062 282.796875 C 301.75 293.453125 301.75 307.164062 308.609375 317.820312 C 312.589844 324.304688 310.410156 321.578125 316.40625 326.054688 Z M 316.40625 326.054688 " fill-opacity="1" fill-rule="nonzero"/><path fill="#f19c74" d="M 228.769531 71.671875 C 225.417969 79.679688 224.460938 85.996094 217.953125 91.929688 C 212.421875 96.96875 210.113281 102.589844 202.722656 104.6875 C 199.433594 105.625 199.046875 105.28125 197.050781 108.195312 C 194.53125 111.875 193.210938 115.722656 189.660156 118.835938 C 185.449219 122.539062 181.773438 124.433594 176.417969 121.410156 C 173.371094 119.683594 168.53125 115.101562 167.417969 111.527344 C 165.144531 104.230469 170 92.765625 170.316406 85.179688 C 170.6875 76.4375 173.222656 73.6875 176.144531 66.101562 C 169.042969 62.691406 167.605469 42.972656 176.019531 43.671875 C 176.457031 43.746094 176.484375 43.910156 177.132812 43.863281 C 180.378906 48.632812 179.808594 70.335938 188.578125 58.136719 C 191.550781 54 192.566406 49.878906 198.296875 51.613281 C 203.011719 53.035156 206.5625 56.601562 210.640625 58.789062 C 213.820312 60.496094 216.9375 60.101562 220.703125 60.101562 C 223.28125 60.101562 226.871094 58.738281 228.863281 58.851562 C 236.003906 59.242188 230.347656 67.890625 228.769531 71.671875 Z M 203.761719 140.71875 C 199.484375 139.910156 193.21875 138.597656 189.121094 141.03125 C 186.503906 142.578125 187.117188 142.652344 186.316406 145.523438 C 185.226562 149.429688 183.832031 153.449219 182.796875 157.238281 C 181.195312 163.046875 179.316406 168.6875 177.003906 174.203125 C 175.003906 178.988281 172.03125 182.636719 170.792969 187.839844 C 165.808594 208.691406 165.964844 230.824219 164.269531 252.054688 C 161.894531 243.90625 160.804688 234.785156 159.746094 226.140625 C 157.394531 206.957031 153.992188 187.671875 151.273438 168.792969 C 150.09375 160.582031 151.929688 150.601562 151.929688 142.136719 C 151.929688 133.042969 150.648438 122.730469 153.164062 114.203125 C 151.929688 113.054688 150.285156 112.386719 148.425781 111.4375 C 145.875 110.132812 142.796875 110.125 140.070312 109.859375 C 135.457031 109.398438 121.402344 107.144531 118.066406 110.273438 C 115.953125 115.617188 119.808594 127.929688 120.304688 136.574219 C 121.089844 150.304688 120.964844 163.898438 121.484375 177.59375 C 121.980469 190.667969 127.074219 202.8125 130.054688 215.445312 C 132.242188 224.722656 136.007812 233.925781 139.046875 242.984375 C 140.929688 248.605469 144.265625 253.546875 146.289062 259.078125 C 147.089844 261.257812 146.765625 264.402344 147.632812 266.335938 C 149.292969 270.019531 154.785156 270.890625 156.429688 274.664062 C 157.730469 277.628906 156.648438 279.015625 157.277344 280.484375 C 157.21875 280.476562 157.15625 280.46875 157.097656 280.460938 C 152.152344 279.71875 149.617188 272.164062 143.515625 276.851562 C 141.195312 278.628906 142.257812 280.003906 141.328125 282.441406 C 140.0625 285.769531 135.546875 287.558594 132.484375 288.382812 C 127.738281 289.65625 124.324219 290.851562 121.371094 295.164062 C 117.769531 300.4375 117.351562 307.328125 115.507812 313.28125 C 115.820312 313.027344 116.042969 312.835938 116.203125 312.671875 C 114.589844 316.203125 112.511719 319.375 112.171875 323.355469 C 111.792969 327.800781 112.261719 332.839844 114.136719 336.933594 C 118.066406 345.507812 123.597656 353.1875 131.542969 358.480469 C 135.5625 361.160156 138.164062 360.003906 142.605469 360.882812 C 146.480469 361.65625 149.898438 362.78125 153.957031 362.195312 C 160.636719 361.242188 169.960938 356.886719 175.09375 352.527344 C 179.273438 348.976562 182.238281 344.636719 185.25 340.308594 C 187.910156 336.480469 188.363281 333.375 189.050781 328.894531 C 189.957031 323.046875 189 317.097656 187.421875 311.574219 C 185.480469 304.789062 182.296875 296.832031 178.050781 291.140625 C 177.507812 290.414062 176.960938 289.679688 176.40625 288.960938 C 177.777344 288.152344 178.363281 286.535156 178.585938 284.414062 C 183.816406 284.140625 189.222656 284.027344 193.960938 281.898438 C 196.125 280.929688 203.316406 276.589844 204.082031 274.003906 C 205.347656 269.679688 200.890625 265.222656 198.867188 262.011719 C 197.191406 259.351562 197.148438 258.667969 194.566406 257.578125 C 191.226562 256.171875 183.359375 259.144531 178.585938 255.984375 C 182.59375 232.398438 196.042969 210.632812 199.039062 186.804688 C 200.484375 175.292969 207.949219 163.933594 212.800781 153.449219 C 213.785156 151.316406 217.230469 147.460938 216.269531 145.332031 C 214.917969 142.359375 206.320312 141.199219 203.761719 140.71875 Z M 203.761719 140.71875 " fill-opacity="1" fill-rule="nonzero"/><path fill="#5f3a10" d="M 187.503906 320.398438 C 187.414062 320.457031 187.324219 320.511719 187.234375 320.570312 C 187.183594 320.605469 187.125 320.613281 187.066406 320.605469 C 186.464844 321.148438 185.457031 322.882812 185.199219 323.277344 C 185.144531 323.351562 185.09375 323.429688 185.050781 323.511719 C 185.21875 323.453125 185.464844 323.542969 185.457031 323.757812 C 185.449219 324.886719 185.277344 325.996094 185.292969 327.125 C 185.300781 327.644531 185.351562 328.140625 185.5625 328.613281 C 185.640625 328.800781 185.761719 329.132812 185.925781 329.265625 C 186.042969 329.535156 186.191406 329.542969 186.367188 329.28125 C 186.589844 329.191406 186.730469 329.023438 186.785156 328.785156 C 186.941406 328.464844 187.511719 328.621094 187.398438 328.976562 C 187 330.320312 185.9375 330.742188 185.160156 329.421875 C 184.152344 327.710938 184.765625 325.65625 184.847656 323.789062 C 184.324219 324.625 183.855469 325.507812 183.597656 326.464844 C 182.929688 328.957031 183.359375 331.699219 183.203125 334.25 C 183.1875 334.472656 182.90625 334.488281 182.78125 334.355469 C 182.59375 334.152344 182.410156 333.953125 182.222656 333.746094 C 182.0625 333.574219 182.335938 333.34375 182.5 333.507812 C 182.566406 333.558594 182.625 333.613281 182.691406 333.664062 C 182.5 331.425781 182.359375 328.992188 182.757812 326.804688 C 183.246094 324.136719 185.160156 321.964844 186.769531 319.878906 C 186.878906 319.730469 187.011719 319.679688 187.199219 319.710938 C 187.273438 319.722656 187.347656 319.730469 187.421875 319.746094 C 187.738281 319.8125 187.738281 320.265625 187.503906 320.398438 Z M 143.960938 299.15625 C 137.769531 298.917969 131.195312 298.316406 125.300781 300.621094 C 125.042969 300.726562 125.144531 301.148438 125.40625 301.054688 C 131.136719 298.859375 137.4375 299.429688 143.449219 299.644531 C 148.417969 299.816406 153.992188 300.082031 158.210938 303.011719 C 158.507812 303.21875 158.796875 302.75 158.507812 302.535156 C 154.542969 299.554688 148.730469 299.332031 143.960938 299.15625 Z M 131.210938 295.1875 C 134.597656 293.578125 138.652344 293.765625 142.265625 294.363281 C 142.449219 294.394531 142.546875 294.089844 142.359375 294.039062 C 138.839844 292.976562 134.367188 293.246094 131.078125 294.921875 C 130.898438 295.003906 131.03125 295.269531 131.210938 295.1875 Z M 159.277344 281.375 C 159.144531 281.308594 158.972656 281.492188 159.054688 281.625 C 160.078125 283.21875 157.507812 285.042969 156.054688 284.578125 C 155.816406 284.503906 155.71875 284.867188 155.949219 284.949219 C 157.164062 285.363281 158.449219 284.710938 159.191406 283.738281 C 159.65625 283.132812 160.210938 281.839844 159.277344 281.375 Z M 176.457031 295.410156 C 176.359375 295.023438 175.753906 295.15625 175.847656 295.542969 C 176.539062 298.40625 178.949219 300.4375 179.503906 303.351562 C 180.03125 306.132812 179.621094 308.742188 179.296875 311.492188 C 179.257812 311.8125 179.679688 311.992188 179.84375 311.6875 C 180.992188 309.5 180.644531 306.089844 180.296875 303.738281 C 179.816406 300.542969 177.234375 298.464844 176.457031 295.410156 Z M 168.308594 300.402344 C 168.070312 300.273438 167.839844 300.683594 168.078125 300.824219 C 169.796875 301.816406 169.726562 303.796875 170.390625 305.414062 C 170.457031 305.578125 170.753906 305.589844 170.777344 305.382812 C 170.949219 303.648438 169.84375 301.230469 168.308594 300.402344 Z M 169.628906 299.816406 C 169.40625 299.660156 169.160156 299.992188 169.382812 300.148438 C 170.40625 300.90625 171.183594 301.867188 171.890625 302.914062 C 172.058594 303.167969 172.429688 302.878906 172.265625 302.625 C 171.570312 301.535156 170.6875 300.5625 169.628906 299.816406 Z M 147.503906 286.691406 C 147.214844 286.859375 147.492188 287.289062 147.78125 287.128906 C 148.914062 286.488281 150.679688 285.964844 151.367188 284.769531 C 152.011719 283.65625 151.507812 281.484375 151.042969 280.394531 C 150.960938 280.210938 150.6875 280.246094 150.648438 280.445312 C 150.425781 281.757812 151.554688 283.175781 150.839844 284.449219 C 150.242188 285.539062 148.558594 286.074219 147.503906 286.691406 Z M 201.847656 276.285156 C 201.828125 276.554688 201.605469 276.65625 201.398438 276.628906 C 201.542969 279.1875 198.417969 279.34375 196.390625 279.964844 C 196.382812 279.988281 196.378906 280.007812 196.355469 280.03125 C 195.101562 281.484375 193.671875 282.011719 191.953125 282.738281 C 191.882812 282.769531 191.816406 282.769531 191.757812 282.761719 C 189.734375 284.160156 186.085938 284.308594 183.765625 283.664062 C 182.1875 285.023438 178.960938 285.089844 177.042969 284.472656 C 177.042969 284.851562 177.019531 285.222656 176.984375 285.578125 C 176.984375 285.585938 176.976562 285.585938 176.976562 285.59375 C 176.96875 285.636719 176.953125 285.675781 176.929688 285.710938 C 176.878906 285.824219 176.796875 285.890625 176.695312 285.902344 C 176.515625 286.039062 176.335938 286.164062 176.144531 286.28125 C 176.136719 286.289062 176.136719 286.304688 176.128906 286.3125 C 176.003906 286.496094 175.832031 286.625 175.640625 286.707031 C 175.609375 286.742188 175.582031 286.777344 175.550781 286.816406 C 175.367188 287.039062 175.078125 287.089844 174.863281 286.875 C 174.824219 286.875 174.796875 286.875 174.765625 286.867188 C 174.699219 286.921875 174.617188 286.949219 174.515625 286.933594 C 174.023438 286.875 173.402344 286.851562 172.777344 286.777344 C 173.023438 287 173.269531 287.222656 173.5 287.460938 C 174.105469 288.070312 175.160156 288.960938 175.03125 289.9375 C 175.011719 290.101562 174.757812 290.128906 174.707031 289.96875 C 174.335938 288.746094 173.15625 287.617188 171.917969 286.636719 C 171.296875 286.503906 170.734375 286.28125 170.363281 285.867188 C 170.199219 285.683594 170.09375 285.464844 170.042969 285.246094 C 169.820312 285.082031 169.605469 284.925781 169.414062 284.777344 C 166.203125 282.269531 162.941406 280.195312 158.632812 281.210938 C 158.25 281.300781 158.128906 280.691406 158.515625 280.601562 C 162.75 279.609375 166.078125 281.425781 169.316406 283.9375 C 169.546875 284.117188 169.777344 284.296875 170.007812 284.480469 C 170.132812 283.546875 170.726562 282.539062 171.132812 281.914062 C 171.238281 281.757812 171.46875 281.691406 171.636719 281.765625 C 172.867188 282.300781 173.855469 283.25 175.269531 283.210938 C 175.515625 283.207031 175.804688 283.425781 175.722656 283.710938 C 175.492188 284.464844 175.144531 285.175781 174.929688 285.941406 C 174.9375 285.941406 174.9375 285.933594 174.945312 285.933594 C 175.101562 285.917969 175.234375 285.867188 175.367188 285.792969 C 175.425781 285.734375 175.484375 285.683594 175.535156 285.621094 C 175.671875 285.496094 175.789062 285.386719 175.945312 285.324219 C 176.035156 285.238281 176.144531 285.230469 176.234375 285.273438 C 176.234375 284.859375 176.257812 284.421875 176.242188 283.992188 C 176.226562 283.9375 176.226562 283.886719 176.234375 283.835938 C 176.210938 283.367188 176.136719 282.910156 175.945312 282.484375 C 175.566406 281.65625 174.832031 281.359375 174.023438 281.085938 C 173.929688 281.054688 173.832031 281.019531 173.734375 280.988281 C 173.253906 280.988281 172.777344 280.890625 172.335938 280.609375 C 172.121094 280.476562 171.925781 280.320312 171.75 280.148438 C 171.40625 279.914062 171.117188 279.609375 170.933594 279.1875 C 170.882812 279.058594 170.960938 278.957031 171.066406 278.910156 C 171.035156 278.710938 171.03125 278.503906 171.066406 278.296875 C 170.734375 277.378906 170.058594 276.671875 169.644531 275.78125 C 169.367188 275.183594 169.25 274.515625 168.945312 273.921875 C 168.226562 272.519531 166.359375 272.3125 164.726562 272.566406 C 164.734375 272.667969 164.691406 272.765625 164.570312 272.832031 C 161.960938 274.300781 157.863281 273.945312 155.15625 272.90625 C 154.660156 272.714844 155.050781 271.980469 155.550781 272.171875 C 157.707031 273.003906 160.234375 273.097656 162.546875 272.640625 C 162.539062 272.492188 162.605469 272.34375 162.785156 272.269531 C 164.476562 271.550781 167.292969 271.191406 168.886719 272.351562 C 169.644531 272.890625 169.902344 273.804688 170.222656 274.632812 C 170.726562 275.9375 171.710938 276.992188 172.074219 278.339844 C 172.148438 278.617188 171.984375 278.808594 171.777344 278.882812 C 171.84375 279.164062 172 279.417969 172.207031 279.632812 C 172.570312 279.839844 172.980469 280.046875 173.082031 280.074219 C 173.320312 280.148438 173.566406 280.21875 173.808594 280.285156 C 174.507812 280.238281 175.167969 279.847656 175.863281 279.757812 C 176.671875 279.046875 176.722656 276.539062 176.847656 275.847656 C 177.136719 274.308594 177.375 272.800781 177.433594 271.289062 C 177.425781 271.289062 177.421875 271.289062 177.414062 271.28125 C 177.425781 271.117188 177.433594 270.964844 177.433594 270.800781 C 177.441406 270.800781 177.441406 270.800781 177.449219 270.800781 C 177.457031 269.894531 177.40625 268.976562 177.242188 268.050781 C 177.160156 267.574219 177.863281 267.441406 177.96875 267.90625 C 178.207031 268.929688 178.28125 269.96875 178.257812 271 C 179.570312 271.496094 180.320312 272.765625 181.054688 274.011719 C 182.476562 276.429688 184.175781 278.660156 185.886719 280.878906 C 185.902344 280.878906 185.917969 280.878906 185.925781 280.878906 C 186.703125 280.367188 187.332031 280.527344 187.882812 279.03125 C 188.347656 277.753906 188.519531 276.152344 188.527344 274.8125 C 188.535156 271.496094 187.363281 268.308594 187.207031 265 C 187.183594 264.488281 187.976562 264.347656 188 264.867188 C 188.035156 265.707031 188.148438 266.542969 188.28125 267.375 C 188.378906 267.324219 188.503906 267.324219 188.613281 267.425781 C 190.714844 269.390625 193.953125 270.390625 195.5625 272.875 C 196.753906 274.714844 195.875 277.882812 194.480469 279.402344 C 194.414062 279.476562 194.339844 279.503906 194.265625 279.519531 C 193.753906 280.402344 193.046875 281.292969 192.1875 281.855469 C 192.765625 281.625 193.359375 281.410156 193.914062 281.128906 C 194.515625 280.816406 195.019531 280.371094 195.511719 279.921875 C 195.457031 279.867188 195.421875 279.808594 195.429688 279.734375 C 195.480469 278.808594 196.023438 277.828125 196.453125 277.015625 C 196.695312 276.554688 196.894531 276.050781 197.164062 275.597656 C 197.304688 274.402344 197.621094 273.261719 197.777344 272.082031 C 197.925781 270.964844 197.3125 270.546875 196.636719 269.664062 C 194.894531 267.390625 193.523438 264.867188 191.519531 262.785156 C 191.1875 262.4375 191.75 261.960938 192.085938 262.300781 C 193.160156 263.386719 194.078125 264.59375 194.96875 265.832031 C 196.164062 266.03125 197.320312 266.632812 198.34375 267.253906 C 198.898438 267.597656 200.078125 268.285156 200.640625 269.058594 C 200.691406 269.050781 200.75 269.066406 200.804688 269.101562 C 201.113281 269.347656 201.351562 269.65625 201.5 270.019531 C 201.582031 270.222656 201.648438 270.445312 201.613281 270.660156 C 201.597656 270.753906 201.566406 270.820312 201.523438 270.902344 C 201.5 270.941406 201.375 271.113281 201.484375 270.957031 C 201.46875 270.96875 201.457031 270.976562 201.441406 270.984375 C 201.410156 271.082031 201.359375 271.15625 201.277344 271.191406 C 201.054688 272.855469 201.996094 274.609375 201.847656 276.285156 Z M 174.121094 286.03125 C 174.089844 285.957031 174.078125 285.882812 174.105469 285.777344 C 174.277344 285.175781 174.527344 284.605469 174.738281 284.011719 C 173.578125 283.863281 172.710938 283.210938 171.644531 282.699219 C 171.179688 283.457031 170.519531 284.71875 171.089844 285.320312 C 171.140625 285.363281 171.191406 285.398438 171.246094 285.445312 C 171.28125 285.46875 171.324219 285.496094 171.371094 285.519531 C 172.222656 285.917969 173.203125 285.902344 174.121094 286.03125 Z M 183.671875 282.746094 C 183.78125 282.648438 183.898438 282.550781 184.011719 282.464844 C 184.070312 282.417969 184.128906 282.375 184.1875 282.335938 C 184.226562 282.257812 184.292969 282.183594 184.402344 282.136719 C 184.292969 282.183594 184.492188 282.054688 184.53125 282.027344 C 184.664062 281.921875 184.796875 281.8125 184.921875 281.699219 C 185.0625 281.582031 185.191406 281.449219 185.324219 281.320312 C 183.746094 279.570312 182.386719 277.496094 181.140625 275.507812 C 180.371094 274.277344 179.628906 272.289062 178.226562 271.554688 C 178.132812 273.128906 177.835938 274.699219 177.523438 276.242188 C 177.265625 277.5625 177.398438 280.296875 175.730469 280.511719 C 175.535156 280.59375 175.34375 280.667969 175.144531 280.734375 C 175.253906 280.789062 175.375 280.832031 175.476562 280.898438 C 176.523438 281.5 176.902344 282.558594 177.003906 283.679688 C 179.089844 284.511719 181.914062 284.082031 183.671875 282.746094 Z M 191.261719 282.269531 C 191.015625 282.25 190.90625 281.921875 191.113281 281.738281 C 191.675781 281.234375 192.285156 280.804688 192.804688 280.246094 C 193.269531 279.742188 193.664062 279.1875 194.078125 278.644531 C 194.078125 278.644531 194.078125 278.644531 194.085938 278.644531 C 194.804688 277.644531 195.265625 276.214844 195.339844 275.027344 C 195.429688 273.566406 194.613281 272.75 193.566406 271.859375 C 191.953125 270.480469 189.988281 269.554688 188.40625 268.136719 C 188.867188 270.703125 189.503906 273.261719 189.28125 275.863281 C 189.171875 277.175781 188.925781 279.054688 188.273438 280.230469 C 188.125 280.5 186.8125 281.738281 186.285156 281.605469 C 186.257812 281.789062 186.050781 281.921875 185.855469 281.855469 C 185.695312 282.027344 185.53125 282.203125 185.351562 282.367188 C 185.199219 282.507812 185.042969 282.671875 184.863281 282.78125 C 184.804688 282.820312 184.746094 282.855469 184.679688 282.878906 C 184.664062 282.886719 184.648438 282.886719 184.632812 282.886719 C 184.640625 282.886719 184.640625 282.886719 184.65625 282.886719 C 184.648438 282.886719 184.640625 282.886719 184.632812 282.886719 C 184.613281 282.894531 184.582031 282.902344 184.558594 282.902344 C 184.542969 282.902344 184.539062 282.902344 184.523438 282.902344 C 184.472656 282.953125 184.410156 283.003906 184.351562 283.0625 C 186.695312 283.589844 189 282.910156 191.261719 282.269531 Z M 201.046875 275.707031 C 201.027344 275.070312 200.898438 274.425781 200.78125 273.789062 C 200.722656 273.757812 200.675781 273.722656 200.664062 273.648438 C 200.601562 273.328125 200.589844 273.015625 200.601562 272.714844 C 200.542969 272.28125 200.515625 271.851562 200.535156 271.429688 C 200.507812 271.253906 200.515625 271.058594 200.5 270.867188 C 200.476562 270.621094 200.441406 270.382812 200.402344 270.140625 C 200.0625 269.828125 199.839844 269.375 199.5 269.050781 C 199.023438 268.597656 198.484375 268.21875 197.933594 267.878906 C 197.214844 267.425781 196.414062 266.960938 195.578125 266.667969 C 196.605469 268.136719 197.621094 269.621094 198.792969 270.976562 C 198.90625 271.105469 198.898438 271.296875 198.816406 271.429688 C 197.957031 272.757812 198.046875 274.484375 197.726562 275.96875 C 197.691406 276.144531 197.546875 276.21875 197.414062 276.210938 C 196.976562 277.273438 196.695312 278.4375 196.140625 279.429688 C 197.117188 279.082031 198.148438 278.933594 199.128906 278.601562 C 200.515625 278.125 200.574219 277.28125 200.730469 275.976562 C 200.742188 275.796875 200.898438 275.703125 201.046875 275.707031 Z M 163.984375 250.558594 C 164.214844 251.246094 164.503906 252.765625 165.070312 253.613281 C 161.671875 255.375 158.167969 257.527344 155.34375 260.101562 C 155.03125 260.382812 155.410156 260.921875 155.726562 260.632812 C 158.632812 258.015625 162.265625 256.578125 165.296875 254.199219 C 167.195312 254.488281 168.53125 256.199219 170.496094 256.578125 C 172.683594 256.992188 175.011719 256.757812 177.226562 256.976562 C 179.445312 257.199219 181.636719 257.601562 183.824219 257.988281 C 185.539062 258.289062 187.355469 258.773438 189.058594 258.238281 C 189.585938 258.074219 189.253906 257.289062 188.734375 257.445312 C 186.671875 258.070312 184.019531 257.132812 181.964844 256.792969 C 179.636719 256.398438 177.300781 256.082031 174.945312 255.984375 C 172.785156 255.894531 170.597656 256.164062 168.648438 255.082031 C 167.820312 254.621094 167.09375 253.960938 166.226562 253.738281 C 166.21875 253.671875 166.195312 253.605469 166.152344 253.546875 C 166.144531 253.5 166.128906 253.457031 166.121094 253.410156 C 166.105469 253.292969 166.003906 253.21875 165.890625 253.195312 C 165.425781 252.417969 165.097656 250.988281 164.890625 250.355469 C 164.667969 249.691406 164.46875 249.015625 164.28125 248.332031 C 163.859375 246.78125 163.527344 245.203125 163.265625 243.617188 C 162.742188 240.40625 162.53125 237.15625 162.445312 233.910156 C 162.429688 233.324219 161.523438 233.40625 161.539062 233.984375 C 161.597656 237.742188 161.875 241.503906 162.585938 245.203125 C 162.941406 247.019531 163.402344 248.808594 163.984375 250.558594 Z M 181.015625 174.984375 C 180.769531 174.984375 180.710938 175.421875 181.007812 175.457031 C 183.382812 175.738281 185.777344 175.628906 188.140625 176.027344 C 190.683594 176.460938 193.003906 177.421875 195.332031 178.503906 C 195.636719 178.648438 195.910156 178.164062 195.621094 177.980469 C 191.453125 175.332031 185.894531 174.414062 181.015625 174.984375 Z M 136.644531 174.917969 C 138.601562 174.332031 140.523438 173.632812 142.375 172.773438 C 144.753906 171.667969 147.328125 169.644531 149.871094 169.074219 C 150.242188 168.992188 150.070312 168.457031 149.707031 168.519531 C 147.570312 168.875 145.695312 170.304688 143.785156 171.246094 C 141.382812 172.433594 138.914062 173.449219 136.355469 174.242188 C 135.902344 174.382812 136.199219 175.050781 136.644531 174.917969 Z M 185.398438 73.449219 C 185.09375 73.132812 185.523438 72.628906 185.902344 72.789062 C 186.21875 72.929688 186.539062 73.085938 186.84375 73.25 C 186.917969 73.234375 186.992188 73.234375 187.066406 73.265625 C 188.148438 73.722656 189.1875 74.257812 190.222656 74.808594 C 190.378906 74.726562 190.578125 74.71875 190.742188 74.867188 C 190.882812 74.992188 191.023438 75.109375 191.171875 75.222656 C 194.65625 76.71875 198.261719 78.238281 200.886719 81.011719 C 200.996094 81.125 201.035156 81.265625 201.019531 81.390625 C 201.105469 81.421875 201.1875 81.449219 201.277344 81.488281 C 201.648438 81.644531 201.53125 82.289062 201.105469 82.199219 C 198.867188 81.726562 196.6875 82.667969 194.480469 81.875 C 193.324219 81.457031 192.308594 80.777344 191.335938 80.050781 C 190.949219 79.761719 191.335938 79.121094 191.734375 79.402344 C 194.070312 81.09375 195.679688 81.578125 198.3125 81.265625 C 198.429688 81.25 198.550781 81.234375 198.660156 81.226562 C 196.917969 80.488281 195.339844 79.183594 193.632812 78.460938 C 190.578125 77.171875 187.734375 75.910156 185.398438 73.449219 Z M 196.753906 79.226562 C 197.511719 79.695312 198.28125 80.152344 199.082031 80.488281 C 198.710938 80.175781 198.320312 79.878906 197.917969 79.605469 C 197.851562 79.621094 197.785156 79.625 197.71875 79.597656 C 197.394531 79.476562 197.074219 79.351562 196.753906 79.226562 Z M 227.121094 76.453125 C 225.78125 76.90625 224.425781 77.320312 223.113281 77.863281 C 222.875 77.957031 222.785156 78.179688 222.816406 78.375 C 222.222656 78.707031 221.605469 79.039062 220.976562 79.367188 C 219.558594 79.960938 218.078125 80.433594 216.734375 81.199219 L 216.726562 81.207031 C 215.59375 81.578125 214.445312 81.835938 213.304688 81.925781 C 213.289062 81.925781 213.28125 81.925781 213.273438 81.925781 C 212.894531 81.953125 212.515625 81.960938 212.148438 81.953125 C 211.894531 81.949219 211.789062 82.175781 211.828125 82.378906 C 211.777344 82.390625 211.714844 82.421875 211.664062 82.464844 C 209.707031 84.261719 208.453125 85.816406 207.550781 88.324219 C 207.089844 89.601562 205.660156 92.378906 206.71875 93.625 C 207.046875 94.003906 207.566406 93.484375 207.355469 93.101562 C 206.765625 91.988281 208.097656 89.355469 208.476562 88.300781 C 209.261719 86.113281 210.515625 84.648438 212.183594 83.082031 C 212.308594 82.964844 212.332031 82.816406 212.292969 82.683594 C 212.671875 82.757812 213.066406 82.777344 213.457031 82.757812 C 216.453125 84.039062 219.992188 84.097656 223.082031 83.074219 C 223.402344 82.972656 223.289062 82.421875 222.964844 82.429688 C 220.109375 82.519531 217.8125 83.164062 215.089844 82.488281 C 215.660156 82.339844 216.222656 82.15625 216.75 81.96875 C 216.832031 82.015625 216.929688 82.027344 217.046875 82 C 220.738281 80.910156 223.933594 78.746094 227.457031 77.253906 C 227.921875 77.074219 227.597656 76.296875 227.121094 76.453125 Z M 209.921875 89.378906 C 209.046875 91.105469 209.277344 92.90625 208.082031 94.53125 C 207.074219 95.894531 205.371094 98.113281 203.53125 98.023438 C 201.707031 97.941406 200.730469 96 199.648438 94.746094 C 199.164062 94.191406 198.496094 93.738281 198.066406 93.136719 C 197.378906 92.164062 197.472656 91.1875 197.71875 90.097656 C 197.808594 89.679688 197.171875 89.578125 197.074219 89.984375 C 196.464844 92.550781 197.179688 93.113281 198.839844 94.976562 C 200.085938 96.371094 201.113281 98.535156 203.160156 98.859375 C 205.050781 99.15625 206.5625 97.546875 207.707031 96.257812 C 208.394531 95.488281 209.21875 94.671875 209.632812 93.714844 C 210.195312 92.433594 210.011719 91.054688 210.65625 89.769531 C 210.902344 89.289062 210.167969 88.894531 209.921875 89.378906 Z M 206.773438 98.535156 C 204.480469 98.527344 202.191406 100.054688 199.949219 99.195312 C 198.253906 98.542969 196.84375 96.96875 195.101562 96.519531 C 194.777344 96.429688 194.605469 96.910156 194.84375 97.097656 C 196.214844 98.207031 198.054688 99.304688 199.691406 99.964844 C 202.078125 100.929688 204.347656 99.351562 206.773438 99.367188 C 207.304688 99.367188 207.304688 98.535156 206.773438 98.535156 Z M 200.441406 102.589844 C 200.550781 102.589844 200.632812 102.53125 200.683594 102.449219 C 200.78125 102.382812 200.878906 102.308594 200.964844 102.21875 C 201.253906 101.929688 200.855469 101.574219 200.550781 101.65625 C 200.359375 101.707031 200.171875 101.789062 199.988281 101.863281 C 199.558594 101.863281 199.121094 101.863281 198.691406 101.835938 C 198.253906 101.804688 198.054688 102.433594 198.492188 102.597656 C 199.105469 102.835938 199.839844 102.871094 200.441406 102.589844 Z M 177.496094 64.261719 C 177.769531 64.515625 178.152344 64.179688 177.992188 63.863281 C 176.894531 61.777344 175.945312 59.953125 176.410156 57.515625 C 176.554688 56.757812 176.835938 56.046875 176.804688 55.269531 C 176.761719 54.265625 176.203125 53.429688 176.261719 52.382812 C 176.292969 51.84375 175.457031 51.703125 175.425781 52.25 C 175.367188 53.304688 175.773438 54.132812 175.855469 55.164062 C 175.96875 56.46875 175.382812 57.671875 175.417969 58.984375 C 175.457031 60.824219 176.101562 63.003906 177.496094 64.261719 Z M 175.0625 77.980469 C 173.410156 74.390625 175.484375 69.980469 176.117188 66.316406 C 176.195312 65.84375 176.917969 66.066406 176.84375 66.53125 C 176.472656 68.703125 175.898438 70.824219 175.5 72.992188 C 175.261719 74.265625 174.988281 75.519531 175.394531 76.78125 C 175.707031 77.726562 176.21875 78.625 176.671875 79.515625 C 178.515625 83.15625 180.652344 86.625 182.660156 90.179688 C 184.605469 93.613281 186.207031 97.230469 188.089844 100.683594 C 189.171875 102.664062 190.816406 103.296875 192.722656 104.273438 C 194.085938 104.980469 195.289062 105.503906 196.734375 105.609375 C 196.792969 105.503906 196.890625 105.429688 197.03125 105.429688 C 197.957031 105.410156 198.734375 105.261719 199.648438 105.394531 C 199.75 105.410156 199.808594 105.46875 199.855469 105.542969 C 199.863281 105.542969 199.871094 105.535156 199.875 105.535156 C 199.882812 105.535156 199.882812 105.535156 199.890625 105.527344 C 199.921875 105.519531 199.949219 105.511719 199.980469 105.503906 C 200.410156 105.417969 200.5 106.039062 200.152344 106.203125 C 200.003906 106.269531 199.765625 106.304688 199.507812 106.335938 C 199.492188 106.335938 199.484375 106.34375 199.476562 106.351562 C 198.636719 107.34375 197.617188 108.101562 196.488281 108.773438 C 196.214844 108.9375 195.917969 108.769531 195.828125 108.53125 C 195.398438 108.773438 194.960938 108.960938 194.523438 109.042969 C 193.613281 109.207031 192.664062 108.738281 191.847656 108.40625 C 190.320312 107.78125 188.703125 107.195312 187.207031 106.519531 C 186.382812 106.148438 186.25 105.609375 186.09375 104.90625 C 185.996094 104.84375 185.894531 104.785156 185.796875 104.734375 C 185.554688 104.609375 185.714844 104.257812 185.945312 104.3125 C 185.9375 104.289062 185.9375 104.265625 185.929688 104.246094 C 185.332031 102.167969 184.011719 100.269531 183.171875 98.28125 C 182.4375 96.546875 181.511719 94.703125 181.046875 92.886719 C 180.113281 89.25 178.660156 85.523438 176.699219 82.296875 C 176.539062 82.027344 176.707031 81.738281 176.929688 81.671875 C 176.269531 80.472656 175.640625 79.242188 175.0625 77.980469 Z M 196.4375 107.011719 C 195.835938 107.261719 195.226562 107.359375 194.605469 107.425781 C 194.640625 107.457031 194.679688 107.476562 194.714844 107.5 C 194.804688 107.566406 194.859375 107.683594 194.863281 107.804688 C 195.398438 107.632812 195.925781 107.34375 196.4375 107.011719 Z M 195.902344 106.195312 C 195.984375 106.230469 196.042969 106.292969 196.074219 106.371094 C 196.183594 106.394531 196.296875 106.410156 196.40625 106.433594 C 196.6875 106.484375 196.726562 106.839844 196.496094 106.980469 C 196.828125 106.765625 197.15625 106.535156 197.46875 106.304688 C 197.355469 106.304688 197.246094 106.304688 197.125 106.304688 L 197.117188 106.304688 C 197.082031 106.304688 197.042969 106.304688 197.007812 106.304688 C 196.941406 106.304688 196.890625 106.285156 196.835938 106.253906 C 196.519531 106.261719 196.207031 106.238281 195.902344 106.195312 Z M 194.175781 106.03125 C 194.347656 106.0625 194.515625 106.089844 194.6875 106.121094 C 194.917969 106.074219 195.160156 106.074219 195.40625 106.105469 C 195.019531 106.015625 194.640625 105.882812 194.265625 105.726562 C 194.285156 105.832031 194.25 105.941406 194.175781 106.03125 Z M 191.789062 106.640625 C 192.03125 106.882812 192.285156 107.121094 192.515625 107.382812 C 192.550781 107.425781 192.574219 107.476562 192.589844 107.53125 C 192.953125 107.640625 193.300781 107.699219 193.605469 107.675781 C 193.019531 107.285156 192.410156 106.945312 191.789062 106.640625 Z M 189.808594 106.113281 C 190.328125 106.453125 190.90625 106.800781 191.476562 107.085938 C 191.492188 107.09375 191.5 107.09375 191.515625 107.097656 C 191.292969 106.863281 191.070312 106.625 190.839844 106.402344 C 190.484375 106.320312 190.140625 106.21875 189.808594 106.113281 Z M 188.214844 104.867188 C 188.132812 104.808594 188.035156 104.757812 187.960938 104.695312 C 187.875 104.882812 187.59375 104.972656 187.457031 104.742188 C 187.304688 104.480469 187.175781 104.214844 187.027344 103.949219 C 186.992188 103.925781 186.953125 103.902344 186.917969 103.882812 C 186.8125 103.820312 186.8125 103.726562 186.867188 103.644531 C 186.761719 103.449219 186.65625 103.265625 186.554688 103.082031 C 186.738281 103.570312 186.820312 104.363281 187.011719 104.898438 C 187.230469 105.015625 187.449219 105.140625 187.667969 105.269531 C 187.710938 105.097656 187.875 104.964844 188.089844 104.984375 C 188.117188 104.941406 188.164062 104.90625 188.214844 104.867188 Z M 187.308594 103.257812 C 187.421875 103.472656 187.539062 103.679688 187.652344 103.894531 C 187.957031 104.050781 188.398438 104.355469 188.613281 104.394531 C 188.183594 104.015625 187.746094 103.636719 187.308594 103.257812 Z M 187.265625 102.25 C 186.730469 101.566406 186.265625 100.894531 185.878906 100.277344 C 185.804688 100.152344 185.730469 100.023438 185.65625 99.90625 C 185.96875 100.582031 186.292969 101.25 186.628906 101.917969 C 186.84375 102.035156 187.058594 102.144531 187.265625 102.25 Z M 182.015625 90.601562 C 182.582031 91.691406 183.152344 92.765625 183.730469 93.847656 C 184.472656 95.25 185.175781 96.667969 185.894531 98.074219 C 185.945312 98.15625 186.003906 98.238281 186.058594 98.320312 C 185.828125 97.851562 185.597656 97.394531 185.367188 96.949219 C 184.308594 94.917969 183.300781 92.863281 182.171875 90.867188 C 182.121094 90.777344 182.070312 90.691406 182.015625 90.601562 Z M 180.832031 89 C 180.839844 89.023438 180.84375 89.035156 180.851562 89.058594 C 180.925781 89.25 181.007812 89.453125 181.082031 89.636719 C 181.089844 89.652344 181.097656 89.667969 181.097656 89.6875 C 181.222656 90 181.355469 90.320312 181.484375 90.628906 C 181.824219 91.261719 182.179688 91.890625 182.527344 92.519531 C 181.941406 91.355469 181.363281 90.1875 180.832031 89 Z M 154.898438 184.851562 C 156.789062 184.402344 158.78125 184.253906 160.648438 183.753906 C 160.917969 183.679688 160.8125 183.332031 160.574219 183.308594 C 158.714844 183.15625 156.585938 183.859375 154.792969 184.304688 C 154.460938 184.394531 154.554688 184.933594 154.898438 184.851562 Z M 125.257812 203.136719 C 123.558594 202.113281 121.625 201.671875 119.613281 201.46875 C 120.097656 197.09375 120.46875 192.71875 120.230469 188.300781 C 120.222656 188.128906 120.097656 187.972656 119.933594 187.9375 C 119.421875 187.828125 118.984375 187.832031 118.570312 187.914062 C 110.957031 187.605469 103.5625 186.953125 96.296875 184.445312 C 88.855469 181.878906 82.152344 177.703125 76.378906 172.367188 C 76.058594 172.070312 75.539062 172.507812 75.859375 172.804688 C 86.984375 183.089844 101.820312 188.640625 116.96875 188.554688 C 116.8125 188.8125 117.132812 189.234375 117.5 189.078125 C 118.140625 188.582031 118.804688 188.566406 119.496094 189.019531 C 119.503906 189.25 119.511719 189.488281 119.519531 189.71875 C 119.644531 190.289062 119.539062 191.125 119.53125 191.710938 C 119.519531 193.121094 119.445312 194.53125 119.339844 195.9375 C 119.214844 197.761719 119.027344 199.570312 118.820312 201.386719 C 115.863281 201.179688 112.777344 201.417969 110.035156 201.0625 C 103.132812 200.171875 96.378906 198.453125 89.75 196.375 C 89.5 196.292969 89.34375 196.679688 89.597656 196.761719 C 96.007812 198.816406 102.53125 200.5 109.207031 201.460938 C 112.273438 201.90625 115.582031 201.699219 118.761719 201.972656 C 118.695312 202.558594 118.628906 203.136719 118.5625 203.714844 C 118 208.515625 117.703125 213.296875 117.316406 218.101562 C 117.308594 218.199219 117.300781 218.292969 117.292969 218.398438 C 109.507812 218.597656 101.777344 221.378906 93.976562 219.160156 C 93.519531 219.027344 93.265625 219.734375 93.726562 219.859375 C 98.167969 221.132812 102.726562 220.933594 107.269531 220.40625 C 110.613281 220.023438 113.890625 219.605469 117.210938 219.421875 C 116.894531 223.394531 116.671875 229.566406 122.113281 228.222656 C 122.59375 228.105469 122.386719 227.394531 121.914062 227.488281 C 117.605469 228.363281 117.546875 223.460938 117.902344 219.382812 C 119.257812 219.324219 120.621094 219.296875 122 219.332031 C 122.453125 219.347656 122.445312 218.703125 122.015625 218.644531 C 120.675781 218.441406 119.332031 218.375 117.992188 218.382812 C 118.117188 217.183594 118.25 216.113281 118.28125 215.367188 C 118.464844 210.910156 119.058594 206.476562 119.554688 202.039062 C 121.453125 202.253906 123.300781 202.679688 125.003906 203.5625 C 125.292969 203.714844 125.539062 203.300781 125.257812 203.136719 Z M 156.566406 201.085938 C 157.730469 200.394531 158.8125 200.214844 160.125 200.039062 C 160.515625 199.988281 160.457031 199.410156 160.085938 199.363281 C 158.773438 199.207031 157.359375 199.75 156.261719 200.410156 C 155.859375 200.652344 156.15625 201.320312 156.566406 201.085938 Z M 117.863281 234.859375 C 115.351562 234.695312 112.777344 235.816406 110.511719 236.765625 C 107.390625 238.070312 104.273438 239.308594 101.078125 240.421875 C 97.046875 241.828125 92.582031 243.328125 89.476562 246.398438 C 89.195312 246.671875 89.582031 247.144531 89.863281 246.871094 C 93.613281 243.203125 99.203125 241.785156 104.03125 240.117188 C 108.671875 238.515625 112.933594 236.074219 117.863281 235.460938 C 118.214844 235.421875 118.214844 234.882812 117.863281 234.859375 Z M 115.566406 237.558594 C 108.992188 241.96875 101.53125 246.960938 97.253906 253.828125 C 97.089844 254.085938 97.515625 254.339844 97.699219 254.109375 C 102.820312 247.589844 109.070312 242.601562 115.921875 237.980469 C 116.21875 237.78125 115.855469 237.367188 115.566406 237.558594 Z M 129.578125 240.144531 C 130.972656 241.050781 132.105469 242.042969 133.261719 243.238281 C 133.546875 243.527344 133.910156 243.089844 133.738281 242.792969 C 132.1875 240.09375 128.683594 238.945312 126.421875 236.949219 C 126.042969 236.617188 125.546875 237.226562 125.921875 237.558594 C 127.050781 238.550781 128.320312 239.332031 129.578125 240.144531 Z M 137.980469 262.539062 C 134.0625 258.277344 129.941406 254.125 127.027344 249.082031 C 126.792969 248.671875 126.125 248.992188 126.359375 249.40625 C 129.261719 254.53125 133.359375 258.757812 137.304688 263.066406 C 137.675781 263.464844 138.355469 262.949219 137.980469 262.539062 Z M 62.574219 195.398438 C 66.375 195.210938 69.769531 191.601562 72.195312 189.027344 C 75.273438 185.765625 77.972656 182.175781 80.609375 178.558594 C 80.914062 178.140625 80.277344 177.667969 79.972656 178.082031 C 77.46875 181.507812 74.910156 184.917969 72.019531 188.035156 C 69.4375 190.816406 66.367188 194.011719 62.453125 194.640625 C 62.023438 194.714844 62.148438 195.410156 62.574219 195.398438 Z M 82.628906 179.246094 C 77.957031 188.117188 68.964844 192.988281 61.347656 198.972656 C 61.074219 199.1875 61.417969 199.609375 61.699219 199.394531 C 69.421875 193.351562 78.445312 188.472656 83.175781 179.484375 C 83.347656 179.152344 82.804688 178.90625 82.628906 179.246094 Z M 338.195312 335.726562 C 337.105469 338.898438 335.320312 341.613281 332.984375 344.007812 C 332.769531 344.230469 333.15625 344.511719 333.363281 344.296875 C 335.726562 341.902344 337.515625 339.09375 338.574219 335.890625 C 338.65625 335.644531 338.277344 335.472656 338.195312 335.726562 Z M 358.867188 326.257812 C 358.738281 326.125 358.457031 326.234375 358.488281 326.425781 C 358.753906 328.101562 359.148438 329.296875 358.597656 331.007812 C 358.035156 332.765625 356.96875 334.359375 355.839844 335.808594 C 353.988281 338.203125 351.792969 340.292969 349.597656 342.371094 C 349.292969 342.660156 349.792969 343.082031 350.09375 342.800781 C 352.785156 340.269531 355.523438 337.691406 357.5625 334.582031 C 358.902344 332.550781 360.972656 328.472656 358.867188 326.257812 Z M 20.152344 333.746094 C 20.195312 333.308594 19.511719 333.257812 19.476562 333.695312 C 19.289062 335.679688 20.078125 337.492188 21.167969 339.121094 C 22.324219 340.84375 24.042969 342.96875 25.976562 343.851562 C 26.183594 343.949219 26.421875 343.667969 26.257812 343.488281 C 23.671875 340.695312 19.734375 338.121094 20.152344 333.746094 Z M 20.152344 333.746094 " fill-opacity="1" fill-rule="nonzero"/><path fill="#fae0c2" d="M 184.789062 345.800781 C 185.78125 348.457031 187.265625 351.105469 186.28125 353.960938 C 185.054688 357.511719 179.808594 360.742188 177.257812 363.265625 C 171.109375 369.335938 164.335938 374.914062 155.121094 371.257812 C 150.828125 369.554688 148.765625 368.0625 144.066406 369.332031 C 140.527344 370.285156 137.84375 371.808594 134.160156 371.792969 C 128.265625 371.769531 121.75 372.164062 115.945312 371.074219 C 109.539062 369.863281 100.316406 369.085938 95.742188 363.722656 C 99.804688 358.75 103.039062 354.761719 103.058594 347.78125 C 103.074219 343.609375 102.15625 338.847656 102.753906 334.761719 C 103.339844 330.773438 106.492188 327.96875 108.574219 324.738281 C 110.148438 322.296875 110.746094 319.273438 112.378906 316.988281 C 113.75 315.066406 115.980469 313.851562 117.851562 312.441406 C 122.105469 309.238281 128.324219 305.851562 133.699219 305.300781 C 138.839844 304.777344 141.996094 306.25 144.976562 310.292969 C 146.609375 312.5 148.003906 314.636719 149.011719 317.164062 C 149.871094 319.324219 150.523438 322.429688 152.300781 324.054688 C 154.03125 325.640625 158.507812 325.542969 160.613281 324.304688 C 162.800781 323.023438 162.519531 320.554688 163.578125 318.515625 C 166.277344 313.316406 174.433594 315.601562 178.84375 317.300781 C 179.074219 321.445312 176.953125 343.082031 183.359375 342.5625 L 183.617188 342.5625 C 184.210938 345.023438 183.757812 343.058594 184.789062 345.800781 Z M 149.492188 290.375 C 149.308594 290.167969 149.460938 289.820312 149.722656 289.789062 C 151.144531 289.625 152.738281 289.984375 154.15625 290.664062 C 156.074219 290.234375 158.261719 291.472656 159.886719 292.316406 C 159.894531 292.316406 159.902344 292.324219 159.902344 292.324219 C 160.695312 292.621094 161.472656 292.976562 162.214844 293.421875 C 162.390625 293.527344 162.4375 293.710938 162.390625 293.890625 C 162.503906 293.980469 162.613281 294.0625 162.71875 294.15625 C 163.007812 294.425781 163.289062 294.699219 163.578125 294.972656 C 164.585938 295.617188 165.566406 296.300781 166.523438 297.035156 C 166.839844 297.277344 166.707031 297.671875 166.417969 297.804688 C 166.609375 297.960938 166.804688 298.117188 166.988281 298.28125 C 167.300781 298.554688 167.078125 299.050781 166.65625 298.933594 C 166.1875 298.804688 165.734375 298.636719 165.296875 298.441406 C 165.292969 298.4375 165.277344 298.4375 165.269531 298.4375 C 165.253906 298.429688 165.246094 298.421875 165.230469 298.414062 C 162.535156 297.199219 160.324219 294.964844 157.394531 294.289062 C 155.734375 293.914062 153.769531 294.996094 152.257812 294.082031 C 151.136719 293.414062 150.707031 291.941406 149.921875 290.960938 C 149.847656 290.871094 149.832031 290.777344 149.855469 290.695312 C 149.730469 290.582031 149.597656 290.496094 149.492188 290.375 Z M 151.835938 290.628906 C 152.058594 290.777344 152.28125 290.917969 152.496094 291.058594 C 152.730469 291.117188 152.960938 291.167969 153.191406 291.214844 C 153.230469 291.160156 153.273438 291.117188 153.332031 291.078125 C 152.84375 290.886719 152.339844 290.730469 151.835938 290.628906 Z M 283.074219 310.046875 C 282.800781 310.078125 282.890625 310.5 283.15625 310.46875 C 289.753906 309.707031 295.683594 314.042969 301.824219 315.683594 C 302.097656 315.757812 302.21875 315.347656 301.949219 315.261719 C 295.996094 313.230469 289.5625 309.277344 283.074219 310.046875 Z M 300.386719 342.808594 C 298.421875 341.199219 296.417969 339.707031 294.535156 337.996094 C 289.953125 333.828125 285.484375 329.542969 280.65625 325.664062 C 280.382812 325.441406 280.070312 325.902344 280.347656 326.125 C 284.792969 329.703125 288.929688 333.648438 293.136719 337.511719 C 294.898438 339.136719 296.664062 340.707031 298.570312 342.160156 C 300.667969 343.761719 302.667969 345.386719 303.714844 347.878906 C 303.847656 348.191406 304.316406 348.027344 304.210938 347.699219 C 303.582031 345.648438 302.023438 344.140625 300.386719 342.808594 Z M 76.429688 310.679688 C 73.003906 316.871094 70.148438 323.558594 69.253906 330.640625 C 68.695312 335.027344 68.800781 339.78125 70.429688 343.949219 C 71.988281 347.921875 74.722656 351.296875 76.445312 355.199219 C 76.554688 355.457031 76.917969 355.257812 76.828125 355.003906 C 75.8125 352.210938 74.117188 349.785156 72.664062 347.210938 C 70.964844 344.214844 69.933594 341.132812 69.644531 337.683594 C 68.84375 328.242188 72.382812 319.027344 76.851562 310.871094 C 76.992188 310.609375 76.578125 310.417969 76.429688 310.679688 Z M 186.167969 293.5625 C 184.6875 291.011719 182.542969 288.238281 179.355469 288.0625 C 178.984375 288.039062 179 288.617188 179.371094 288.640625 C 182.527344 288.816406 184.589844 291.878906 185.96875 294.394531 C 187.738281 297.621094 188.925781 301.171875 189.949219 304.695312 C 192.285156 312.792969 193.820312 320.859375 192.085938 329.257812 C 190.914062 334.953125 189.007812 340.457031 187.910156 346.171875 C 187.828125 346.582031 188.464844 346.714844 188.546875 346.300781 C 189.609375 340.789062 191.394531 335.464844 192.558594 329.988281 C 193.699219 324.65625 193.902344 319.300781 192.804688 313.941406 C 191.386719 307.035156 189.726562 299.710938 186.167969 293.5625 Z M 303.75 312.167969 C 304.152344 312.5 304.589844 311.8125 304.1875 311.480469 C 293.863281 302.9375 280.398438 295.832031 266.691406 299.835938 C 252.773438 303.90625 242.707031 317.097656 238.71875 330.542969 C 236.457031 338.15625 235.820312 346.144531 235.804688 354.054688 C 235.804688 354.542969 236.566406 354.542969 236.566406 354.054688 C 236.597656 340.671875 238.652344 326.894531 246.726562 315.824219 C 251.113281 309.804688 257.03125 304.480469 263.976562 301.625 C 270.203125 299.066406 277.039062 298.878906 283.496094 300.695312 C 291.050781 302.824219 297.753906 307.207031 303.75 312.167969 Z M 131.65625 288.855469 C 129.050781 290.0625 125.992188 289.589844 123.574219 291.390625 C 122.707031 292.035156 121.46875 293.3125 121.363281 294.527344 C 120.785156 295.285156 120.414062 296.144531 120.542969 296.929688 C 120.585938 297.234375 120.984375 297.257812 121.148438 297.042969 C 121.195312 296.980469 121.230469 296.914062 121.273438 296.847656 C 121.335938 296.921875 121.429688 296.96875 121.535156 296.96875 C 121.570312 297.21875 121.996094 297.300781 122.097656 297.027344 C 122.171875 296.832031 122.253906 296.640625 122.335938 296.449219 C 122.484375 296.441406 122.640625 296.367188 122.722656 296.179688 C 123.292969 294.898438 124.425781 294.742188 125.515625 294.164062 C 125.738281 294.046875 125.945312 293.917969 126.152344 293.785156 C 126.308594 293.699219 126.457031 293.59375 126.605469 293.480469 C 126.664062 293.445312 126.722656 293.410156 126.785156 293.363281 C 126.902344 293.488281 127.085938 293.5625 127.265625 293.453125 C 127.546875 293.289062 127.820312 293.105469 128.089844 292.910156 C 128.199219 292.976562 128.332031 293 128.480469 292.925781 C 128.964844 292.679688 129.421875 292.347656 129.867188 292 C 130.558594 291.597656 131.210938 291.175781 131.714844 290.523438 C 131.796875 290.421875 131.796875 290.292969 131.757812 290.183594 C 131.804688 290.09375 131.804688 290.003906 131.78125 289.921875 C 131.914062 289.796875 132.039062 289.671875 132.171875 289.539062 C 132.476562 289.242188 132.039062 288.683594 131.65625 288.855469 Z M 131.65625 288.855469 " fill-opacity="1" fill-rule="nonzero"/><path fill="#f19c74" d="M 125.484375 83.015625 C 126.472656 82.496094 127.957031 83.429688 128.777344 83.875 C 130.789062 84.957031 132.664062 86.316406 134.5 87.664062 C 136.628906 89.230469 138.710938 90.851562 140.78125 92.507812 C 142.234375 93.664062 143.945312 94.769531 145.214844 96.125 C 145.511719 96.445312 145.214844 97.097656 144.761719 96.828125 C 143.40625 96.035156 142.203125 94.828125 140.980469 93.839844 C 139.171875 92.386719 137.347656 90.941406 135.496094 89.539062 C 133.574219 88.085938 131.625 86.640625 129.578125 85.367188 C 128.816406 84.890625 126.777344 83.320312 125.820312 83.808594 C 125.324219 84.0625 125.003906 83.265625 125.484375 83.015625 Z M 166.078125 320.726562 C 166.996094 325.847656 166.945312 330.980469 166.238281 336.125 C 165.519531 341.425781 164.015625 346.648438 163.460938 351.964844 C 163.429688 352.246094 163.882812 352.320312 163.949219 352.046875 C 165.105469 346.9375 166.046875 341.664062 166.757812 336.472656 C 167.484375 331.1875 167.53125 325.902344 166.558594 320.644531 C 166.507812 320.332031 166.023438 320.421875 166.078125 320.726562 Z M 172.222656 321.199219 C 172.230469 320.984375 171.910156 321.007812 171.898438 321.214844 C 171.613281 324.839844 172.253906 328.421875 172.660156 332.011719 C 173.136719 336.15625 172.882812 339.980469 171.902344 344.03125 C 170.628906 349.296875 168.671875 355.125 170.761719 360.433594 C 170.894531 360.765625 171.378906 360.535156 171.257812 360.210938 C 169 353.9375 172.046875 347.269531 173.121094 341.058594 C 174.277344 334.390625 171.992188 327.867188 172.222656 321.199219 Z M 161.414062 294.335938 C 160.785156 293.488281 159.820312 292.957031 158.953125 292.390625 C 158.78125 292.28125 158.625 292.546875 158.789062 292.660156 C 159.695312 293.320312 160.679688 293.949219 161.273438 294.921875 C 161.703125 295.632812 162.035156 296.359375 162.898438 296.625 C 163.050781 296.679688 163.179688 296.441406 163.03125 296.359375 C 162.238281 295.90625 161.941406 295.03125 161.414062 294.335938 Z M 174.320312 154.605469 C 168.640625 151.203125 162.316406 150.335938 156.007812 148.726562 C 155.496094 148.59375 155.269531 149.386719 155.777344 149.511719 C 162.023438 151.101562 168.273438 151.878906 173.964844 155.105469 C 174.304688 155.296875 174.664062 154.808594 174.320312 154.605469 Z M 142.425781 332.203125 C 139.476562 339.980469 140.085938 350.398438 133.507812 356.324219 C 135.613281 345.082031 141.8125 333.695312 137.898438 322.164062 C 137.785156 321.835938 137.289062 322.023438 137.398438 322.339844 C 141.328125 334.132812 134.574219 345.675781 132.671875 357.175781 C 132.617188 357.480469 133.027344 357.621094 133.234375 357.457031 C 140.46875 351.617188 139.867188 341.300781 142.722656 333.191406 C 144.339844 337.726562 144.226562 343.007812 143.574219 347.6875 C 142.910156 352.503906 141.484375 357.605469 137.980469 361.160156 C 137.726562 361.417969 138.074219 361.796875 138.355469 361.574219 C 142.375 358.394531 143.722656 352.15625 144.324219 347.359375 C 144.941406 342.40625 144.976562 336.867188 142.992188 332.195312 C 142.886719 331.9375 142.523438 331.957031 142.425781 332.203125 Z M 150.375 335.378906 C 151.746094 343.445312 150.839844 351.421875 146.71875 358.585938 C 146.488281 358.980469 147.113281 359.304688 147.34375 358.917969 C 151.664062 351.660156 152.472656 343.40625 150.988281 335.191406 C 150.914062 334.785156 150.300781 334.976562 150.375 335.378906 Z M 156.394531 293.023438 C 155.511719 292.386719 154.667969 291.6875 153.746094 291.109375 C 153.53125 290.96875 153.28125 291.339844 153.496094 291.488281 C 154.394531 292.109375 155.179688 292.949219 156.179688 293.414062 C 156.4375 293.535156 156.625 293.1875 156.394531 293.023438 Z M 161.785156 369.382812 C 149.492188 362.539062 159.316406 345.996094 159.886719 335.835938 C 159.910156 335.398438 159.277344 335.363281 159.210938 335.785156 C 157.609375 346.046875 149.226562 363.25 161.480469 370.035156 C 161.878906 370.257812 162.183594 369.605469 161.785156 369.382812 Z M 176.53125 349.289062 C 176.433594 348.894531 175.828125 349.042969 175.921875 349.441406 C 176.5 351.933594 177.449219 354.398438 179.15625 356.339844 C 179.363281 356.578125 179.792969 356.273438 179.605469 356.011719 C 178.125 353.945312 177.117188 351.773438 176.53125 349.289062 Z M 337.863281 306.84375 C 335.039062 306.605469 332.160156 307.171875 329.351562 307.394531 C 329.34375 307.394531 329.34375 307.394531 329.335938 307.394531 C 329.195312 303.597656 328.542969 299.742188 327.707031 296.128906 C 327.625 295.78125 327.082031 295.886719 327.164062 296.234375 C 327.988281 299.984375 328.230469 303.691406 328.460938 307.445312 C 327.511719 307.472656 326.601562 307.4375 325.695312 307.363281 C 325.613281 303.464844 325.265625 299.585938 323.570312 295.988281 C 323.375 295.574219 322.78125 295.960938 322.96875 296.367188 C 324.585938 299.808594 324.902344 303.550781 324.960938 307.296875 C 323.503906 307.140625 322.042969 306.894531 320.5 306.6875 C 315.636719 306.035156 310.492188 308.03125 306.421875 310.558594 C 306.167969 310.714844 306.398438 311.160156 306.664062 311.027344 C 309.132812 309.75 311.574219 308.503906 314.28125 307.816406 C 317.207031 307.074219 319.789062 307.253906 322.707031 307.816406 C 323.449219 307.957031 324.207031 308.054688 324.96875 308.113281 C 324.976562 308.996094 324.976562 309.878906 324.976562 310.75 C 324.976562 311.226562 325.71875 311.285156 325.71875 310.804688 C 325.71875 309.929688 325.710938 309.046875 325.703125 308.164062 C 326.628906 308.214844 327.566406 308.214844 328.507812 308.1875 C 328.566406 309.222656 328.632812 310.269531 328.707031 311.316406 C 328.738281 311.699219 329.261719 311.648438 329.292969 311.285156 C 329.359375 310.246094 329.375 309.203125 329.351562 308.148438 C 332.222656 308.007812 335.105469 307.617188 337.863281 307.414062 C 338.226562 307.386719 338.226562 306.875 337.863281 306.84375 Z M 243.492188 85.988281 C 242.097656 84.359375 240.914062 82.554688 239.992188 80.613281 C 238.027344 76.445312 237.472656 71.773438 239.050781 67.382812 C 239.175781 67.035156 238.660156 66.769531 238.53125 67.125 C 236.992188 71.394531 237.324219 75.925781 239.089844 80.085938 C 240.71875 83.925781 243.757812 88.449219 247.578125 90.402344 C 247.753906 90.488281 247.960938 90.222656 247.816406 90.074219 C 246.390625 88.671875 244.804688 87.515625 243.492188 85.988281 Z M 185.109375 351.699219 C 182.988281 351.683594 181.652344 350.246094 181.164062 348.265625 C 181.082031 347.945312 180.601562 348.070312 180.675781 348.390625 C 181.203125 350.585938 182.722656 352.214844 185.070312 352.253906 C 185.425781 352.253906 185.464844 351.699219 185.109375 351.699219 Z M 233.328125 75.710938 C 233.476562 75.355469 232.933594 75.117188 232.785156 75.46875 C 229.035156 84.394531 230.308594 96.140625 236.976562 103.398438 C 236.707031 103.421875 236.449219 103.4375 236.183594 103.457031 C 235.863281 103.421875 235.789062 103.960938 236.109375 104.023438 C 236.699219 104.132812 237.117188 104.125 237.703125 103.96875 C 237.925781 103.910156 238.027344 103.621094 237.859375 103.449219 C 231.066406 96.382812 229.644531 84.601562 233.328125 75.710938 Z M 354.796875 284.613281 C 352.636719 280.402344 347.550781 278.867188 344.351562 275.632812 C 344.066406 275.351562 343.601562 275.753906 343.882812 276.042969 C 344.253906 276.421875 344.640625 276.769531 345.039062 277.109375 C 343.113281 276.242188 340.96875 275.546875 339.648438 274.054688 C 339.375 273.75 338.929688 274.179688 339.191406 274.492188 C 340.96875 276.597656 344.3125 277.15625 346.550781 278.683594 C 349.167969 280.460938 350.304688 283.863281 353.417969 284.941406 C 353.675781 285.03125 353.875 284.636719 353.632812 284.496094 C 351.652344 283.421875 350.453125 281.605469 349.011719 279.996094 C 351 281.359375 352.925781 282.78125 354.320312 284.851562 C 354.492188 285.097656 354.929688 284.886719 354.796875 284.613281 Z M 227.1875 95.628906 C 225.632812 90.699219 225.722656 85.367188 228.5625 80.917969 C 228.714844 80.671875 228.332031 80.457031 228.175781 80.695312 C 225.277344 85.160156 225.054688 90.476562 226.558594 95.488281 C 227.984375 100.242188 230.917969 105.652344 235.019531 108.613281 C 235.203125 108.746094 235.46875 108.492188 235.308594 108.316406 C 231.832031 104.4375 228.789062 100.699219 227.1875 95.628906 Z M 219.695312 103.035156 C 218.179688 105.097656 215.996094 106.609375 213.976562 108.128906 C 211.6875 109.859375 209.46875 111.59375 207.417969 113.601562 C 205.527344 115.457031 203.761719 117.429688 202.121094 119.496094 C 203.695312 115.589844 205.035156 111.570312 206.601562 107.675781 C 206.777344 107.234375 206.105469 106.988281 205.910156 107.417969 C 205.6875 107.898438 205.4375 108.332031 205.171875 108.789062 C 205.089844 108.929688 205.125 109.070312 205.207031 109.160156 C 203.582031 113.3125 202.203125 117.605469 200.441406 121.714844 C 198.949219 123.777344 197.570312 125.917969 196.324219 128.144531 C 196.183594 128.402344 196.519531 128.601562 196.71875 128.460938 C 195.644531 129.410156 194.710938 130.472656 194.058594 131.710938 C 192.757812 132.777344 191.328125 133.683594 189.964844 134.765625 C 188.59375 135.855469 186.859375 137.351562 187.414062 139.296875 C 187.496094 139.578125 187.851562 139.53125 187.949219 139.316406 C 187.992188 139.355469 188.042969 139.371094 188.109375 139.363281 C 188.171875 139.421875 188.246094 139.464844 188.355469 139.464844 C 188.535156 139.464844 188.644531 139.363281 188.695312 139.226562 C 190.644531 138.710938 192.390625 137.65625 194.351562 137.195312 C 197.074219 136.550781 199.875 137.316406 202.5 138.058594 C 204.695312 138.671875 206.882812 139.308594 209.078125 139.902344 C 211.425781 140.539062 214.519531 140.824219 216.558594 142.195312 C 216.929688 142.445312 217.378906 141.914062 217.011719 141.660156 C 215.148438 140.40625 212.65625 140.140625 210.539062 139.578125 C 207.570312 138.789062 204.644531 137.902344 201.679688 137.109375 C 199.363281 136.492188 196.890625 135.949219 194.5 136.476562 C 192.367188 136.953125 190.503906 138.175781 188.398438 138.730469 C 188.394531 138.730469 188.386719 138.722656 188.371094 138.722656 C 188.28125 138.722656 188.214844 138.753906 188.164062 138.796875 C 188.125 138.804688 188.089844 138.820312 188.050781 138.828125 C 188 138.835938 187.960938 138.859375 187.933594 138.886719 C 187.554688 136.46875 191.558594 134.386719 193.160156 133.25 C 193.449219 133.050781 193.722656 132.84375 193.984375 132.636719 C 194.042969 132.628906 194.09375 132.597656 194.132812 132.539062 C 194.136719 132.523438 194.152344 132.511719 194.160156 132.488281 C 195.613281 131.308594 196.726562 130.019531 197.742188 128.433594 C 199.824219 126.800781 202.292969 125.5625 204.554688 124.457031 C 208.484375 122.53125 212.960938 121.152344 216.609375 118.695312 C 216.996094 118.4375 216.660156 117.738281 216.222656 117.953125 C 211.9375 120.0625 207.558594 122.03125 203.332031 124.25 C 201.820312 125.042969 200.152344 125.933594 198.601562 126.984375 C 199.558594 125.28125 200.402344 123.515625 201.179688 121.730469 C 203.546875 118.59375 206.191406 115.679688 209.085938 113.007812 C 211.101562 111.148438 213.339844 109.582031 215.519531 107.929688 C 217.234375 106.632812 219.160156 105.269531 220.339844 103.421875 C 220.621094 103 219.984375 102.648438 219.695312 103.035156 Z M 226.5 21.761719 C 226.402344 21.5 225.9375 21.671875 226.03125 21.929688 C 229.695312 31.792969 228.828125 43.269531 224.039062 52.539062 C 223.933594 52.746094 224.1875 52.933594 224.335938 52.746094 C 227.410156 48.914062 228.332031 43.210938 228.664062 38.457031 C 229.074219 32.851562 228.492188 27.03125 226.5 21.761719 Z M 155.4375 170.925781 C 157.285156 170.625 159.699219 170.1875 161.316406 169.199219 C 161.628906 169.007812 161.347656 168.578125 161.050781 168.605469 C 160.085938 168.6875 159.121094 169.140625 158.1875 169.40625 C 157.238281 169.683594 156.277344 169.910156 155.304688 170.074219 C 154.761719 170.164062 154.890625 171.015625 155.4375 170.925781 Z M 207.148438 50.5 C 205.734375 47.652344 204.222656 45.125 203.457031 41.988281 C 202.730469 39 202.507812 35.902344 202.695312 32.832031 C 203.066406 26.476562 205.082031 20.261719 208.296875 14.789062 C 208.515625 14.425781 207.988281 14.011719 207.773438 14.382812 C 204.347656 20.203125 202.226562 26.839844 201.988281 33.609375 C 201.796875 39.183594 202.820312 46.472656 206.882812 50.695312 C 206.992188 50.8125 207.222656 50.648438 207.148438 50.5 Z M 194.738281 44.796875 C 194.070312 41.683594 193.308594 38.578125 192.988281 35.402344 C 192.558594 31.089844 193.144531 27.070312 194.722656 22.992188 C 194.828125 22.722656 194.359375 22.539062 194.25 22.804688 C 191.328125 30.167969 192.328125 37.421875 194.226562 44.925781 C 194.300781 45.214844 194.804688 45.09375 194.738281 44.796875 Z M 189.105469 45.488281 C 189.289062 45.703125 189.578125 45.421875 189.421875 45.207031 C 185.976562 40.296875 184.6875 32.3125 186.878906 26.660156 C 186.992188 26.371094 186.546875 26.203125 186.429688 26.492188 C 185.25 29.507812 185.257812 32.914062 185.664062 36.078125 C 186.070312 39.304688 186.941406 42.945312 189.105469 45.488281 Z M 111.734375 138.027344 C 113.1875 138.730469 114.609375 139.496094 116.109375 140.101562 C 116.582031 140.296875 116.894531 139.570312 116.417969 139.375 C 114.714844 138.671875 113.105469 137.769531 111.445312 136.960938 C 110.445312 136.476562 109.066406 135.59375 107.90625 135.796875 C 107.617188 135.847656 107.539062 136.179688 107.789062 136.34375 C 108.9375 137.078125 110.488281 137.417969 111.734375 138.027344 Z M 170.28125 121.882812 C 172.808594 123.804688 175.699219 125.398438 178.859375 125.925781 C 182.121094 126.476562 185.269531 125.652344 188.238281 124.292969 C 194.042969 121.640625 198.90625 116.738281 199.046875 110.035156 C 199.054688 109.523438 198.261719 109.441406 198.246094 109.953125 C 198.121094 116.339844 193.515625 121.003906 187.984375 123.554688 C 185.316406 124.785156 182.511719 125.660156 179.539062 125.296875 C 176.203125 124.886719 173.128906 123.195312 170.511719 121.15625 C 167.753906 119.015625 165.238281 116.375 163.230469 113.519531 C 160.992188 110.347656 160.835938 106.796875 161.671875 103.109375 C 162.414062 99.863281 163.660156 96.746094 164.417969 93.5 C 164.996094 90.992188 165.328125 88.4375 165.683594 85.890625 C 166.589844 79.484375 167.507812 72.589844 171.75 67.421875 C 171.984375 67.132812 171.546875 66.746094 171.304688 67.035156 C 167.011719 72.109375 165.996094 78.929688 165.082031 85.292969 C 164.601562 88.621094 164.171875 91.957031 163.257812 95.207031 C 162.289062 98.667969 160.878906 102.085938 160.53125 105.699219 C 159.886719 112.453125 165.269531 118.074219 170.28125 121.882812 Z M 309.15625 269.785156 C 311.078125 269.828125 313.003906 269.878906 314.925781 269.867188 C 315.296875 269.867188 315.28125 269.292969 314.910156 269.289062 C 312.988281 269.273438 311.070312 269.324219 309.148438 269.367188 C 308.917969 269.382812 308.925781 269.785156 309.15625 269.785156 Z M 230.597656 53.246094 C 235.101562 44.894531 233.148438 34.871094 231.761719 26.007812 C 231.710938 25.660156 231.171875 25.75 231.222656 26.097656 C 231.90625 30.515625 232.710938 34.957031 232.808594 39.4375 C 232.914062 44.300781 231.75 48.550781 230.289062 53.140625 C 230.230469 53.320312 230.519531 53.398438 230.597656 53.246094 Z M 309.734375 271.394531 C 309.386719 271.355469 309.328125 271.90625 309.683594 271.933594 C 310.949219 272.066406 312.234375 271.980469 313.492188 271.839844 C 314.339844 271.75 315.339844 271.742188 316.097656 271.328125 C 316.296875 271.214844 316.164062 270.875 315.949219 270.902344 C 313.886719 271.191406 311.816406 271.601562 309.734375 271.394531 Z M 213.71875 9.792969 C 218.5 10.246094 223.1875 11.585938 227.070312 14.492188 C 230.6875 17.207031 233.261719 21.011719 234.980469 25.148438 C 237.257812 30.628906 238.242188 36.539062 237.65625 42.449219 C 237.167969 47.429688 237.078125 53.183594 234.824219 57.746094 C 234.65625 58.09375 235.210938 58.367188 235.417969 58.054688 C 236.695312 56.179688 237.011719 53.695312 237.332031 51.5 C 237.738281 48.734375 238.066406 45.941406 238.398438 43.160156 C 239.148438 36.835938 238.152344 30.464844 235.671875 24.609375 C 233.898438 20.410156 231.253906 16.5625 227.582031 13.804688 C 223.578125 10.800781 218.738281 9.390625 213.816406 8.925781 C 213.265625 8.878906 213.167969 9.742188 213.71875 9.792969 Z M 129.5625 314.644531 C 122.246094 319.480469 117.761719 327.8125 115.542969 336.117188 C 113.425781 344.074219 112.914062 353.335938 116.476562 360.972656 C 116.65625 361.359375 117.25 361.121094 117.09375 360.722656 C 113.980469 352.773438 114.269531 343.808594 116.566406 335.679688 C 118.804688 327.769531 123.089844 319.894531 130.082031 315.269531 C 130.511719 314.972656 129.992188 314.363281 129.5625 314.644531 Z M 151.160156 107.988281 C 151.910156 108.359375 152.652344 108.722656 153.464844 108.929688 C 153.976562 109.0625 154.769531 108.996094 155.222656 109.292969 C 155.296875 109.347656 155.363281 109.414062 155.429688 109.488281 C 155.273438 110.371094 155.246094 111.265625 155.4375 112.195312 C 155.503906 112.527344 155.941406 112.46875 156.074219 112.222656 C 156.140625 113.972656 155.535156 115.835938 153.671875 116.417969 C 153.191406 116.574219 153.472656 117.300781 153.957031 117.152344 C 155.519531 116.664062 156.4375 115.34375 156.78125 113.78125 C 157.003906 112.75 157.011719 111.183594 156.601562 110 C 156.75 109.277344 156.898438 108.558594 157.0625 107.839844 C 157.230469 107.078125 157.328125 105.996094 157.582031 105.058594 C 157.683594 105.015625 157.773438 104.925781 157.789062 104.785156 C 157.804688 104.628906 157.824219 104.46875 157.839844 104.3125 C 157.921875 104.140625 158.003906 103.976562 158.105469 103.835938 C 158.1875 103.726562 158.0625 103.539062 157.929688 103.613281 C 157.921875 103.613281 157.921875 103.621094 157.914062 103.621094 C 159.902344 86.699219 166.402344 64.390625 150.328125 52.375 C 150.011719 52.140625 149.675781 52.664062 149.996094 52.902344 C 164.460938 63.78125 159.992188 83.121094 157.804688 99.105469 C 157.15625 95.859375 155.558594 92.617188 154.082031 89.792969 C 150.449219 82.851562 145.609375 76.632812 142.042969 69.652344 C 141.9375 69.445312 141.640625 69.355469 141.441406 69.484375 C 141.34375 69.542969 141.242188 69.601562 141.144531 69.660156 C 140.980469 69.757812 140.871094 69.949219 140.921875 70.144531 C 141.03125 70.609375 141.1875 70.648438 141.53125 71.113281 C 141.632812 71.253906 141.78125 71.277344 141.90625 71.234375 C 145.703125 78.128906 150.574219 84.402344 154.058594 91.476562 C 155.710938 94.828125 157.863281 99.246094 157.238281 103.074219 C 156.9375 104.949219 156.066406 106.757812 155.601562 108.613281 C 155.089844 108.324219 154.472656 108.308594 153.84375 108.160156 C 151.398438 107.582031 149.121094 105.949219 146.875 104.851562 C 141.738281 102.339844 136.917969 101.523438 131.238281 101.628906 C 126.703125 101.714844 120.84375 101.863281 117.0625 104.742188 C 115.550781 105.890625 114.203125 107.492188 113.519531 109.226562 C 110.109375 100.574219 111.488281 90.089844 113.574219 81.363281 C 113.683594 80.886719 112.875 80.6875 112.742188 81.160156 C 111.265625 86.308594 110.6875 91.863281 110.761719 97.199219 C 110.820312 101.628906 111.378906 106.203125 113.195312 110.273438 C 112.839844 111.867188 113.105469 113.519531 114.371094 115.027344 C 114.773438 115.492188 115.433594 114.816406 115.046875 114.351562 C 114.378906 113.542969 114.054688 112.683594 113.988281 111.816406 C 114.238281 111.992188 114.667969 111.757812 114.492188 111.421875 C 114.335938 111.125 114.210938 110.8125 114.070312 110.511719 C 114.640625 107.707031 117.566406 105.074219 120.109375 104.164062 C 124.980469 102.421875 130.707031 102.421875 135.8125 102.628906 C 141.449219 102.878906 146.230469 105.542969 151.160156 107.988281 Z M 119.066406 320.886719 C 119.347656 320.660156 118.953125 320.25 118.671875 320.480469 C 112.265625 325.773438 110.066406 334.65625 109.234375 342.570312 C 109.207031 342.886719 109.6875 342.910156 109.722656 342.597656 C 110.746094 334.851562 112.773438 326.117188 119.066406 320.886719 Z M 108.769531 360.667969 C 107.953125 361.871094 107.359375 363.050781 106.261719 364.042969 C 105.285156 364.933594 104.179688 365.652344 103.050781 366.335938 C 102.71875 366.535156 103.082031 367.007812 103.40625 366.816406 C 105.585938 365.519531 108.65625 363.582031 109.21875 360.890625 C 109.273438 360.65625 108.921875 360.445312 108.769531 360.667969 Z M 118.8125 176.59375 C 119.273438 176.675781 119.390625 175.960938 118.941406 175.878906 C 114.359375 175.078125 109.695312 175.050781 105.105469 174.351562 C 100.96875 173.730469 97.195312 172.253906 93.472656 170.394531 C 87.222656 167.265625 79.839844 162.46875 79.046875 154.851562 C 79 154.453125 78.378906 154.4375 78.414062 154.84375 C 79.113281 162.332031 85.933594 167.210938 92.058594 170.453125 C 95.527344 172.292969 99.152344 173.929688 103.015625 174.710938 C 108.21875 175.769531 113.578125 175.671875 118.8125 176.59375 Z M 72.980469 288.582031 C 68.867188 290.136719 67.390625 294.898438 66.132812 298.710938 C 65.167969 301.609375 64.105469 304.269531 62.222656 306.734375 C 60.296875 309.253906 57.992188 311.480469 56.019531 313.960938 C 55.746094 314.304688 56.300781 314.695312 56.574219 314.355469 C 59.882812 310.1875 63.996094 306.679688 65.84375 301.550781 C 65.878906 301.453125 65.910156 301.355469 65.9375 301.261719 C 68.050781 302.136719 70.890625 302.757812 72.824219 301.140625 C 73.09375 300.917969 72.804688 300.476562 72.484375 300.628906 C 70.429688 301.652344 68.183594 301.519531 65.976562 301.140625 C 67.445312 296.847656 68.488281 290.886719 73.203125 289.085938 C 73.539062 288.953125 73.308594 288.453125 72.980469 288.582031 Z M 106.136719 355.605469 C 106.089844 355.285156 105.617188 355.234375 105.550781 355.574219 C 104.691406 360.1875 99.613281 364.117188 94.910156 364.117188 C 94.429688 364.117188 94.394531 364.867188 94.875 364.867188 C 97.582031 364.867188 100.175781 363.582031 102.273438 361.953125 C 104.074219 360.542969 106.46875 358.117188 106.136719 355.605469 Z M 124.234375 293.066406 C 124.261719 292.808594 123.878906 292.761719 123.832031 293.015625 C 123.75 293.4375 123.582031 293.816406 123.691406 294.246094 C 123.757812 294.519531 124.179688 294.394531 124.113281 294.121094 C 124.027344 293.777344 124.1875 293.402344 124.234375 293.066406 Z M 128.109375 290.234375 C 127.125 290.714844 126.050781 291.140625 125.847656 292.347656 C 125.804688 292.609375 126.199219 292.652344 126.25 292.398438 C 126.464844 291.390625 127.570312 291.085938 128.332031 290.582031 C 128.527344 290.441406 128.320312 290.128906 128.109375 290.234375 Z M 128.109375 290.234375 " fill-opacity="1" fill-rule="nonzero"/></svg>