<svg xmlns="http://www.w3.org/2000/svg" xmlns:xlink="http://www.w3.org/1999/xlink" width="500" zoomAndPan="magnify" viewBox="0 0 375 374.999991" height="500" preserveAspectRatio="xMidYMid meet" version="1.0"><defs><clipPath id="460e98d83f"><path d="M 66 256 L 218 256 L 218 290.386719 L 66 290.386719 Z M 66 256 " clip-rule="nonzero"/></clipPath></defs><path fill="#010201" d="M 330.714844 249.253906 C 330.191406 248.972656 329.796875 248.972656 329.519531 249.261719 C 337.851562 249.15625 346.039062 244.300781 353.75 241.535156 C 355.488281 240.90625 358.199219 239.171875 360.144531 239.300781 C 361.691406 239.398438 362.160156 240.75 363.707031 240.726562 C 367.976562 240.644531 369.917969 236.546875 372.949219 242.167969 C 375.015625 245.996094 374.902344 250.121094 373.125 253.726562 C 368.566406 263 357.472656 265.683594 349.480469 271.003906 C 346.488281 272.992188 344.15625 276.738281 341.375 276.15625 C 339.097656 275.675781 336.042969 272.613281 333.648438 271.648438 C 330.65625 270.4375 326.542969 269.511719 323.988281 267.3125 C 318.09375 262.238281 321.816406 249.914062 330.714844 249.253906 Z M 36.03125 188.839844 C 35.6875 188.660156 35.394531 188.421875 35.15625 188.113281 C 32.101562 197.261719 33.042969 208.59375 31.328125 218.199219 C 30.296875 223.960938 30.289062 229.933594 29.773438 235.71875 C 29.386719 240.03125 27.691406 245.457031 31.953125 248.15625 C 37.949219 251.953125 47.359375 250.398438 54.070312 250.726562 C 55.601562 250.800781 58.445312 251.839844 59.945312 251.101562 C 64.148438 249.046875 62.871094 239.464844 63.230469 235.515625 C 63.675781 230.5625 64.421875 227.722656 67.3125 223.941406 C 69.492188 231.355469 69.820312 238.859375 71.238281 246.40625 C 73.386719 257.84375 91.292969 246.910156 97.59375 244.417969 C 102.46875 242.492188 101.757812 240.339844 101.8125 235.242188 C 101.902344 226.316406 100.152344 217.316406 99.742188 208.398438 C 99.378906 200.371094 96.996094 193.316406 95.890625 185.425781 C 95.59375 183.265625 95.71875 180.542969 93.421875 179.554688 C 88.996094 177.65625 79.359375 182.464844 74.179688 182.882812 C 63.214844 183.765625 53.332031 183.882812 42.882812 187.007812 C 40.53125 187.710938 37.539062 187.300781 35.558594 188.09375 C 36.15625 188.726562 36.550781 188.363281 36.03125 188.839844 Z M 36.03125 188.839844 " fill-opacity="1" fill-rule="nonzero"/><path fill="#f3af93" d="M 20.054688 229.902344 C 23.667969 229.554688 28.945312 228.714844 31.753906 226.382812 C 33.035156 225.324219 35.617188 221.890625 37.402344 222.308594 C 38.296875 222.519531 38.246094 224.132812 38.917969 224.460938 C 39.8125 224.902344 40.402344 224.441406 41.058594 224.621094 C 41.984375 224.867188 42.867188 224.386719 43.71875 224.910156 C 44.410156 225.34375 44.277344 226.488281 44.949219 226.890625 C 47.523438 228.4375 46.023438 226.25 48.152344 225.277344 C 50.011719 224.433594 55.539062 227.78125 56.257812 230.039062 C 57.207031 233.042969 55.75 235.769531 58.585938 237.671875 C 61.765625 239.800781 66.839844 238.679688 70.363281 239.613281 C 72.230469 240.105469 73.777344 241.25 75.605469 241.570312 C 74.121094 244.613281 70.984375 247.320312 69.035156 250.152344 C 67.007812 253.097656 64.773438 255.953125 62.945312 259.023438 C 60.988281 262.3125 61.078125 262.066406 57.25 262.3125 C 51.085938 262.714844 46.105469 265.96875 39.730469 265.871094 C 30.640625 265.722656 19.726562 257.992188 16.457031 249.480469 C 14.972656 245.59375 15.167969 240.953125 16.242188 236.988281 C 16.75 235.128906 17.265625 233.207031 18.511719 231.699219 C 19.046875 231.0625 20.929688 229.042969 20.054688 229.902344 Z M 20.054688 229.902344 " fill-opacity="1" fill-rule="nonzero"/><path fill="#a6ac37" d="M 174.304688 276.460938 C 170.496094 276.386719 166.316406 276.902344 162.511719 277.328125 C 155.164062 278.144531 147.796875 278.367188 140.492188 279.234375 C 129.726562 280.519531 118.84375 279.632812 108.058594 280.28125 C 99.070312 280.828125 89.847656 281.566406 80.851562 280.558594 C 76.394531 280.058594 74.207031 277.875 70.4375 275.421875 C 70.207031 275.273438 70 275.117188 69.78125 274.96875 C 69.589844 276.289062 68.222656 277.53125 66.78125 276.828125 C 64.167969 275.558594 62.585938 273.367188 61.625 270.839844 C 61.207031 270.578125 60.855469 270.191406 60.683594 269.71875 C 60.542969 269.324219 60.445312 268.941406 60.363281 268.5625 C 59.289062 268.472656 58.308594 267.664062 58.289062 266.425781 C 57.675781 265.855469 57.324219 264.988281 57.601562 264.113281 C 57.488281 263.664062 57.527344 263.179688 57.765625 262.679688 C 57.742188 262.261719 57.839844 261.796875 58.117188 261.3125 C 60.5625 257.035156 63.460938 252.679688 66.503906 248.792969 C 68.429688 246.332031 70.417969 244.398438 72.605469 242.765625 C 74.03125 241.175781 85.605469 231.742188 91.800781 227.714844 C 96.101562 224.917969 101.59375 222.804688 106.835938 223.476562 C 111.984375 224.132812 117.0625 227.386719 122.171875 228.917969 C 131.460938 231.707031 139.503906 232.683594 149.335938 232.683594 C 157.417969 232.683594 168.117188 230.832031 175.789062 233.109375 C 176.101562 247.492188 175.066406 262.042969 174.304688 276.460938 Z M 174.304688 276.460938 " fill-opacity="1" fill-rule="nonzero"/><path fill="#010201" d="M 21.683594 245.945312 C 23.371094 249.628906 30.8125 245.792969 33.828125 247.515625 C 38.089844 249.933594 33.96875 251.519531 33.042969 254.980469 C 30.386719 264.964844 47.332031 264.699219 46.390625 256.3125 C 50.683594 256.925781 54.644531 257.859375 57.554688 261.238281 C 60.496094 264.652344 62.660156 268.367188 65.757812 271.722656 C 68.265625 274.445312 71.042969 277.941406 68.78125 280.945312 C 64.839844 286.171875 52.726562 285.140625 47.644531 283.007812 C 41.195312 280.3125 37.761719 277.277344 30.453125 277.261719 C 25.160156 277.253906 19.542969 278.359375 14.339844 277.253906 C 3.007812 274.847656 -0.015625 261.804688 1.738281 251.804688 C 2.8125 245.675781 4.136719 242.132812 8.023438 237.140625 C 12.390625 231.527344 15.152344 229.121094 22.421875 230.105469 " fill-opacity="1" fill-rule="nonzero"/><path fill="#981d13" d="M 23.886719 120.582031 C 27.78125 118.394531 31.460938 116.824219 35.828125 115.738281 C 43.910156 113.738281 54.398438 112.914062 62.558594 115.710938 C 66.167969 116.949219 69.542969 119.207031 72.8125 121.128906 C 76.394531 123.246094 80.933594 123.519531 84.203125 125.84375 C 89.070312 129.304688 92.644531 137.386719 95.0625 142.664062 C 97.429688 147.828125 102.574219 156.3125 101.585938 162.074219 C 101.109375 164.847656 99.332031 166.082031 98.078125 168.523438 C 96.28125 172.03125 97.296875 176.425781 96.035156 180.222656 C 95.324219 182.351562 94.199219 183.90625 92.464844 185.601562 C 83.34375 194.558594 70.894531 196.277344 58.625 196.277344 C 51.039062 196.277344 42.644531 196.941406 36.714844 191.554688 C 33.296875 188.445312 30.3125 183.691406 27.46875 179.984375 C 25.878906 177.914062 24.839844 175.746094 22.332031 175.011719 C 17.347656 173.554688 10.800781 176.761719 5.957031 173.539062 C 3.472656 171.886719 3.949219 170.234375 4.351562 167.449219 C 5.0625 162.542969 5.230469 157.453125 5.179688 152.433594 C 5.105469 145.421875 4.089844 138.269531 7.277344 131.660156 C 9.300781 127.46875 16.710938 121.90625 21.527344 122.601562 C 18.773438 123.8125 22.453125 121.390625 23.886719 120.582031 Z M 339.121094 258.15625 C 336.484375 258.03125 333.648438 258.664062 331.066406 258.433594 C 331.132812 258.410156 331.230469 258.398438 331.386719 258.402344 C 331.625 254.585938 331.886719 250.085938 331.3125 246.371094 C 325.878906 246.035156 320.445312 245.78125 314.996094 245.226562 C 304.785156 244.195312 295.164062 242.175781 285.226562 240.046875 C 275.480469 237.953125 266.039062 233.363281 256.101562 232.125 C 243.792969 230.589844 230.464844 231.945312 218.035156 231.945312 C 210.308594 231.945312 202.5625 231.773438 194.84375 231.929688 C 188.722656 232.058594 180.78125 234.3125 174.8125 232.714844 C 174.855469 232.746094 174.902344 232.773438 174.9375 232.8125 C 174.914062 232.804688 174.894531 232.789062 174.871094 232.78125 C 174.8125 232.738281 174.734375 232.707031 174.660156 232.707031 C 174.617188 232.699219 174.566406 232.699219 174.519531 232.699219 C 174.398438 232.664062 174.257812 232.675781 174.132812 232.789062 C 172.9375 233.753906 172.257812 235.097656 171.699219 236.496094 C 171.617188 236.660156 171.542969 236.832031 171.46875 237.003906 C 171.132812 237.683594 170.832031 238.378906 170.570312 239.097656 C 168.355469 243.539062 169.085938 251.25 168.191406 255.355469 C 167.101562 260.324219 163.957031 267.082031 168.628906 271.019531 C 172.667969 274.429688 181.910156 277.566406 186.949219 278.390625 C 190.066406 278.898438 193.898438 278.25 197.078125 278.390625 C 202.347656 278.628906 208.152344 277.933594 213.378906 277.320312 C 222.230469 276.289062 231.261719 273.195312 239.847656 270.910156 C 245.882812 269.300781 253.550781 266.820312 259.695312 268.5 C 265.792969 270.175781 269.941406 274.308594 276.234375 275.65625 C 291.082031 278.824219 306.15625 277.769531 320.878906 274.234375 C 324.332031 273.40625 327.484375 272.621094 331.074219 272.476562 C 333.164062 272.394531 334.78125 272.730469 336.441406 271.738281 C 341.128906 268.933594 340.1875 262.621094 339.121094 258.15625 Z M 339.121094 258.15625 " fill-opacity="1" fill-rule="nonzero"/><path fill="#a6543b" d="M 21.808594 233.125 C 23.027344 235.59375 26.140625 236.382812 26.484375 239.261719 C 26.59375 240.242188 25.578125 240.472656 25.578125 241.316406 C 25.578125 241.914062 26.578125 242.574219 26.496094 243.050781 C 26.199219 244.785156 25.78125 245.871094 23.609375 245.449219 C 23.9375 246.960938 23.347656 247.386719 22.332031 247.96875 C 21.980469 248.171875 19.210938 248.84375 19.125 248.859375 C 14.457031 249.816406 11.367188 244.636719 9.898438 240.421875 C 7.457031 233.433594 6.738281 225.53125 7.070312 218.214844 C 7.113281 217.207031 7.144531 216.195312 7.15625 215.1875 C 6.957031 213.667969 6.792969 212.144531 6.664062 210.613281 C 6.300781 207.789062 5.917969 204.96875 5.738281 202.121094 C 5.574219 199.566406 5.464844 196.613281 6.5 194.183594 C 6.488281 193.855469 6.480469 193.535156 6.492188 193.191406 C 6.664062 189.8125 7.980469 186.65625 7.507812 183.375 C 6.941406 179.414062 4.476562 174.542969 4.917969 170.59375 C 7.605469 170.75 10.03125 171.8125 13.039062 171.566406 C 17.054688 171.238281 21.207031 171.476562 25.175781 170.863281 C 25.59375 172.671875 24.609375 175.378906 24.339844 177.3125 C 23.804688 181.269531 23.847656 185.175781 23.847656 189.152344 C 23.839844 194.65625 24.675781 194.65625 24.394531 200.164062 C 24.101562 205.902344 21.050781 216.523438 18.292969 220.546875 C 21.542969 220.546875 23.199219 220.988281 25.878906 222.242188 C 27.945312 223.214844 30.601562 224.3125 32.851562 224.386719 C 34.566406 231.796875 17.109375 223.582031 21.808594 233.125 Z M 103.3125 182.269531 C 102.976562 179.378906 102.429688 176.53125 101.707031 173.726562 C 101.519531 171.34375 101.066406 169.03125 99.601562 167.007812 C 99.558594 166.945312 99.503906 166.910156 99.445312 166.871094 C 99.191406 166.5 98.90625 166.253906 98.578125 166.175781 C 97.324219 165.921875 94.316406 168.417969 93.011719 168.90625 C 90.683594 169.773438 88.167969 170.632812 85.742188 171.101562 C 83.71875 171.492188 81.695312 171.34375 79.664062 171.453125 C 79.835938 175.070312 83.980469 178.808594 83.660156 182.253906 C 83.433594 184.625 80.523438 187 79.046875 188.996094 C 74.6875 194.871094 69.125 203.234375 65.617188 205.628906 C 61.578125 205.613281 59.460938 204.945312 56.21875 207.511719 C 54.191406 209.117188 51.675781 210.058594 49.679688 211.757812 C 47.210938 213.863281 47.792969 214.253906 51.023438 214.386719 C 53.800781 214.5 56.332031 212.503906 59.160156 212.980469 C 59.308594 217.183594 58.101562 219.679688 55.699219 223.042969 C 54.914062 224.132812 49.742188 230.308594 54.480469 229.648438 C 54.535156 231.59375 53.644531 232.691406 55.691406 233.550781 C 57.011719 234.105469 59.160156 233.304688 60.355469 232.757812 C 64.460938 230.890625 68.378906 227.308594 69.84375 223.164062 C 71.410156 218.730469 71.261719 215.222656 74.8125 212.292969 C 79.6875 208.273438 84.457031 204.125 88.875 199.589844 C 92.324219 196.046875 96.339844 192.539062 99.484375 188.707031 C 100.496094 187.464844 103.003906 184.96875 103.25 183.390625 C 103.289062 183.167969 103.265625 182.898438 103.222656 182.613281 C 103.28125 182.539062 103.328125 182.425781 103.3125 182.269531 Z M 56.117188 128.320312 C 56.636719 124.730469 57.78125 119.625 56.5625 116.015625 C 55.121094 111.734375 50.167969 109.3125 46.523438 107.4375 C 43.34375 105.800781 39.695312 105.457031 36.171875 105.050781 C 28.378906 104.167969 24.648438 105.710938 22.09375 108.273438 C 13.039062 112.742188 17.078125 129.753906 20.339844 136.644531 C 22.886719 142.019531 26.476562 147.3125 31.960938 150.292969 C 35.542969 152.246094 37.097656 151.757812 40.433594 151.183594 C 44 150.570312 46.84375 151.035156 50.136719 148.984375 C 57.429688 144.464844 55.085938 135.382812 56.117188 128.320312 Z M 56.117188 128.320312 " fill-opacity="1" fill-rule="nonzero"/><path fill="#010201" d="M 57.136719 119.441406 C 56.085938 120.441406 54.101562 119.792969 52.757812 120.6875 C 50.832031 121.964844 52.332031 123.976562 50.957031 125 C 49.339844 126.210938 47.441406 123.84375 46.621094 123.035156 C 44.605469 121.0625 43.300781 116.859375 39.761719 117.816406 C 36.46875 118.714844 34.28125 122.519531 31.738281 124.027344 C 29.328125 125.464844 22.332031 125.5 21.75 122.136719 C 19.691406 121.234375 18.25 122.691406 18.085938 122.945312 C 17.710938 123.511719 17.40625 124.089844 17.183594 124.730469 C 17.160156 124.785156 17.160156 124.835938 17.152344 124.890625 C 14.054688 122.09375 11.113281 115.238281 11.003906 113.234375 C 10.660156 107.265625 14.691406 97.382812 19.199219 93.128906 C 27.855469 84.960938 48.441406 85.789062 54.972656 95.886719 C 57.78125 100.238281 58.585938 105.640625 58.601562 110.820312 C 58.601562 112.929688 58.914062 117.75 57.136719 119.441406 Z M 57.136719 119.441406 " fill-opacity="1" fill-rule="nonzero"/><path fill="#010201" d="M 11.03125 185.894531 C 10.660156 185.976562 10.457031 185.417969 10.839844 185.328125 C 13.75 184.648438 17.183594 184.0625 19.480469 186.460938 C 19.773438 186.769531 19.339844 187.261719 19.035156 186.957031 C 16.867188 184.78125 13.75 185.28125 11.03125 185.894531 Z M 14.53125 221.832031 C 15.921875 221.128906 17.824219 220.507812 19.378906 220.964844 C 19.726562 221.070312 19.914062 220.53125 19.5625 220.425781 C 17.875 219.941406 15.855469 220.539062 14.339844 221.316406 C 14.023438 221.480469 14.21875 221.988281 14.53125 221.832031 Z M 26.035156 241.265625 C 24.257812 243.023438 21.054688 240.136719 19.601562 239.121094 C 16.652344 237.066406 15.882812 234.300781 14.59375 231.09375 C 14.449219 230.734375 15.019531 230.5625 15.160156 230.914062 C 16.25 233.535156 16.882812 236.28125 19.265625 238.089844 C 19.800781 238.492188 20.554688 239.128906 21.390625 239.710938 C 21.488281 238.605469 22.332031 237.960938 23.414062 238.394531 C 24.476562 238.8125 25.214844 239.949219 25.011719 241.085938 C 25.242188 241.046875 25.460938 240.988281 25.667969 240.867188 C 25.914062 240.726562 26.265625 241.035156 26.035156 241.265625 Z M 21.824219 240.003906 C 22.691406 240.5625 23.609375 241.027344 24.445312 241.101562 C 24.445312 241.09375 24.445312 241.078125 24.445312 241.070312 C 24.601562 240.234375 24.167969 239.441406 23.4375 239.03125 C 22.644531 238.589844 22.003906 238.886719 21.9375 239.808594 C 21.9375 239.898438 21.890625 239.964844 21.824219 240.003906 Z M 21.625 247.222656 C 21.699219 247.746094 21.414062 248.628906 20.839844 248.761719 C 20.660156 248.800781 20.550781 248.636719 20.578125 248.476562 C 20.59375 248.394531 20.625 248.328125 20.660156 248.261719 C 18.085938 247.164062 15.175781 246.984375 12.765625 245.519531 C 12.441406 245.324219 12.71875 244.800781 13.039062 244.996094 C 14.667969 245.972656 16.5625 246.226562 18.371094 246.722656 C 18.324219 246.660156 18.300781 246.59375 18.308594 246.503906 C 18.445312 245.292969 19.960938 245.496094 20.699219 245.960938 C 21.152344 246.242188 21.542969 246.675781 21.625 247.222656 Z M 21.042969 247.265625 C 20.972656 246.921875 20.699219 246.652344 20.414062 246.476562 C 19.988281 246.207031 18.964844 245.875 18.882812 246.648438 C 18.871094 246.75 18.824219 246.8125 18.757812 246.839844 C 19.527344 247.074219 20.273438 247.363281 20.960938 247.78125 C 21.035156 247.632812 21.078125 247.46875 21.042969 247.265625 Z M 24.691406 245.898438 C 24.699219 245.898438 24.707031 245.898438 24.714844 245.898438 C 24.9375 245.882812 25.070312 246.199219 24.871094 246.332031 C 24.050781 246.847656 22.632812 246.035156 21.863281 245.71875 C 20.191406 245.046875 18.578125 244.246094 16.957031 243.457031 C 15.367188 242.679688 13.957031 241.742188 13.015625 240.210938 C 11.769531 238.1875 11.285156 235.726562 10.433594 233.527344 C 10.292969 233.164062 10.859375 232.929688 11.003906 233.304688 C 12.464844 237.042969 13.03125 240.839844 16.9375 242.820312 C 18.09375 243.402344 19.273438 243.957031 20.453125 244.488281 C 20.699219 244.597656 20.960938 244.726562 21.226562 244.851562 C 21.167969 244.800781 21.125 244.734375 21.117188 244.628906 C 21.042969 243.335938 23.058594 243.53125 23.824219 243.746094 C 24.3125 243.882812 24.90625 244.136719 25.132812 244.628906 C 25.339844 245.070312 25.117188 245.667969 24.691406 245.898438 Z M 24.339844 245.882812 C 24.265625 245.800781 24.230469 245.683594 24.273438 245.570312 C 24.386719 245.285156 24.714844 245.113281 24.496094 244.800781 C 24.3125 244.523438 23.855469 244.40625 23.550781 244.328125 C 23.296875 244.269531 21.734375 244.015625 21.773438 244.578125 C 21.789062 244.839844 21.550781 244.949219 21.355469 244.90625 C 22.304688 245.359375 23.355469 245.824219 24.339844 245.882812 Z M 31.796875 223.574219 C 31.320312 223.910156 31.109375 224.53125 30.730469 224.964844 C 30.320312 225.433594 29.847656 225.652344 29.257812 225.597656 C 29.199219 225.171875 29.253906 224.761719 29.4375 224.367188 C 29.632812 223.933594 28.96875 223.617188 28.773438 224.050781 C 28.476562 224.710938 28.4375 225.367188 28.609375 226.0625 C 28.640625 226.183594 28.765625 226.277344 28.886719 226.300781 C 29.65625 226.464844 30.363281 226.300781 30.953125 225.777344 C 31.476562 225.308594 32.109375 224.515625 32.199219 223.804688 C 32.230469 223.566406 31.96875 223.460938 31.796875 223.574219 Z M 53.882812 210.816406 C 53.644531 210.792969 53.539062 210.523438 53.390625 210.382812 C 53.109375 210.113281 52.703125 210.582031 52.996094 210.835938 C 53.21875 211.039062 53.292969 211.1875 53.457031 211.277344 C 52.59375 213.144531 50.765625 212.480469 49.015625 212.375 C 48.792969 212.363281 48.761719 212.757812 48.996094 212.78125 C 49.933594 212.863281 50.898438 213.152344 51.855469 213.085938 C 53.019531 212.996094 53.628906 212.203125 54.078125 211.195312 C 54.144531 211.046875 54.0625 210.835938 53.882812 210.816406 Z M 64.167969 228.460938 C 62.59375 229.664062 60.765625 230.433594 58.988281 231.308594 C 59.085938 231.28125 59.183594 231.25 59.28125 231.226562 C 59.378906 231.195312 59.488281 231.242188 59.554688 231.308594 C 59.976562 231.75 60.609375 232.078125 60.871094 232.640625 C 60.996094 232.902344 60.652344 233.117188 60.460938 232.921875 C 60.078125 232.542969 59.644531 232.207031 59.265625 231.824219 C 58.453125 232.050781 57.289062 232.445312 58.011719 233.441406 C 58.226562 233.738281 57.800781 234.121094 57.585938 233.820312 C 57.210938 233.304688 56.980469 232.683594 57.429688 232.140625 C 57.4375 232.132812 57.453125 232.125 57.460938 232.117188 C 56.792969 232.488281 56.152344 232.902344 55.546875 233.386719 C 55.300781 233.589844 54.996094 233.207031 55.234375 233.007812 C 55.429688 232.839844 55.628906 232.707031 55.824219 232.558594 C 55.824219 232.558594 55.816406 232.550781 55.816406 232.550781 C 55.167969 231.707031 54.964844 230.425781 56.175781 229.984375 C 57.085938 229.648438 58.070312 230.113281 58.601562 230.890625 C 60.445312 229.957031 62.347656 229.140625 63.953125 227.832031 C 66.035156 226.128906 67.757812 223.238281 67.730469 220.488281 C 67.722656 220.03125 68.4375 220.03125 68.4375 220.488281 C 68.4375 223.492188 66.542969 226.652344 64.167969 228.460938 Z M 56.324219 232.191406 C 56.871094 231.824219 57.4375 231.503906 58.011719 231.195312 C 57.625 230.71875 57.128906 230.351562 56.453125 230.570312 C 55.691406 230.816406 55.882812 231.578125 56.28125 232.085938 C 56.300781 232.125 56.308594 232.152344 56.324219 232.191406 Z M 57.324219 228.050781 C 56.28125 228.632812 55.21875 229.179688 54.234375 229.71875 C 53.898438 229.902344 53.585938 229.410156 53.914062 229.214844 C 53.957031 229.1875 54.011719 229.164062 54.054688 229.132812 C 52.914062 228 54.03125 226.667969 55.40625 226.316406 C 55.953125 226.175781 56.535156 226.144531 57.011719 226.496094 C 57.21875 226.652344 57.414062 226.875 57.578125 227.117188 C 59.136719 226.167969 60.617188 225.097656 61.652344 223.648438 C 63.167969 221.53125 63.953125 218.976562 64.953125 216.601562 C 65.125 216.195312 65.675781 216.511719 65.542969 216.898438 C 64.632812 219.53125 63.585938 222.511719 61.773438 224.664062 C 60.734375 225.898438 59.371094 226.855469 57.929688 227.699219 C 57.988281 227.8125 58.042969 227.929688 58.085938 228.035156 C 58.199219 228.304688 57.839844 228.605469 57.617188 228.394531 C 57.511719 228.304688 57.414062 228.175781 57.324219 228.050781 Z M 56.9375 227.496094 C 56.726562 227.226562 56.480469 227.003906 56.160156 226.972656 C 55.742188 226.945312 55.203125 227.132812 54.867188 227.355469 C 54.265625 227.742188 54.167969 228.230469 54.765625 228.722656 C 55.472656 228.328125 56.207031 227.921875 56.9375 227.496094 Z M 86.496094 180.765625 C 88.203125 179.308594 90.429688 177.914062 92.765625 178.398438 C 93.085938 178.464844 93.21875 178.03125 92.914062 177.914062 C 91.421875 177.300781 89.929688 177.867188 88.578125 178.59375 C 87.941406 178.9375 87.324219 179.316406 86.757812 179.765625 C 86.0625 180.3125 84.40625 181.253906 84.351562 182.148438 C 84.375 181.804688 83.851562 181.710938 83.824219 182.058594 L 83.792969 182.367188 C 83.777344 182.515625 83.875 182.660156 84.023438 182.679688 C 84.71875 182.777344 85.972656 181.214844 86.496094 180.765625 Z M 101.132812 160.421875 C 98.332031 164.4375 92.554688 165.945312 88.09375 167.15625 C 85.414062 167.890625 82.851562 168.441406 80.082031 168.007812 C 78.695312 167.792969 77.21875 167.433594 75.796875 167.589844 C 75.476562 165.960938 75.050781 164.347656 74.65625 162.738281 C 73.484375 158.007812 72.289062 153.230469 72.34375 148.328125 C 72.433594 139.375 76.671875 132.242188 82.992188 126.21875 C 83.324219 125.90625 82.859375 125.382812 82.53125 125.695312 C 75.957031 131.953125 71.597656 139.433594 71.550781 148.71875 C 71.523438 154.726562 73.371094 160.496094 74.695312 166.296875 C 74.804688 166.78125 74.886719 167.269531 74.976562 167.753906 C 74.910156 167.777344 74.84375 167.785156 74.777344 167.808594 C 74.441406 167.917969 74.640625 168.425781 74.96875 168.316406 C 75 168.300781 75.039062 168.300781 75.074219 168.285156 C 75.171875 168.851562 75.261719 169.414062 75.367188 169.980469 C 75.476562 170.59375 75.582031 171.207031 76.046875 171.671875 C 77.253906 172.867188 79.261719 171.65625 80.695312 171.910156 C 81.144531 171.984375 81.335938 171.3125 80.882812 171.222656 C 80.105469 171.074219 79.441406 171.230469 78.671875 171.265625 C 77.554688 171.328125 76.386719 171.132812 76.164062 169.90625 C 76.082031 169.457031 76.050781 168.996094 75.976562 168.539062 C 75.957031 168.398438 75.917969 168.246094 75.894531 168.105469 C 78.023438 167.828125 80.316406 168.839844 82.433594 168.792969 C 85.242188 168.742188 88.128906 167.753906 90.792969 166.960938 C 94.628906 165.820312 99.183594 164.183594 101.617188 160.789062 C 101.847656 160.480469 101.355469 160.101562 101.132812 160.421875 Z M 24.730469 170.101562 C 24.78125 170.445312 24.839844 170.78125 24.878906 171.132812 C 24.914062 171.5 25.488281 171.515625 25.453125 171.148438 C 25.40625 170.714844 25.347656 170.28125 25.265625 169.855469 C 25.28125 169.773438 25.265625 169.691406 25.214844 169.621094 C 24.675781 166.835938 23.511719 164.285156 22.222656 161.722656 C 20.519531 158.359375 19.144531 154.859375 17.457031 151.488281 C 15.691406 147.949219 14.480469 144.417969 13.472656 140.59375 C 12.464844 136.757812 11.5625 132.8125 11.824219 128.8125 C 11.84375 128.515625 11.382812 128.527344 11.359375 128.828125 C 11.128906 132.421875 11.839844 135.988281 12.710938 139.464844 C 13.644531 143.1875 14.660156 146.796875 16.339844 150.257812 C 17.945312 153.554688 19.347656 156.9375 20.953125 160.234375 C 22.40625 163.226562 23.929688 166.132812 24.601562 169.367188 C 22.199219 168.605469 19.390625 169.242188 16.929688 169.113281 C 12.933594 168.914062 8.488281 169.242188 4.703125 167.785156 C 4.335938 167.640625 4.097656 168.203125 4.464844 168.351562 C 8.210938 169.855469 12.332031 169.4375 16.28125 169.757812 C 18.960938 169.972656 22.175781 169.128906 24.730469 170.101562 Z M 54.390625 174.871094 C 48.003906 172.066406 41.351562 169.808594 35.789062 165.460938 C 35.589844 165.304688 35.3125 165.652344 35.515625 165.8125 C 41.058594 170.191406 47.742188 172.605469 54.191406 175.296875 C 54.472656 175.414062 54.675781 174.996094 54.390625 174.871094 Z M 38.984375 182.105469 C 38.710938 182.097656 38.664062 182.523438 38.941406 182.539062 C 42.066406 182.6875 44.957031 184.199219 47.777344 185.417969 C 50.324219 186.515625 53.085938 187.105469 55.496094 188.496094 C 55.765625 188.652344 56.027344 188.203125 55.773438 188.023438 C 53.332031 186.351562 50.175781 185.820312 47.457031 184.667969 C 44.761719 183.53125 41.964844 182.210938 38.984375 182.105469 Z M 75.097656 193.292969 C 75.386719 193.285156 75.386719 192.839844 75.097656 192.839844 C 71.378906 192.824219 67.707031 193.488281 64.003906 193.78125 C 60.414062 194.058594 56.914062 194.265625 53.332031 194.730469 C 48.171875 195.394531 41.121094 195.378906 36.925781 191.792969 C 36.695312 191.589844 36.386719 191.957031 36.621094 192.160156 C 40.351562 195.355469 46.597656 195.875 51.292969 195.453125 C 59.214844 194.753906 67.140625 193.5625 75.097656 193.292969 Z M 220.96875 240.660156 C 224.042969 242.167969 226.253906 244.589844 228.679688 246.976562 C 228.875 247.164062 229.210938 246.839844 229.023438 246.648438 C 226.84375 244.382812 224.707031 242.167969 221.984375 240.644531 C 222.230469 240.644531 222.484375 240.636719 222.730469 240.636719 C 229.484375 240.480469 236.242188 240.546875 242.988281 240.773438 C 243.027344 240.792969 243.070312 240.808594 243.121094 240.785156 C 243.128906 240.78125 243.144531 240.78125 243.152344 240.773438 C 246.0625 240.867188 248.976562 240.988281 251.878906 241.144531 C 256.515625 241.398438 260.535156 242.582031 264.804688 244.367188 C 268.933594 246.09375 273.089844 247.542969 277.441406 248.605469 C 282.125 249.75 286.871094 250.609375 291.542969 251.757812 C 295.96875 252.851562 300.238281 254.433594 304.71875 255.332031 C 309.152344 256.222656 313.644531 256.617188 318.121094 257.164062 C 321.363281 257.558594 324.632812 258.53125 327.894531 258.417969 C 327.828125 259.210938 327.722656 259.996094 327.535156 260.773438 C 327.460938 261.085938 327.929688 261.191406 328.058594 260.921875 C 328.4375 260.09375 328.65625 259.234375 328.773438 258.359375 C 329.429688 258.292969 330.09375 258.179688 330.753906 258 C 331.050781 257.917969 330.925781 257.410156 330.625 257.46875 C 330.035156 257.597656 329.4375 257.671875 328.847656 257.707031 C 329.101562 254.734375 328.417969 251.585938 329.253906 248.679688 C 329.386719 248.222656 328.691406 247.933594 328.558594 248.394531 C 327.683594 251.445312 328.101562 254.605469 327.945312 257.738281 C 324.707031 257.722656 321.460938 256.648438 318.273438 256.242188 C 314.039062 255.714844 309.792969 255.332031 305.589844 254.539062 C 300.65625 253.605469 295.953125 251.855469 291.074219 250.710938 C 287.96875 249.988281 284.832031 249.367188 281.710938 248.6875 C 283.929688 248.035156 286.632812 248.597656 288.871094 248.386719 C 291.558594 248.132812 294.527344 247.863281 297.007812 246.730469 C 297.1875 246.648438 297.117188 246.339844 296.910156 246.386719 C 293.78125 247.09375 290.789062 247.796875 287.570312 248.023438 C 285.355469 248.179688 283.046875 247.617188 280.988281 248.523438 C 280.078125 248.320312 279.167969 248.121094 278.257812 247.902344 C 273.621094 246.789062 269.21875 245.25 264.820312 243.417969 C 261.285156 241.945312 257.753906 240.660156 253.902344 240.375 C 251.132812 240.175781 248.355469 240.023438 245.578125 239.914062 C 247.101562 239.417969 248.640625 238.964844 250.132812 238.363281 C 250.3125 238.289062 250.191406 238.019531 250.011719 238.097656 C 248.273438 238.777344 246.46875 239.277344 244.707031 239.875 C 238.300781 239.628906 231.875 239.589844 225.476562 239.679688 C 224.542969 239.695312 223.613281 239.695312 222.679688 239.695312 C 222.722656 239.621094 222.714844 239.523438 222.671875 239.441406 C 224.296875 238.019531 226.074219 236.824219 227.835938 235.578125 C 228.058594 235.414062 227.867188 235.023438 227.628906 235.1875 C 225.738281 236.4375 223.894531 237.789062 222.230469 239.320312 C 221.722656 239.34375 221.296875 239.449219 220.894531 239.695312 C 217.191406 239.679688 213.484375 239.621094 209.789062 239.734375 C 208.601562 239.769531 207.414062 239.882812 206.226562 240.023438 C 206.207031 240.003906 206.167969 239.980469 206.128906 239.964844 C 201.867188 238.460938 197.398438 237.355469 193.03125 236.191406 C 192.65625 236.09375 192.425781 236.617188 192.808594 236.765625 C 196.746094 238.3125 201.03125 238.910156 205.078125 240.167969 C 202.113281 240.546875 199.160156 241.019531 196.195312 240.847656 C 195.605469 240.808594 195.621094 241.730469 196.203125 241.757812 C 200.25 241.988281 204.265625 240.9375 208.296875 240.703125 C 212.511719 240.464844 216.746094 240.683594 220.96875 240.660156 Z M 206.339844 243.714844 C 200.285156 247.320312 194.792969 251.910156 189.261719 256.242188 C 189.015625 256.4375 189.3125 256.820312 189.558594 256.625 C 195.160156 252.3125 200.824219 248.164062 206.636719 244.15625 C 206.921875 243.972656 206.628906 243.542969 206.339844 243.714844 Z M 338.238281 266.363281 C 338.132812 266.769531 337.96875 267.117188 337.777344 267.457031 C 337.769531 267.546875 337.730469 267.621094 337.65625 267.671875 C 336.828125 268.972656 335.460938 269.90625 334.648438 271.261719 C 334.453125 271.589844 333.917969 271.351562 334.105469 271 C 334.769531 269.773438 335.894531 268.980469 336.738281 267.925781 C 333.171875 268.710938 329.253906 267.941406 325.667969 267.730469 C 320.96875 267.457031 316.273438 266.984375 311.5625 266.910156 C 303.054688 266.78125 294.589844 267.710938 286.0625 267.125 C 281.742188 266.835938 277.570312 266.019531 273.316406 265.28125 C 269.21875 264.570312 265.058594 264.300781 260.941406 263.785156 C 260.214844 263.695312 259.507812 263.582031 258.796875 263.472656 C 258.007812 263.980469 257.179688 264.40625 256.261719 264.636719 C 256.097656 264.675781 255.886719 264.601562 255.847656 264.421875 C 255.738281 263.925781 255.738281 263.449219 255.804688 262.976562 C 254.527344 262.761719 253.25 262.566406 251.960938 262.433594 C 251.46875 263.269531 250.945312 264.09375 250.324219 264.855469 C 250.117188 265.109375 249.773438 264.921875 249.773438 264.628906 C 249.78125 263.835938 249.839844 263.054688 249.929688 262.277344 C 249.371094 262.253906 248.804688 262.238281 248.230469 262.253906 C 244.070312 262.335938 239.941406 262.859375 235.816406 263.238281 C 231.664062 263.621094 227.492188 263.75 223.328125 264.078125 C 221.1875 264.25 219.050781 264.472656 216.902344 264.59375 C 215.183594 264.691406 213.421875 264.601562 211.902344 265.550781 C 211.484375 265.8125 211.160156 265.125 211.566406 264.871094 C 212.863281 264.046875 214.328125 263.925781 215.828125 263.859375 C 218.058594 263.75 220.289062 263.53125 222.515625 263.351562 C 227.15625 262.976562 231.824219 262.828125 236.457031 262.378906 C 240.585938 261.984375 244.710938 261.484375 248.863281 261.453125 C 249.25 261.453125 249.632812 261.46875 250.011719 261.484375 C 250.339844 259.089844 250.945312 256.730469 251.550781 254.398438 C 251.632812 254.078125 252.117188 254.226562 252.035156 254.546875 C 251.46875 256.835938 250.894531 259.160156 250.585938 261.511719 C 250.945312 261.535156 251.304688 261.566406 251.660156 261.59375 C 253.117188 259.007812 254.527344 256.28125 257.363281 255.234375 C 257.507812 255.183594 257.664062 255.25 257.746094 255.371094 C 259.097656 257.238281 257.582031 259.652344 256.886719 261.476562 C 256.84375 261.59375 256.707031 261.925781 256.582031 262.304688 C 257.3125 262.433594 258.042969 262.558594 258.78125 262.679688 C 258.894531 262.597656 259 262.523438 259.050781 262.484375 C 260.230469 261.671875 261.34375 260.773438 262.621094 260.109375 C 262.976562 259.921875 263.210938 260.488281 262.867188 260.675781 C 261.785156 261.273438 260.777344 262.082031 259.746094 262.828125 C 260.058594 262.875 260.378906 262.925781 260.695312 262.972656 C 264.933594 263.53125 269.210938 263.777344 273.433594 264.511719 C 277.691406 265.25 281.871094 266.066406 286.191406 266.355469 C 295.140625 266.960938 304.046875 265.886719 312.980469 266.164062 C 317.191406 266.296875 321.390625 266.699219 325.59375 266.945312 C 329.453125 267.171875 333.425781 267.851562 337.261719 267.082031 C 338.304688 265.070312 338.132812 261.617188 337.164062 259.667969 C 336.992188 259.332031 337.492188 259 337.664062 259.347656 C 338.703125 261.378906 338.792969 264.183594 338.238281 266.363281 Z M 251.238281 262.371094 C 250.996094 262.351562 250.757812 262.34375 250.519531 262.328125 C 250.476562 262.785156 250.4375 263.238281 250.414062 263.695312 C 250.707031 263.269531 250.976562 262.828125 251.238281 262.371094 Z M 256.335938 261.160156 C 256.671875 260.28125 258.582031 256.511719 257.199219 256.199219 C 255.679688 255.855469 253.804688 259.316406 253.183594 260.347656 C 252.921875 260.78125 252.667969 261.222656 252.414062 261.664062 C 253.609375 261.796875 254.796875 261.984375 255.984375 262.1875 C 256.082031 261.851562 256.199219 261.503906 256.335938 261.160156 Z M 257.871094 263.335938 C 257.378906 263.253906 256.886719 263.171875 256.402344 263.089844 C 256.335938 263.472656 256.335938 263.800781 256.519531 263.90625 C 256.730469 264.023438 257.3125 263.710938 257.871094 263.335938 Z M 172.855469 266.042969 C 172.511719 265.9375 172.324219 266.46875 172.667969 266.582031 C 176.738281 267.867188 181.386719 266.894531 185.066406 269.367188 C 185.351562 269.554688 185.664062 269.210938 185.417969 268.964844 C 182.433594 265.9375 176.578125 267.1875 172.855469 266.042969 Z M 169.472656 233.941406 C 166.527344 239.433594 164.570312 245.359375 163.488281 251.496094 C 162.511719 257.042969 161.761719 263.136719 162.257812 268.761719 C 162.277344 269.023438 162.675781 268.964844 162.695312 268.726562 C 162.972656 265.742188 162.851562 262.714844 163.070312 259.71875 C 163.292969 256.675781 163.667969 253.644531 164.234375 250.636719 C 165.316406 244.890625 167.175781 239.351562 169.921875 234.195312 C 170.078125 233.910156 169.628906 233.648438 169.472656 233.941406 Z M 95.871094 256.066406 C 94.242188 255.617188 92.683594 254.996094 91.070312 254.523438 C 87.742188 253.5625 84.523438 254.152344 81.234375 254.972656 C 78.105469 255.757812 75.066406 256.886719 72.484375 258.851562 C 69.550781 261.09375 67.394531 264.160156 65.003906 266.941406 C 64.757812 267.171875 65.167969 267.558594 65.394531 267.296875 C 67.5 264.871094 69.410156 262.230469 71.84375 260.117188 C 74.492188 257.8125 77.636719 256.492188 81 255.609375 C 84.375 254.726562 87.765625 254.054688 91.183594 255.128906 C 93.898438 255.980469 96.742188 256.753906 99.332031 257.910156 C 99.519531 257.992188 99.667969 257.738281 99.511719 257.613281 C 98.480469 256.746094 97.152344 256.421875 95.871094 256.066406 Z M 134.085938 241.832031 C 127.398438 248.835938 121.144531 257.445312 111.386719 260.226562 C 111.171875 260.289062 111.296875 260.609375 111.507812 260.550781 C 121.121094 257.878906 128.078125 249.359375 134.355469 242.101562 C 134.519531 241.914062 134.257812 241.644531 134.085938 241.832031 Z M 147.035156 249.988281 C 141.199219 252.609375 136.550781 258.457031 133.578125 263.980469 C 133.429688 264.257812 133.832031 264.539062 133.988281 264.265625 C 136.96875 258.957031 141.558594 253.132812 147.246094 250.625 C 147.632812 250.445312 147.425781 249.808594 147.035156 249.988281 Z M 20.011719 134.082031 C 21.085938 133.878906 22.273438 134.328125 23.304688 134.613281 C 24.460938 134.925781 25.617188 135.253906 26.820312 135.292969 C 27.15625 135.300781 27.429688 134.808594 27.074219 134.613281 C 25.847656 133.941406 24.503906 133.871094 23.183594 133.6875 C 23.140625 133.617188 23.078125 133.566406 22.976562 133.535156 C 22.601562 133.445312 22.222656 133.363281 21.847656 133.289062 C 21.601562 133.230469 21.355469 133.164062 21.117188 133.09375 C 21.035156 133.074219 20.96875 133.082031 20.90625 133.101562 C 20.78125 133.082031 20.675781 133.132812 20.601562 133.207031 C 20.378906 133.199219 20.160156 133.183594 19.9375 133.199219 C 19.28125 133.230469 19.371094 134.203125 20.011719 134.082031 Z M 34.761719 133.933594 C 34.8125 133.917969 34.863281 133.894531 34.917969 133.871094 C 35.96875 134.210938 37.976562 132.847656 38.679688 132.484375 C 39.367188 132.125 40.039062 131.742188 40.710938 131.363281 C 41.636719 130.890625 42.546875 130.414062 43.464844 129.925781 C 43.636719 129.835938 43.695312 129.679688 43.6875 129.53125 C 43.726562 129.523438 43.761719 129.507812 43.800781 129.507812 C 45.210938 129.261719 45.710938 129.925781 46.589844 130.867188 C 46.898438 131.195312 47.464844 130.6875 47.179688 130.335938 C 45.570312 128.378906 44.824219 128.265625 42.335938 129.066406 C 39.492188 129.984375 36.6875 131.292969 34.371094 133.214844 C 34.058594 133.484375 34.371094 134.058594 34.761719 133.933594 Z M 54.03125 126.953125 C 54.039062 126.488281 54.046875 126.023438 54.078125 125.570312 C 54.152344 125.105469 54.308594 124.65625 54.546875 124.222656 C 55.429688 125.523438 55.496094 127.550781 55.265625 128.992188 C 55.203125 129.367188 55.808594 129.539062 55.914062 129.164062 C 56.4375 127.371094 56.117188 124.703125 54.792969 123.296875 C 54.683594 123.183594 54.539062 123.164062 54.40625 123.199219 C 54.527344 122.722656 54.683594 122.242188 54.882812 121.773438 C 55.109375 121.269531 54.339844 120.882812 54.117188 121.382812 C 53.339844 123.164062 53.085938 125.105469 53.21875 127.035156 C 53.265625 127.570312 54.03125 127.460938 54.03125 126.953125 Z M 30.011719 143.125 C 30.035156 143.132812 30.042969 143.140625 30.074219 143.148438 C 30.191406 143.207031 30.304688 143.277344 30.425781 143.34375 C 30.679688 143.476562 30.925781 143.621094 31.191406 143.730469 C 31.625 143.902344 32.035156 143.941406 32.5 143.859375 C 32.515625 143.859375 32.519531 143.851562 32.535156 143.851562 C 32.550781 144.164062 32.96875 144.433594 33.230469 144.15625 C 33.707031 143.648438 34.410156 143.125 34.707031 142.46875 C 34.863281 142.304688 35.023438 142.140625 35.171875 141.96875 C 35.484375 141.632812 34.910156 141.085938 34.582031 141.414062 C 34.417969 141.578125 34.246094 141.75 34.082031 141.914062 C 34.066406 141.929688 34.050781 141.9375 34.042969 141.953125 C 33.871094 142.125 33.707031 142.296875 33.542969 142.46875 C 33.261719 142.707031 32.960938 142.910156 32.609375 143.023438 C 31.8125 143.269531 31.253906 142.878906 30.574219 142.535156 C 30.101562 142.296875 29.222656 142.066406 29.410156 142.9375 C 29.460938 143.261719 29.820312 143.285156 30.011719 143.125 Z M 39.15625 147.066406 C 39.367188 147.28125 39.8125 147.09375 39.761719 146.78125 C 39.539062 145.355469 36.515625 146.070312 35.625 146.183594 C 35.105469 146.25 31.179688 146.394531 31.222656 147.042969 C 31.222656 147.085938 31.253906 147.140625 31.289062 147.175781 C 31.289062 147.175781 31.28125 147.175781 31.28125 147.183594 C 31.855469 147.84375 33.84375 147.265625 34.582031 147.164062 C 35.582031 147.027344 38.359375 146.226562 39.15625 147.066406 Z M 36.410156 149.957031 C 36.769531 149.808594 36.605469 149.34375 36.277344 149.308594 C 36.203125 149.089844 35.960938 148.925781 35.722656 149.054688 C 35.589844 149.121094 35.476562 149.226562 35.359375 149.316406 C 35.171875 149.316406 34.976562 149.308594 34.789062 149.316406 C 34.425781 149.335938 34.394531 149.847656 34.679688 149.949219 C 34.699219 150.121094 34.804688 150.273438 35.007812 150.285156 C 35.214844 150.300781 35.367188 150.265625 35.5 150.203125 C 35.804688 150.136719 36.113281 150.078125 36.410156 149.957031 Z M 24.011719 136.453125 C 23.929688 136.464844 23.855469 136.542969 23.8125 136.617188 C 23.140625 136.773438 22.542969 137.148438 22.109375 137.894531 C 21.945312 138.171875 22.363281 138.449219 22.535156 138.171875 C 22.75 137.8125 23.027344 137.566406 23.332031 137.410156 C 23.339844 137.4375 23.355469 137.46875 23.363281 137.5 C 23.316406 137.847656 23.394531 138.222656 23.5625 138.460938 C 23.898438 138.902344 24.222656 139.046875 24.503906 139 C 24.570312 139.058594 24.648438 139.121094 24.722656 139.171875 C 24.855469 139.261719 25.050781 139.210938 25.152344 139.105469 C 25.3125 138.949219 25.445312 138.777344 25.535156 138.605469 C 25.570312 138.597656 25.609375 138.605469 25.65625 138.597656 C 26.019531 138.542969 26.019531 137.992188 25.667969 137.925781 C 25.683594 137.648438 25.59375 137.4375 25.429688 137.265625 C 26.289062 137.445312 27.15625 137.820312 27.8125 138.109375 C 28.15625 138.261719 28.476562 137.746094 28.148438 137.527344 C 26.902344 136.667969 25.542969 136.136719 24.011719 136.453125 Z M 38.882812 136.300781 C 39.203125 136.421875 39.679688 136.390625 40.128906 136.265625 C 40.433594 136.316406 40.753906 136.242188 41.03125 136.003906 C 41.15625 135.929688 41.253906 135.824219 41.300781 135.683594 C 41.320312 135.652344 41.335938 135.628906 41.359375 135.597656 C 41.507812 135.332031 41.566406 135.078125 41.566406 134.851562 C 42.367188 135.007812 43.15625 135.269531 43.84375 135.546875 C 44.21875 135.695312 44.480469 135.078125 44.121094 134.898438 C 42.835938 134.246094 40.582031 133.109375 39.203125 134.105469 C 37.96875 134.320312 36.886719 134.992188 36.214844 136.382812 C 36.023438 136.789062 36.6875 137.003906 36.878906 136.601562 C 37.253906 135.816406 37.796875 135.332031 38.441406 135.039062 C 38.222656 135.539062 38.238281 136.070312 38.882812 136.300781 Z M 46.890625 146.667969 C 46.859375 146.78125 46.824219 146.894531 46.785156 146.996094 C 46.6875 147.09375 46.582031 147.199219 46.488281 147.296875 C 45.539062 147.679688 44.753906 148.441406 44.203125 149.328125 C 43.574219 149.832031 42.910156 150.292969 42.1875 150.570312 C 41.800781 150.71875 41.390625 150.808594 40.972656 150.878906 C 40.835938 150.832031 40.695312 150.789062 40.558594 150.742188 C 40.386719 150.683594 40.285156 150.824219 40.285156 150.96875 C 39.539062 151.042969 38.785156 151.070312 38.058594 151.191406 C 37.515625 151.28125 37.566406 152.125 38.128906 152.050781 C 39.394531 151.878906 40.476562 151.773438 41.5 151.542969 C 45.300781 152.769531 49.160156 153.179688 52.90625 151.40625 C 55.800781 150.039062 58.78125 148.753906 59.273438 145.308594 C 59.898438 140.972656 58.871094 136.519531 58.972656 132.160156 C 59.078125 127.503906 58.554688 122.863281 58.871094 118.214844 C 58.90625 118.160156 58.9375 118.101562 58.921875 118.027344 C 58.921875 117.9375 58.921875 117.855469 58.914062 117.765625 C 58.90625 117.617188 58.742188 117.511719 58.609375 117.527344 C 58.59375 117.527344 58.578125 117.527344 58.5625 117.535156 C 58.472656 117.542969 58.371094 117.625 58.347656 117.714844 C 57.472656 120.949219 58.324219 124.894531 58.414062 128.199219 C 58.472656 130.5625 58.316406 132.921875 58.4375 135.277344 C 58.542969 137.289062 58.78125 139.285156 58.871094 141.289062 C 58.953125 143.164062 59.160156 145.765625 58.09375 147.394531 C 57.175781 148.792969 55.289062 149.621094 53.847656 150.363281 C 49.957031 152.335938 46.285156 152.386719 42.359375 151.304688 C 42.941406 151.117188 43.515625 150.871094 44.097656 150.519531 C 45.023438 150.832031 46.179688 150.988281 47.023438 150.519531 C 47.121094 150.464844 47.1875 150.398438 47.269531 150.339844 C 48.007812 150.28125 48.710938 150.09375 49.1875 149.503906 C 50.039062 148.441406 50.070312 146.847656 50.488281 145.59375 C 50.847656 144.84375 51.160156 144.074219 51.488281 143.3125 C 51.53125 143.199219 51.523438 143.089844 51.488281 142.984375 C 52.382812 141.730469 53.167969 140.367188 53.628906 138.933594 C 54.445312 136.421875 53.488281 133.84375 54.011719 131.308594 C 54.519531 131.40625 55.019531 131.519531 55.527344 131.644531 C 56.054688 131.773438 56.257812 130.949219 55.71875 130.816406 C 55.070312 130.652344 54.414062 130.496094 53.75 130.367188 C 53.578125 130.335938 53.339844 130.449219 53.285156 130.628906 C 52.585938 133.007812 53.421875 135.375 52.964844 137.757812 C 52.5625 139.875 51.195312 141.839844 49.90625 143.515625 C 49.136719 144.515625 48.285156 145.488281 47.398438 146.414062 C 47.179688 146.355469 46.957031 146.421875 46.890625 146.667969 Z M 46.890625 146.667969 " fill-opacity="1" fill-rule="nonzero"/><g clip-path="url(#460e98d83f)"><path fill="#f3af93" d="M 215.257812 280.265625 C 215.910156 284.480469 213.117188 283.40625 210.75 285.042969 C 209.75 285.738281 210.183594 286.890625 208.585938 287.851562 C 206.855469 288.898438 204.101562 288.609375 202.152344 288.675781 C 197.816406 288.824219 193.285156 288.9375 189.074219 288.203125 C 185.484375 287.585938 182.386719 285.863281 178.863281 285.011719 C 175.265625 285.671875 171.652344 286.269531 168.109375 286.972656 C 160.515625 288.480469 152.820312 289.484375 145.089844 289.878906 C 137.453125 290.265625 129.75 290.164062 122.105469 289.855469 C 119.546875 289.75 117.007812 289.558594 114.46875 289.332031 C 114.171875 289.347656 113.882812 289.363281 113.582031 289.371094 C 110.3125 289.511719 107.164062 289.378906 104.003906 289.09375 C 103.894531 289.101562 103.789062 289.109375 103.675781 289.125 C 94.289062 289.789062 84.375 288.292969 75.582031 284.78125 C 73.515625 283.957031 66.730469 279.699219 66.839844 277.261719 C 65.878906 275.632812 65.976562 273.742188 66.410156 271.796875 C 66.429688 271.179688 66.503906 270.550781 66.65625 269.898438 C 67.042969 268.1875 67.878906 266.617188 68.960938 265.242188 C 72.605469 259.089844 81.066406 255.675781 88.390625 256.535156 C 100.078125 257.910156 109.253906 264.015625 120.316406 267.296875 C 132.035156 270.773438 144.761719 268.464844 157.015625 269.519531 C 162.859375 270.019531 168.9375 270.078125 174.730469 270.960938 C 177.707031 271.417969 180.773438 272.210938 183.917969 271.714844 C 187.523438 271.148438 190 268.40625 193.515625 267.648438 C 197.335938 266.828125 202.816406 267.507812 206.675781 267.722656 C 206.683594 267.828125 206.683594 267.925781 206.691406 268.023438 C 206.792969 267.992188 206.914062 268.007812 207.035156 268.097656 C 207.0625 268.121094 207.085938 268.152344 207.117188 268.171875 C 207.117188 268.171875 207.125 268.179688 207.125 268.179688 C 207.21875 268.269531 207.300781 268.359375 207.363281 268.457031 C 207.503906 268.621094 207.570312 268.808594 207.59375 269.003906 C 207.78125 269.464844 207.847656 269.96875 207.652344 270.46875 C 207.421875 271.066406 206.929688 271.445312 206.371094 271.707031 C 206.496094 271.941406 206.808594 272.082031 207.4375 272.195312 C 208.796875 272.148438 210.140625 272.269531 211.488281 272.402344 C 211.824219 272.433594 212.175781 272.457031 212.519531 272.476562 C 213.191406 272.484375 213.839844 272.53125 214.394531 272.6875 C 214.4375 272.695312 214.484375 272.710938 214.527344 272.71875 C 214.578125 272.671875 214.648438 272.636719 214.722656 272.628906 C 216.230469 272.433594 216.582031 273.0625 216.5 273.9375 C 216.59375 274.199219 216.640625 274.472656 216.640625 274.773438 C 216.675781 274.796875 216.722656 274.816406 216.757812 274.839844 C 216.671875 275.242188 216.632812 275.664062 216.609375 276.089844 C 216.609375 276.148438 216.625 276.199219 216.632812 276.253906 C 216.917969 276.386719 217.09375 276.640625 217.164062 276.941406 C 217.246094 276.96875 217.320312 277.007812 217.410156 277.015625 C 217.511719 277.023438 217.601562 277.046875 217.699219 277.058594 C 217.664062 278.523438 216.855469 279.839844 215.257812 280.265625 Z M 215.257812 280.265625 " fill-opacity="1" fill-rule="nonzero"/></g><path fill="#a6543b" d="M 38.269531 227.839844 C 37.96875 226.691406 37.351562 225.644531 37.296875 224.441406 C 37.285156 224.042969 37.894531 223.945312 37.910156 224.351562 C 37.957031 225.425781 38.484375 226.332031 38.761719 227.355469 C 38.875 227.765625 39.074219 228.265625 38.835938 228.671875 C 38.433594 229.351562 37 229.523438 36.296875 229.523438 C 35.949219 229.523438 35.886719 228.976562 36.238281 228.976562 C 36.664062 228.976562 37.097656 228.886719 37.507812 228.777344 C 38.128906 228.597656 38.449219 228.515625 38.269531 227.839844 Z M 46.007812 229.917969 C 46.679688 228.605469 46.90625 227.09375 47.949219 225.996094 C 48.203125 225.734375 47.835938 225.316406 47.570312 225.570312 C 46.546875 226.546875 46.324219 228 45.746094 229.246094 C 45.472656 228.714844 45.351562 228.109375 45.128906 227.550781 C 44.800781 226.734375 44.277344 225.996094 44.21875 225.089844 C 44.195312 224.703125 43.589844 224.746094 43.621094 225.136719 C 43.695312 226.210938 44.34375 227.070312 44.695312 228.058594 C 44.941406 228.761719 45.097656 229.425781 45.605469 229.992188 C 45.710938 230.136719 45.933594 230.0625 46.007812 229.917969 Z M 29.460938 230.921875 C 29.917969 231.617188 30.09375 232.125 30.148438 232.976562 C 30.207031 233.984375 29.960938 234.964844 29.984375 235.964844 C 29.992188 236.234375 30.378906 236.300781 30.492188 236.070312 C 30.929688 235.167969 30.917969 233.960938 30.863281 232.984375 C 30.835938 232.503906 30.789062 232.011719 30.640625 231.554688 C 30.453125 230.988281 29.984375 230.585938 29.804688 230.015625 C 29.671875 229.582031 28.976562 229.761719 29.117188 230.195312 C 29.199219 230.472656 29.296875 230.675781 29.460938 230.921875 Z M 29.402344 238.15625 C 28.296875 237.5 27.371094 236.601562 26.496094 235.644531 C 26.355469 235.488281 26.160156 235.300781 25.960938 235.089844 C 26.011719 235.015625 26.035156 234.917969 25.996094 234.808594 C 25.640625 233.65625 25.625 232.109375 25.078125 231.054688 C 25.050781 230.996094 25.019531 230.957031 24.988281 230.90625 C 25.125 230.777344 25.191406 230.597656 25.140625 230.332031 C 25.140625 230.324219 25.125 230.316406 25.125 230.308594 C 25.109375 230.164062 24.945312 230.039062 24.789062 230.082031 C 24.609375 230.046875 24.511719 230.105469 24.304688 230.226562 C 24.289062 230.234375 24.28125 230.246094 24.265625 230.253906 C 24.191406 230.261719 24.117188 230.300781 24.066406 230.351562 C 23.980469 230.375 23.90625 230.414062 23.855469 230.503906 C 23.804688 230.589844 23.765625 230.660156 23.734375 230.71875 C 23.652344 230.777344 23.59375 230.875 23.617188 231.003906 C 23.8125 232.289062 23.898438 233.746094 24.722656 234.816406 C 24.789062 234.90625 24.871094 234.941406 24.953125 234.941406 C 25.167969 235.210938 25.40625 235.464844 25.632812 235.726562 C 26.609375 236.878906 27.609375 238.058594 28.960938 238.777344 C 29.394531 239.007812 29.835938 238.410156 29.402344 238.15625 Z M 42.984375 257.074219 C 41.820312 257.621094 40.703125 258.933594 39.300781 258.246094 C 38.296875 257.761719 37.566406 256.542969 36.886719 255.644531 C 37.207031 254.90625 37.523438 254.164062 38.1875 253.664062 C 38.605469 253.351562 38.128906 252.730469 37.695312 253.023438 C 36.777344 253.648438 36.46875 254.765625 36.066406 255.742188 C 35.679688 256.671875 35.179688 257.679688 35.507812 258.695312 C 35.632812 259.105469 36.261719 258.898438 36.132812 258.484375 C 35.902344 257.707031 36.320312 256.878906 36.65625 256.167969 C 37.441406 257.28125 38.34375 258.746094 39.679688 259.054688 C 40.964844 259.347656 42.238281 258.203125 43.238281 257.589844 C 43.554688 257.394531 43.320312 256.917969 42.984375 257.074219 Z M 46.761719 257.050781 C 46.644531 255.382812 46.300781 253.746094 47.761719 252.507812 C 48.515625 251.871094 49.398438 251.402344 50.21875 250.871094 C 51.449219 250.078125 52.660156 249.164062 53.5625 247.992188 C 53.683594 247.835938 53.785156 247.679688 53.882812 247.515625 C 53.996094 247.679688 54.324219 247.664062 54.398438 247.410156 C 54.757812 246.078125 55.347656 244.832031 56.003906 243.605469 C 56.332031 243.140625 56.601562 242.640625 56.839844 242.117188 C 57.042969 241.765625 57.234375 241.40625 57.40625 241.039062 C 57.808594 240.285156 58.199219 239.523438 58.511719 238.738281 C 58.519531 238.730469 58.519531 238.722656 58.527344 238.722656 C 58.542969 238.695312 58.554688 238.664062 58.5625 238.632812 C 58.59375 238.558594 58.59375 238.5 58.578125 238.441406 C 58.585938 238.386719 58.585938 238.335938 58.554688 238.28125 C 58.324219 237.773438 57.898438 237.453125 57.585938 237.011719 C 57.199219 236.460938 56.882812 235.808594 56.734375 235.152344 C 56.71875 235.089844 56.675781 235.039062 56.625 235.015625 C 56.660156 234.816406 56.699219 234.605469 56.71875 234.394531 C 56.71875 234.382812 56.726562 234.375 56.726562 234.359375 C 56.726562 234.359375 56.726562 234.351562 56.726562 234.351562 C 56.726562 234.335938 56.734375 234.320312 56.734375 234.304688 C 56.734375 234.304688 56.726562 234.304688 56.726562 234.304688 C 56.71875 234.066406 56.347656 233.976562 56.289062 234.246094 C 56.207031 234.621094 56.144531 234.988281 56.09375 235.359375 C 55.921875 235.375 55.75 235.515625 55.832031 235.710938 C 55.890625 235.859375 55.9375 236.003906 55.988281 236.152344 C 55.945312 236.488281 55.898438 236.832031 55.847656 237.167969 C 55.578125 238.902344 55.011719 240.5625 54.636719 242.273438 C 54.128906 244.628906 54.183594 246.640625 52.339844 248.457031 C 50.71875 250.046875 48.425781 250.789062 46.859375 252.410156 C 45.507812 253.808594 45.824219 255.40625 46.234375 257.15625 C 46.316406 257.445312 46.785156 257.34375 46.761719 257.050781 Z M 126.808594 269.78125 C 126.605469 270.953125 126.429688 272.128906 126.390625 273.316406 C 126.375 273.816406 127.128906 273.832031 127.160156 273.335938 C 127.234375 272.171875 127.421875 271.011719 127.621094 269.863281 C 127.710938 269.332031 126.890625 269.257812 126.808594 269.78125 Z M 206.542969 271.820312 C 206.871094 271.746094 206.75 271.28125 206.429688 271.320312 C 203.949219 271.632812 200.046875 270.316406 198.179688 272.492188 C 197.957031 272.753906 198.359375 273.105469 198.585938 272.84375 C 200.359375 270.78125 204.210938 272.351562 206.542969 271.820312 Z M 207.207031 267.867188 C 207.242188 267.5 206.699219 267.46875 206.636719 267.820312 C 206.414062 269.195312 204.390625 269.675781 204.144531 268.054688 C 204.09375 267.679688 203.503906 267.695312 203.554688 268.070312 C 203.898438 270.363281 206.964844 270.042969 207.207031 267.867188 Z M 216.828125 275.65625 C 212.914062 275.378906 209.085938 276.730469 205.191406 276.957031 C 204.792969 276.976562 204.734375 277.5625 205.152344 277.589844 C 209.070312 277.816406 212.796875 276.035156 216.730469 276.261719 C 217.117188 276.28125 217.222656 275.683594 216.828125 275.65625 Z M 215.222656 279.601562 C 213.191406 279.824219 211.371094 280.804688 209.339844 281.042969 C 207.339844 281.277344 205.242188 281.082031 203.324219 281.785156 C 202.921875 281.925781 203.101562 282.5 203.519531 282.410156 C 205.289062 282.03125 207.042969 281.972656 208.839844 281.792969 C 211.070312 281.574219 213.066406 280.484375 215.273438 280.207031 C 215.648438 280.15625 215.609375 279.5625 215.222656 279.601562 Z M 210.625 284.429688 C 208.234375 284.699219 205.71875 284.96875 203.375 285.492188 C 203.027344 285.566406 202.964844 286.15625 203.382812 286.164062 C 205.78125 286.238281 208.300781 285.355469 210.675781 285.027344 C 211.050781 284.976562 211.011719 284.386719 210.625 284.429688 Z M 214.109375 274.027344 C 214.402344 273.449219 215.058594 273.078125 215.683594 273.039062 C 215.691406 273.039062 215.691406 273.039062 215.699219 273.039062 C 215.691406 273.023438 215.683594 273 215.675781 272.988281 C 215.574219 272.761719 215.863281 272.558594 216.050781 272.703125 C 217.15625 273.554688 216.417969 275.632812 214.96875 275.402344 C 214.28125 275.28125 213.75 274.71875 214.109375 274.027344 Z M 215.074219 274.796875 C 215.886719 274.90625 215.992188 274.175781 215.863281 273.539062 C 215.820312 273.585938 215.757812 273.613281 215.683594 273.613281 C 215.101562 273.660156 213.976562 274.644531 215.074219 274.796875 Z M 216.707031 277.074219 C 216.9375 277.6875 217.011719 278.433594 216.519531 278.945312 C 216.085938 279.398438 215.410156 279.421875 214.839844 279.273438 C 214.4375 279.160156 214.09375 279.0625 214.078125 278.601562 C 214.074219 278.285156 214.132812 277.972656 214.320312 277.71875 C 214.699219 277.1875 215.378906 277.140625 215.976562 277.246094 C 216.027344 277.253906 216.066406 277.285156 216.09375 277.320312 C 216.085938 277.300781 216.082031 277.285156 216.074219 277.261719 C 215.921875 276.867188 216.550781 276.679688 216.707031 277.074219 Z M 216.246094 277.917969 C 216.238281 277.769531 216.199219 277.621094 216.15625 277.472656 C 216.15625 277.472656 216.15625 277.464844 216.148438 277.464844 C 216.15625 277.605469 216.058594 277.769531 215.894531 277.746094 C 215.214844 277.664062 214.699219 277.890625 214.699219 278.570312 C 215.101562 278.734375 215.601562 278.847656 215.96875 278.585938 C 216.183594 278.429688 216.253906 278.171875 216.246094 277.917969 Z M 214.445312 281.640625 C 214.46875 282.292969 214.09375 282.957031 213.476562 283.210938 C 212.824219 283.480469 212.175781 283.203125 211.675781 282.769531 C 211.578125 282.679688 211.558594 282.488281 211.632812 282.382812 C 212.191406 281.574219 213.003906 281.214844 213.984375 281.367188 C 214.011719 281.371094 214.035156 281.378906 214.058594 281.394531 C 214.230469 281.335938 214.4375 281.417969 214.445312 281.640625 Z M 213.75 281.957031 C 213.199219 281.910156 212.742188 282.097656 212.386719 282.492188 C 212.652344 282.652344 212.96875 282.726562 213.265625 282.582031 C 213.535156 282.449219 213.660156 282.210938 213.75 281.957031 Z M 210.355469 285.230469 C 210.003906 285.730469 209.714844 286.246094 209.472656 286.8125 C 209.316406 287.1875 209.890625 287.390625 210.0625 287.023438 C 210.304688 286.5 210.601562 286.007812 210.9375 285.535156 C 211.183594 285.199219 210.601562 284.894531 210.355469 285.230469 Z M 23.652344 269.765625 C 18.519531 267.800781 15.070312 263.074219 12.867188 258.21875 C 12.75 257.957031 12.359375 258.164062 12.480469 258.425781 C 14.691406 263.328125 18.242188 268.292969 23.496094 270.160156 C 23.757812 270.257812 23.914062 269.871094 23.652344 269.765625 Z M 46.582031 267.949219 C 46.316406 267.828125 46.089844 268.226562 46.359375 268.34375 C 50.203125 270.054688 51.859375 273.972656 52.054688 277.980469 C 52.070312 278.277344 52.53125 278.257812 52.523438 277.957031 C 52.414062 273.792969 50.546875 269.691406 46.582031 267.949219 Z M 63.992188 277.769531 C 60.027344 276.804688 56.660156 274.886719 54.621094 271.222656 C 53.355469 268.941406 52.519531 265.953125 49.785156 265.078125 C 49.585938 265.011719 49.511719 265.324219 49.703125 265.398438 C 52.816406 266.507812 53.414062 270.660156 55.234375 273.070312 C 57.382812 275.910156 60.414062 277.589844 63.894531 278.1875 C 64.132812 278.226562 64.222656 277.828125 63.992188 277.769531 Z M 28.878906 254.054688 C 29 253.777344 28.574219 253.566406 28.453125 253.851562 C 25.863281 259.75 31.125 265.96875 35.492188 269.375 C 35.632812 269.488281 35.820312 269.25 35.695312 269.121094 C 31.796875 265.4375 26.324219 259.898438 28.878906 254.054688 Z M 22.714844 255.046875 C 22.75 254.757812 22.289062 254.757812 22.257812 255.046875 C 21.996094 257.3125 22.691406 259.308594 24.167969 261.019531 C 24.316406 261.191406 24.609375 260.9375 24.476562 260.757812 C 23.140625 259.054688 22.46875 257.222656 22.714844 255.046875 Z M 8.90625 252.265625 C 9.046875 251.96875 8.597656 251.707031 8.457031 252.007812 C 7.074219 254.972656 7.792969 257.605469 8.792969 260.570312 C 8.898438 260.894531 9.40625 260.75 9.292969 260.429688 C 8.34375 257.632812 7.582031 255.109375 8.90625 252.265625 Z M 20.414062 112.160156 C 21.414062 111.054688 22.714844 110.335938 23.996094 109.609375 C 24.140625 109.527344 24.027344 109.320312 23.886719 109.386719 C 22.535156 110.058594 21.21875 110.792969 20.199219 111.929688 C 20.0625 112.078125 20.28125 112.316406 20.414062 112.160156 Z M 27.496094 119.925781 C 26.558594 117.683594 26.167969 115.492188 28.140625 113.667969 C 28.363281 113.46875 28.027344 113.085938 27.789062 113.273438 C 25.453125 115.074219 25.902344 117.742188 26.921875 120.164062 C 27.078125 120.539062 27.648438 120.300781 27.496094 119.925781 Z M 22.207031 116.339844 C 21.878906 117.847656 22.214844 119.253906 23.414062 120.269531 C 23.648438 120.472656 24.019531 120.097656 23.796875 119.875 C 22.808594 118.910156 22.476562 117.832031 22.773438 116.480469 C 22.847656 116.121094 22.289062 115.972656 22.207031 116.339844 Z M 19.578125 117.90625 C 19.625 117.90625 19.628906 117.847656 19.585938 117.832031 C 18.339844 117.363281 16.980469 116.929688 16.78125 115.394531 C 16.691406 114.695312 16.882812 113.96875 17.101562 113.304688 C 17.570312 111.867188 18.375 110.554688 19.078125 109.222656 C 19.207031 108.976562 18.792969 108.75 18.644531 108.992188 C 17.046875 111.652344 14.03125 117.632812 19.578125 117.90625 Z M 42.554688 109.386719 C 42.851562 109.320312 42.746094 108.839844 42.457031 108.863281 C 39.285156 109.148438 36.820312 112.316406 35.976562 115.195312 C 35.851562 115.613281 36.492188 115.867188 36.621094 115.441406 C 37.449219 112.683594 39.65625 110.039062 42.554688 109.386719 Z M 42.671875 112.257812 C 43.738281 111.351562 45.015625 110.808594 46.21875 110.121094 C 46.523438 109.941406 46.308594 109.433594 45.996094 109.609375 C 44.726562 110.3125 43.398438 110.902344 42.277344 111.839844 C 41.984375 112.078125 42.390625 112.496094 42.671875 112.257812 Z M 49.332031 115.933594 C 49.703125 115.304688 50.105469 114.699219 50.5625 114.125 C 50.964844 113.609375 51.605469 113.109375 51.808594 112.472656 C 51.867188 112.285156 51.667969 112.101562 51.488281 112.160156 C 50.832031 112.363281 50.347656 113.09375 49.933594 113.617188 C 49.480469 114.191406 49.070312 114.804688 48.695312 115.433594 C 48.425781 115.875 49.070312 116.382812 49.332031 115.933594 Z M 50.59375 119.214844 C 52.667969 117.824219 53.75 114.851562 54.09375 112.472656 C 54.160156 112.003906 53.457031 111.882812 53.367188 112.347656 C 52.898438 114.699219 52.0625 117.0625 50.269531 118.746094 C 50.046875 118.960938 50.316406 119.402344 50.59375 119.214844 Z M 14.03125 111.921875 C 14.441406 111.03125 14.601562 110.121094 14.742188 109.15625 C 14.757812 109.074219 14.71875 109.003906 14.667969 108.960938 C 14.71875 108.675781 14.777344 108.394531 14.824219 108.109375 C 14.890625 107.683594 14.234375 107.570312 14.167969 107.996094 C 13.957031 109.246094 13.675781 110.476562 13.421875 111.71875 C 13.339844 112.0625 13.875 112.265625 14.03125 111.921875 Z M 33.269531 96.621094 C 35.515625 94.59375 38.375 95.027344 40.84375 96.300781 C 41.195312 96.480469 41.546875 96 41.195312 95.777344 C 38.53125 94.027344 35.179688 93.953125 32.78125 96.179688 C 32.460938 96.472656 32.960938 96.90625 33.269531 96.621094 Z M 40.597656 91.964844 C 42.277344 92.390625 43.988281 92.734375 45.1875 94.085938 C 45.410156 94.339844 45.851562 93.953125 45.636719 93.691406 C 44.367188 92.195312 42.546875 91.828125 40.722656 91.382812 C 40.34375 91.285156 40.222656 91.867188 40.597656 91.964844 Z M 52.695312 98.707031 C 52.824219 99.066406 53.421875 98.929688 53.347656 98.550781 C 53.152344 97.488281 52.765625 96.507812 52.292969 95.542969 C 52.070312 95.089844 51.316406 95.351562 51.546875 95.8125 C 52.003906 96.738281 52.355469 97.71875 52.695312 98.707031 Z M 352.914062 249.851562 C 354.71875 248.492188 356.464844 247.066406 358.382812 245.863281 C 360.316406 244.652344 362.101562 243.171875 364.304688 242.476562 C 364.65625 242.363281 364.535156 241.832031 364.167969 241.914062 C 362.148438 242.347656 360.527344 243.722656 358.816406 244.824219 C 356.832031 246.09375 354.972656 247.46875 353.101562 248.890625 C 351.242188 250.292969 349.53125 251.910156 347.621094 253.222656 C 345.644531 254.59375 343.410156 255.554688 341.375 256.84375 C 341.007812 257.074219 341.390625 257.625 341.753906 257.394531 C 343.597656 256.222656 345.597656 255.316406 347.433594 254.144531 C 349.398438 252.894531 351.0625 251.25 352.914062 249.851562 Z M 368.8125 239.941406 C 368.371094 239.746094 368.089844 240.480469 368.542969 240.644531 C 370.320312 241.300781 370.691406 243.835938 370.761719 245.527344 C 370.835938 247.394531 370.4375 249.261719 369.769531 250.996094 C 368.335938 254.710938 365.640625 258.179688 362.152344 260.160156 C 358.453125 262.269531 354.792969 264.347656 351.203125 266.65625 C 349.375 267.828125 347.507812 268.964844 345.808594 270.316406 C 344.449219 271.394531 343.507812 272.800781 342.238281 273.964844 C 342.066406 274.128906 342.300781 274.398438 342.480469 274.25 C 343.515625 273.359375 344.277344 272.214844 345.300781 271.3125 C 346.226562 270.488281 347.285156 269.796875 348.308594 269.105469 C 350.433594 267.6875 352.601562 266.3125 354.765625 264.953125 C 358.550781 262.566406 363.027344 260.921875 366.164062 257.640625 C 368.8125 254.859375 370.769531 251.199219 371.246094 247.363281 C 371.535156 244.988281 371.378906 241.070312 368.8125 239.941406 Z M 368.8125 239.941406 " fill-opacity="1" fill-rule="nonzero"/></svg>