<svg xmlns="http://www.w3.org/2000/svg" xmlns:xlink="http://www.w3.org/1999/xlink" width="500" zoomAndPan="magnify" viewBox="0 0 375 374.999991" height="500" preserveAspectRatio="xMidYMid meet" version="1.0"><defs><clipPath id="56bc4e7f94"><path d="M 2 23 L 372 23 L 372 352.910156 L 2 352.910156 Z M 2 23 " clip-rule="nonzero"/></clipPath></defs><path fill="#968775" d="M 138.804688 126.558594 C 142.667969 123.804688 145.941406 120.3125 149.808594 117.558594 C 154.191406 114.363281 159.175781 111.535156 164.082031 109.15625 C 170.175781 106.183594 177.089844 104.992188 183.113281 102.316406 C 187.722656 100.234375 194.191406 98.152344 199.46875 98.820312 C 199.914062 100.53125 201.773438 101.199219 203.261719 101.945312 C 207.722656 104.324219 212.109375 106.703125 216.570312 109.007812 C 223.039062 112.28125 229.726562 115.550781 236.046875 119.121094 C 238.949219 120.757812 241.402344 121.203125 244.746094 121.351562 C 245.9375 121.425781 246.382812 120.683594 247.199219 121.796875 C 248.390625 123.359375 246.085938 126.335938 245.339844 127.523438 C 242.21875 133.027344 237.609375 137.191406 234.113281 142.171875 C 234.785156 141.578125 235.898438 140.910156 236.792969 140.761719 C 239.171875 140.390625 240.582031 142.695312 242.8125 143.957031 C 245.191406 145.371094 252.03125 148.792969 252.105469 152.136719 C 252.179688 156.226562 245.042969 156.375 242.515625 156.675781 C 238.277344 157.195312 234.488281 158.609375 230.25 158.832031 C 230.175781 161.0625 234.488281 165.96875 232.777344 168.347656 C 232.03125 169.316406 227.496094 168.273438 226.085938 168.421875 C 219.394531 168.871094 213.074219 171.769531 206.457031 173.035156 C 204.078125 173.480469 201.996094 173.40625 199.691406 172.4375 C 195.304688 170.652344 191.070312 168.347656 186.757812 166.339844 C 178.429688 162.398438 169.953125 158.757812 162.296875 153.625 C 158.652344 151.171875 155.160156 149.164062 152.035156 146.113281 C 150.253906 144.40625 148.171875 142.769531 146.535156 140.835938 C 144.972656 138.976562 144.378906 136.597656 142.742188 134.738281 C 141.703125 133.546875 140.960938 132.953125 140.289062 131.539062 C 139.992188 130.648438 140.664062 130.128906 138.804688 126.558594 Z M 138.804688 126.558594 " fill-opacity="1" fill-rule="nonzero"/><path fill="#f3af93" d="M 8.699219 144.703125 C 6.765625 143.289062 5.203125 142.097656 3.121094 140.910156 C 1.636719 140.015625 0.519531 139.050781 0.296875 137.265625 C 0 133.917969 1.859375 130.722656 5.351562 131.835938 C 6.691406 130.050781 13.234375 129.308594 13.828125 132.058594 C 16.058594 130.050781 16.503906 134.292969 17.25 135.554688 C 17.992188 136.894531 18.808594 137.488281 19.105469 138.976562 C 19.328125 140.164062 18.957031 141.429688 19.105469 142.621094 C 19.628906 146.039062 22.675781 149.460938 25.054688 151.914062 C 26.09375 153.03125 27.136719 154.144531 28.25 155.039062 C 28.921875 155.632812 31.152344 156.375 31.523438 157.269531 C 32.117188 158.757812 30.257812 160.765625 29.21875 161.804688 C 26.617188 164.554688 24.015625 166.710938 22.527344 170.355469 C 18.066406 170.726562 14.945312 157.417969 13.753906 154.292969 C 12.339844 150.578125 10.410156 146.5625 8.699219 144.703125 Z M 90.179688 112.132812 C 92.261719 110.347656 92.261719 107.371094 88.695312 106.183594 C 85.125 104.992188 82.152344 105.585938 80.960938 109.15625 C 76.5 107.371094 72.636719 107.96875 68.769531 109.15625 C 64.976562 110.347656 61.707031 119.269531 61.1875 123.730469 C 61.632812 128.863281 63.417969 133.621094 68.769531 135.332031 C 70.851562 136 72.5625 136.449219 74.792969 135.777344 C 77.542969 134.960938 79.699219 132.582031 82.078125 131.09375 C 85.71875 128.863281 89.363281 126.707031 92.335938 123.582031 C 94.269531 121.574219 97.394531 117.335938 98.210938 113.839844 Z M 90.179688 112.132812 " fill-opacity="1" fill-rule="nonzero"/><path fill="#991d13" d="M 179.246094 144.628906 C 177.089844 141.875 172.554688 141.949219 169.359375 141.726562 C 167.796875 138.902344 162.222656 137.042969 159.917969 136.449219 C 156.570312 135.554688 154.863281 134.140625 152.410156 131.6875 C 149.882812 129.160156 146.832031 127.523438 144.304688 125.070312 C 139.25 120.3125 136.351562 113.320312 131.21875 108.414062 C 127.875 105.214844 122.894531 101.421875 118.136719 101.570312 C 115.535156 101.648438 111.59375 101.796875 112.78125 101.347656 C 109.511719 100.160156 104.976562 103.652344 102.375 105.214844 C 99.101562 107.222656 96.722656 109.453125 93.972656 112.132812 C 88.992188 117.039062 84.828125 121.722656 80.664062 127.226562 C 76.574219 132.65625 70.851562 134.886719 65.722656 138.976562 C 62.671875 141.355469 61.1875 143.734375 60.144531 147.378906 C 59.03125 151.46875 59.402344 154.515625 63.121094 157.269531 C 59.550781 158.832031 56.058594 158.609375 52.265625 159.128906 C 48.101562 159.722656 42.898438 161.878906 38.734375 161.433594 C 35.761719 161.0625 34.792969 157.789062 32.191406 156.824219 C 29.589844 155.78125 26.839844 158.90625 24.683594 160.390625 C 19.554688 164.035156 19.703125 169.316406 22.824219 174.074219 C 23.863281 175.710938 25.574219 178.609375 27.65625 179.207031 C 29.292969 179.726562 31.375 178.90625 33.082031 178.90625 C 41.039062 178.832031 49.140625 178.90625 57.097656 179.355469 C 64.085938 179.726562 71.148438 179.503906 78.136719 179.875 C 80.738281 180.023438 82.96875 180.023438 85.496094 179.429688 C 85.496094 180.914062 86.09375 181.660156 87.058594 182.699219 C 90.105469 185.75 95.015625 188.277344 98.65625 190.433594 C 102.894531 192.960938 107.726562 191.550781 111.816406 194.152344 C 117.167969 197.5 120.367188 203.222656 125.792969 206.347656 C 131.441406 209.621094 138.65625 210.4375 145.046875 210.066406 C 145.421875 207.613281 143.933594 205.082031 143.414062 202.703125 C 142.371094 197.425781 142.296875 191.402344 143.339844 186.046875 C 145.273438 175.636719 149.433594 165.597656 156.273438 157.566406 C 157.835938 155.707031 159.398438 153.847656 161.03125 152.136719 C 162.148438 151.765625 163.1875 151.097656 164.304688 150.578125 C 164.527344 150.503906 164.75 150.351562 164.972656 150.277344 C 166.238281 149.832031 167.5 149.386719 168.765625 148.792969 C 169.210938 148.644531 169.65625 148.496094 170.101562 148.34375 C 171.886719 147.824219 173.671875 147.304688 175.53125 147.007812 C 176.421875 146.859375 177.390625 146.859375 178.207031 146.488281 C 178.875 146.1875 179.097656 145.816406 179.097656 145.445312 C 179.46875 145.296875 179.46875 144.925781 179.246094 144.628906 Z M 179.246094 144.628906 " fill-opacity="1" fill-rule="nonzero"/><path fill="#a6ac37" d="M 170.699219 131.6875 C 172.183594 129.753906 174.9375 128.9375 176.644531 127.003906 C 180.289062 122.988281 183.632812 118.972656 187.5 115.179688 C 189.359375 113.394531 190.25 112.949219 188.019531 111.015625 C 186.980469 110.050781 185.34375 109.082031 184.003906 108.5625 C 176.941406 105.660156 170.324219 109.15625 163.1875 108.859375 C 158.207031 108.636719 154.863281 107.222656 151.292969 103.804688 C 149.285156 101.945312 147.351562 98.894531 145.199219 97.40625 C 145.121094 100.753906 145.046875 104.324219 144.082031 107.519531 C 143.117188 110.792969 142.742188 113.617188 142.296875 116.890625 C 142.074219 118.675781 142.074219 121.203125 140.960938 122.691406 C 139.621094 122.023438 138.433594 120.535156 137.316406 119.566406 C 134.640625 117.113281 132.039062 114.808594 129.585938 112.058594 C 128.394531 110.792969 126.089844 109.453125 125.347656 107.894531 C 124.601562 106.257812 125.199219 103.503906 124.902344 101.722656 C 124.527344 99.117188 123.859375 96.8125 123.636719 94.210938 C 123.117188 88.78125 122.074219 84.691406 124.007812 79.414062 C 125.347656 75.769531 127.652344 72.792969 129.808594 69.597656 C 136.351562 59.855469 150.179688 53.3125 161.257812 50.707031 C 168.914062 48.925781 175.828125 48.328125 183.632812 48.699219 C 186.980469 48.851562 189.953125 48.476562 193.226562 49.519531 C 196.867188 50.632812 199.914062 53.609375 202.890625 55.988281 C 210.621094 62.160156 218.351562 68.109375 226.679688 73.539062 C 232.03125 77.03125 238.722656 81.347656 242.070312 86.847656 C 247.347656 95.472656 252.550781 105.4375 251.289062 115.925781 C 250.992188 118.378906 250.621094 124.03125 248.316406 125.738281 C 246.828125 126.855469 243.78125 126.261719 242.070312 125.886719 C 238.949219 125.292969 235.601562 124.847656 232.480469 123.953125 C 228.242188 122.765625 224.671875 120.609375 220.808594 118.675781 C 219.097656 117.855469 217.757812 116.816406 216.496094 117.855469 C 215.75 118.453125 215.304688 120.3125 214.414062 121.128906 C 210.84375 124.625 205.863281 127.894531 201.550781 130.351562 C 197.910156 132.433594 194.710938 135.035156 191.441406 137.636719 C 189.65625 139.050781 186.980469 142.546875 184.824219 143.214844 C 183.632812 143.585938 178.652344 141.429688 179.097656 140.761719 C 174.710938 140.613281 172.929688 135.257812 170.699219 131.6875 Z M 170.699219 131.6875 " fill-opacity="1" fill-rule="nonzero"/><path fill="#f3af93" d="M 178.578125 140.835938 C 178.578125 146.261719 164.898438 143.4375 162.074219 144.105469 C 158.207031 145 155.902344 147.898438 153.226562 150.503906 C 150.699219 152.882812 149.210938 152.808594 146.089844 151.691406 C 146.460938 150.351562 147.726562 148.867188 148.617188 147.824219 C 146.164062 148.867188 144.082031 151.988281 141.40625 152.734375 C 137.6875 153.773438 139.324219 151.023438 140.664062 149.460938 C 137.984375 149.683594 136.351562 152.136719 133.898438 149.164062 C 136.050781 146.636719 138.953125 144.554688 141.40625 142.246094 C 139.917969 143.214844 137.835938 145.519531 135.976562 144.105469 C 134.195312 142.769531 136.945312 140.984375 138.132812 139.644531 C 140.066406 137.414062 141.035156 136 143.710938 135.257812 C 146.164062 134.589844 148.320312 134.441406 150.847656 134.292969 C 149.285156 133.101562 147.949219 132.132812 148.394531 129.902344 C 151.144531 130.425781 153.671875 131.761719 156.347656 132.433594 C 161.03125 133.621094 165.941406 132.058594 170.625 132.433594 C 172.628906 135.703125 174.859375 139.867188 178.578125 140.835938 Z M 102.078125 51.15625 C 102.078125 53.757812 101.628906 57.179688 102.523438 59.558594 C 103.339844 61.9375 105.347656 61.9375 105.570312 64.761719 C 105.792969 67.066406 105.199219 69.523438 105.570312 71.828125 C 106.164062 75.546875 107.875 72.71875 110.328125 73.613281 C 110.699219 73.761719 110.847656 74.652344 111.222656 74.875 C 111.519531 75.023438 112.558594 75.472656 112.78125 75.621094 C 113.527344 76.289062 113.824219 76.808594 114.714844 77.40625 C 115.609375 78 116.574219 77.703125 117.613281 78.519531 C 118.507812 79.261719 118.65625 80.15625 119.695312 80.75 C 122.375 82.386719 124.007812 80.75 126.386719 79.5625 C 128.691406 78.445312 132.410156 77.703125 135.011719 78.371094 C 138.730469 79.414062 140.511719 84.617188 142.667969 87.367188 C 144.675781 90.046875 147.351562 91.757812 150.03125 93.765625 C 151.8125 95.101562 154.265625 97.332031 156.648438 97.183594 C 158.800781 92.648438 155.605469 88.484375 153.96875 84.246094 C 152.261719 79.859375 150.699219 76.214844 149.957031 71.457031 C 149.359375 67.738281 149.957031 63.128906 148.691406 59.632812 C 147.578125 56.582031 145.347656 54.277344 142.890625 52.195312 C 140.214844 49.890625 137.910156 47.214844 135.160156 45.058594 C 130.105469 41.117188 127.058594 39.183594 120.664062 39.480469 C 116.5 39.703125 112.929688 39.554688 109.066406 41.5625 C 105.570312 43.347656 99.996094 48.105469 102.078125 51.15625 Z M 102.078125 51.15625 " fill-opacity="1" fill-rule="nonzero"/><g clip-path="url(#56bc4e7f94)"><path fill="#39332c" d="M 99.25 53.683594 C 98.953125 57.03125 101.40625 59.261719 101.554688 62.382812 C 101.628906 64.835938 100.21875 67.441406 98.65625 69.300781 C 100.738281 66.992188 98.730469 63.871094 97.246094 61.863281 C 94.863281 58.664062 92.710938 56.433594 93.601562 52.269531 C 94.269531 49 97.019531 46.84375 98.804688 44.164062 C 100.367188 41.785156 101.332031 39.035156 102.820312 36.582031 C 110.773438 23.789062 127.207031 22.300781 138.65625 31.078125 C 138.878906 29.292969 140.511719 27.878906 141.703125 26.617188 C 145.273438 22.675781 148.394531 23.121094 153.226562 24.832031 C 157.464844 26.316406 162.296875 31.300781 164.378906 35.242188 C 165.640625 37.695312 168.097656 43.792969 171.8125 40.519531 C 168.171875 46.171875 158.132812 54.277344 151.738281 47.660156 C 149.808594 45.652344 148.46875 36.207031 144.15625 39.257812 C 145.644531 42.082031 147.277344 46.320312 147.800781 49.519531 C 148.320312 53.089844 147.277344 56.957031 146.386719 60.375 C 145.570312 63.796875 145.421875 66.992188 145.199219 70.414062 C 143.5625 69.152344 143.933594 67.066406 143.785156 65.136719 C 142.742188 66.101562 142.074219 67.8125 141.703125 69.226562 C 139.917969 67.664062 138.433594 65.804688 136.871094 64.019531 C 138.878906 64.316406 138.433594 60.300781 137.910156 59.113281 C 136.945312 56.957031 134.195312 54.648438 131.667969 55.023438 C 128.765625 55.46875 127.652344 58.8125 128.765625 61.34375 C 129.511719 63.054688 130.921875 63.796875 132.410156 64.835938 C 129.585938 64.761719 127.355469 64.539062 125.125 62.605469 C 127.726562 65.433594 130.253906 67.367188 134.046875 68.332031 C 130.253906 68.703125 124.828125 69.449219 122.296875 65.582031 C 122.820312 66.398438 123.5625 67.144531 124.453125 67.589844 C 118.953125 66.84375 113.304688 61.566406 111.445312 56.285156 C 110.105469 52.566406 109.660156 42.976562 103.859375 48.328125 C 103.042969 48.777344 99.550781 50.335938 99.25 53.683594 Z M 65.425781 133.621094 C 63.9375 131.242188 60.890625 128.042969 61.113281 123.953125 C 61.113281 123.878906 61.113281 123.804688 61.113281 123.730469 C 61.707031 119.269531 64.902344 110.273438 68.695312 109.15625 C 72.5625 107.96875 76.425781 107.371094 80.960938 109.15625 C 82.152344 105.585938 85.125 104.992188 88.695312 106.183594 C 91.890625 107.222656 92.261719 109.75 90.777344 111.535156 C 90.703125 111.535156 90.628906 111.535156 90.554688 111.609375 C 88.917969 112.578125 88.023438 114.363281 89.066406 116.148438 C 89.289062 116.59375 90.03125 116.222656 89.734375 115.773438 C 88.992188 114.363281 89.585938 113.097656 90.851562 112.28125 L 93.304688 112.800781 C 93.378906 112.652344 93.453125 112.578125 93.601562 112.503906 C 94.789062 111.460938 95.90625 110.347656 97.09375 109.230469 C 96.722656 108.859375 96.277344 108.488281 95.832031 108.191406 C 96.945312 107.59375 97.839844 106.554688 98.0625 105.4375 C 96.722656 104.84375 95.3125 105.363281 94.046875 104.917969 C 92.484375 104.398438 91.964844 102.910156 90.851562 101.945312 C 88.621094 99.863281 86.539062 99.789062 83.714844 100.085938 C 81.632812 100.234375 80.886719 99.789062 78.878906 99.191406 C 76.652344 98.523438 73.15625 99.191406 71.519531 100.976562 C 70.480469 102.167969 71.148438 102.835938 69.4375 103.578125 C 65.5 105.363281 59.253906 102.242188 57.914062 107.96875 C 57.542969 109.601562 58.136719 111.535156 57.617188 113.097656 C 56.949219 115.253906 54.421875 116.519531 53.378906 118.527344 C 51.445312 122.171875 54.347656 121.5 54.941406 124.476562 C 55.3125 126.410156 52.785156 127.671875 52.710938 129.605469 C 52.5625 132.582031 55.535156 133.175781 57.839844 133.695312 C 59.402344 134.066406 59.847656 134.886719 61.1875 135.332031 C 63.046875 136.074219 65.351562 134.738281 65.425781 133.621094 Z M 64.457031 125.8125 C 64.160156 125.738281 64.160156 125.292969 64.53125 125.292969 C 65.050781 125.292969 65.425781 125.367188 65.722656 125.589844 C 65.796875 125.515625 65.796875 125.441406 65.871094 125.367188 C 65.945312 125.21875 66.242188 125.21875 66.316406 125.367188 C 66.464844 125.738281 66.390625 126.261719 66.316406 126.78125 C 66.316406 126.929688 66.390625 127.078125 66.390625 127.226562 C 66.539062 128.34375 66.984375 129.011719 68.101562 129.382812 C 69.066406 129.679688 69.8125 129.382812 70.777344 129.308594 C 71.074219 129.308594 71.222656 129.605469 71 129.828125 C 70.332031 130.351562 69.214844 130.425781 68.25 130.203125 C 68.25 130.722656 68.25 131.242188 68.25 131.835938 C 68.25 132.285156 67.582031 132.285156 67.582031 131.835938 C 67.582031 131.6875 67.582031 131.464844 67.582031 131.242188 C 67.429688 131.167969 67.355469 131.09375 67.355469 130.945312 C 67.355469 130.648438 67.429688 130.5 67.582031 130.277344 C 67.582031 130.203125 67.582031 130.125 67.582031 130.050781 C 67.207031 129.902344 66.910156 129.753906 66.6875 129.605469 C 66.464844 129.457031 66.316406 129.234375 66.242188 129.085938 C 66.316406 130.351562 66.613281 131.539062 66.910156 132.804688 C 66.984375 133.25 66.390625 133.398438 66.242188 133.027344 C 66.019531 131.984375 65.722656 130.945312 65.648438 129.902344 C 65.574219 129.234375 65.574219 128.566406 65.574219 127.894531 C 65.574219 127.746094 65.648438 127.523438 65.722656 127.226562 C 65.574219 126.484375 65.425781 126.113281 64.457031 125.8125 Z M 71.59375 124.921875 C 71 125.21875 70.480469 125.589844 70.035156 125.960938 C 69.8125 126.035156 69.585938 126.113281 69.4375 126.113281 C 69.066406 126.261719 69.140625 126.78125 69.4375 126.78125 C 69.511719 126.929688 69.734375 127.003906 69.886719 126.855469 C 69.960938 126.78125 69.960938 126.78125 70.035156 126.707031 C 70.183594 126.707031 70.332031 126.632812 70.480469 126.632812 C 71.371094 126.484375 72.339844 126.1875 72.042969 125.144531 C 71.964844 124.921875 71.816406 124.773438 71.59375 124.921875 Z M 83.9375 110.496094 C 84.53125 109.304688 85.871094 108.414062 87.132812 109.230469 C 88.25 109.902344 87.949219 111.015625 87.132812 111.835938 C 86.835938 112.132812 87.207031 112.578125 87.578125 112.355469 C 88.917969 111.386719 88.992188 109.601562 87.578125 108.636719 C 86.835938 108.117188 86.019531 108.117188 85.347656 108.339844 C 85.871094 107.820312 86.464844 107.445312 87.28125 107.074219 C 87.726562 106.925781 87.503906 106.183594 87.058594 106.40625 C 85.199219 107.148438 84.011719 108.265625 83.265625 110.125 C 83.117188 110.570312 83.714844 110.941406 83.9375 110.496094 Z M 83.414062 169.6875 C 83.414062 169.316406 82.894531 169.316406 82.894531 169.6875 C 82.746094 173.035156 83.117188 177.941406 85.644531 180.394531 C 85.871094 180.617188 86.242188 180.320312 86.09375 180.023438 C 83.9375 177.125 83.339844 173.183594 83.414062 169.6875 Z M 120.441406 124.179688 C 121.332031 121.648438 121.628906 118.898438 121.628906 116.222656 C 121.628906 113.320312 121.332031 110.421875 119.84375 107.820312 C 118.210938 104.917969 115.609375 102.6875 112.855469 100.902344 C 112.410156 100.605469 112.039062 101.347656 112.484375 101.570312 C 114.9375 103.207031 117.242188 105.140625 118.878906 107.742188 C 120.441406 110.273438 120.8125 113.097656 120.8125 116 C 120.8125 118.601562 120.589844 121.277344 119.769531 123.804688 C 118.804688 126.558594 116.796875 128.714844 114.640625 130.648438 C 110.402344 134.515625 105.347656 137.5625 100.515625 140.6875 C 95.164062 144.179688 89.660156 147.527344 84.53125 151.46875 C 81.78125 153.625 78.882812 154.964844 75.757812 156.375 C 74.121094 157.121094 72.5625 158.085938 70.777344 158.457031 C 68.84375 158.90625 66.761719 158.308594 64.828125 158.011719 C 64.308594 157.9375 64.160156 158.683594 64.605469 158.832031 C 67.65625 159.277344 70.109375 159.796875 73.007812 158.53125 C 75.386719 157.492188 77.914062 156.449219 80.21875 155.261719 C 80.515625 160.09375 80.367188 165.523438 81.929688 170.132812 C 82.003906 170.355469 82.375 170.28125 82.375 170.058594 C 82.226562 167.605469 81.78125 165.226562 81.558594 162.847656 C 81.335938 160.167969 81.1875 157.566406 80.960938 154.890625 C 81.335938 154.667969 81.707031 154.515625 82.078125 154.292969 C 85.125 152.433594 87.875 149.980469 90.851562 147.972656 C 93.972656 145.890625 97.171875 143.882812 100.292969 141.800781 C 105.644531 138.382812 111.296875 135.035156 115.832031 130.648438 C 117.765625 128.640625 119.546875 126.632812 120.441406 124.179688 Z M 66.613281 121.796875 C 66.613281 121.871094 66.539062 121.945312 66.539062 122.023438 C 66.390625 122.394531 66.910156 122.765625 67.058594 122.394531 C 67.65625 121.128906 68.027344 119.863281 68.621094 118.601562 C 69.511719 117.410156 70.703125 116.445312 72.414062 116.074219 C 72.5625 116 72.636719 115.925781 72.710938 115.847656 C 73.007812 115.847656 73.378906 115.847656 73.675781 115.847656 C 74.121094 115.847656 74.195312 115.179688 73.75 115.179688 C 71.964844 115.03125 70.109375 115.253906 68.917969 116.816406 C 68.546875 117.261719 68.324219 117.707031 68.027344 118.230469 C 67.355469 119.121094 66.835938 120.238281 66.464844 121.425781 C 66.390625 121.574219 66.464844 121.722656 66.613281 121.796875 Z M 77.394531 124.550781 C 77.617188 124.476562 77.988281 124.625 77.914062 124.921875 C 77.46875 127.375 75.757812 129.308594 75.164062 131.6875 C 75.015625 132.132812 74.496094 131.984375 74.421875 131.613281 C 74.269531 131.761719 73.824219 131.761719 73.75 131.390625 C 73.230469 128.492188 74.347656 125.515625 77.394531 124.550781 Z M 74.570312 131.316406 C 75.164062 129.308594 76.5 127.597656 77.023438 125.589844 C 74.867188 126.632812 74.121094 128.9375 74.570312 131.316406 Z M 73.230469 118.230469 C 73.527344 118.007812 73.15625 117.410156 72.859375 117.632812 C 72.488281 117.855469 72.117188 118.15625 71.816406 118.453125 C 70.777344 119.34375 69.886719 120.460938 69.8125 121.871094 C 69.8125 122.023438 69.886719 122.171875 70.035156 122.246094 C 70.109375 122.617188 70.628906 122.617188 70.703125 122.246094 C 70.925781 121.5 71.148438 120.757812 71.519531 120.089844 C 71.890625 119.640625 72.339844 119.121094 72.710938 118.675781 C 72.933594 118.527344 73.082031 118.378906 73.230469 118.230469 Z M 131.144531 155.039062 C 126.238281 156.449219 122.820312 162.027344 120.367188 166.117188 C 118.730469 168.796875 117.316406 171.621094 116.054688 174.445312 C 115.234375 176.304688 114.566406 178.238281 113.898438 180.171875 C 113.378906 181.660156 112.78125 183.074219 113.003906 184.707031 C 113.078125 185.082031 113.675781 185.003906 113.601562 184.632812 C 113.304688 182.773438 114.34375 180.765625 114.9375 179.058594 C 115.609375 177.273438 116.277344 175.488281 117.09375 173.703125 C 118.136719 171.398438 119.324219 169.167969 120.589844 167.085938 C 123.191406 162.699219 126.460938 157.640625 131.292969 155.632812 C 131.667969 155.484375 131.519531 154.964844 131.144531 155.039062 Z M 144.675781 98.449219 C 141.40625 98.671875 138.28125 99.714844 134.9375 99.9375 C 134.492188 99.9375 134.566406 100.753906 135.011719 100.679688 C 138.28125 100.605469 141.40625 99.339844 144.675781 99.042969 C 145.046875 98.96875 145.046875 98.375 144.675781 98.449219 Z M 145.195312 97.78125 C 142.742188 97.554688 140.8125 95.324219 139.175781 93.691406 C 137.761719 92.277344 136.203125 91.011719 134.9375 89.527344 C 132.558594 86.625 130.550781 82.460938 126.609375 81.496094 C 126.3125 81.421875 126.089844 81.867188 126.460938 81.941406 C 130.921875 83.128906 132.78125 88.335938 135.828125 91.382812 C 137.167969 92.722656 138.65625 93.988281 139.992188 95.324219 C 141.40625 96.664062 143.042969 98.226562 145.121094 98.375 C 145.421875 98.375 145.496094 97.78125 145.195312 97.78125 Z M 136.351562 142.097656 C 135.976562 141.800781 135.605469 142.398438 135.902344 142.621094 C 136.722656 143.289062 137.835938 143.289062 138.507812 142.398438 C 139.175781 141.429688 138.804688 140.238281 137.835938 139.570312 C 137.539062 139.347656 137.167969 139.867188 137.464844 140.089844 C 137.984375 140.539062 138.433594 141.207031 137.984375 141.875 C 137.613281 142.546875 136.871094 142.546875 136.351562 142.097656 Z M 132.484375 61.046875 C 133.078125 59.929688 134.046875 59.113281 135.011719 60.300781 C 135.679688 61.121094 135.828125 62.308594 135.679688 63.277344 C 135.679688 63.574219 136.128906 63.722656 136.203125 63.425781 C 136.574219 62.085938 136.203125 60.300781 135.011719 59.335938 C 134.046875 58.515625 133.152344 58.886719 132.484375 59.632812 C 132.484375 59.039062 132.484375 58.515625 132.632812 57.996094 C 132.707031 57.996094 132.78125 57.921875 132.855469 57.847656 C 133.078125 57.402344 133.003906 57.253906 132.558594 56.957031 C 132.410156 56.878906 132.1875 56.957031 132.113281 57.105469 C 131.667969 58.292969 131.742188 59.484375 131.816406 60.746094 C 131.816406 61.121094 132.335938 61.34375 132.484375 61.046875 Z M 118.136719 78.667969 C 117.242188 77.925781 116.203125 76.957031 115.085938 76.585938 C 115.011719 76.585938 115.011719 76.585938 114.9375 76.511719 C 115.085938 76.4375 115.234375 76.4375 115.308594 76.363281 C 115.832031 76.214844 116.5 76.214844 116.871094 75.84375 C 116.945312 75.695312 116.945312 75.472656 116.796875 75.398438 C 116.203125 75.023438 114.9375 75.546875 114.269531 75.84375 C 114.121094 75.917969 113.898438 75.992188 113.675781 76.140625 C 113.378906 75.917969 113.003906 75.25 112.855469 75.097656 C 112.410156 74.652344 111.816406 74.207031 111.371094 73.761719 C 111.296875 73.6875 111.222656 73.6875 111.074219 73.6875 C 111.742188 73.539062 112.484375 73.390625 113.003906 72.941406 C 113.230469 72.792969 113.003906 72.496094 112.78125 72.570312 C 111.742188 72.867188 110.699219 73.242188 109.660156 73.316406 C 108.769531 73.390625 107.726562 73.242188 106.835938 73.6875 C 106.539062 73.835938 106.6875 74.355469 106.984375 74.207031 C 108.023438 73.761719 109.363281 73.984375 110.476562 73.761719 C 110.625 73.761719 110.773438 73.6875 110.847656 73.6875 C 110.625 73.761719 110.476562 74.058594 110.699219 74.28125 C 111.667969 75.171875 112.707031 75.917969 113.304688 77.105469 C 113.378906 77.257812 113.601562 77.332031 113.75 77.332031 C 115.234375 76.734375 117.539062 79.339844 118.433594 80.007812 C 119.621094 80.898438 121.109375 81.792969 122.671875 81.496094 C 124.679688 81.121094 126.683594 79.414062 128.394531 78.296875 C 130.847656 76.734375 133.375 75.171875 135.753906 73.539062 C 136.050781 73.390625 135.753906 72.941406 135.457031 73.015625 C 132.632812 74.28125 130.179688 76.140625 127.578125 77.777344 C 126.3125 78.59375 125.050781 79.414062 123.785156 80.15625 C 121.703125 81.496094 119.84375 80.082031 118.136719 78.667969 Z M 37.617188 161.804688 C 37.320312 161.582031 37.023438 162.027344 37.320312 162.25 C 38.734375 163.441406 37.320312 167.605469 36.578125 168.796875 C 35.3125 171.027344 35.761719 167.382812 35.910156 166.488281 C 36.058594 165.300781 36.355469 164.109375 36.429688 162.921875 C 36.429688 162.699219 36.132812 162.546875 35.984375 162.699219 C 32.5625 164.855469 30.851562 168.796875 29.441406 172.4375 C 29.367188 172.734375 29.738281 172.886719 29.886719 172.585938 C 31.152344 169.242188 32.785156 165.671875 35.835938 163.589844 C 35.6875 165.820312 34.792969 167.976562 35.761719 170.207031 C 35.835938 170.355469 36.058594 170.429688 36.207031 170.28125 C 37.691406 169.09375 39.699219 163.292969 37.617188 161.804688 Z M 113.152344 65.582031 C 113.378906 65.582031 113.601562 65.582031 113.824219 65.65625 C 114.34375 65.730469 114.417969 64.835938 113.898438 64.835938 C 113.003906 64.761719 112.113281 64.835938 111.148438 64.761719 C 110.402344 64.613281 109.660156 64.539062 108.84375 64.539062 C 108.84375 64.539062 108.769531 64.539062 108.769531 64.539062 C 108.097656 64.09375 107.28125 63.796875 106.539062 63.5 C 106.089844 63.351562 105.792969 64.09375 106.238281 64.242188 C 106.910156 64.464844 107.578125 64.613281 108.246094 64.835938 C 108.171875 64.984375 108.097656 65.136719 108.023438 65.210938 C 107.949219 65.433594 107.875 65.582031 107.875 65.804688 C 107.875 66.027344 108.097656 66.175781 108.320312 66.101562 C 108.394531 66.101562 108.46875 66.027344 108.542969 65.953125 C 108.695312 65.804688 108.695312 65.359375 108.769531 65.136719 C 108.992188 65.210938 109.214844 65.285156 109.4375 65.359375 C 109.363281 66.027344 109.957031 66.695312 110.476562 66.992188 C 110.773438 67.144531 111.074219 67.292969 111.371094 67.292969 C 111.59375 67.367188 111.816406 67.292969 112.039062 67.21875 C 112.632812 66.917969 112.484375 66.175781 112.113281 65.65625 C 112.410156 65.65625 112.707031 65.65625 112.929688 65.65625 C 113.003906 65.730469 113.078125 65.65625 113.152344 65.582031 Z M 18.808594 140.984375 C 16.132812 141.058594 13.753906 142.171875 11.671875 143.734375 C 11.523438 143.882812 11.671875 144.179688 11.894531 144.03125 C 13.976562 142.621094 16.28125 141.726562 18.882812 141.578125 C 19.179688 141.578125 19.179688 140.984375 18.808594 140.984375 Z M 13.308594 139.792969 C 13.457031 140.089844 13.902344 139.867188 13.753906 139.570312 C 13.605469 139.273438 13.457031 138.976562 13.382812 138.679688 C 13.308594 138.007812 13.160156 137.339844 13.308594 136.671875 C 13.457031 135.851562 13.902344 135.40625 14.421875 134.886719 C 14.945312 134.886719 15.464844 134.589844 15.242188 133.84375 C 15.09375 133.101562 14.421875 132.433594 14.125 131.6875 C 13.976562 131.316406 13.828125 130.796875 13.457031 130.648438 C 13.234375 130.574219 13.011719 130.796875 13.085938 131.019531 C 13.308594 131.464844 13.53125 131.910156 13.753906 132.359375 C 13.976562 132.730469 14.199219 133.101562 14.421875 133.472656 C 14.496094 133.621094 14.792969 134.066406 14.570312 134.21875 C 14.496094 134.21875 14.496094 134.21875 14.421875 134.21875 C 14.421875 134.21875 14.347656 134.21875 14.347656 134.21875 C 14.199219 134.140625 13.976562 134.066406 13.902344 134.066406 C 13.902344 134.066406 13.902344 134.066406 13.828125 134.066406 C 13.828125 133.546875 13.457031 133.027344 13.234375 132.65625 C 12.863281 131.910156 12.488281 131.09375 11.96875 130.351562 C 11.746094 130.050781 11.375 130.5 11.597656 130.722656 C 12.191406 131.539062 12.640625 132.507812 13.085938 133.398438 C 13.160156 133.621094 13.382812 133.84375 13.085938 134.066406 C 12.9375 134.140625 12.488281 134.066406 12.339844 133.992188 C 12.042969 133.917969 11.746094 133.84375 11.523438 133.769531 C 11.523438 133.695312 11.597656 133.621094 11.597656 133.472656 C 11.597656 132.878906 11.152344 132.433594 10.78125 132.058594 C 10.484375 131.761719 10.257812 131.464844 9.960938 131.167969 C 9.8125 131.019531 9.589844 130.796875 9.441406 130.648438 C 9.292969 130.574219 9.144531 130.5 8.996094 130.351562 C 8.921875 130.203125 8.625 130.203125 8.550781 130.425781 C 8.253906 131.019531 8.847656 131.09375 9.21875 131.316406 C 9.664062 131.6875 10.109375 132.210938 10.484375 132.582031 C 10.78125 132.878906 11.152344 133.175781 11.003906 133.621094 C 10.855469 134.066406 10.335938 134.140625 9.960938 134.066406 C 9.664062 133.992188 9.441406 133.917969 9.144531 133.84375 C 9.21875 133.695312 9.292969 133.546875 9.292969 133.324219 C 9.21875 131.835938 6.691406 132.359375 5.949219 131.613281 C 5.875 131.539062 5.648438 131.539062 5.574219 131.6875 C 5.203125 132.507812 7.359375 132.65625 7.730469 132.730469 C 7.953125 132.804688 8.402344 132.878906 8.550781 133.027344 C 8.996094 133.621094 8.03125 134.21875 7.433594 134.367188 C 6.023438 134.664062 4.535156 133.84375 3.121094 133.917969 C 2.824219 133.917969 2.898438 134.441406 3.195312 134.441406 C 3.71875 134.441406 4.238281 134.589844 4.832031 134.664062 C 4.535156 134.738281 4.238281 134.960938 4.015625 135.109375 C 3.570312 135.40625 3.195312 135.925781 2.972656 136.449219 C 2.824219 136.746094 3.269531 136.894531 3.417969 136.671875 C 3.644531 136.226562 4.015625 135.851562 4.460938 135.628906 C 4.757812 135.480469 5.203125 135.332031 5.425781 135.109375 C 5.5 135.035156 5.5 135.035156 5.5 134.960938 C 6.171875 135.109375 6.914062 135.257812 7.582031 135.109375 C 7.953125 135.035156 8.402344 134.8125 8.773438 134.515625 C 8.847656 134.515625 8.847656 134.515625 8.921875 134.515625 C 9.589844 134.515625 10.183594 135.035156 10.855469 134.738281 C 11.078125 134.664062 11.300781 134.515625 11.449219 134.292969 C 12.042969 134.515625 13.160156 134.886719 13.753906 134.515625 C 13.753906 134.515625 13.828125 134.589844 13.828125 134.589844 C 13.085938 135.183594 12.714844 136.226562 12.714844 137.191406 C 11.96875 136.074219 10.929688 135.257812 9.589844 135.257812 C 9.367188 135.257812 9.292969 135.628906 9.515625 135.703125 C 9.886719 135.851562 10.257812 135.925781 10.632812 136.074219 C 11.152344 136.300781 11.523438 136.746094 11.894531 137.117188 C 12.414062 138.007812 12.9375 138.902344 13.308594 139.792969 Z M 105.570312 61.195312 C 105.867188 61.34375 106.089844 61.121094 106.089844 60.894531 C 107.132812 60.671875 108.023438 60.894531 108.84375 61.195312 C 109.660156 61.640625 110.402344 62.085938 110.925781 62.382812 C 111.074219 62.457031 111.148438 62.382812 111.222656 62.382812 C 111.59375 62.53125 111.890625 62.753906 112.261719 62.828125 C 112.632812 62.976562 112.929688 62.308594 112.558594 62.160156 C 111.296875 61.566406 110.105469 60.894531 108.917969 60.449219 C 107.503906 59.707031 105.941406 59.1875 104.828125 60.226562 C 104.679688 60.375 104.679688 60.597656 104.828125 60.746094 C 105.125 60.894531 105.273438 61.046875 105.570312 61.195312 Z M 211.363281 147.15625 C 207.722656 149.3125 203.929688 151.171875 200.808594 153.996094 C 200.585938 154.21875 200.289062 153.847656 200.511719 153.625 C 203.261719 151.097656 206.53125 149.3125 209.730469 147.527344 C 211.511719 146.488281 213.222656 145.371094 214.859375 144.253906 C 213.820312 143.140625 212.851562 141.949219 211.738281 141.132812 C 211.4375 140.910156 211.738281 140.464844 212.035156 140.6875 C 212.480469 140.984375 213.894531 142.472656 215.378906 143.882812 C 216.199219 143.289062 216.941406 142.695312 217.757812 142.023438 C 217.460938 141.503906 217.164062 141.058594 216.867188 140.539062 C 215.972656 139.050781 215.230469 137.5625 214.859375 135.851562 C 214.859375 135.703125 214.859375 135.554688 215.082031 135.480469 C 216.71875 134.960938 218.429688 136.671875 219.542969 137.636719 C 220.0625 138.082031 220.65625 138.605469 221.253906 139.050781 C 223.632812 136.894531 226.085938 134.664062 228.539062 132.582031 C 231.140625 130.425781 234.039062 128.121094 235.378906 124.921875 C 235.527344 124.550781 236.121094 124.773438 235.972656 125.144531 C 234.710938 128.195312 232.03125 130.425781 229.578125 132.507812 C 226.902344 134.738281 224.375 137.117188 221.773438 139.421875 C 223.410156 140.6875 225.117188 141.800781 226.679688 143.140625 C 226.976562 143.363281 226.605469 143.808594 226.308594 143.585938 C 224.671875 142.320312 222.8125 141.207031 221.179688 139.941406 C 221.03125 140.089844 220.808594 140.238281 220.65625 140.464844 C 219.988281 141.058594 219.320312 141.652344 218.578125 142.246094 C 218.578125 142.246094 218.578125 142.320312 218.578125 142.320312 C 219.542969 143.882812 220.359375 145.519531 220.507812 147.378906 C 220.507812 147.601562 220.359375 147.75 220.136719 147.675781 C 218.203125 147.601562 216.644531 146.261719 215.230469 144.777344 C 213.96875 145.519531 212.703125 146.414062 211.363281 147.15625 Z M 218.128906 141.503906 C 218.800781 140.984375 219.394531 140.464844 220.0625 139.867188 C 220.210938 139.71875 220.433594 139.570312 220.582031 139.421875 C 220.582031 139.421875 220.507812 139.347656 220.507812 139.347656 C 219.691406 138.679688 217.015625 135.554688 215.898438 135.925781 C 214.785156 136.222656 217.089844 139.941406 218.128906 141.503906 Z M 215.75 144.179688 C 217.535156 145.816406 219.320312 147.304688 219.765625 146.710938 C 220.136719 146.113281 218.652344 143.585938 218.429688 143.140625 C 218.277344 142.917969 218.128906 142.621094 217.980469 142.398438 C 217.238281 143.066406 216.496094 143.660156 215.75 144.179688 Z M 185.121094 140.6875 C 184.972656 140.464844 184.601562 140.613281 184.675781 140.910156 C 184.898438 141.578125 184.527344 140.984375 184.15625 140.761719 C 183.632812 140.539062 183.039062 140.390625 182.519531 140.164062 C 181.179688 139.570312 179.992188 138.828125 178.875 137.859375 C 176.421875 135.777344 174.785156 132.953125 172.628906 130.574219 C 172.332031 130.277344 171.886719 130.648438 172.109375 130.945312 C 174.414062 133.621094 176.273438 136.746094 179.171875 138.976562 C 180.289062 139.792969 181.476562 140.539062 182.816406 140.984375 C 183.484375 141.28125 184.601562 141.875 185.34375 141.429688 C 185.492188 141.355469 185.492188 141.058594 185.34375 140.910156 C 185.269531 140.835938 185.195312 140.761719 185.121094 140.6875 Z M 211.289062 105.8125 C 211.664062 105.960938 211.960938 105.289062 211.589844 105.140625 C 208.910156 103.953125 206.011719 104.25 203.1875 103.953125 C 202.667969 103.878906 202.59375 104.695312 203.113281 104.695312 C 205.789062 104.992188 208.613281 104.769531 211.289062 105.8125 Z M 193.820312 105.363281 C 194.042969 105.214844 193.820312 104.917969 193.597656 104.992188 C 192.183594 105.738281 190.695312 106.332031 189.507812 107.445312 C 189.285156 107.667969 189.582031 108.042969 189.804688 107.820312 C 190.996094 106.777344 192.480469 106.183594 193.820312 105.363281 Z M 184.453125 107.894531 C 187.425781 105.214844 191.21875 104.25 194.636719 102.242188 C 194.859375 102.09375 194.710938 101.796875 194.488281 101.871094 C 190.84375 103.28125 187.054688 104.695312 184.078125 107.371094 C 183.855469 107.667969 184.15625 108.117188 184.453125 107.894531 Z M 224.96875 122.320312 C 224.226562 125.070312 224.671875 127.96875 225.117188 130.722656 C 225.191406 131.09375 225.789062 131.09375 225.714844 130.722656 C 225.269531 128.042969 224.746094 125.21875 225.417969 122.542969 C 225.566406 122.171875 225.042969 122.023438 224.96875 122.320312 Z M 250.246094 123.582031 C 244.820312 122.914062 239.097656 123.0625 233.964844 121.054688 C 229.207031 119.269531 224.152344 118.082031 219.765625 115.550781 C 218.203125 117.1875 216.570312 118.824219 215.007812 120.460938 C 214.710938 120.757812 214.265625 120.3125 214.5625 120.015625 C 216.125 118.453125 217.609375 116.890625 219.171875 115.253906 C 218.949219 115.105469 219.171875 114.808594 219.394531 114.957031 C 219.394531 114.957031 219.46875 114.957031 219.46875 115.03125 C 222.8125 111.535156 226.160156 107.96875 228.984375 103.953125 C 230.25 102.167969 231.140625 100.53125 231.734375 98.449219 C 231.957031 97.632812 233.371094 93.390625 231.957031 93.09375 C 231.660156 93.019531 231.660156 92.574219 231.957031 92.5 C 229.800781 88.261719 225.191406 86.105469 221.253906 83.726562 C 219.023438 82.3125 217.015625 80.675781 215.007812 78.964844 C 212.628906 76.957031 210.027344 75.472656 207.574219 73.6875 C 202.667969 70.191406 198.652344 65.582031 193.597656 62.308594 C 191.367188 60.820312 188.464844 59.261719 185.714844 59.039062 C 184.003906 58.886719 181.851562 60.003906 180.214844 59.410156 C 175.976562 61.417969 171.960938 64.910156 172.332031 69.96875 C 172.628906 74.652344 173.375 80.230469 176.421875 84.023438 C 179.621094 87.964844 184.082031 90.566406 188.691406 92.574219 C 191.292969 93.691406 193.894531 94.730469 196.570312 95.699219 C 198.578125 96.367188 200.734375 96.8125 202.742188 97.707031 C 202.742188 97.707031 202.742188 97.632812 202.742188 97.632812 C 204.152344 95.398438 207.351562 93.691406 209.582031 92.5 C 210.917969 91.757812 214.636719 89.675781 215.898438 91.609375 C 216.046875 91.90625 215.675781 92.203125 215.453125 91.980469 C 214.117188 90.492188 210.101562 93.019531 208.835938 93.765625 C 207.277344 94.65625 205.195312 95.773438 203.929688 97.257812 C 208.242188 96.292969 212.40625 94.0625 216.941406 94.507812 C 217.238281 94.582031 217.386719 95.027344 217.164062 95.175781 C 213.222656 98.078125 208.019531 97.554688 203.632812 99.414062 C 203.484375 99.488281 203.410156 99.414062 203.335938 99.339844 C 201.328125 101.496094 199.246094 103.652344 197.238281 105.886719 C 195.007812 108.339844 192.183594 110.347656 190.324219 113.171875 C 190.175781 113.394531 189.878906 113.171875 189.953125 112.949219 C 191.738281 110.273438 194.191406 108.265625 196.421875 105.960938 C 198.726562 103.578125 200.882812 101.050781 203.261719 98.671875 C 200.585938 97.332031 197.386719 96.886719 194.5625 95.773438 C 191.886719 94.804688 189.210938 93.691406 186.609375 92.5 C 182.074219 90.34375 177.390625 87.367188 174.785156 82.980469 C 173.449219 80.75 172.855469 78.222656 172.40625 75.769531 C 172.035156 73.390625 171.441406 70.785156 171.664062 68.40625 C 172.183594 63.796875 176.125 60.449219 180.214844 58.738281 C 180.4375 58.664062 180.660156 58.8125 180.660156 59.039062 C 181.851562 59.410156 183.410156 58.8125 184.527344 58.664062 C 185.34375 58.589844 186.160156 58.589844 186.980469 58.8125 C 189.507812 59.410156 191.960938 60.597656 194.117188 61.9375 C 199.691406 65.507812 203.929688 70.636719 209.433594 74.207031 C 214.414062 77.40625 218.726562 81.496094 223.78125 84.46875 C 226.753906 86.253906 231.957031 88.78125 232.851562 92.574219 C 234.636719 93.464844 232.03125 100.753906 231.511719 101.796875 C 229.804688 105.289062 226.753906 108.414062 224.226562 111.238281 C 222.964844 112.652344 221.625 114.066406 220.285156 115.402344 C 224.597656 117.632812 229.355469 118.675781 233.816406 120.460938 C 239.320312 122.617188 244.96875 121.945312 250.621094 123.210938 C 250.695312 123.136719 250.546875 123.65625 250.246094 123.582031 Z M 203.707031 97.78125 C 203.929688 97.707031 204.078125 98.003906 203.929688 98.152344 C 203.855469 98.226562 203.78125 98.300781 203.707031 98.375 C 207.5 96.8125 211.886719 97.035156 215.453125 94.953125 C 211.4375 95.027344 207.648438 96.960938 203.707031 97.78125 Z M 225.191406 152.808594 C 225.117188 152.511719 224.746094 152.734375 224.820312 152.957031 C 226.457031 158.011719 228.761719 162.773438 231.066406 167.53125 C 231.214844 167.753906 231.585938 167.605469 231.511719 167.308594 C 229.207031 162.621094 226.828125 157.863281 225.191406 152.808594 Z M 246.53125 126.929688 C 241.476562 133.25 236.792969 139.941406 230.398438 145 C 227.199219 147.527344 224.152344 149.980469 220.734375 152.136719 C 219.246094 153.03125 217.683594 154.144531 216.046875 155.113281 C 214.191406 155.929688 212.332031 156.898438 210.472656 157.417969 C 210.25 157.492188 210.101562 157.492188 209.878906 157.492188 C 209.878906 157.492188 209.878906 157.492188 209.878906 157.566406 C 209.285156 157.714844 208.6875 157.789062 208.09375 157.863281 C 208.019531 157.789062 207.945312 157.714844 207.796875 157.789062 C 207.574219 157.863281 207.425781 157.863281 207.203125 157.9375 C 206.828125 158.011719 206.828125 158.609375 207.203125 158.609375 C 210.621094 158.683594 214.117188 157.046875 217.015625 155.335938 C 217.164062 155.261719 217.164062 155.039062 217.089844 154.964844 C 218.054688 154.441406 219.023438 153.847656 219.988281 153.253906 C 223.78125 150.949219 227.125 148.417969 230.546875 145.667969 C 237.089844 140.539062 241.996094 133.84375 246.976562 127.300781 C 247.125 127.078125 246.753906 126.707031 246.53125 126.929688 Z M 230.398438 158.90625 C 230.695312 155.484375 228.019531 152.734375 227.496094 149.460938 C 227.421875 149.164062 226.902344 149.238281 226.976562 149.609375 C 227.496094 152.882812 230.101562 155.558594 229.878906 158.90625 C 229.878906 159.277344 230.398438 159.277344 230.398438 158.90625 Z M 131.816406 148.570312 C 129.882812 149.460938 128.394531 151.246094 127.058594 152.882812 C 125.570312 154.667969 124.007812 156.375 122.449219 158.085938 C 119.101562 161.878906 115.832031 165.894531 114.195312 170.726562 C 114.121094 171.027344 114.566406 171.25 114.640625 170.878906 C 116.203125 166.339844 119.324219 162.472656 122.449219 158.90625 C 125.421875 155.558594 128.320312 151.617188 132.039062 149.089844 C 132.335938 148.941406 132.113281 148.417969 131.816406 148.570312 Z M 141.925781 148.570312 C 142.222656 149.238281 142.074219 150.054688 141.703125 150.726562 C 141.332031 151.394531 140.8125 151.246094 140.363281 150.726562 C 140.140625 150.425781 139.769531 150.800781 139.992188 151.097656 C 140.585938 151.839844 141.480469 151.988281 142.074219 151.171875 C 142.59375 150.425781 142.890625 149.164062 142.445312 148.34375 C 142.296875 147.898438 141.777344 148.195312 141.925781 148.570312 Z M 148.023438 134.738281 C 150.773438 134.8125 153.523438 134.515625 156.273438 134.515625 C 156.570312 134.515625 156.570312 134.140625 156.347656 134.066406 C 155.308594 133.695312 153.96875 133.917969 152.855469 133.992188 C 151.21875 134.140625 149.582031 134.292969 148.023438 134.292969 C 147.726562 134.292969 147.726562 134.738281 148.023438 134.738281 Z M 152.707031 131.835938 C 152.929688 131.539062 152.484375 131.09375 152.261719 131.464844 C 151.367188 132.804688 149.730469 131.613281 149.65625 130.277344 C 149.65625 129.902344 149.0625 129.902344 149.0625 130.277344 C 149.136719 132.132812 151.515625 133.621094 152.707031 131.835938 Z M 137.539062 146.414062 C 138.132812 146.859375 138.132812 147.75 137.6875 148.496094 C 137.019531 149.832031 135.382812 149.980469 134.269531 149.164062 C 133.972656 148.941406 134.195312 148.644531 134.492188 148.570312 C 134.417969 148.417969 134.417969 148.269531 134.566406 148.195312 C 135.234375 147.675781 135.902344 147.082031 136.5 146.488281 C 136.425781 146.335938 136.574219 146.113281 136.722656 146.113281 C 136.796875 146.113281 136.796875 146.113281 136.796875 146.113281 C 140.066406 143.140625 143.191406 140.089844 147.277344 138.230469 C 147.277344 138.082031 147.351562 138.007812 147.578125 137.933594 C 149.210938 137.414062 151.589844 135.925781 153.300781 136.894531 C 153.671875 137.117188 153.375 137.785156 153.003906 137.5625 C 151.515625 136.96875 149.582031 138.082031 148.171875 138.605469 C 144.007812 140.390625 140.8125 143.4375 137.539062 146.414062 Z M 137.539062 147.230469 C 137.464844 146.933594 137.390625 146.859375 137.167969 146.785156 C 136.425781 147.453125 135.753906 148.046875 135.011719 148.71875 C 135.011719 148.71875 135.011719 148.71875 134.9375 148.71875 C 135.753906 149.238281 136.574219 149.015625 137.167969 148.269531 C 137.390625 147.898438 137.613281 147.601562 137.539062 147.230469 Z M 160.066406 141.28125 C 154.417969 142.84375 149.210938 145.371094 146.164062 150.652344 C 145.941406 151.023438 146.535156 151.320312 146.757812 150.949219 C 146.90625 150.726562 147.054688 150.503906 147.203125 150.203125 C 147.277344 150.277344 147.425781 150.351562 147.503906 150.203125 C 147.875 149.757812 148.394531 149.3125 148.914062 149.164062 C 149.359375 149.015625 150.03125 149.3125 149.808594 149.832031 C 149.507812 150.578125 148.171875 151.023438 147.503906 150.652344 C 147.128906 150.425781 146.757812 151.023438 147.128906 151.171875 C 148.171875 151.691406 150.402344 151.097656 150.476562 149.683594 C 150.550781 149.015625 149.882812 148.34375 149.136719 148.417969 C 148.765625 148.417969 148.320312 148.644531 148.023438 148.941406 C 150.996094 145.148438 155.382812 143.214844 160.140625 141.949219 C 160.660156 141.949219 160.511719 141.207031 160.066406 141.28125 Z M 146.386719 144.179688 C 148.394531 142.84375 150.699219 142.097656 153.003906 141.578125 C 153.078125 141.578125 153.078125 141.503906 153.152344 141.503906 C 154.339844 141.355469 155.457031 141.058594 156.570312 140.835938 C 156.945312 140.761719 156.871094 140.164062 156.496094 140.164062 C 155.234375 140.238281 153.96875 140.761719 152.707031 140.835938 C 152.632812 140.835938 152.632812 140.835938 152.558594 140.910156 C 150.550781 141.355469 148.542969 142.097656 146.757812 143.140625 C 146.683594 143.140625 146.609375 143.140625 146.535156 143.140625 C 143.785156 144.777344 141.851562 147.378906 139.769531 149.683594 C 139.546875 149.980469 139.917969 150.277344 140.214844 150.054688 C 142.148438 147.972656 143.933594 145.816406 146.164062 144.105469 C 146.238281 144.253906 146.3125 144.253906 146.386719 144.179688 Z M 180.957031 118.601562 C 176.570312 117.707031 172.109375 116.964844 167.722656 117.933594 C 167.425781 118.007812 167.5 118.527344 167.796875 118.453125 C 172.257812 117.558594 176.496094 118.601562 180.957031 119.121094 C 181.179688 119.121094 181.179688 118.675781 180.957031 118.601562 Z M 154.789062 81.121094 C 152.113281 73.539062 152.335938 65.285156 149.730469 57.699219 C 149.582031 57.253906 148.839844 57.402344 148.988281 57.921875 C 151.292969 64.539062 151.441406 71.457031 153.152344 78.074219 C 153.894531 80.972656 155.085938 83.800781 156.347656 86.550781 C 157.539062 89.226562 159.546875 92.054688 159.992188 95.027344 C 160.214844 96.441406 160.140625 98.894531 158.429688 99.414062 C 157.316406 99.714844 155.605469 98.96875 154.566406 98.597656 C 151.144531 97.332031 147.875 95.175781 145.347656 92.648438 C 143.191406 90.492188 141.554688 87.742188 139.917969 85.136719 C 138.730469 83.203125 137.761719 81.046875 135.902344 79.636719 C 135.679688 79.488281 135.457031 79.785156 135.679688 80.007812 C 137.984375 81.792969 139.324219 85.0625 140.886719 87.445312 C 142.816406 90.34375 144.675781 93.019531 147.503906 95.25 C 150.03125 97.257812 153.003906 98.894531 156.125 99.789062 C 157.464844 100.160156 159.027344 100.53125 159.917969 99.191406 C 161.40625 97.109375 160.585938 94.136719 159.621094 92.054688 C 157.910156 88.335938 156.125 84.839844 154.789062 81.121094 Z M 181.550781 115.476562 C 181.851562 115.476562 181.851562 115.03125 181.625 115.03125 C 178.355469 114.734375 175.085938 114.214844 171.8125 113.46875 C 171.515625 113.394531 171.367188 113.839844 171.664062 113.917969 C 174.9375 114.734375 178.207031 115.328125 181.550781 115.476562 Z M 371.207031 288.441406 C 368.085938 280.558594 359.609375 276.695312 351.285156 276.917969 C 351.582031 274.015625 352.695312 271.339844 352.546875 268.363281 C 324.964844 263.382812 330.839844 267.472656 304.074219 259.070312 C 294.410156 256.019531 284.667969 254.238281 276.863281 247.914062 C 271.4375 243.527344 267.199219 238.25 261.847656 233.863281 C 254.039062 227.464844 244.300781 223.300781 236.566406 216.90625 C 230.398438 211.777344 226.457031 207.613281 226.308594 200.621094 C 226.011719 185.75 222.441406 173.777344 211.515625 162.324219 C 204.375 154.816406 191.144531 147.824219 178.949219 144.628906 C 177.613281 144.851562 176.273438 145.148438 174.9375 145.59375 C 161.554688 151.839844 151.515625 155.1875 145.199219 164.929688 C 141.40625 170.804688 140.4375 177.496094 139.25 184.1875 C 137.464844 193.707031 137.984375 197.050781 143.414062 205.007812 C 146.238281 209.246094 148.097656 211.925781 150.773438 214.15625 C 150.476562 224.121094 149.808594 234.160156 149.285156 243.972656 C 149.0625 248.882812 147.578125 257.433594 147.578125 265.242188 C 150.402344 270.894531 154.566406 275.429688 160.289062 279.148438 C 164.898438 282.121094 169.730469 284.648438 174.5625 287.253906 C 179.46875 287.996094 183.929688 288.738281 186.980469 290.300781 C 195.976562 294.988281 202.964844 298.554688 212.777344 301.679688 C 221.253906 304.355469 229.429688 307.257812 238.054688 309.785156 C 250.023438 313.207031 259.464844 319.75 271.066406 323.316406 C 271.4375 315.363281 272.699219 307.332031 274.929688 299.746094 C 277.980469 302.050781 281.917969 303.910156 284.222656 306.882812 C 290.691406 315.511719 292.921875 326.960938 297.53125 336.628906 C 299.6875 341.238281 301.25 350.609375 307.269531 346.890625 C 313.589844 342.949219 311.433594 326.589844 311.433594 320.640625 C 311.433594 318.039062 311.507812 315.0625 311.507812 311.867188 C 311.507812 311.792969 311.433594 311.71875 311.433594 311.570312 C 311.433594 311.496094 311.433594 311.347656 311.507812 311.273438 C 311.507812 310.15625 311.507812 309.039062 311.507812 307.925781 C 311.804688 308.074219 312.179688 308.296875 312.476562 308.519531 C 312.625 308.371094 312.847656 308.222656 313.144531 308.222656 C 314.410156 308.148438 315.671875 307.628906 316.863281 307.332031 C 317.308594 307.183594 317.753906 307.03125 318.273438 306.882812 C 320.132812 305.769531 322.066406 304.800781 324.148438 304.578125 C 325.039062 311.421875 326.007812 317.667969 326.378906 324.804688 C 326.824219 333.058594 326.304688 345.328125 329.425781 352.765625 C 338.273438 349.492188 345.410156 343.394531 349.648438 335.066406 C 353.664062 327.035156 353.367188 319.453125 358.941406 312.535156 C 364.144531 305.84375 375 297.960938 371.207031 288.441406 Z M 229.578125 256.167969 C 221.03125 254.683594 212.257812 253.34375 203.558594 252.453125 C 204.675781 249.328125 205.714844 246.207031 206.679688 243.007812 C 215.972656 247.246094 225.191406 251.632812 233.816406 256.839844 C 232.40625 256.617188 230.992188 256.394531 229.578125 256.167969 Z M 128.171875 31.523438 C 124.082031 32.265625 120.292969 31.820312 116.648438 34.199219 C 113.304688 36.355469 109.882812 39.628906 107.949219 43.125 C 107.800781 43.347656 107.503906 43.125 107.652344 42.902344 C 109.4375 39.40625 112.707031 36.355469 115.832031 34.125 C 119.621094 31.449219 123.710938 31.523438 128.171875 31.003906 C 128.394531 31.078125 128.46875 31.523438 128.171875 31.523438 Z M 128.171875 31.523438 " fill-opacity="1" fill-rule="nonzero"/></g><path fill="#968775" d="M 158.578125 173.480469 C 158.726562 173.554688 158.726562 173.851562 158.652344 173.925781 C 157.6875 175.191406 157.464844 176.75 157.019531 178.164062 C 156.570312 179.578125 156.050781 180.992188 155.53125 182.476562 C 154.417969 185.75 153.597656 189.09375 153.003906 192.589844 C 151.886719 199.132812 151.738281 205.753906 151.664062 212.371094 C 151.664062 212.742188 151.070312 212.816406 151.070312 212.445312 C 151.070312 205.382812 151.21875 198.316406 152.484375 191.328125 C 153.078125 187.980469 153.96875 184.707031 155.085938 181.511719 C 155.679688 179.875 156.273438 178.238281 156.722656 176.527344 C 156.871094 175.859375 156.945312 175.117188 157.242188 174.519531 C 157.316406 174.371094 157.390625 174.222656 157.464844 174.148438 C 157.316406 174 157.316406 173.703125 157.539062 173.554688 C 157.761719 173.480469 157.910156 173.332031 158.132812 173.257812 C 158.28125 173.257812 158.429688 173.332031 158.578125 173.480469 Z M 156.945312 166.117188 C 152.929688 171.027344 148.988281 176.378906 148.394531 182.847656 C 148.394531 183.222656 148.914062 183.296875 148.988281 182.921875 C 149.65625 176.527344 153.523438 171.324219 157.464844 166.5625 C 157.761719 166.191406 157.242188 165.746094 156.945312 166.117188 Z M 204.078125 250.890625 C 204.226562 241.667969 210.027344 233.339844 214.265625 225.53125 C 218.726562 217.203125 224.152344 208.503906 225.566406 199.058594 C 225.640625 198.613281 224.96875 198.464844 224.820312 198.910156 C 223.484375 203.820312 221.921875 208.578125 219.691406 213.1875 C 217.535156 217.652344 215.15625 221.964844 212.777344 226.351562 C 208.6875 233.9375 203.410156 241.964844 203.335938 250.964844 C 203.410156 251.410156 204.078125 251.335938 204.078125 250.890625 Z M 325.632812 295.210938 C 325.707031 298.851562 323.476562 301.902344 323.402344 305.546875 C 323.402344 305.917969 324 305.917969 324 305.546875 C 324.296875 301.976562 326.378906 298.851562 326.230469 295.285156 C 326.230469 294.835938 325.558594 294.835938 325.632812 295.210938 Z M 353.738281 277.585938 C 350.835938 278.550781 347.566406 277.660156 344.742188 276.542969 C 344.59375 276.542969 344.445312 276.542969 344.296875 276.46875 C 344.144531 276.621094 343.996094 276.84375 343.847656 276.992188 C 340.578125 281.007812 337.230469 284.726562 333.144531 287.847656 C 326.007812 293.5 317.234375 298.851562 313.144531 307.332031 C 312.996094 307.554688 312.625 307.480469 312.699219 307.183594 C 314.109375 303.019531 317.53125 299.746094 320.726562 296.84375 C 324.59375 293.351562 328.90625 290.300781 332.996094 287.03125 C 333.367188 286.730469 333.664062 286.433594 334.035156 286.210938 C 332.398438 284.574219 330.46875 283.3125 328.386719 282.34375 C 323.105469 287.253906 318.347656 292.679688 314.109375 298.480469 C 313.886719 298.851562 313.292969 298.480469 313.515625 298.109375 C 317.753906 292.308594 322.511719 286.957031 327.714844 282.046875 C 323.402344 280.113281 318.496094 278.925781 314.558594 276.542969 C 315.226562 279.519531 314.484375 282.867188 314.035156 285.691406 C 313.367188 289.78125 312.476562 293.871094 311.953125 297.960938 C 311.582031 301.234375 311.65625 304.355469 311.878906 307.628906 C 311.878906 308 311.285156 308.148438 311.210938 307.703125 C 310.023438 301.308594 311.582031 294.6875 312.773438 288.367188 C 313.515625 284.277344 315.375 278.476562 312.996094 274.535156 C 311.433594 271.859375 308.164062 271.117188 305.261719 270.894531 C 304.445312 270.820312 303.628906 270.820312 302.882812 270.820312 C 302.882812 270.96875 302.734375 271.117188 302.585938 271.117188 C 302.140625 271.117188 301.621094 271.042969 301.175781 270.894531 C 296.117188 271.191406 291.136719 272.453125 286.082031 272.53125 C 285.636719 272.53125 285.5625 271.785156 286.007812 271.785156 C 289.726562 271.785156 293.441406 270.96875 297.085938 270.523438 C 297.753906 270.445312 298.421875 270.371094 299.09375 270.296875 C 297.679688 269.777344 296.269531 269.109375 294.929688 268.515625 C 293.441406 267.84375 291.957031 267.25 290.394531 266.953125 C 290.097656 266.878906 288.980469 266.582031 288.386719 266.65625 C 288.238281 266.953125 288.164062 267.25 288.015625 267.546875 C 288.015625 267.621094 288.015625 267.621094 288.015625 267.695312 C 288.015625 267.84375 287.941406 267.917969 287.867188 267.917969 C 286.007812 271.933594 283.257812 275.429688 281.175781 279.371094 C 278.425781 284.648438 276.640625 290.746094 275.152344 296.472656 C 275.078125 296.84375 274.484375 296.695312 274.558594 296.324219 C 275.375 292.90625 276.492188 289.558594 277.679688 286.210938 C 278.796875 283.015625 279.984375 279.964844 281.695312 277.066406 C 282.8125 275.207031 284 273.347656 285.117188 271.488281 C 285.859375 270.222656 286.972656 268.664062 287.421875 267.175781 C 287.347656 266.953125 287.273438 266.730469 287.199219 266.582031 C 287.050781 266.433594 287.199219 266.207031 287.421875 266.132812 C 287.421875 266.132812 287.496094 266.132812 287.496094 266.132812 C 287.347656 266.058594 287.125 265.984375 286.75 265.835938 C 286.082031 265.613281 285.339844 265.390625 284.667969 265.167969 C 284.148438 265.019531 283.628906 264.871094 283.109375 264.796875 C 283.183594 264.945312 283.257812 265.09375 283.109375 265.242188 C 279.6875 268.589844 278.128906 273.125 276.492188 277.511719 C 276.121094 278.402344 275.75 279.296875 275.375 280.1875 C 276.046875 280.558594 276.640625 280.859375 277.234375 281.304688 C 277.605469 281.527344 277.234375 282.195312 276.863281 281.898438 C 276.269531 281.527344 275.675781 281.15625 275.078125 280.859375 C 273.667969 284.054688 272.105469 287.105469 270.691406 290.226562 C 266.53125 299.523438 264.523438 309.039062 264.523438 319.226562 C 264.523438 319.75 263.777344 319.675781 263.777344 319.152344 C 263.777344 313.652344 264.226562 308.222656 265.488281 302.867188 C 266.753906 297.589844 268.835938 292.605469 271.140625 287.699219 C 272.253906 285.320312 273.371094 282.867188 274.410156 280.484375 C 268.535156 277.585938 261.472656 276.769531 255.15625 275.578125 C 248.089844 274.164062 240.953125 272.976562 234.039062 270.96875 C 227.421875 269.035156 220.957031 266.65625 214.414062 264.574219 C 211.289062 263.53125 208.09375 262.640625 204.824219 261.96875 C 201.996094 261.375 199.097656 260.929688 196.273438 260.109375 C 193.671875 259.367188 190.996094 258.402344 188.765625 256.765625 C 188.613281 256.617188 188.390625 256.46875 188.167969 256.320312 C 182.371094 259.441406 176.792969 263.679688 170.027344 263.679688 C 169.730469 263.679688 169.433594 263.308594 169.65625 263.011719 C 172.183594 258.996094 176.644531 256.914062 180.882812 255.203125 C 182 254.757812 183.113281 254.3125 184.304688 253.9375 C 184.378906 253.492188 184.453125 252.972656 184.527344 252.527344 C 184.304688 252.527344 184.082031 252.601562 183.855469 252.601562 C 180.957031 252.972656 176.570312 253.566406 174.265625 251.261719 C 174.117188 251.113281 174.042969 250.816406 174.191406 250.667969 C 177.015625 247.691406 180.585938 246.875 184.230469 246.503906 C 184.082031 245.164062 183.855469 243.824219 183.707031 242.488281 C 183.1875 238.027344 182.519531 233.5625 181.925781 229.101562 C 180.882812 220.921875 180.4375 212.667969 179.992188 204.414062 C 179.769531 200.25 179.695312 196.160156 179.769531 191.996094 C 179.84375 188.054688 180.4375 184.1875 180.808594 180.246094 C 181.105469 177.570312 180.808594 175.339844 179.394531 173.035156 C 176.125 174.667969 173.226562 177.050781 171.367188 179.875 C 171.144531 180.171875 170.625 179.949219 170.847656 179.578125 C 172.855469 176.527344 175.976562 174.296875 179.171875 172.585938 C 177.984375 170.578125 176.496094 168.71875 175.160156 166.789062 C 173.671875 164.628906 172.109375 162.472656 170.402344 160.539062 C 168.988281 158.980469 166.832031 156.523438 164.527344 156.824219 C 164.007812 156.898438 163.859375 156.078125 164.378906 156.003906 C 166.460938 155.632812 168.320312 157.269531 169.65625 158.53125 C 171.886719 160.691406 173.820312 163.292969 175.605469 165.894531 C 177.015625 167.976562 178.652344 169.984375 179.917969 172.140625 C 179.917969 172.140625 179.992188 172.140625 179.992188 172.140625 C 183.1875 170.503906 187.796875 168.71875 191.367188 169.984375 C 191.738281 170.132812 191.664062 170.652344 191.21875 170.578125 C 187.648438 170.132812 183.707031 170.953125 180.140625 172.585938 C 181.179688 174.519531 181.851562 176.601562 181.699219 178.90625 C 181.476562 183 180.660156 187.089844 180.511719 191.253906 C 180.363281 195.863281 180.511719 200.472656 180.734375 205.082031 C 181.179688 213.933594 181.777344 222.78125 182.890625 231.628906 C 183.484375 236.019531 184.082031 240.332031 184.527344 244.71875 C 184.601562 245.3125 184.675781 245.90625 184.675781 246.503906 C 188.613281 246.132812 192.777344 246.132812 196.347656 244.421875 C 196.792969 244.199219 197.164062 244.792969 196.71875 245.015625 C 193.074219 246.875 188.839844 246.800781 184.675781 247.246094 C 184.824219 248.660156 184.898438 250.148438 184.824219 251.558594 C 188.242188 250.964844 191.589844 250.070312 194.933594 249.253906 C 195.453125 249.105469 195.605469 249.847656 195.230469 250.070312 C 192.628906 251.707031 189.730469 252.898438 186.832031 253.9375 C 186.683594 254.386719 187.054688 255.054688 187.722656 255.574219 C 191.738281 253.417969 195.828125 251.78125 200.511719 252.304688 C 201.03125 252.378906 201.03125 253.195312 200.4375 253.121094 C 196.050781 252.675781 192.183594 254.085938 188.390625 256.09375 C 189.65625 256.988281 191.21875 257.804688 191.441406 257.953125 C 192.777344 258.550781 194.117188 259.070312 195.453125 259.441406 C 198.652344 260.410156 201.996094 260.929688 205.34375 261.597656 C 217.460938 264.125 228.835938 269.628906 240.953125 272.304688 C 247.421875 273.71875 253.964844 274.910156 260.507812 276.171875 C 265.117188 277.140625 269.875 278.03125 274.1875 280.039062 C 275.003906 278.179688 275.824219 276.320312 276.566406 274.386719 C 277.90625 270.96875 279.539062 267.546875 282.214844 264.945312 C 282.214844 264.945312 282.289062 264.945312 282.289062 264.871094 C 281.175781 264.648438 280.136719 264.425781 279.019531 264.273438 C 275.75 263.753906 272.476562 263.382812 269.207031 262.714844 C 265.414062 261.894531 261.769531 260.929688 257.980469 260.183594 C 254.484375 259.515625 250.992188 258.996094 247.496094 258.550781 C 243.929688 258.175781 240.433594 258.101562 236.941406 257.878906 C 237.089844 258.027344 236.941406 258.328125 236.71875 258.175781 C 236.492188 258.027344 236.195312 257.878906 235.972656 257.804688 C 235.898438 257.804688 235.824219 257.804688 235.824219 257.804688 C 235.527344 257.804688 235.601562 257.359375 235.824219 257.285156 C 244.894531 256.617188 254.410156 258.476562 263.257812 260.410156 C 267.496094 261.375 271.660156 262.34375 275.972656 262.9375 C 280.058594 263.53125 284.222656 264.125 288.015625 265.835938 C 288.164062 265.910156 288.238281 266.058594 288.238281 266.207031 C 290.320312 266.207031 292.402344 266.953125 294.261719 267.695312 C 296.492188 268.589844 298.648438 269.480469 300.878906 270.222656 C 305.5625 269.851562 310.839844 270.222656 313.292969 274.164062 C 313.664062 274.761719 313.960938 275.429688 314.109375 276.171875 C 314.183594 276.097656 314.332031 276.023438 314.484375 276.097656 C 318.496094 278.476562 323.476562 279.59375 327.863281 281.601562 C 327.863281 281.601562 327.9375 281.527344 327.9375 281.527344 C 330.242188 279.445312 332.621094 277.511719 335.078125 275.726562 C 337.902344 273.644531 340.800781 271.5625 342.660156 268.589844 C 342.882812 268.214844 343.328125 268.664062 343.179688 268.960938 C 340.058594 274.164062 333.8125 277.066406 329.425781 281.007812 C 329.128906 281.304688 328.757812 281.601562 328.460938 281.898438 C 330.542969 282.941406 332.472656 284.128906 334.035156 285.839844 C 337.457031 282.941406 340.503906 279.59375 343.328125 276.023438 C 343.179688 275.800781 343.328125 275.578125 343.625 275.578125 C 343.847656 275.28125 344.070312 275.058594 344.222656 274.761719 C 345.410156 273.199219 346.527344 271.488281 347.714844 269.925781 C 348.53125 268.886719 349.5 267.546875 350.835938 267.027344 C 351.210938 266.878906 351.433594 267.546875 350.988281 267.695312 C 349.277344 268.363281 347.863281 270.820312 346.824219 272.15625 C 346.003906 273.347656 345.113281 274.539062 344.222656 275.652344 C 345.707031 276.023438 347.046875 276.621094 348.53125 276.917969 C 350.09375 277.214844 351.507812 277.140625 353.066406 276.84375 C 354.035156 276.992188 354.109375 277.511719 353.738281 277.585938 Z M 185.195312 253.714844 C 187.574219 252.898438 189.953125 252.003906 192.183594 250.964844 C 189.953125 251.558594 187.648438 252.078125 185.34375 252.453125 C 185.269531 252.898438 185.269531 253.269531 185.195312 253.714844 Z M 184.75 251.632812 C 184.824219 250.222656 184.75 248.734375 184.601562 247.246094 C 181.253906 247.617188 177.984375 248.4375 175.457031 250.890625 C 177.761719 252.824219 181.925781 252.152344 184.75 251.632812 Z M 187.722656 255.871094 C 187.203125 255.351562 186.683594 254.757812 186.683594 254.160156 C 186.085938 254.386719 185.492188 254.609375 184.972656 254.832031 C 184.898438 255.054688 184.898438 255.351562 184.824219 255.574219 C 184.675781 255.945312 184.15625 255.722656 184.230469 255.351562 C 184.230469 255.277344 184.304688 255.203125 184.304688 255.128906 C 184.003906 255.277344 183.632812 255.351562 183.335938 255.5 C 178.949219 257.136719 174.042969 259.070312 171.144531 262.9375 C 177.242188 262.566406 182.371094 258.847656 187.722656 255.871094 Z M 237.015625 239.066406 C 240.285156 241.148438 243.480469 242.933594 246.308594 245.683594 C 247.347656 246.726562 248.390625 247.765625 249.578125 248.660156 C 252.625 245.535156 256.121094 242.636719 260.210938 242.636719 C 260.433594 242.636719 260.582031 242.859375 260.507812 243.082031 C 259.691406 246.503906 256.9375 248.660156 254.707031 251.261719 C 255.378906 251.484375 256.046875 251.707031 256.714844 251.929688 C 257.980469 251.1875 259.316406 250.667969 260.65625 250.816406 C 260.878906 250.816406 260.953125 251.1875 260.730469 251.261719 C 260.507812 251.335938 260.285156 251.410156 259.988281 251.484375 C 259.988281 251.558594 259.988281 251.632812 259.839844 251.707031 C 258.871094 252.152344 258.648438 252.304688 259.765625 253.121094 C 260.210938 253.492188 260.65625 253.789062 261.101562 254.085938 C 262.367188 254.980469 263.703125 255.871094 264.96875 256.691406 C 267.570312 258.328125 270.246094 259.664062 273.144531 260.558594 C 273.59375 260.707031 273.371094 261.300781 272.921875 261.226562 C 267.71875 260.035156 262.515625 256.46875 258.5 252.972656 C 258.5 253.046875 258.5 253.121094 258.425781 253.269531 C 258.425781 253.34375 258.351562 253.417969 258.277344 253.492188 C 257.980469 253.566406 257.757812 253.492188 257.460938 253.566406 C 257.160156 253.640625 257.085938 253.121094 257.386719 253.046875 C 257.832031 252.972656 257.609375 252.75 257.234375 252.601562 C 257.011719 252.675781 256.863281 252.824219 256.640625 252.972656 C 255.007812 254.011719 253.519531 255.277344 251.808594 256.167969 C 251.511719 256.320312 251.214844 256.019531 251.289062 255.722656 C 251.734375 254.160156 252.625 252.824219 253.59375 251.558594 C 253.445312 251.484375 253.296875 251.484375 253.148438 251.410156 C 251.808594 250.964844 250.695312 250.296875 249.578125 249.550781 C 248.089844 251.113281 246.753906 252.675781 245.488281 254.011719 C 245.191406 254.3125 244.746094 253.789062 245.042969 253.492188 C 246.234375 252.230469 247.570312 250.667969 249.058594 249.179688 C 248.464844 248.734375 247.941406 248.289062 247.421875 247.839844 C 245.710938 246.207031 244.078125 244.496094 242.144531 243.15625 C 240.285156 241.890625 238.277344 240.851562 236.417969 239.660156 C 229.355469 235.199219 221.996094 229.921875 217.683594 222.632812 C 217.535156 222.335938 218.054688 222.113281 218.203125 222.410156 C 222.589844 229.398438 230.027344 234.679688 237.015625 239.066406 Z M 254.261719 251.632812 C 253.445312 252.675781 252.703125 253.714844 252.253906 254.90625 C 253.445312 254.160156 254.78125 253.046875 256.121094 252.152344 C 255.972656 252.152344 255.824219 252.078125 255.75 252.078125 C 255.230469 251.929688 254.78125 251.78125 254.261719 251.632812 Z M 250.023438 249.03125 C 250.546875 249.402344 251.066406 249.699219 251.585938 249.996094 C 252.402344 250.371094 253.222656 250.742188 254.039062 250.964844 C 256.195312 248.585938 258.796875 246.429688 259.691406 243.304688 C 256.046875 243.527344 252.851562 246.132812 250.023438 249.03125 Z M 287.347656 280.261719 C 287.050781 280.410156 287.199219 280.859375 287.496094 280.710938 C 292.179688 278.550781 293.292969 284.277344 295.671875 286.957031 C 295.894531 287.253906 296.34375 286.882812 296.121094 286.582031 C 293.890625 283.609375 292.105469 277.957031 287.347656 280.261719 Z M 301.621094 322.351562 C 299.09375 324.804688 297.160156 327.929688 297.457031 331.496094 C 297.457031 331.871094 298.050781 331.871094 298.050781 331.496094 C 297.828125 327.929688 299.6875 325.175781 301.992188 322.722656 C 302.214844 322.5 301.84375 322.128906 301.621094 322.351562 Z M 352.472656 303.015625 C 346.527344 307.925781 350.613281 316.921875 346.601562 322.796875 C 346.300781 323.167969 346.972656 323.542969 347.269531 323.167969 C 351.359375 317.371094 347.269531 308.296875 353.066406 303.539062 C 353.441406 303.242188 352.917969 302.71875 352.472656 303.015625 Z M 339.984375 283.683594 C 339.460938 283.460938 339.164062 284.203125 339.6875 284.425781 C 343.550781 286.136719 344.59375 289.929688 343.550781 293.796875 C 343.402344 294.242188 344.070312 294.464844 344.222656 294.019531 C 345.335938 289.78125 344.222656 285.46875 339.984375 283.683594 Z M 128.691406 45.132812 C 123.042969 45.207031 117.09375 43.941406 114.714844 38.214844 C 114.566406 37.84375 114.046875 38.140625 114.195312 38.511719 C 116.574219 44.535156 122.820312 45.949219 128.765625 45.726562 C 129.0625 45.726562 129.0625 45.132812 128.691406 45.132812 Z M 123.636719 54.648438 C 123.785156 54.648438 123.859375 54.425781 123.710938 54.351562 C 119.695312 53.164062 115.980469 51.378906 114.714844 46.992188 C 114.640625 46.769531 114.34375 46.84375 114.417969 47.066406 C 115.535156 51.453125 119.398438 53.832031 123.636719 54.648438 Z M 123.859375 59.929688 C 119.84375 59.558594 116.574219 57.253906 114.566406 53.90625 C 114.417969 53.683594 114.195312 53.90625 114.269531 54.128906 C 116.277344 57.550781 119.769531 60.300781 123.859375 60.375 C 124.15625 60.375 124.15625 59.929688 123.859375 59.929688 Z M 139.917969 48.699219 C 137.835938 46.171875 136.203125 43.347656 133.523438 41.414062 C 131.667969 40.074219 129.214844 38.664062 126.910156 39.035156 C 126.683594 39.035156 126.757812 39.40625 126.984375 39.40625 C 129.511719 39.035156 132.484375 40.96875 134.269531 42.601562 C 136.351562 44.460938 137.6875 46.917969 139.546875 48.925781 C 139.769531 49.148438 140.140625 48.851562 139.917969 48.699219 Z M 138.28125 37.472656 C 138.058594 37.324219 137.835938 37.621094 137.984375 37.769531 C 142.148438 41.339844 144.378906 46.246094 144.601562 51.75 C 144.601562 51.972656 144.972656 51.972656 144.972656 51.75 C 145.046875 46.171875 142.519531 41.042969 138.28125 37.472656 Z M 138.132812 53.164062 C 139.992188 56.285156 141.257812 59.632812 140.4375 63.277344 C 140.363281 63.574219 140.886719 63.722656 140.960938 63.425781 C 141.851562 59.632812 140.4375 56.136719 138.507812 52.941406 C 138.359375 52.714844 137.910156 52.941406 138.132812 53.164062 Z M 140.886719 34.199219 C 141.332031 34.796875 142.59375 36.132812 142.296875 36.953125 C 142.148438 37.324219 142.667969 37.695312 142.96875 37.398438 C 144.453125 36.207031 140.511719 32.640625 139.992188 31.746094 C 139.769531 31.300781 139.027344 31.597656 139.324219 32.042969 C 139.695312 32.789062 140.363281 33.457031 140.886719 34.199219 Z M 162.296875 40.074219 C 158.726562 39.777344 155.605469 38.886719 153.078125 36.207031 C 151.441406 34.496094 150.105469 31.078125 147.203125 32.117188 C 146.980469 32.191406 147.054688 32.492188 147.277344 32.414062 C 149.433594 31.746094 150.550781 33.679688 151.589844 35.167969 C 152.410156 36.355469 153.449219 37.398438 154.640625 38.214844 C 156.871094 39.851562 159.621094 40.519531 162.371094 40.445312 C 162.519531 40.445312 162.519531 40.074219 162.296875 40.074219 Z M 162.074219 45.058594 C 157.761719 44.535156 154.9375 43.496094 152.335938 40.074219 C 152.1875 39.851562 151.8125 40.148438 152.035156 40.371094 C 154.566406 43.71875 157.910156 45.28125 162.074219 45.578125 C 162.371094 45.652344 162.445312 45.132812 162.074219 45.058594 Z M 159.25 33.976562 C 159.621094 34.050781 159.769531 33.605469 159.472656 33.457031 C 158.429688 33.011719 157.761719 32.265625 156.871094 31.597656 C 156.570312 31.375 156.125 31.820312 156.496094 32.117188 C 157.390625 32.789062 158.132812 33.679688 159.25 33.976562 Z M 81.484375 102.761719 C 81.78125 102.761719 81.929688 102.242188 81.558594 102.167969 C 80.367188 101.945312 79.402344 102.390625 78.507812 103.132812 C 77.617188 103.878906 76.425781 106.035156 75.3125 106.183594 C 74.941406 106.257812 75.015625 106.777344 75.3125 106.703125 C 76.203125 106.628906 76.726562 105.960938 77.320312 105.289062 C 78.359375 103.953125 79.550781 102.613281 81.484375 102.761719 Z M 83.265625 103.28125 C 81.109375 102.835938 79.253906 104.992188 77.914062 106.40625 C 77.691406 106.628906 77.988281 107.074219 78.285156 106.851562 C 79.773438 105.4375 81.1875 104.175781 83.265625 103.730469 C 83.492188 103.652344 83.492188 103.28125 83.265625 103.28125 Z M 83.414062 104.546875 C 82.96875 104.472656 82.449219 104.769531 82.078125 105.066406 C 81.558594 105.4375 81.109375 105.886719 80.664062 106.332031 C 80.515625 106.554688 80.8125 106.777344 80.960938 106.628906 C 81.410156 106.183594 81.929688 105.8125 82.449219 105.511719 C 82.820312 105.289062 83.265625 105.214844 83.566406 104.917969 C 83.640625 104.769531 83.566406 104.621094 83.414062 104.546875 Z M 62.003906 108.339844 C 60.890625 109.082031 59.625 110.347656 59.550781 111.757812 C 59.550781 112.132812 60.070312 112.207031 60.070312 111.835938 C 60.21875 110.570312 61.410156 109.601562 62.449219 108.933594 C 63.046875 108.488281 63.640625 108.265625 64.457031 108.339844 C 65.050781 108.414062 65.425781 108.636719 65.945312 108.785156 C 66.316406 108.859375 66.539062 108.488281 66.242188 108.191406 C 64.828125 107.222656 63.417969 107.445312 62.003906 108.339844 Z M 69.289062 107 C 66.316406 105.886719 60.292969 104.546875 58.734375 108.5625 C 58.585938 108.859375 59.105469 109.007812 59.253906 108.785156 C 60.144531 106.851562 62.972656 106.480469 64.828125 106.628906 C 66.316406 106.703125 67.804688 107.371094 69.289062 107.296875 C 69.363281 107.371094 69.4375 107.074219 69.289062 107 Z M 60.292969 118.453125 C 60.144531 118.601562 57.320312 121.277344 56.949219 120.757812 C 56.652344 120.386719 59.328125 119.121094 59.699219 118.898438 C 59.921875 118.75 59.773438 118.304688 59.476562 118.304688 C 57.988281 118.601562 57.097656 120.164062 55.386719 119.714844 C 55.015625 119.640625 54.941406 120.164062 55.3125 120.238281 C 55.832031 120.386719 56.28125 120.386719 56.726562 120.238281 C 56.429688 120.535156 56.28125 120.90625 56.503906 121.128906 C 56.949219 121.574219 57.914062 120.980469 58.285156 120.757812 C 59.179688 120.238281 60.21875 119.640625 60.667969 118.675781 C 60.667969 118.453125 60.441406 118.230469 60.292969 118.453125 Z M 58.136719 125.292969 C 58.363281 125.070312 57.914062 124.773438 57.765625 124.996094 C 57.023438 125.886719 56.578125 126.855469 56.28125 127.894531 C 55.980469 128.863281 55.609375 130.050781 56.132812 131.019531 C 56.28125 131.316406 56.726562 131.167969 56.652344 130.871094 C 56.429688 128.9375 57.023438 126.855469 58.136719 125.292969 Z M 58.4375 130.203125 C 58.136719 129.011719 58.585938 127.597656 59.03125 126.484375 C 59.179688 126.113281 58.660156 125.886719 58.4375 126.261719 C 57.542969 128.042969 56.652344 131.242188 58.957031 132.359375 C 59.179688 132.507812 59.550781 132.132812 59.328125 131.910156 C 58.957031 131.316406 58.585938 130.796875 58.4375 130.203125 Z M 62.078125 131.390625 C 62.003906 131.316406 61.855469 131.242188 61.78125 131.167969 C 61.484375 130.648438 61.1875 130.203125 60.890625 129.679688 C 60.890625 129.605469 60.816406 129.457031 60.816406 129.382812 C 60.742188 128.9375 60.070312 128.9375 60.070312 129.382812 C 60.144531 130.796875 61.039062 132.210938 62.449219 132.65625 C 62.820312 132.730469 63.121094 132.285156 62.820312 131.984375 C 62.597656 131.6875 62.300781 131.539062 62.078125 131.390625 Z M 62.078125 131.390625 " fill-opacity="1" fill-rule="nonzero"/></svg>