<svg xmlns="http://www.w3.org/2000/svg" xmlns:xlink="http://www.w3.org/1999/xlink" width="500" zoomAndPan="magnify" viewBox="0 0 375 374.999991" height="500" preserveAspectRatio="xMidYMid meet" version="1.0"><path fill="#0b0a06" d="M 340.925781 301.480469 C 336.132812 304.132812 332.230469 306.5625 326.851562 308.105469 C 316.902344 310.90625 306.878906 313.113281 296.859375 316.058594 C 270.695312 323.714844 243.359375 319.886719 216.679688 318.636719 C 209.386719 318.339844 202.015625 317.898438 194.941406 316.132812 C 190.300781 314.953125 181.605469 316.648438 178.65625 313.039062 C 176.519531 310.390625 175.929688 302.070312 175.339844 298.832031 C 173.203125 286.976562 172.6875 274.3125 172.761719 262.238281 C 172.761719 254.730469 173.425781 247.144531 181.382812 245.527344 C 185.140625 244.789062 189.710938 245.378906 193.542969 245.160156 C 197.964844 244.9375 202.3125 243.90625 206.660156 243.464844 C 219.851562 242.066406 234 246.484375 246.894531 248.988281 C 259.863281 251.492188 268.855469 258.410156 280.496094 263.710938 C 292.507812 269.160156 305.257812 277.40625 318.671875 277.40625 C 326.554688 277.40625 333.996094 276.597656 341.808594 276.082031 C 347.925781 275.710938 351.316406 272.472656 355.808594 268.425781 C 359.496094 265.039062 365.683594 262.09375 368.117188 268.351562 C 374.527344 284.546875 353.230469 288.300781 346.671875 298.09375 C 347.113281 298.390625 347.558594 298.167969 348 297.578125 C 345.347656 299.789062 342.914062 300.375 340.925781 301.480469 Z M 340.925781 301.480469 " fill-opacity="1" fill-rule="nonzero"/><path fill="#a6ac37" d="M 87.722656 221.011719 C 97.523438 217.035156 106.660156 214.898438 117.125 213.792969 C 122.800781 213.207031 128.03125 213.425781 133.558594 214.824219 C 139.378906 216.296875 144.464844 220.421875 149.84375 223.070312 C 153.96875 225.058594 158.320312 226.53125 161.929688 229.402344 C 165.539062 232.347656 166.425781 236.542969 168.707031 240.152344 C 170.476562 242.800781 175.195312 244.273438 177.773438 246.261719 C 182.195312 249.722656 186.6875 251.417969 189.859375 256.277344 C 192.878906 260.839844 195.238281 265.625 198.847656 269.824219 C 201.058594 272.472656 203.417969 275.710938 206.144531 277.921875 C 208.132812 279.542969 210.859375 279.984375 212.777344 281.457031 C 208.207031 286.242188 202.164062 288.007812 195.753906 288.742188 C 193.394531 289.039062 183.890625 287.640625 184.183594 291.617188 C 184.257812 292.867188 187.792969 295.371094 188.457031 296.328125 C 189.859375 298.09375 190.890625 299.566406 192.585938 301.1875 C 195.53125 303.984375 201.425781 309.507812 201.207031 314.144531 C 199.289062 314.953125 197.523438 314.808594 195.386719 315.027344 C 192.511719 315.324219 189.636719 316.351562 186.761719 316.867188 C 183.300781 317.53125 180.058594 318.710938 176.667969 319.296875 C 170.328125 320.402344 164.359375 319.296875 158.023438 319.003906 C 148.738281 318.636719 139.527344 319.296875 130.390625 317.089844 C 123.390625 315.394531 115.796875 314.4375 108.945312 312.230469 C 103.125 310.316406 98.777344 306.855469 93.617188 303.835938 C 89.933594 301.703125 85.511719 298.683594 81.3125 298.609375 C 78.4375 298.609375 77.480469 299.199219 75.269531 301.261719 C 70.921875 305.308594 66.71875 309.507812 62.371094 313.480469 C 60.234375 315.394531 59.351562 316.867188 56.625 316.867188 C 54.707031 316.867188 52.128906 315.910156 50.289062 315.46875 C 43.65625 313.921875 23.464844 304.351562 31.421875 295.738281 C 35.917969 290.878906 39.824219 285.0625 42.550781 278.953125 C 45.71875 271.8125 48.148438 264.59375 51.835938 257.675781 C 55.445312 250.902344 58.835938 244.203125 64.140625 238.457031 C 66.203125 236.175781 69.300781 232.789062 72.394531 231.980469 C 75.5625 228.8125 80.941406 223.808594 87.722656 221.011719 Z M 305.996094 298.757812 C 308.796875 301.40625 311.667969 303.984375 314.617188 306.488281 C 317.34375 308.695312 331.125 322.757812 331.050781 310.832031 C 334.957031 312.964844 338.34375 315.542969 342.03125 318.121094 C 344.386719 319.738281 348.515625 323.347656 351.535156 323.640625 C 356.105469 324.15625 356.253906 317.382812 356.03125 314.144531 C 355.589844 306.78125 351.90625 300.820312 348.589844 294.414062 C 346.746094 290.953125 344.460938 287.492188 341.292969 285.136719 C 339.746094 283.957031 336.578125 281.011719 334.511719 280.941406 C 330.679688 280.867188 327.882812 286.386719 326.480469 289.039062 C 322.871094 295.589844 319.332031 290.289062 315.722656 286.828125 C 309.164062 280.644531 302.015625 283.515625 300.617188 292.71875 C 302.164062 294.046875 302.898438 295.886719 305.996094 298.757812 Z M 305.996094 298.757812 " fill-opacity="1" fill-rule="nonzero"/><path fill="#f3af93" d="M 346.230469 317.308594 C 343.28125 318.78125 340.777344 316.796875 338.273438 315.175781 C 333.996094 312.523438 329.28125 310.167969 326.554688 305.898438 C 325.082031 303.542969 324.34375 301.40625 324.050781 298.683594 C 323.828125 296.546875 325.597656 293.601562 324.933594 292.941406 C 325.890625 286.535156 334.144531 290.363281 337.167969 292.71875 C 342.621094 296.917969 349.179688 302.804688 349.914062 310.09375 C 350.285156 312.820312 348.808594 315.984375 346.230469 317.308594 Z M 300.246094 292.71875 C 295.753906 298.167969 315.945312 308.917969 316.089844 300.15625 C 316.3125 293.675781 300.246094 286.683594 300.246094 292.71875 Z M 300.246094 292.71875 " fill-opacity="1" fill-rule="nonzero"/><path fill="#a6543b" d="M 48.519531 312.523438 C 46.898438 317.382812 43.730469 321.949219 39.160156 324.746094 C 36.582031 326.292969 33.78125 327.027344 30.90625 327.398438 C 28.105469 327.765625 29.0625 327.691406 27.074219 329.382812 C 24.789062 331.371094 22.0625 332.183594 19.261719 333.140625 C 17.640625 333.730469 17.050781 334.390625 14.988281 334.242188 C 13.441406 334.171875 12.703125 333.285156 11.527344 333.066406 C 6.144531 332.183594 0.472656 334.757812 0.914062 326.808594 C 1.28125 319.445312 5.484375 319.667969 11.230469 317.898438 C 14.621094 316.867188 15.210938 314.734375 16.980469 311.789062 C 19.925781 307.078125 25.527344 300.964844 31.347656 300.375 C 30.832031 306.929688 43.285156 312.304688 48.519531 312.523438 Z M 155.886719 226.457031 C 154.488281 228.886719 152.71875 231.242188 151.316406 233.746094 C 149.84375 236.324219 149.476562 240.152344 147.929688 242.359375 C 146.011719 245.160156 143.800781 242.433594 141 242.800781 C 138.644531 243.097656 135.84375 245.746094 135.03125 248.03125 C 133.558594 252.375 139.230469 248.03125 141.515625 248.546875 C 141.8125 252.59375 132.15625 256.203125 131.640625 260.546875 C 130.980469 266.363281 140.855469 257.527344 142.621094 257.160156 C 141.738281 260.398438 138.347656 263.121094 136.652344 266.066406 C 135.621094 267.910156 135.253906 271.515625 138.570312 269.308594 C 138.570312 272.324219 142.402344 271.148438 143.726562 269.824219 C 148.445312 273.652344 158.835938 259.441406 160.601562 255.90625 C 161.632812 253.847656 162.296875 252.003906 163.476562 250.164062 C 164.65625 248.25 166.570312 246.703125 167.53125 244.644531 C 169.078125 241.183594 169.59375 235.808594 167.53125 232.347656 C 164.507812 227.269531 159.71875 226.753906 155.886719 226.457031 Z M 111.082031 237.648438 C 110.492188 236.175781 109.386719 234.925781 109.460938 233.304688 C 109.535156 231.90625 110.933594 230.65625 110.933594 229.109375 C 110.933594 227.488281 107.101562 218.652344 105.480469 221.746094 C 101.28125 214.53125 91.847656 204.960938 83.226562 205.917969 C 73.5 204.960938 64.878906 216.371094 65.761719 226.164062 C 65.320312 228.886719 65.394531 231.757812 66.277344 234.703125 C 68.488281 241.992188 74.089844 247.734375 77.773438 254.214844 C 82.5625 262.679688 93.324219 267.464844 102.3125 261.871094 C 110.273438 257.085938 114.691406 246.558594 111.082031 237.648438 Z M 228.765625 229.328125 C 228.105469 236.027344 222.945312 242.582031 220.367188 248.839844 C 217.859375 254.878906 216.683594 261.503906 214.765625 267.761719 C 213.144531 272.988281 212.628906 278.4375 211.007812 283.664062 C 209.679688 287.933594 208.5 292.351562 208.058594 296.769531 C 207.46875 302.289062 205.921875 308.917969 208.574219 314.144531 C 210.859375 318.636719 215.355469 321.066406 219.628906 323.496094 C 225.964844 327.175781 232.378906 323.421875 238.789062 321.652344 C 238.496094 335.863281 263.328125 329.828125 271.359375 327.691406 C 284.699219 324.15625 297.816406 320.253906 310.785156 315.46875 C 317.785156 312.894531 323.605469 310.464844 330.976562 309.875 C 335.25 309.507812 336.136719 306.636719 335.472656 301.996094 C 335.03125 298.609375 332.746094 293.089844 328.914062 292.132812 C 324.195312 290.953125 317.859375 293.824219 313.734375 295.738281 C 311.523438 296.769531 310.710938 297.210938 308.796875 296.476562 C 307.394531 295.886719 305.183594 294.117188 303.933594 293.234375 C 300.246094 290.660156 299.363281 291.171875 294.792969 292.058594 C 288.53125 293.308594 281.824219 292.644531 275.855469 293.824219 C 275.5625 292.425781 276.148438 291.46875 276.667969 290.214844 C 278.140625 286.167969 280.277344 281.972656 282.046875 278.070312 C 285.066406 271.296875 289.78125 265.183594 291.773438 257.96875 C 293.171875 252.816406 295.753906 248.03125 295.164062 242.507812 C 294.351562 235.070312 291.476562 226.605469 289.339844 219.539062 C 287.128906 212.320312 280.71875 213.648438 274.234375 213.941406 C 264.875 214.382812 254.117188 213.867188 245.347656 217.769531 C 239.820312 220.199219 236.136719 224.542969 231.199219 227.5625 C 229.726562 228.445312 227.292969 228.667969 228.765625 229.328125 Z M 228.765625 229.328125 " fill-opacity="1" fill-rule="nonzero"/><path fill="#f3af93" d="M 209.164062 201.277344 C 211.890625 201.71875 215.503906 202.015625 218.15625 203.046875 C 220.585938 204.003906 220.511719 203.707031 219.1875 206.0625 C 217.34375 209.15625 213.292969 212.175781 210.785156 214.75 C 206.585938 219.09375 201.648438 223.441406 196.785156 226.972656 C 193.246094 229.550781 189.046875 231.980469 187.277344 235.660156 C 185.804688 238.605469 185.066406 241.476562 182.046875 243.390625 C 178.804688 245.453125 175.121094 244.496094 171.582031 245.746094 C 169.296875 246.484375 166.128906 249.429688 164.066406 249.722656 C 155.960938 250.902344 168.339844 241.332031 168.339844 241.183594 C 165.464844 240.445312 160.898438 240.59375 157.875 241.109375 C 154.117188 241.699219 151.097656 244.863281 147.191406 243.097656 C 146.894531 241.476562 153.824219 236.914062 155.445312 236.027344 C 158.6875 234.335938 162.296875 234.558594 165.761719 233.96875 C 170.035156 233.230469 174.457031 232.054688 177.992188 229.476562 C 181.972656 226.457031 184.847656 222.628906 187.867188 218.582031 C 192.070312 212.910156 199.144531 205.035156 199.953125 197.816406 C 201.5 200.835938 206.953125 200.910156 209.164062 201.277344 Z M 209.164062 201.277344 " fill-opacity="1" fill-rule="nonzero"/><path fill="#981d13" d="M 295.308594 230.726562 C 294.058594 227.855469 289.636719 222.410156 286.46875 221.378906 C 284.847656 224.617188 288.679688 229.550781 288.308594 233.085938 C 287.941406 236.25 286.246094 234.484375 283.445312 234.261719 C 275.632812 233.601562 268.558594 238.605469 260.601562 237.648438 C 254.335938 236.914062 247.410156 236.027344 241.367188 234.113281 C 238.273438 233.085938 236.136719 232.9375 232.894531 233.085938 C 231.199219 233.15625 227.808594 233.820312 227.144531 232.054688 C 226.851562 231.242188 228.175781 228.8125 228.324219 227.855469 C 228.546875 226.015625 228.398438 224.175781 227.734375 222.480469 C 226.410156 219.09375 224.34375 215.414062 222.207031 212.542969 C 220.882812 210.777344 218.964844 207.09375 217.125 205.917969 C 215.648438 204.960938 214.324219 205.402344 212.554688 205.476562 C 204.816406 205.917969 197.890625 202.164062 196.492188 194.429688 C 195.605469 189.425781 195.457031 183.683594 192.660156 179.414062 C 189.933594 175.289062 184.550781 170.796875 184.699219 165.421875 C 184.773438 162.699219 185.4375 159.828125 185.65625 157.105469 C 186.027344 153.277344 185.066406 150.699219 185.730469 147.605469 C 185.65625 151.214844 194.574219 180.882812 203.785156 178.382812 C 213.070312 175.878906 210.785156 136.710938 210.195312 133.542969 C 209.902344 132.070312 210.125 129.789062 210.34375 127.800781 C 213.585938 126.402344 216.535156 124.269531 219.851562 122.941406 C 223.460938 121.542969 227.144531 120.660156 230.832031 119.703125 C 233.558594 118.964844 238.199219 118.597656 240.703125 120.21875 C 242.179688 121.175781 242.179688 122.058594 242.769531 123.753906 C 243.800781 126.917969 245.347656 129.640625 247.117188 132.441406 C 250.726562 138.328125 252.347656 145.25 254.925781 151.582031 C 257.0625 156.882812 257.433594 162.109375 258.90625 167.484375 C 262.664062 181.179688 271.214844 190.898438 281.160156 200.542969 C 284.328125 203.632812 287.277344 206.949219 290.519531 210.039062 C 293.542969 212.910156 296.859375 215.78125 298.109375 219.90625 C 299.585938 224.765625 296.785156 226.53125 295.308594 230.726562 Z M 295.308594 230.726562 " fill-opacity="1" fill-rule="nonzero"/><path fill="#f3af93" d="M 241 119.261719 C 246.304688 117.421875 251.539062 115.507812 257.136719 114.179688 C 260.75 113.296875 261.855469 113.152344 263.328125 109.835938 C 264.800781 106.597656 266.644531 104.757812 269.296875 102.253906 C 272.980469 98.71875 276.59375 95.039062 280.128906 91.503906 C 282.265625 89.371094 285.730469 85.6875 286.394531 82.671875 C 286.761719 80.902344 285.433594 78.914062 284.476562 77.222656 C 282.929688 74.351562 282.265625 71.921875 281.824219 68.460938 C 281.601562 66.546875 277.550781 56.460938 282.929688 59.699219 C 283.222656 56.089844 281.308594 44.605469 284.917969 43.058594 C 284.917969 41.074219 285.066406 39.304688 287.128906 39.085938 C 289.265625 38.863281 289.339844 40.558594 290.59375 41.367188 C 291.992188 42.324219 293.542969 42.03125 294.351562 44.089844 C 294.71875 44.972656 294.058594 46.300781 294.5 47.109375 C 294.792969 47.699219 295.53125 47.625 295.824219 48.214844 C 297.816406 52.335938 296.414062 58.007812 298.40625 62.792969 C 300.46875 67.796875 302.753906 73.613281 301.058594 78.914062 C 299.730469 83.039062 297.152344 87.234375 295.164062 91.136719 C 293.097656 95.113281 292.140625 99.457031 289.929688 103.433594 C 287.792969 107.1875 286.394531 111.308594 284.328125 115.136719 C 281.53125 120.292969 277.625 125.738281 272.980469 129.273438 C 265.464844 135.089844 255.664062 137.59375 247.410156 142.011719 C 244.980469 143.335938 240.117188 145.691406 237.535156 144.660156 C 230.683594 141.863281 232.523438 121.027344 235.324219 122.132812 C 234.808594 120.734375 239.527344 119.777344 241 119.261719 Z M 203.710938 179.117188 C 212.996094 176.613281 213.144531 136.414062 212.554688 133.25 C 212.261719 131.777344 212.113281 127.140625 211.300781 127.433594 C 211.226562 127.507812 210.125 127.875 209.976562 127.949219 C 208.722656 128.464844 207.46875 128.613281 206.734375 128.613281 C 205.1875 128.316406 204.890625 126.476562 204.226562 123.382812 C 203.566406 120.660156 203.636719 118.082031 202.238281 115.507812 C 200.027344 111.382812 196.859375 108.878906 193.835938 105.417969 C 192.214844 103.578125 191.554688 101.519531 189.121094 100.632812 C 186.46875 99.605469 183.152344 97.6875 180.277344 97.984375 C 175.265625 98.574219 170.625 103.136719 168.5625 107.554688 C 166.792969 111.457031 165.613281 115.578125 164.730469 119.777344 C 163.699219 124.855469 161.5625 130.746094 164.066406 135.753906 C 166.054688 139.65625 167.308594 142.453125 171.507812 144.292969 C 173.644531 145.25 180.792969 145.988281 181.898438 147.164062 C 182.195312 146.207031 184.109375 146.871094 185.4375 147.605469 C 185.140625 152.023438 194.425781 181.621094 203.710938 179.117188 Z M 203.710938 179.117188 " fill-opacity="1" fill-rule="nonzero"/><path fill="#a6543b" d="M 184.550781 101.589844 C 178.953125 101.664062 174.972656 107.921875 173.574219 112.855469 C 172.246094 117.273438 172.171875 121.984375 172.613281 126.550781 C 172.835938 128.683594 173.054688 131.484375 172.539062 133.472656 C 170.773438 133.542969 168.5625 130.527344 166.351562 131.703125 C 164.507812 132.734375 166.351562 135.238281 167.382812 136.34375 C 168.929688 137.960938 170.917969 139.140625 172.761719 140.246094 C 174.605469 141.347656 175.121094 141.273438 176.960938 140.464844 C 178.289062 142.230469 181.382812 142.527344 182.5625 144.21875 C 184.625 147.164062 178.4375 151.949219 176.003906 152.761719 C 170.402344 154.601562 164.433594 153.054688 158.761719 152.390625 C 157.214844 152.246094 155.445312 151.949219 155.222656 150.625 C 155.074219 149.445312 156.476562 147.164062 156.550781 145.765625 C 156.625 142.96875 155.519531 139.949219 155.003906 137.152344 C 153.96875 131.628906 152.421875 126.035156 152.421875 120.4375 C 152.347656 111.015625 154.707031 102.179688 162.886719 96.660156 C 167.824219 93.34375 172.984375 93.273438 178.582031 92.832031 C 179.984375 92.683594 181.972656 92.167969 183.59375 92.242188 C 185.289062 92.316406 186.617188 93.273438 188.015625 94.15625 C 190.890625 95.996094 192.878906 98.574219 194.28125 101.664062 C 195.679688 104.832031 198.039062 106.671875 200.175781 109.320312 C 203.046875 112.929688 203.492188 114.402344 203.417969 119.480469 C 201.871094 112.488281 196.046875 112.414062 193.027344 107.847656 C 190.742188 104.242188 188.898438 100.632812 184.550781 101.589844 Z M 207.691406 137.59375 C 207.914062 139.433594 207.765625 141.203125 207.617188 143.042969 C 207.46875 145.03125 207.617188 148.636719 205.847656 150.035156 C 204.082031 151.433594 201.28125 150.847656 199.21875 150.332031 C 197.742188 150.332031 196.34375 150.183594 194.941406 149.960938 C 193.027344 149.667969 190.742188 149.300781 189.121094 148.121094 C 188.753906 148.195312 188.382812 148.269531 188.089844 148.34375 C 187.648438 148.488281 187.425781 147.753906 187.867188 147.605469 C 188.164062 147.53125 188.382812 147.460938 188.679688 147.386719 C 188.679688 147.238281 188.753906 147.089844 188.898438 147.015625 C 186.46875 146.429688 183.152344 146.722656 182.339844 144.144531 C 182.269531 143.777344 182.785156 143.632812 182.929688 144 C 184.035156 146.722656 188.53125 145.546875 190.667969 147.019531 C 190.964844 147.019531 191.257812 147.089844 191.554688 147.164062 C 193.765625 147.164062 196.121094 147.460938 198.332031 147.3125 C 199.21875 147.089844 200.175781 146.871094 201.058594 146.796875 C 201.574219 146.648438 202.089844 146.429688 202.605469 146.132812 C 203.195312 145.765625 203.636719 145.398438 204.082031 144.957031 C 204.449219 143.484375 204.816406 142.011719 205.628906 140.6875 C 205.777344 140.539062 205.921875 140.390625 206.144531 140.464844 C 206.511719 137.886719 206.21875 134.941406 206.070312 132.367188 C 206.070312 132.070312 205.996094 131.703125 205.996094 131.410156 C 205.996094 131.042969 205.996094 130.671875 205.996094 130.378906 C 205.996094 129.789062 206.878906 129.714844 206.878906 130.304688 C 206.878906 132.660156 207.46875 135.089844 207.691406 137.59375 Z M 194.941406 148.859375 C 193.617188 148.417969 192.289062 148.046875 190.964844 147.902344 C 192.140625 148.488281 193.617188 148.710938 194.941406 148.859375 Z M 196.269531 147.976562 C 195.753906 147.976562 195.3125 147.902344 194.796875 147.902344 C 195.164062 148.046875 195.605469 148.121094 195.972656 148.269531 C 195.972656 148.195312 196.046875 148.046875 196.195312 147.976562 C 196.269531 147.976562 196.269531 147.976562 196.269531 147.976562 Z M 203.121094 146.648438 C 203.269531 146.796875 203.34375 147.019531 203.269531 147.164062 C 203.269531 147.238281 203.34375 147.386719 203.269531 147.53125 C 203.417969 147.386719 203.636719 147.238281 203.785156 147.019531 C 203.785156 147.019531 203.859375 146.945312 203.859375 146.945312 C 203.710938 146.796875 203.636719 146.648438 203.710938 146.503906 C 203.710938 146.429688 203.785156 146.28125 203.785156 146.207031 C 203.785156 146.207031 203.710938 146.28125 203.710938 146.28125 C 203.566406 146.429688 203.34375 146.503906 203.121094 146.648438 Z M 206.808594 141.347656 C 206.734375 141.644531 206.660156 142.011719 206.511719 142.304688 C 206.4375 144.441406 205.773438 146.429688 205.039062 148.417969 C 204.964844 148.636719 204.671875 148.710938 204.523438 148.636719 C 204.375 148.933594 204.226562 149.226562 204.152344 149.519531 C 203.933594 150.109375 203.121094 149.816406 203.269531 149.226562 C 203.269531 149.078125 203.34375 148.933594 203.34375 148.785156 C 203.121094 149.003906 202.902344 149.152344 202.679688 149.375 C 202.828125 149.59375 202.753906 149.816406 202.605469 149.960938 C 203.269531 149.960938 203.933594 149.890625 204.449219 149.667969 C 206.878906 148.859375 206.585938 144.21875 206.734375 142.160156 C 206.808594 141.863281 206.808594 141.570312 206.808594 141.347656 Z M 185.289062 121.101562 C 181.605469 121.027344 177.40625 122.28125 176.300781 125.960938 C 176.078125 126.402344 175.855469 126.84375 175.710938 127.359375 C 175.5625 127.800781 176.003906 128.023438 176.371094 127.875 C 176.59375 127.949219 176.816406 127.800781 176.886719 127.507812 C 176.886719 127.210938 176.960938 126.917969 176.960938 126.625 C 178.4375 123.53125 181.824219 121.910156 185.214844 121.910156 C 185.804688 121.910156 185.804688 121.101562 185.289062 121.101562 Z M 190.300781 118.671875 C 190.226562 118.453125 190.375 118.230469 190.59375 118.15625 C 190.519531 118.082031 190.519531 117.9375 190.59375 117.789062 C 191.257812 114.476562 196.5625 110.5 199.804688 112.5625 C 200.101562 112.707031 200.027344 113.152344 199.734375 113.296875 C 198.40625 113.8125 197.007812 114.035156 195.679688 114.402344 C 193.617188 114.917969 192.289062 116.09375 191.480469 118.082031 C 191.480469 118.082031 191.480469 118.15625 191.480469 118.15625 C 191.480469 118.15625 191.480469 118.230469 191.480469 118.230469 C 191.480469 118.230469 191.40625 118.304688 191.40625 118.304688 C 191.40625 118.304688 191.332031 118.304688 191.332031 118.378906 C 191.332031 118.378906 191.257812 118.378906 191.257812 118.378906 C 191.257812 118.378906 191.257812 118.378906 191.183594 118.378906 C 191.183594 118.378906 191.183594 118.453125 191.183594 118.453125 C 192.140625 122.574219 197.449219 122.941406 198.628906 126.917969 C 199.804688 130.671875 195.53125 131.925781 192.660156 131.777344 C 192.214844 131.777344 192.070312 131.1875 192.363281 130.894531 C 194.132812 129.570312 196.195312 128.683594 197.742188 127.140625 C 197.375 125.886719 196.195312 124.855469 195.164062 124.121094 C 193.027344 122.574219 190.964844 121.324219 190.300781 118.671875 Z M 196.34375 129.347656 C 195.679688 129.789062 194.941406 130.230469 194.28125 130.671875 C 194.722656 130.597656 195.164062 130.527344 195.605469 130.453125 C 195.457031 130.230469 195.457031 129.9375 195.679688 129.789062 C 195.753906 129.789062 195.753906 129.714844 195.828125 129.714844 C 195.972656 129.640625 196.121094 129.570312 196.269531 129.496094 C 196.269531 129.496094 196.269531 129.421875 196.34375 129.347656 Z M 195.015625 113.664062 C 196.121094 113.371094 197.226562 113.152344 198.257812 112.855469 C 197.226562 112.707031 196.046875 113.078125 195.015625 113.664062 Z M 200.984375 133.324219 C 201.207031 133.324219 201.355469 133.472656 201.355469 133.617188 C 201.796875 136.046875 199.953125 138.109375 197.964844 139.140625 C 196.34375 139.949219 193.320312 140.539062 192.730469 138.183594 C 192.585938 137.742188 193.246094 137.519531 193.46875 137.886719 C 195.238281 135.753906 197.964844 133.25 200.984375 133.324219 Z M 193.984375 138.328125 C 193.910156 138.402344 193.835938 138.476562 193.765625 138.476562 C 194.574219 139.582031 196.492188 139.066406 197.523438 138.476562 C 199.21875 137.667969 200.765625 136.046875 200.691406 134.132812 C 197.964844 134.207031 195.605469 136.34375 193.984375 138.328125 Z M 183.445312 126.253906 C 183.375 126.625 183.375 126.917969 183.59375 127.210938 C 183.816406 127.433594 184.109375 127.582031 184.480469 127.582031 C 184.550781 127.582031 184.550781 127.65625 184.625 127.65625 C 184.699219 127.65625 184.699219 127.65625 184.699219 127.65625 C 184.921875 127.726562 185.140625 127.65625 185.363281 127.507812 C 185.4375 127.433594 185.511719 127.433594 185.511719 127.359375 C 185.730469 127.285156 185.878906 127.140625 186.027344 127.066406 C 186.394531 126.769531 186.46875 126.402344 186.320312 126.109375 C 186.542969 126.035156 186.6875 125.667969 186.46875 125.445312 C 186.46875 125.445312 186.394531 125.371094 186.394531 125.371094 C 185.953125 124.929688 185.214844 124.488281 184.480469 124.488281 C 181.457031 123.972656 178.289062 127.210938 178.65625 130.453125 C 178.65625 130.746094 179.171875 130.671875 179.097656 130.378906 C 178.953125 128.097656 181.015625 125.519531 183.226562 125.226562 C 183.375 125.519531 183.375 125.886719 183.445312 126.253906 Z M 198.332031 116.390625 C 196.417969 116.390625 194.425781 117.789062 194.425781 119.777344 C 194.425781 120.292969 195.238281 120.21875 195.238281 119.703125 C 195.238281 118.453125 196.417969 117.566406 197.667969 117.273438 C 197.449219 117.789062 197.300781 118.378906 197.667969 118.671875 C 197.59375 118.894531 197.742188 119.113281 197.964844 119.1875 C 199.289062 119.480469 200.175781 118.894531 200.027344 117.566406 C 200.25 117.496094 200.394531 117.199219 200.175781 116.980469 C 199.734375 116.316406 198.996094 115.800781 198.332031 116.390625 Z M 164.949219 245.675781 C 165.6875 247.367188 164.359375 249.722656 162.371094 248.839844 C 162.222656 248.765625 162.148438 248.617188 162.148438 248.472656 C 161.855469 248.765625 161.414062 248.398438 161.632812 248.03125 C 162.296875 246.925781 163.253906 245.96875 164.507812 245.527344 C 164.582031 245.453125 164.804688 245.527344 164.949219 245.675781 Z M 164.359375 246.335938 C 163.550781 246.777344 162.960938 247.441406 162.371094 248.175781 C 162.445312 248.175781 162.519531 248.175781 162.59375 248.175781 C 163.84375 248.691406 164.582031 247.441406 164.359375 246.335938 Z M 150.210938 239.488281 C 150.066406 240.003906 149.992188 240.59375 149.695312 241.035156 C 149.402344 241.550781 149.105469 241.625 148.664062 241.257812 C 148.296875 240.960938 147.855469 241.625 148.296875 241.917969 C 149.917969 243.097656 150.800781 240.816406 150.949219 239.488281 C 150.949219 239.195312 150.359375 239.121094 150.210938 239.488281 Z M 262.886719 111.015625 C 262.371094 113.152344 261.707031 115.210938 261.339844 117.347656 C 261.042969 119.1875 260.675781 121.46875 261.632812 123.089844 C 261.855469 123.53125 262.445312 123.238281 262.296875 122.796875 C 260.96875 119.113281 262.589844 114.769531 263.476562 111.164062 C 263.550781 110.792969 262.960938 110.648438 262.886719 111.015625 Z M 294.648438 74.792969 C 294.792969 75.085938 295.382812 74.941406 295.234375 74.570312 C 294.132812 71.699219 293.542969 68.535156 290.742188 66.914062 C 289.265625 66.03125 287.203125 65.808594 286.023438 64.484375 C 284.917969 63.234375 285.066406 61.171875 283.519531 60.363281 C 283.152344 60.140625 282.78125 60.730469 283.152344 60.949219 C 284.183594 61.539062 284.257812 63.085938 284.773438 64.042969 C 285.066406 64.632812 285.507812 65.148438 286.023438 65.515625 C 286.910156 66.25 288.089844 66.472656 289.121094 66.914062 C 290.886719 67.652344 292.140625 68.679688 292.878906 70.449219 C 293.542969 71.921875 293.910156 73.394531 294.648438 74.792969 Z M 296.488281 84.730469 C 295.972656 84.65625 295.382812 84.730469 294.867188 84.65625 C 294.203125 84.585938 293.542969 84.363281 292.953125 84.140625 C 292.582031 83.996094 292.363281 84.585938 292.730469 84.730469 C 293.835938 85.246094 295.308594 85.613281 296.488281 85.320312 C 296.710938 85.171875 296.785156 84.804688 296.488281 84.730469 Z M 297.152344 61.761719 C 296.488281 61.539062 295.898438 61.464844 295.234375 61.394531 C 293.394531 55.648438 294.941406 49.613281 294.648438 43.722656 C 294.648438 43.429688 294.132812 43.355469 294.132812 43.722656 C 294.425781 49.613281 292.878906 55.648438 294.574219 61.394531 C 293.984375 61.394531 293.320312 61.394531 292.730469 61.464844 C 291.992188 60.804688 291.773438 58.300781 291.625 57.710938 C 291.257812 55.429688 290.960938 53.148438 290.667969 50.863281 C 290.300781 47.402344 290.152344 43.871094 289.5625 40.410156 C 289.488281 40.042969 288.898438 40.117188 288.972656 40.484375 C 289.339844 42.542969 290.152344 58.519531 292.140625 61.539062 C 291.183594 61.6875 290.300781 61.90625 289.414062 62.128906 C 289.636719 62.054688 289.710938 61.835938 289.5625 61.6875 C 285.507812 56.605469 287.71875 49.539062 285.730469 43.648438 C 285.582031 43.28125 284.992188 43.429688 285.140625 43.796875 C 287.054688 49.613281 284.699219 57.046875 289.046875 61.980469 C 289.121094 62.054688 289.265625 62.128906 289.339844 62.054688 C 288.972656 62.128906 288.605469 62.203125 288.234375 62.351562 C 287.867188 62.421875 288.015625 63.160156 288.382812 63.011719 C 290.445312 62.570312 292.65625 61.980469 294.792969 62.054688 C 294.867188 62.203125 294.867188 62.351562 294.941406 62.421875 C 295.089844 62.792969 295.679688 62.570312 295.53125 62.203125 C 295.53125 62.203125 295.53125 62.128906 295.53125 62.128906 C 295.972656 62.203125 296.488281 62.277344 296.929688 62.421875 C 297.375 62.644531 297.59375 61.90625 297.152344 61.761719 Z M 173.644531 137.519531 C 172.761719 137.742188 172.097656 137.078125 172.6875 136.269531 C 172.835938 136.121094 172.835938 135.898438 172.613281 135.679688 C 171.65625 134.796875 170.476562 134.207031 169.519531 133.398438 C 169.152344 133.101562 168.636719 133.691406 169.003906 133.984375 C 169.886719 134.722656 170.917969 135.3125 171.878906 136.121094 C 171.65625 136.636719 171.582031 137.226562 171.953125 137.742188 C 172.394531 138.402344 173.277344 138.550781 173.941406 138.183594 C 174.308594 137.886719 174.015625 137.445312 173.644531 137.519531 Z M 173.644531 137.519531 " fill-opacity="1" fill-rule="nonzero"/><path fill="#0b0a06" d="M 241.222656 256.71875 C 238.789062 254.289062 236.871094 251.195312 235.621094 248.03125 C 235.472656 247.734375 235.988281 247.515625 236.136719 247.808594 C 237.460938 250.902344 239.304688 253.917969 241.738281 256.347656 C 243.429688 257.96875 246.453125 258.925781 247.410156 261.207031 C 247.484375 261.429688 247.191406 261.722656 247.042969 261.429688 C 245.570312 259.367188 242.988281 258.484375 241.222656 256.71875 Z M 238.640625 262.164062 C 238.199219 262.019531 237.976562 262.679688 238.421875 262.828125 C 240.484375 263.492188 242.324219 264.667969 244.535156 264.59375 C 244.90625 264.59375 244.90625 263.933594 244.535156 263.933594 C 242.398438 263.785156 240.632812 262.753906 238.640625 262.164062 Z M 327.808594 293.382812 C 327.511719 293.089844 327.144531 293.53125 327.4375 293.824219 C 329.355469 295.664062 330.679688 297.800781 331.492188 300.304688 C 332.230469 302.4375 332.449219 304.71875 333.40625 306.78125 C 333.480469 307.003906 333.851562 306.855469 333.777344 306.636719 C 333.039062 301.847656 331.417969 296.769531 327.808594 293.382812 Z M 328.324219 300.15625 C 318.671875 302.734375 309.089844 305.457031 299.363281 307.738281 C 290.667969 309.800781 281.75 311.863281 272.835938 312.449219 C 272.023438 314.734375 270.402344 316.792969 268.78125 317.457031 C 268.558594 317.53125 268.339844 317.382812 268.265625 317.238281 C 267.308594 315.027344 267.898438 312.523438 268.632812 310.167969 C 267.234375 312.449219 265.390625 314.734375 262.8125 315.101562 C 262.515625 315.175781 262.222656 314.808594 262.445312 314.511719 C 263.328125 313.410156 264.433594 312.378906 265.539062 311.347656 C 265.464844 310.609375 265.761719 309.359375 265.761719 309.0625 C 266.203125 306.265625 266.644531 303.46875 267.675781 300.746094 C 268.855469 297.726562 270.625 294.929688 272.246094 292.128906 C 274.085938 288.890625 275.632812 285.503906 277.109375 282.117188 C 283.003906 268.867188 287.5 254.804688 287.644531 240.152344 C 287.644531 239.929688 288.015625 239.929688 288.015625 240.152344 C 288.015625 253.035156 284.476562 265.625 279.613281 277.480469 C 277.253906 283.371094 274.601562 289.113281 271.433594 294.632812 C 269.589844 297.875 267.96875 301.039062 267.160156 304.71875 C 266.863281 306.121094 266.644531 307.59375 266.421875 309.0625 C 266.347656 309.433594 266.347656 310.167969 266.203125 310.683594 C 267.085938 309.875 268.042969 309.0625 268.78125 308.179688 C 269.074219 307.738281 269.296875 307.222656 269.519531 306.78125 C 269.59375 306.5625 269.8125 306.5625 270.035156 306.636719 C 270.550781 305.898438 270.917969 305.164062 271.214844 304.351562 C 271.285156 304.207031 271.507812 304.132812 271.65625 304.277344 C 271.949219 303.542969 272.246094 302.878906 272.390625 302.511719 C 272.464844 302.289062 272.539062 301.996094 272.6875 301.777344 C 272.6875 301.703125 272.6875 301.628906 272.761719 301.554688 C 273.792969 298.902344 275.191406 296.179688 275.632812 293.457031 C 275.707031 293.015625 276.371094 293.089844 276.296875 293.457031 C 276.003906 295.515625 274.972656 297.578125 274.234375 299.566406 C 274.011719 300.15625 273.792969 300.746094 273.570312 301.332031 C 276.445312 300.746094 279.023438 299.273438 281.972656 298.757812 C 285.289062 298.242188 288.605469 298.316406 291.921875 298.019531 C 298.480469 297.359375 304.816406 296.621094 311.375 297.578125 C 311.890625 297.652344 311.667969 298.390625 311.226562 298.316406 C 304.300781 297.359375 297.742188 298.390625 290.886719 298.902344 C 287.351562 299.199219 283.667969 298.976562 280.277344 299.933594 C 277.917969 300.597656 275.707031 301.703125 273.277344 302.144531 C 272.835938 303.320312 272.390625 304.574219 272.023438 305.824219 C 272.023438 305.898438 271.949219 305.972656 271.949219 306.046875 C 272.023438 306.046875 272.171875 306.046875 272.246094 306.121094 C 273.496094 307.445312 273.570312 309.652344 272.90625 311.789062 C 291.699219 309.726562 309.828125 304.351562 328.101562 299.492188 C 328.542969 299.417969 328.691406 300.007812 328.324219 300.15625 Z M 267.382812 310.609375 C 267.085938 310.90625 266.71875 311.199219 266.421875 311.492188 C 266.421875 311.566406 266.347656 311.640625 266.277344 311.640625 C 266.203125 311.640625 266.203125 311.714844 266.128906 311.714844 C 265.316406 312.449219 264.507812 313.1875 263.84375 313.921875 C 265.316406 313.335938 266.421875 312.007812 267.382812 310.609375 Z M 271.800781 306.5625 C 271.730469 306.78125 271.730469 306.929688 271.65625 307.148438 C 271.65625 307.148438 271.730469 307.148438 271.730469 307.148438 C 272.246094 307.148438 272.171875 307.886719 271.730469 307.886719 C 271.730469 307.886719 271.730469 307.960938 271.730469 307.960938 C 271.875 308.253906 271.433594 308.550781 271.214844 308.328125 C 270.769531 307.960938 270.769531 307.222656 270.992188 306.339844 C 270.695312 306.78125 270.402344 307.222656 270.109375 307.664062 C 269.371094 310.390625 267.898438 313.703125 268.855469 316.425781 C 270.253906 315.691406 271.285156 314.144531 271.875 312.378906 C 271.582031 312.378906 271.214844 312.449219 270.917969 312.449219 C 270.550781 312.449219 270.476562 311.9375 270.84375 311.9375 C 271.214844 311.9375 271.65625 311.863281 272.097656 311.789062 C 272.613281 310.023438 272.539062 308.035156 271.800781 306.5625 Z M 265.832031 255.320312 C 266.203125 255.320312 266.203125 254.804688 265.832031 254.730469 C 263.179688 254.140625 260.160156 256.496094 257.949219 257.675781 C 255 259.222656 252.054688 260.765625 249.402344 262.753906 C 249.84375 261.652344 250.285156 260.621094 250.726562 259.515625 C 250.949219 259.441406 251.023438 259.222656 250.949219 259 C 251.757812 257.160156 252.496094 255.320312 253.304688 253.476562 C 253.378906 253.257812 253.304688 252.890625 253.011719 252.890625 C 252.863281 252.890625 252.789062 252.890625 252.644531 252.816406 C 252.496094 252.816406 252.273438 252.890625 252.199219 253.035156 C 252.128906 253.109375 252.128906 253.183594 252.054688 253.332031 C 251.90625 253.550781 251.980469 253.773438 252.199219 253.917969 C 250.800781 257.234375 249.402344 260.546875 248.074219 263.859375 C 248 263.933594 247.925781 264.007812 247.851562 264.078125 C 247.707031 264.226562 247.777344 264.375 247.851562 264.449219 C 246.96875 266.730469 246.085938 268.9375 245.347656 271.296875 C 243.359375 277.183594 242.398438 283.222656 241.292969 289.332031 C 240.1875 295.371094 239.378906 301.40625 238.640625 307.445312 C 238.125 311.640625 237.167969 316.574219 239.082031 320.550781 C 239.230469 320.917969 239.820312 320.550781 239.671875 320.179688 C 237.535156 315.835938 239.082031 310.316406 239.597656 305.75 C 240.261719 299.789062 241.367188 293.898438 242.398438 288.007812 C 243.503906 281.96875 244.535156 276.082031 246.601562 270.265625 C 247.335938 268.128906 248.148438 266.066406 248.957031 264.007812 C 251.757812 262.019531 254.558594 260.324219 257.582031 258.707031 C 260.234375 257.304688 262.886719 255.246094 265.832031 255.320312 Z M 249.472656 142.160156 C 249.695312 141.789062 249.179688 141.347656 248.957031 141.714844 C 244.683594 147.902344 232.894531 150.257812 229.136719 142.527344 C 226.1875 136.34375 226.628906 125.960938 231.9375 121.101562 C 232.230469 120.808594 231.789062 120.367188 231.492188 120.660156 C 228.546875 123.3125 227.292969 127.507812 226.925781 131.335938 C 226.484375 135.457031 226.925781 140.097656 229.0625 143.703125 C 233.335938 151.066406 245.199219 148.269531 249.472656 142.160156 Z M 213.585938 135.828125 C 215.132812 140.390625 213.660156 145.617188 213.367188 150.257812 C 212.996094 155.925781 212.921875 161.523438 212.332031 167.191406 C 211.890625 171.386719 210.710938 176.6875 206.878906 179.117188 C 201.425781 182.578125 196.859375 177.71875 193.691406 173.742188 C 189.785156 168.808594 188.898438 162.550781 186.835938 156.734375 C 186.6875 156.367188 186.101562 156.515625 186.246094 156.882812 C 188.164062 162.257812 188.972656 168.148438 192.289062 172.933594 C 194.648438 176.394531 198.332031 181.03125 202.976562 180.957031 C 207.542969 180.882812 210.417969 176.835938 211.671875 172.859375 C 212.332031 170.796875 212.703125 168.589844 212.851562 166.453125 C 213.144531 162.847656 213.511719 159.238281 213.660156 155.632812 C 213.808594 151.875 214.027344 148.269531 214.472656 144.589844 C 214.765625 141.644531 215.058594 138.550781 214.101562 135.679688 C 214.027344 135.238281 213.4375 135.457031 213.585938 135.828125 Z M 249.769531 186.847656 C 249.84375 186.554688 249.472656 186.40625 249.328125 186.628906 C 246.527344 192.148438 242.472656 195.976562 236.652344 198.40625 C 231.566406 200.542969 225.894531 201.425781 220.441406 201.277344 C 219.996094 201.277344 220.070312 201.941406 220.441406 201.941406 C 226.628906 202.160156 232.894531 201.058594 238.496094 198.332031 C 243.285156 196.050781 248.222656 192.148438 249.769531 186.847656 Z M 276.003906 221.96875 C 275.78125 222.1875 276.222656 222.554688 276.445312 222.261719 C 278.359375 220.273438 280.867188 218.507812 282.046875 215.929688 C 282.121094 215.707031 281.824219 215.488281 281.675781 215.707031 C 280.128906 218.136719 277.992188 219.90625 276.003906 221.96875 Z M 272.613281 216.371094 C 274.898438 214.015625 277.625 212.027344 279.6875 209.523438 C 279.910156 209.230469 279.539062 208.933594 279.320312 209.15625 C 277.035156 211.511719 274.457031 213.648438 272.171875 215.929688 C 271.875 216.222656 272.316406 216.59375 272.613281 216.371094 Z M 22.0625 324.820312 C 21.621094 325.1875 19.707031 326.21875 17.714844 327.617188 C 17.640625 326.953125 17.496094 326.292969 17.421875 325.703125 C 17.347656 324.894531 17.347656 324.082031 17.199219 323.273438 C 17.125 322.90625 16.609375 323.054688 16.609375 323.421875 C 16.757812 324.378906 16.757812 325.335938 16.832031 326.292969 C 16.90625 326.808594 16.90625 327.46875 17.199219 327.984375 C 15.429688 329.238281 13.738281 330.636719 13.074219 331.8125 C 12.484375 330.5625 12.1875 329.164062 11.894531 327.914062 C 11.527344 326.070312 11.15625 324.011719 11.453125 322.167969 C 11.527344 321.949219 11.082031 321.875 11.011719 322.097656 C 10.496094 324.15625 11.011719 326.585938 11.453125 328.722656 C 11.746094 329.972656 12.117188 331.519531 12.777344 332.769531 C 12.777344 333.214844 13.074219 333.65625 13.664062 333.949219 C 13.738281 334.023438 13.738281 334.023438 13.808594 334.023438 C 13.882812 334.023438 13.957031 334.097656 14.03125 334.097656 C 14.398438 334.242188 14.769531 333.65625 14.398438 333.433594 C 12.1875 332.109375 15.949219 329.679688 17.050781 328.871094 C 18.820312 327.617188 20.664062 326.660156 22.359375 325.335938 C 22.800781 325.039062 22.433594 324.527344 22.0625 324.820312 Z M 15.652344 330.339844 C 15.285156 330.414062 15.359375 331.078125 15.726562 331.003906 C 16.316406 330.929688 17.050781 330.855469 17.570312 331.152344 C 17.863281 331.300781 17.9375 331.59375 17.9375 331.8125 C 17.863281 332.402344 17.199219 332.84375 16.535156 332.625 C 15.875 332.402344 15.429688 331.667969 15.136719 331.078125 C 14.988281 330.710938 14.398438 331.003906 14.546875 331.371094 C 15.136719 332.476562 16.316406 333.949219 17.714844 333.140625 C 18.601562 332.625 18.894531 331.371094 18.085938 330.710938 C 17.496094 330.195312 16.464844 330.269531 15.652344 330.339844 Z M 11.082031 332.550781 C 7.546875 331.003906 6.441406 326.953125 6.808594 323.273438 C 6.808594 322.90625 6.292969 322.980469 6.292969 323.273438 C 5.925781 326.441406 6.882812 332.699219 11.011719 332.992188 C 11.230469 333.066406 11.304688 332.699219 11.082031 332.550781 Z M 6.808594 331.960938 C 3.199219 331.960938 3.492188 327.324219 3.492188 324.820312 C 3.492188 324.527344 3.050781 324.527344 3.050781 324.820312 C 3.050781 327.46875 2.832031 332.917969 6.882812 332.476562 C 7.179688 332.402344 7.179688 331.960938 6.808594 331.960938 Z M 26.558594 319.519531 C 22.285156 317.164062 18.085938 315.394531 13.222656 317.164062 C 12.925781 317.238281 13.148438 317.753906 13.441406 317.605469 C 18.085938 315.910156 22.136719 317.753906 26.265625 319.960938 C 26.558594 320.109375 26.925781 319.667969 26.558594 319.519531 Z M 29.433594 323.054688 C 30.167969 325.484375 28.546875 328.355469 27.074219 330.195312 C 26.855469 330.488281 27.296875 330.855469 27.589844 330.5625 C 29.285156 328.574219 30.832031 325.484375 29.949219 322.832031 C 29.875 322.539062 29.359375 322.757812 29.433594 323.054688 Z M 76.964844 248.324219 C 77.039062 248.324219 77.039062 248.25 77.109375 248.25 C 79.46875 246.925781 81.753906 245.453125 84.257812 244.203125 C 84.257812 244.203125 84.332031 244.203125 84.332031 244.128906 C 84.40625 244.054688 84.480469 244.054688 84.480469 243.980469 C 85.144531 243.757812 85.660156 243.464844 86.175781 242.875 C 86.46875 242.582031 86.101562 242.066406 85.734375 242.214844 C 82.636719 243.6875 77.773438 244.347656 76.300781 247.882812 C 76.078125 248.398438 76.667969 248.691406 76.964844 248.324219 Z M 103.640625 234.628906 C 103.933594 235.070312 103.34375 235.515625 103.050781 235.070312 C 103.050781 235 102.976562 235 102.976562 234.925781 C 101.578125 235.585938 100.027344 236.027344 98.628906 236.542969 C 97.597656 236.914062 96.566406 237.28125 95.535156 237.648438 C 95.164062 237.796875 93.617188 238.53125 93.617188 238.164062 C 93.617188 238.53125 93.25 238.605469 93.027344 238.457031 C 92.4375 242.800781 96.125 245.675781 97.082031 249.722656 C 97.15625 250.019531 96.710938 250.238281 96.566406 249.945312 C 94.945312 246.261719 91.921875 242.65625 92.363281 238.53125 C 92.144531 238.53125 91.847656 238.238281 92.070312 237.945312 C 92.21875 237.796875 92.363281 237.574219 92.511719 237.429688 C 92.511719 237.355469 92.511719 237.28125 92.585938 237.207031 C 92.660156 236.988281 92.878906 236.914062 93.027344 236.988281 C 94.5 235.734375 96.566406 234.925781 98.261719 234.410156 C 99.4375 234.042969 101.648438 233.304688 102.902344 234.042969 C 103.050781 234.042969 103.125 233.96875 103.269531 233.96875 C 103.785156 233.894531 103.859375 234.335938 103.640625 234.628906 Z M 100.765625 234.410156 C 99.585938 234.558594 98.261719 235.070312 97.523438 235.367188 C 96.417969 235.808594 95.164062 236.324219 94.132812 237.058594 C 96.34375 236.175781 98.480469 235.144531 100.765625 234.410156 Z M 85.953125 246.632812 C 84.996094 247.144531 84.183594 247.882812 83.375 248.546875 C 82.195312 249.429688 81.089844 249.722656 79.691406 249.574219 C 79.246094 249.503906 79.101562 250.238281 79.542969 250.3125 C 80.867188 250.460938 82.046875 250.386719 83.152344 249.648438 C 84.332031 248.988281 85.289062 248.03125 86.394531 247.292969 C 86.765625 247.074219 86.394531 246.410156 85.953125 246.632812 Z M 96.269531 241.035156 C 96.269531 240.59375 95.605469 240.59375 95.535156 241.035156 C 95.386719 242.507812 98.039062 241.257812 98.554688 241.035156 C 100.398438 240.300781 102.164062 239.269531 104.007812 238.457031 C 104.523438 238.238281 104.230469 237.429688 103.714844 237.648438 C 102.460938 238.164062 101.207031 238.902344 99.953125 239.488281 C 99.660156 239.785156 96.269531 241.035156 96.269531 241.035156 Z M 104.890625 253.476562 C 102.976562 253.40625 100.988281 254.363281 99.292969 255.097656 C 97.816406 255.835938 95.679688 256.644531 94.648438 258.042969 C 94.355469 258.484375 94.945312 258.925781 95.238281 258.558594 C 96.125 257.304688 98.039062 256.570312 99.367188 255.90625 C 101.058594 255.097656 102.902344 254.289062 104.746094 254.214844 C 105.335938 254.214844 105.335938 253.476562 104.890625 253.476562 Z M 102.019531 257.675781 C 100.988281 258.042969 100.101562 258.484375 99.21875 259.222656 C 98.921875 259.441406 99.144531 259.808594 99.367188 259.882812 C 99.4375 260.105469 99.585938 260.25 99.808594 260.179688 C 100.542969 259.957031 101.28125 259.664062 102.019531 259.292969 C 102.386719 259.148438 102.238281 258.707031 101.945312 258.558594 C 102.019531 258.484375 102.09375 258.484375 102.238281 258.410156 C 102.683594 258.191406 102.460938 257.527344 102.019531 257.675781 Z M 79.542969 239.269531 C 84.113281 238.53125 88.460938 235.957031 92.511719 233.894531 C 92.878906 233.746094 92.585938 233.15625 92.21875 233.304688 C 88.386719 235.070312 84.699219 236.988281 80.648438 238.3125 C 80.207031 238.386719 79.765625 238.53125 79.394531 238.679688 C 79.175781 238.902344 79.246094 239.34375 79.542969 239.269531 Z M 105.410156 250.089844 C 104.230469 247.808594 102.019531 246.558594 99.585938 246.042969 C 99.511719 246.042969 99.511719 246.042969 99.4375 246.042969 C 98.921875 245.746094 98.480469 246.558594 98.996094 246.851562 C 101.578125 248.324219 99.070312 251.195312 97.523438 252.375 C 95.605469 253.847656 92.808594 255.023438 90.523438 253.847656 C 90.082031 253.625 89.710938 254.289062 90.152344 254.507812 C 93.101562 256.054688 96.640625 254.363281 98.851562 252.300781 C 100.25 250.976562 101.578125 248.765625 100.617188 247.21875 C 101.28125 247.441406 101.871094 247.660156 102.386719 248.03125 C 103.417969 248.691406 104.082031 249.648438 104.890625 250.605469 C 105.1875 250.828125 105.554688 250.386719 105.410156 250.089844 Z M 108.207031 236.691406 C 108.429688 238.089844 108.578125 239.488281 108.796875 240.816406 C 108.871094 241.109375 109.238281 241.035156 109.238281 240.742188 C 109.019531 239.34375 108.871094 237.945312 108.652344 236.617188 C 108.578125 236.324219 108.207031 236.398438 108.207031 236.691406 Z M 88.753906 254.214844 C 88.976562 255.171875 89.046875 256.203125 89.34375 257.160156 C 89.417969 257.527344 90.007812 257.453125 90.007812 257.085938 C 89.933594 256.054688 89.636719 255.023438 89.417969 254.066406 C 89.34375 253.625 88.679688 253.773438 88.753906 254.214844 Z M 71.511719 242.800781 C 70.183594 240.667969 67.015625 229.625 67.234375 223.808594 C 66.941406 223.585938 66.648438 223.367188 66.351562 223.21875 C 64.953125 225.796875 64.65625 228.8125 65.097656 231.171875 C 65.613281 233.894531 68.339844 242.800781 71.511719 242.800781 Z M 98.480469 218.726562 C 100.914062 220.347656 103.714844 227.414062 106.292969 227.414062 C 106.367188 226.753906 106.367188 225.941406 106.292969 225.207031 C 106.367188 225.5 106.511719 225.722656 106.585938 226.015625 C 107.03125 226.828125 107.472656 227.710938 107.914062 228.519531 C 108.0625 228.742188 108.355469 228.519531 108.355469 228.371094 C 108.429688 226.828125 106.144531 225.574219 106.882812 224.027344 C 107.03125 223.734375 106.511719 223.511719 106.367188 223.808594 C 106.21875 224.101562 106.144531 224.398438 106.144531 224.617188 C 105.480469 220.566406 102.753906 215.855469 100.472656 213.574219 C 97.671875 210.777344 91.996094 204.519531 87.871094 206.136719 C 89.859375 208.863281 90.523438 211.953125 92.660156 214.457031 C 94.5 216.296875 96.34375 217.253906 98.480469 218.726562 Z M 185.804688 289.773438 C 183.59375 288.671875 181.015625 288.746094 178.582031 288.964844 C 175.855469 289.1875 173.128906 289.40625 170.402344 289.480469 C 163.402344 289.628906 156.179688 289.921875 149.917969 286.242188 C 147.339844 284.695312 145.128906 282.78125 142.917969 280.792969 C 140.925781 279.027344 138.9375 277.113281 136.359375 276.15625 C 131.640625 274.386719 125.597656 275.566406 121.546875 272.03125 C 118.96875 269.75 117.199219 266.65625 114.765625 264.078125 C 113.734375 262.976562 112.628906 261.945312 111.230469 261.355469 C 109.828125 260.765625 108.28125 260.765625 107.03125 260.03125 C 106.660156 259.808594 106.367188 260.324219 106.660156 260.546875 C 107.546875 261.0625 108.429688 261.207031 109.386719 261.429688 C 111.449219 261.945312 112.851562 263.050781 114.25 264.523438 C 116.386719 266.730469 118.007812 269.308594 120.144531 271.589844 C 123.90625 275.566406 129.136719 274.976562 134.074219 276.082031 C 139.894531 277.40625 143.652344 282.855469 148.445312 286.019531 C 153.75 289.480469 159.867188 290.144531 166.054688 290.070312 C 169.445312 289.996094 172.835938 289.996094 176.226562 289.703125 C 179.246094 289.40625 182.5625 288.890625 185.363281 290.214844 C 185.878906 290.4375 186.101562 289.921875 185.804688 289.773438 Z M 117.640625 259.515625 C 117.417969 259.664062 117.125 259.882812 116.902344 260.105469 C 116.316406 260.398438 115.796875 260.914062 116.167969 261.578125 C 116.535156 262.238281 117.347656 262.460938 118.082031 262.535156 C 118.304688 262.535156 118.523438 262.460938 118.597656 262.238281 C 118.820312 261.796875 119.042969 261.28125 118.96875 260.765625 C 118.894531 260.25 118.597656 259.882812 118.230469 259.515625 C 118.082031 259.367188 117.789062 259.367188 117.640625 259.515625 Z M 128.472656 270.410156 C 128.398438 270.265625 128.179688 270.117188 127.957031 270.117188 C 127.738281 270.191406 127.515625 270.339844 127.367188 270.410156 C 127.222656 270.484375 126.925781 270.558594 126.777344 270.78125 C 126.558594 271 126.703125 271.296875 126.925781 271.441406 C 127 271.515625 127.148438 271.589844 127.292969 271.738281 C 127.292969 272.03125 127.738281 272.253906 127.957031 272.03125 C 128.03125 272.03125 128.03125 271.957031 128.105469 271.957031 C 128.324219 271.882812 128.472656 271.738281 128.695312 271.589844 C 128.84375 271.589844 128.988281 271.515625 129.136719 271.441406 C 129.429688 271.222656 129.285156 270.78125 128.914062 270.707031 C 128.769531 270.558594 128.621094 270.484375 128.472656 270.410156 Z M 147.410156 277.332031 C 147.117188 277.554688 146.675781 277.773438 146.527344 278.140625 C 146.527344 278.214844 146.453125 278.289062 146.453125 278.363281 C 146.378906 278.511719 146.308594 278.65625 146.308594 278.878906 C 146.308594 279.613281 147.484375 280.203125 148.074219 279.6875 C 148.148438 279.613281 148.222656 279.542969 148.222656 279.46875 C 148.445312 279.46875 148.664062 279.320312 148.664062 279.097656 C 148.738281 278.585938 148.589844 277.996094 148.222656 277.773438 C 148.148438 277.625 148.074219 277.480469 148 277.40625 C 147.855469 277.183594 147.558594 277.183594 147.410156 277.332031 Z M 164.359375 284.621094 C 163.992188 284.769531 163.476562 284.84375 163.253906 285.210938 C 163.035156 285.578125 163.109375 286.019531 163.183594 286.460938 C 163.183594 286.609375 163.253906 286.757812 163.328125 286.902344 C 163.476562 287.050781 163.773438 286.976562 163.992188 286.828125 C 164.066406 286.828125 164.066406 286.828125 164.140625 286.757812 C 164.433594 286.609375 164.875 286.386719 165.023438 286.09375 C 165.171875 285.726562 165.023438 285.285156 165.023438 284.914062 C 165.023438 284.621094 164.65625 284.472656 164.359375 284.621094 Z M 183.816406 285.652344 C 183.890625 285.800781 184.035156 285.945312 184.257812 285.871094 C 184.332031 285.871094 184.40625 285.800781 184.550781 285.800781 C 184.921875 285.800781 185.363281 285.726562 185.4375 285.285156 C 185.585938 284.769531 185.140625 284.179688 184.847656 283.8125 C 184.699219 283.589844 184.480469 283.515625 184.183594 283.589844 C 183.960938 283.664062 183.742188 283.8125 183.519531 284.03125 C 183.445312 284.179688 183.226562 284.328125 183.152344 284.472656 C 183.003906 284.988281 183.375 285.503906 183.816406 285.652344 Z M 132.820312 248.765625 C 133.117188 249.0625 133.632812 248.691406 133.410156 248.324219 C 132.527344 246.925781 130.167969 248.105469 129.0625 248.617188 C 126.777344 249.648438 124.714844 251.046875 122.503906 252.300781 C 122.0625 252.519531 122.429688 253.183594 122.871094 252.960938 C 124.347656 252.152344 125.746094 251.195312 127.222656 250.386719 C 128.105469 249.945312 131.789062 247.589844 132.820312 248.765625 Z M 136.0625 247.660156 C 136.210938 247.21875 136.433594 246.632812 136.875 246.484375 C 137.316406 246.335938 137.683594 246.558594 138.054688 246.851562 C 138.054688 247.21875 137.980469 247.734375 137.832031 248.03125 C 137.757812 248.25 137.90625 248.105469 137.683594 248.175781 C 137.539062 248.25 137.316406 248.25 137.167969 248.25 C 136.726562 248.25 136.285156 248.175781 135.917969 247.957031 C 135.546875 247.808594 135.328125 248.324219 135.621094 248.472656 C 136.0625 248.691406 136.503906 248.839844 137.023438 248.839844 C 137.316406 248.839844 137.980469 248.839844 138.273438 248.617188 C 138.496094 248.472656 138.496094 248.03125 138.570312 247.808594 C 138.644531 247.515625 138.714844 247.074219 138.714844 246.777344 C 138.644531 246.117188 137.464844 245.820312 136.949219 245.894531 C 136.136719 246.042969 135.695312 246.777344 135.472656 247.515625 C 135.328125 247.957031 135.917969 248.105469 136.0625 247.660156 Z M 135.328125 261.207031 C 138.496094 260.25 141.664062 258.117188 143.949219 255.835938 C 145.128906 254.582031 146.308594 253.257812 147.558594 252.003906 C 148 251.492188 148.960938 250.164062 149.84375 250.3125 C 150.210938 250.386719 150.136719 250.828125 149.84375 250.902344 C 148.886719 251.121094 147.632812 252.960938 147.042969 253.699219 C 145.9375 254.949219 144.757812 256.203125 143.582031 257.304688 C 142.476562 258.335938 141.296875 259 140.042969 259.734375 C 138.273438 260.691406 136.503906 261.796875 134.515625 262.238281 C 134.222656 262.3125 133.851562 261.945312 134.148438 261.652344 C 134.148438 261.652344 134.222656 261.578125 134.222656 261.578125 C 133.558594 260.765625 133.335938 260.03125 133.484375 258.925781 C 133.484375 258.707031 133.707031 258.632812 133.925781 258.632812 C 135.695312 258.777344 136.0625 259.957031 135.328125 261.207031 Z M 135.03125 260.179688 C 134.222656 259 133.925781 259 134.367188 260.105469 C 134.296875 260.472656 134.367188 260.765625 134.589844 261.0625 C 134.8125 260.839844 135.03125 260.472656 135.03125 260.179688 Z M 154.707031 253.773438 C 151.832031 256.203125 149.621094 259.222656 147.191406 262.019531 C 144.757812 264.816406 142.105469 267.246094 139.230469 269.527344 C 139.160156 269.527344 139.160156 269.601562 139.160156 269.601562 C 139.160156 269.601562 139.085938 269.675781 139.085938 269.675781 C 139.085938 269.675781 139.011719 269.675781 139.011719 269.75 C 138.789062 269.894531 138.570312 269.75 138.496094 269.601562 C 138.421875 269.601562 138.273438 269.601562 138.199219 269.527344 C 137.09375 268.496094 136.433594 266.507812 138.644531 266.730469 C 139.675781 266.804688 140.117188 267.320312 140.117188 267.910156 C 142.476562 265.996094 144.613281 263.859375 146.675781 261.578125 C 149.179688 258.777344 151.316406 255.6875 154.191406 253.257812 C 154.558594 253.035156 155.074219 253.476562 154.707031 253.773438 Z M 138.789062 267.464844 C 137.316406 267.171875 137.980469 268.277344 138.714844 269.011719 C 138.714844 269.011719 138.789062 269.085938 138.789062 269.085938 C 138.863281 269.011719 138.9375 268.9375 139.011719 268.9375 C 139.527344 268.425781 139.820312 267.761719 138.789062 267.464844 Z M 144.464844 268.792969 C 144.757812 268.277344 144.539062 267.6875 143.507812 267.394531 C 141.589844 266.878906 141.296875 268.644531 141.957031 269.96875 C 142.179688 270.339844 142.769531 270.042969 142.546875 269.675781 C 142.179688 268.9375 141.957031 267.835938 143.136719 267.980469 C 144.390625 268.203125 143.507812 269.011719 142.695312 269.308594 C 142.328125 269.453125 142.546875 270.042969 142.917969 269.96875 C 149.105469 268.496094 151.980469 261.429688 156.109375 257.304688 C 156.402344 257.011719 155.960938 256.570312 155.664062 256.792969 C 151.6875 260.25 149.476562 266.582031 144.464844 268.792969 Z M 72.542969 287.199219 C 70.773438 283.371094 68.785156 279.613281 66.792969 275.859375 C 64.878906 272.398438 62.519531 269.160156 60.015625 266.066406 C 57.878906 263.492188 55.519531 260.691406 52.425781 259.148438 C 52.054688 258.925781 51.761719 259.515625 52.128906 259.734375 C 55.519531 261.503906 58.023438 264.742188 60.382812 267.613281 C 62.886719 270.78125 65.097656 274.019531 67.015625 277.554688 C 68.929688 281.160156 70.773438 284.769531 72.46875 288.449219 C 74.089844 291.984375 75.785156 295.664062 78.511719 298.460938 C 78.804688 298.757812 79.246094 298.390625 79.027344 298.09375 C 76.003906 295.003906 74.3125 291.101562 72.542969 287.199219 Z M 74.382812 299.566406 C 70.699219 298.390625 66.5 298.242188 62.667969 297.875 C 58.246094 297.359375 53.75 296.84375 49.476562 295.664062 C 49.035156 295.515625 48.8125 296.179688 49.253906 296.328125 C 53.234375 297.433594 57.289062 297.945312 61.414062 298.460938 C 65.6875 298.976562 70.035156 299.714844 74.3125 300.15625 C 74.53125 300.15625 74.679688 299.714844 74.382812 299.566406 Z M 72.320312 295.296875 C 72.542969 295.515625 72.910156 295.148438 72.6875 294.929688 C 67.53125 290.214844 59.941406 288.746094 53.601562 286.242188 C 53.308594 286.09375 53.160156 286.609375 53.457031 286.683594 C 59.792969 289.257812 66.792969 290.878906 72.320312 295.296875 Z M 58.761719 315.25 C 56.257812 315.394531 53.75 314.070312 51.613281 312.820312 C 49.476562 311.566406 47.339844 310.242188 45.277344 308.84375 C 40.117188 305.53125 35.402344 301.777344 32.011719 296.621094 C 31.789062 296.253906 31.203125 296.621094 31.421875 296.988281 C 34.960938 302.289062 39.898438 306.121094 45.203125 309.578125 C 47.488281 311.050781 49.773438 312.597656 52.203125 313.851562 C 54.121094 314.878906 56.476562 316.132812 58.761719 315.835938 C 59.203125 315.835938 59.203125 315.25 58.761719 315.25 Z M 146.527344 241.109375 C 146.527344 238.164062 146.75 235.144531 148.074219 232.570312 C 149.550781 229.769531 152.054688 227.710938 154.632812 226.015625 C 155.003906 225.722656 154.632812 225.132812 154.265625 225.425781 C 151.6875 227.195312 149.179688 229.183594 147.632812 231.980469 C 146.085938 234.777344 145.789062 238.015625 145.789062 241.183594 C 145.789062 241.550781 146.527344 241.625 146.527344 241.109375 Z M 120.957031 225.941406 C 120.957031 226.238281 121.25 226.238281 121.398438 226.089844 C 123.242188 229.992188 124.050781 234.261719 125.894531 238.164062 C 127.738281 242.140625 130.832031 244.496094 135.105469 245.527344 C 135.546875 245.601562 135.621094 244.9375 135.179688 244.863281 C 130.390625 243.757812 127.515625 240.816406 125.746094 236.324219 C 124.347656 232.714844 123.460938 228.960938 121.769531 225.5 C 121.695312 225.355469 121.621094 225.355469 121.472656 225.355469 C 121.621094 222.410156 121.03125 219.390625 123.167969 216.960938 C 123.390625 216.667969 123.09375 216.296875 122.800781 216.519531 C 120 218.507812 121.03125 223.070312 120.957031 225.941406 Z M 95.019531 271.957031 C 95.3125 269.382812 95.679688 265.847656 97.890625 264.152344 C 98.1875 263.933594 97.964844 263.417969 97.597656 263.636719 C 96.492188 264.300781 95.976562 265.480469 95.535156 266.65625 C 95.019531 268.054688 95.089844 269.75 94.574219 271.074219 C 93.542969 273.355469 86.910156 267.835938 85.660156 266.878906 C 82.933594 264.59375 79.984375 262.679688 78.4375 259.441406 C 76.890625 256.203125 76.226562 252.59375 74.164062 249.574219 C 74.015625 249.355469 73.648438 249.574219 73.792969 249.871094 C 75.488281 252.449219 76.226562 255.464844 77.332031 258.265625 C 78.363281 260.914062 79.765625 262.976562 82.046875 264.667969 C 85.585938 267.394531 89.785156 272.546875 94.722656 272.253906 C 94.871094 272.179688 95.019531 272.105469 95.019531 271.957031 Z M 116.09375 241.992188 C 117.199219 244.347656 118.007812 246.851562 119.1875 249.207031 C 116.609375 250.089844 113.882812 250.53125 111.304688 251.492188 C 111.007812 251.636719 111.230469 252.152344 111.523438 252.003906 C 114.175781 250.976562 116.976562 250.53125 119.703125 249.722656 C 119.925781 249.648438 120 249.429688 119.925781 249.28125 C 118.378906 246.042969 117.492188 242.289062 115.429688 239.34375 C 114.621094 238.238281 110.273438 233.527344 111.449219 232.128906 C 111.746094 231.757812 111.230469 231.242188 110.863281 231.539062 C 109.238281 233.085938 112.484375 236.542969 113.292969 237.722656 C 114.324219 239.121094 115.355469 240.445312 116.09375 241.992188 Z M 146.527344 284.988281 C 139.601562 289.039062 136.726562 297.726562 132.527344 304.058594 C 132.378906 304.351562 132.746094 304.71875 132.894531 304.425781 C 137.167969 298.019531 140.042969 289.773438 146.824219 285.503906 C 147.265625 285.359375 146.894531 284.84375 146.527344 284.988281 Z M 121.914062 278.511719 C 112.261719 283.515625 103.492188 289.996094 93.984375 295.148438 C 93.617188 295.371094 93.914062 295.886719 94.28125 295.738281 C 103.785156 290.585938 112.703125 284.398438 122.210938 279.097656 C 122.578125 278.878906 122.285156 278.289062 121.914062 278.511719 Z M 170.183594 262.238281 C 171.140625 258.851562 170.550781 254.65625 169.296875 251.417969 C 169.152344 251.121094 168.707031 251.269531 168.78125 251.5625 C 170.035156 254.878906 170.402344 258.632812 169.667969 262.09375 C 169.59375 262.386719 170.035156 262.609375 170.183594 262.238281 Z M 157.875 132.882812 C 163.476562 126.625 164.140625 118.082031 165.910156 110.277344 C 165.980469 110.058594 165.613281 109.910156 165.539062 110.132812 C 163.402344 117.9375 163.183594 126.328125 157.507812 132.585938 C 157.359375 132.808594 157.730469 133.101562 157.875 132.882812 Z M 175.414062 102.03125 C 175.5625 101.8125 175.195312 101.589844 175.046875 101.8125 C 173.644531 103.875 173.128906 106.378906 172.761719 108.734375 C 172.246094 112.265625 171.804688 115.652344 170.699219 119.039062 C 169.519531 122.574219 167.898438 126.035156 165.980469 129.199219 C 163.992188 132.511719 161.339844 135.679688 159.941406 139.285156 C 159.867188 139.433594 160.160156 139.65625 160.234375 139.433594 C 163.992188 133.398438 168.046875 127.433594 170.625 120.734375 C 171.65625 117.9375 172.394531 115.066406 172.835938 112.121094 C 173.277344 108.734375 173.425781 104.90625 175.414062 102.03125 Z M 164.875 141.273438 C 163.84375 144 162.222656 146.207031 160.234375 148.34375 C 160.085938 148.5625 160.308594 148.859375 160.527344 148.636719 C 162.8125 146.722656 164.359375 144.144531 165.394531 141.421875 C 165.539062 141.128906 165.023438 140.980469 164.875 141.273438 Z M 170.550781 142.820312 C 170.476562 145.175781 169.003906 147.019531 167.898438 149.003906 C 167.824219 149.226562 168.121094 149.445312 168.265625 149.226562 C 169.445312 147.238281 170.992188 145.324219 170.992188 142.894531 C 171.066406 142.527344 170.550781 142.527344 170.550781 142.820312 Z M 162.371094 106.082031 C 164.140625 100.707031 169.667969 97.101562 175.265625 97.101562 C 175.636719 97.101562 175.636719 96.511719 175.195312 96.511719 C 169.371094 96.511719 163.699219 100.339844 161.929688 105.933594 C 161.929688 106.230469 162.296875 106.378906 162.371094 106.082031 Z M 183.890625 99.898438 C 185.363281 99.53125 186.835938 99.898438 187.722656 101.222656 C 187.941406 101.589844 188.605469 101.222656 188.3125 100.855469 C 187.277344 99.308594 185.585938 98.792969 183.816406 99.234375 C 183.375 99.308594 183.519531 99.972656 183.890625 99.898438 Z M 183.890625 99.898438 " fill-opacity="1" fill-rule="nonzero"/></svg>