<svg xmlns="http://www.w3.org/2000/svg" xmlns:xlink="http://www.w3.org/1999/xlink" width="500" zoomAndPan="magnify" viewBox="0 0 375 374.999991" height="500" preserveAspectRatio="xMidYMid meet" version="1.0"><defs><clipPath id="028d6caa64"><path d="M 164 239 L 331 239 L 331 316.703125 L 164 316.703125 Z M 164 239 " clip-rule="nonzero"/></clipPath></defs><path fill="#ad9c87" d="M 76.695312 248.390625 C 76.53125 252.425781 77.300781 257.621094 76.191406 261.476562 C 75.355469 264.375 73.371094 264.507812 71.367188 263.574219 C 70.207031 265.328125 71.367188 272.050781 70.78125 275.726562 C 68.949219 277.867188 66.476562 277.773438 63.953125 276.550781 C 63.902344 264.515625 63.910156 247.785156 63.855469 244.9375 C 63.761719 239.90625 63.953125 205.226562 63.789062 201.058594 C 63.753906 200.046875 63.101562 191.363281 63.820312 191.148438 C 59.519531 192.449219 55.109375 192.449219 51.78125 192.796875 C 50.191406 192.960938 47.742188 193.78125 44.773438 193.667969 C 45.105469 208.886719 45.417969 242.914062 46.179688 261.683594 C 44.042969 263.664062 39.144531 263.605469 38.386719 260.464844 C 37.929688 239.101562 37.75 213.503906 37.914062 192.449219 C 31.558594 191.835938 24.292969 190.632812 18.128906 188.609375 C 17.367188 196.996094 17.757812 259.476562 16.988281 273.746094 C 15.613281 276.035156 11.832031 275.589844 9.9375 272.445312 C 10.300781 263.671875 10.328125 250 10.390625 241.191406 C 10.507812 221.019531 10.160156 203.984375 10.574219 185.296875 C 5.625 182.347656 2.863281 178.386719 4.582031 173.15625 C 15.894531 163.859375 35.398438 166.21875 47.28125 168.160156 C 54.488281 169.335938 86.574219 171.003906 76.703125 183.125 C 76.160156 183.789062 75.523438 184.410156 74.824219 185 C 79.0625 188.445312 77.035156 204.503906 77.199219 208.53125 C 77.738281 221.765625 77.21875 235.199219 76.695312 248.390625 Z M 66.230469 169.625 C 69.695312 169.253906 71.152344 165.558594 74.195312 163.558594 C 76.09375 162.308594 82.109375 161.355469 82.933594 159.050781 C 84.339844 155.097656 75.859375 144.882812 74.429688 141.253906 C 73.003906 137.625 67.339844 112.167969 60.675781 126.023438 C 56.738281 117.496094 45.839844 132.710938 45.511719 137.582031 C 45.195312 142.394531 47.894531 146.082031 50.199219 149.945312 C 53.296875 155.140625 52.808594 159.324219 54.605469 164.578125 C 50.410156 164.164062 61.453125 170.125 66.230469 169.625 Z M 66.230469 169.625 " fill-opacity="1" fill-rule="nonzero"/><path fill="#981d13" d="M 144.929688 180.226562 C 151.507812 177.898438 157.230469 176.878906 164.238281 177.945312 C 171.472656 179.046875 179.695312 177.765625 186.640625 179.5625 C 193.515625 181.335938 191.992188 185.554688 192.515625 191.304688 C 193.558594 202.671875 190.074219 209.882812 185.710938 220.40625 C 183.4375 225.890625 177.859375 234.832031 182.425781 239.042969 C 187.75 243.949219 203.214844 241.332031 205.628906 249.234375 C 202.785156 250.605469 199.804688 251.050781 196.625 251.367188 C 193.441406 251.6875 191.109375 252.71875 188.269531 253.140625 C 177.925781 254.671875 169.046875 257.480469 158.8125 261.855469 C 150.496094 265.410156 134.21875 266.753906 129.808594 257.007812 C 123.761719 256.652344 121.15625 256.984375 116.636719 253.007812 C 106.808594 244.363281 109.71875 236.765625 114.550781 226.101562 C 117.140625 220.382812 120.152344 215.078125 122.820312 209.4375 C 124.714844 205.433594 127.292969 202.027344 129.398438 198.140625 C 131.730469 193.839844 132.449219 188.074219 135.460938 184.246094 C 136.992188 181.558594 141.535156 181.433594 144.929688 180.226562 Z M 54.605469 164.066406 C 43.863281 164.066406 33.851562 163.617188 23.390625 165.582031 C 17.417969 166.703125 -0.03125 169.410156 8.648438 178.101562 C 15.65625 185.113281 31.019531 185.105469 40.066406 185.882812 C 47.644531 186.53125 71.972656 187.457031 77.257812 180.082031 C 84.589844 169.851562 53.03125 164.246094 54.605469 164.066406 Z M 54.605469 164.066406 " fill-opacity="1" fill-rule="nonzero"/><path fill="#57271a" d="M 62.695312 171.640625 C 62.511719 162.722656 68.5625 156.484375 76.84375 155.371094 C 82.777344 154.570312 83.507812 156.417969 87.824219 160.3125 C 93.394531 165.34375 100.890625 167.398438 107.179688 171.152344 C 113.105469 174.691406 119.492188 177.199219 125.449219 180.324219 C 129.378906 182.386719 135.320312 183.9375 138.910156 186.382812 C 144.355469 190.101562 147.949219 196.457031 153.90625 199.921875 C 157.339844 201.917969 161.285156 202.152344 164.664062 204.179688 C 168.171875 206.277344 170.71875 210.113281 173.699219 212.890625 C 181.09375 219.777344 191.429688 227.359375 200.285156 232.101562 C 206.621094 235.496094 211.601562 241.933594 216.363281 247.347656 C 206.996094 255.425781 199.300781 264.734375 192.589844 275.457031 C 190.4375 278.902344 188.453125 282.582031 186.871094 286.1875 C 186.492188 287.058594 185.996094 290.113281 185.40625 290.644531 C 179.488281 295.921875 164.414062 290.046875 159.035156 286.0625 C 153.632812 282.066406 150.84375 275.710938 147.292969 270.203125 C 138.347656 256.339844 131.976562 237.359375 119.789062 226.25 C 113.972656 220.945312 104.65625 219.941406 98.539062 214.898438 C 92.824219 210.191406 88.703125 203.179688 83.390625 197.867188 C 78.042969 192.515625 72.019531 188.636719 66.230469 184.277344 C 59.535156 179.222656 61.679688 174.632812 62.695312 171.640625 Z M 62.695312 171.640625 " fill-opacity="1" fill-rule="nonzero"/><path fill="#a6ac37" d="M 192.441406 194.835938 C 189.949219 198.6875 187.367188 198.421875 182.917969 198.230469 C 173.539062 197.816406 164.140625 196.816406 154.765625 196.011719 C 152.65625 195.828125 150.597656 195.679688 148.601562 195.4375 C 146.269531 192.953125 143.53125 190.707031 140.949219 188.601562 C 139.566406 187.46875 138.132812 186.25 136.667969 185.230469 C 136.199219 184.914062 135.675781 184.574219 135.097656 184.460938 C 134.90625 184.328125 134.699219 184.203125 134.46875 184.085938 C 134.519531 183.820312 134.578125 183.546875 134.632812 183.257812 C 135.710938 177.605469 134.417969 175.277344 130.042969 171.53125 C 127.296875 169.171875 124.234375 167.207031 121.476562 164.878906 C 120.179688 163.785156 119.449219 162.292969 117.613281 162.449219 C 116.695312 165.988281 117.953125 168.019531 114.914062 170.664062 C 114.082031 171.390625 112.824219 172.527344 111.484375 173.546875 C 110.082031 172.792969 107.363281 171.546875 105.101562 170.738281 C 101.660156 169.511719 99.601562 169.542969 96.457031 171.234375 C 96.445312 171.242188 96.4375 171.25 96.429688 171.257812 C 96.414062 171.257812 96.398438 171.257812 96.382812 171.257812 C 95.183594 171.332031 94.089844 172.386719 93.054688 172.992188 C 90.835938 174.300781 88.453125 175.003906 86.160156 176.113281 C 83.488281 177.40625 81.445312 179.667969 78.515625 180.390625 C 76.316406 180.929688 68.140625 182.976562 66.046875 181.441406 C 64.417969 180.242188 64.382812 175.046875 65.167969 172.179688 C 65.152344 172.121094 65.136719 172.054688 65.152344 171.988281 C 65.242188 171.324219 65.484375 170.660156 65.847656 170.082031 C 66.039062 169.683594 66.289062 169.328125 66.667969 169.054688 C 66.734375 169.011719 66.808594 168.988281 66.875 168.972656 C 66.875 168.972656 66.875 168.972656 66.882812 168.972656 C 67.59375 164.917969 74.511719 162.226562 77.351562 160.742188 C 82.082031 158.273438 86.816406 156.117188 90.96875 152.6875 C 94.5625 149.714844 101.445312 145.535156 97.09375 141.171875 C 91.707031 135.777344 89.390625 130.925781 90.421875 123.078125 C 91.003906 118.582031 90.640625 114.527344 94.230469 111.140625 C 101.128906 104.632812 112.65625 104.359375 121.328125 102.570312 C 129.207031 100.945312 134.402344 100.832031 139.945312 106.714844 C 143.140625 110.113281 146.375 112.914062 150.246094 115.570312 C 154.136719 118.234375 158.554688 120.054688 162.386719 122.738281 C 166.308594 125.476562 168.105469 129.925781 170.976562 133.613281 C 173.753906 137.175781 176.171875 140.972656 179.070312 144.425781 C 181.308594 147.085938 182.222656 150.144531 184.109375 153.011719 C 186.878906 157.203125 189.417969 160.148438 191.109375 165.011719 C 192.605469 169.296875 196.082031 172.898438 196.527344 177.449219 C 197.066406 182.925781 195.394531 190.277344 192.441406 194.835938 Z M 192.441406 194.835938 " fill-opacity="1" fill-rule="nonzero"/><path fill="#d5986c" d="M 66.617188 180.664062 C 63.628906 181.964844 59.21875 177.730469 57.679688 175.683594 C 56.390625 173.960938 55.753906 173.671875 54.28125 172.402344 C 52.285156 170.6875 53.484375 170.652344 52.988281 168.21875 C 52.476562 165.722656 48.777344 160.460938 54.148438 163.039062 C 58.144531 164.960938 64.804688 164.738281 66.617188 169.601562 C 62.6875 172.0625 70.242188 179.089844 66.617188 180.664062 Z M 118.550781 103.492188 C 118.480469 106.996094 114.5625 113.957031 111.160156 115.464844 C 108.835938 116.492188 102.480469 116.625 101.742188 113.5 C 98.613281 113.09375 97.078125 117.394531 93.898438 117.601562 C 92.789062 117.675781 91.125 116.890625 89.679688 115.855469 C 88.246094 116.160156 86.484375 114.652344 87.082031 113.285156 C 86.988281 113.128906 86.90625 112.980469 86.855469 112.835938 C 86.558594 112.835938 86.246094 112.855469 85.9375 112.839844 C 85.921875 112.839844 85.898438 112.839844 85.882812 112.839844 C 85.871094 112.839844 85.855469 112.835938 85.832031 112.835938 C 85.617188 112.820312 85.410156 112.789062 85.210938 112.707031 C 84.707031 112.496094 84.472656 112.027344 84.332031 111.527344 C 84.25 111.445312 84.167969 111.371094 84.085938 111.304688 C 83.101562 111.917969 81.554688 113.109375 80.519531 112.894531 C 80.328125 112.90625 80.136719 112.894531 79.949219 112.835938 C 79.699219 112.753906 79.582031 112.472656 79.726562 112.25 C 78.210938 111.222656 78.957031 104.933594 78.484375 103.265625 C 78.019531 102.976562 77.53125 102.734375 77.042969 102.503906 C 75.363281 101.964844 73.636719 101.371094 72.574219 99.933594 C 71.1875 98.070312 69.730469 95.636719 69.390625 93.265625 C 69.25 92.957031 69.125 92.652344 68.984375 92.34375 C 68.800781 91.9375 69.382812 91.671875 69.597656 92.046875 C 69.648438 92.136719 69.6875 92.222656 69.738281 92.3125 C 69.746094 92.3125 69.753906 92.3125 69.761719 92.3125 C 69.339844 90.515625 68.949219 88.742188 68.289062 87.175781 C 68.519531 84.78125 73.1875 82.019531 75.324219 81.347656 C 81.222656 79.5 89.589844 81.339844 95.40625 83.195312 C 100.558594 84.835938 104.125 88.109375 107.964844 91.871094 C 110.976562 94.832031 118.648438 99.050781 118.550781 103.492188 Z M 172.847656 287.199219 C 169.757812 281.578125 161.011719 280.160156 155.164062 281.023438 C 151.902344 281.503906 149.304688 282.367188 146.300781 283.917969 C 143.578125 285.332031 139.730469 285.539062 137.464844 286.792969 C 134.402344 288.5 134.039062 290.128906 135.835938 292.367188 C 136.644531 293.371094 138.828125 292.46875 139.929688 293.214844 C 140.59375 293.667969 140.386719 295.921875 141.816406 296.792969 C 143.332031 297.714844 144.863281 296.695312 146.34375 297.273438 C 147.800781 297.835938 147.941406 299.484375 149.082031 299.851562 C 151.398438 300.613281 155.1875 300.714844 157.695312 300.847656 C 166.820312 301.335938 172.507812 295.675781 172.847656 287.199219 Z M 172.847656 287.199219 " fill-opacity="1" fill-rule="nonzero"/><g clip-path="url(#028d6caa64)"><path fill="#981d13" d="M 329.117188 291.425781 C 326.113281 299.660156 314.960938 303.753906 307.28125 306.902344 C 295.070312 311.90625 285.617188 316.539062 272.066406 315.976562 C 258.363281 315.40625 243.410156 315.304688 230.351562 310.929688 C 224.4375 308.949219 220.390625 306.9375 213.902344 306.894531 C 208.484375 306.851562 203.429688 307.125 198.125 306.863281 C 192.273438 306.582031 186.53125 307.0625 180.816406 305.511719 C 175.851562 304.167969 171.652344 300.921875 166.375 301.25 C 164.511719 297.554688 162.859375 290.960938 166.484375 286.3125 C 170.050781 281.746094 174.796875 283.707031 179.589844 283.144531 C 180.308594 269.820312 181.246094 263.8125 188.492188 252.253906 C 203.253906 228.71875 238.117188 244.246094 259.050781 246.367188 C 268.65625 247.339844 278.140625 244.664062 287.289062 247.878906 C 298.882812 251.953125 310.269531 259.421875 321.414062 264.996094 C 331.261719 262.753906 331.21875 285.65625 329.117188 291.425781 Z M 329.117188 291.425781 " fill-opacity="1" fill-rule="nonzero"/></g><path fill="#d5986c" d="M 298.675781 266.007812 C 304.417969 266.265625 309.441406 270.410156 313.710938 265.378906 C 317.796875 260.5625 315.769531 258.523438 323.183594 258.441406 C 325.617188 258.410156 328.089844 258.601562 330.261719 257.960938 C 333.761719 256.925781 331.410156 254.78125 335.296875 257.175781 C 337.402344 258.476562 338.328125 261.65625 340.238281 262.882812 C 342.78125 264.515625 346.261719 263.441406 349.214844 263.988281 C 356.367188 265.320312 359.328125 273.277344 364.804688 276.714844 C 361.265625 282.132812 354.273438 290.40625 348.207031 292.734375 C 343.21875 294.648438 339.246094 291.921875 334.636719 292.839844 C 329.613281 304.625 312.890625 300.214844 306.585938 291.53125 C 300.8125 283.578125 299.683594 273.898438 298.675781 266.007812 Z M 298.675781 266.007812 " fill-opacity="1" fill-rule="nonzero"/><path fill="#57271a" d="M 70.210938 87.449219 C 71.046875 89.171875 69.761719 90.925781 69.65625 92.699219 C 69.570312 94.292969 70.492188 95.34375 70.488281 96.726562 C 70.464844 99.933594 65.75 99.378906 63.722656 97.273438 C 56.53125 89.808594 66.253906 78.390625 70.6875 72.300781 C 77.136719 63.433594 85.039062 58.128906 95.851562 61.964844 C 99.863281 63.382812 104.53125 65.953125 107.179688 69.265625 C 110.222656 73.054688 111.566406 77.816406 114.164062 81.914062 C 117.878906 87.789062 121.246094 91.878906 127.417969 95.195312 C 132.457031 97.898438 135.527344 103.765625 139.121094 107.875 C 135 104.601562 127.558594 109.640625 123.035156 109.640625 C 120.238281 109.640625 117.324219 111.394531 114.71875 110.972656 C 112.390625 110.59375 110.101562 108.023438 108.617188 106.199219 C 105.195312 101.984375 103.148438 97.019531 97.066406 96.863281 C 94.488281 96.796875 91.832031 97.066406 89.316406 96.660156 C 86.0625 96.132812 84.820312 94.542969 82.3125 92.699219 C 78.824219 90.109375 72.898438 88.773438 70.210938 87.449219 Z M 317.386719 303.101562 C 318.675781 305.835938 321.117188 304.316406 323.441406 305.355469 C 325.1875 306.140625 326.195312 307.808594 327.84375 309.015625 C 333.578125 313.199219 338.121094 310.035156 344.359375 309.917969 C 349.96875 309.804688 353.703125 310.117188 359.097656 308.46875 C 363.324219 307.175781 369.703125 306.089844 374.039062 306.382812 C 369.382812 304.664062 374.941406 286.511719 372.375 281.671875 C 369.242188 275.777344 361.289062 268.890625 356.25 273.558594 C 352.023438 277.46875 350.183594 285.035156 343.136719 285.699219 C 341 285.898438 334.378906 283.707031 333.023438 284.660156 C 330.269531 286.59375 334.125 291.332031 332.417969 294.167969 C 329.707031 298.65625 315.929688 296.335938 319.394531 289.742188 C 317.5 292.300781 315.636719 299.378906 317.386719 303.101562 Z M 317.386719 303.101562 " fill-opacity="1" fill-rule="nonzero"/><path fill="#57271a" d="M 282.855469 294.363281 C 287.023438 300.089844 286.933594 307.203125 284.328125 313.558594 C 284.078125 314.179688 283.128906 313.730469 283.386719 313.117188 C 285.023438 309.140625 285.769531 304.78125 284.675781 300.554688 C 283.59375 296.371094 280.859375 293 277.453125 290.4375 C 274.339844 288.085938 271.007812 285.847656 267.355469 284.4375 C 263.410156 282.90625 259.390625 282.730469 255.210938 283.027344 C 246.960938 283.617188 238.910156 285.6875 230.644531 286.195312 C 222.410156 286.707031 213.671875 286.949219 205.726562 284.539062 C 198.546875 282.367188 190.578125 282.132812 183.328125 284.253906 C 183.476562 284.613281 183.683594 284.792969 183.964844 284.636719 C 184.304688 284.453125 184.585938 284.886719 184.296875 285.132812 C 183.476562 285.820312 182.972656 285.507812 182.675781 284.710938 C 182.609375 284.785156 182.519531 284.835938 182.394531 284.835938 C 181.90625 284.835938 181.921875 284.074219 182.417969 284.074219 C 182.445312 284.074219 182.476562 284.082031 182.496094 284.089844 C 182.492188 284.058594 182.484375 284.023438 182.484375 283.984375 C 182.070312 281.867188 182.425781 278.191406 182.496094 277.609375 C 183.121094 273.003906 184.527344 268.535156 185.851562 264.09375 C 188.648438 254.746094 195.238281 246.367188 204.273438 242.382812 C 204.605469 242.234375 204.894531 242.730469 204.554688 242.886719 C 196.785156 246.367188 190.761719 253.253906 187.617188 261.09375 C 186.175781 264.691406 185.175781 268.585938 184.25 272.347656 C 183.726562 274.484375 183.273438 276.640625 183.058594 278.828125 C 183.015625 279.265625 182.867188 281.984375 183.148438 283.566406 C 187.085938 282.425781 191.257812 282.042969 195.335938 282.117188 C 199.714844 282.199219 203.636719 283.238281 207.820312 284.421875 C 212.488281 285.746094 217.460938 285.648438 222.285156 285.6875 C 227.351562 285.714844 232.4375 285.480469 237.460938 284.792969 C 241.832031 284.191406 246.167969 283.3125 250.542969 282.691406 C 254.714844 282.101562 259.089844 281.503906 263.285156 282.257812 C 267.066406 282.9375 270.542969 284.585938 273.761719 286.640625 C 277.113281 288.765625 280.488281 291.117188 282.855469 294.363281 Z M 310.351562 300.902344 C 307.871094 299.777344 306.230469 298.558594 304.765625 296.203125 C 301.886719 291.589844 299.785156 286.402344 297.875 281.324219 C 296.972656 278.925781 296.53125 276.332031 296.242188 273.789062 C 295.9375 271.152344 295.699219 268.1875 296.53125 265.617188 C 297.691406 262.023438 300.792969 263.671875 302.980469 265.4375 C 303.476562 265.835938 304.085938 265.0625 303.589844 264.664062 C 301.929688 263.324219 299.195312 261.367188 297.078125 262.949219 C 295.210938 264.34375 295.070312 267.398438 295.027344 269.496094 C 294.878906 277.558594 297.921875 285.058594 301.429688 292.179688 C 302.695312 294.746094 304.09375 297.738281 306.246094 299.6875 C 308.507812 301.742188 311.78125 301.941406 313.679688 304.5 C 314.015625 304.949219 314.738281 304.582031 314.457031 304.0625 C 313.578125 302.4375 311.964844 301.640625 310.351562 300.902344 Z M 227.953125 284.296875 C 223.808594 278.464844 227.003906 271.171875 228.855469 265.097656 C 228.953125 264.773438 228.441406 264.675781 228.335938 264.996094 C 226.355469 271.222656 223.195312 278.628906 227.515625 284.597656 C 227.714844 284.878906 228.152344 284.578125 227.953125 284.296875 Z M 237.867188 276.796875 C 242.410156 266.746094 250.617188 256.015625 262.730469 256.328125 C 263.097656 256.335938 263.128906 255.714844 262.757812 255.675781 C 250.625 254.425781 241.753906 266.886719 237.460938 276.589844 C 237.335938 276.855469 237.742188 277.0625 237.867188 276.796875 Z M 225.734375 290.230469 C 226.679688 291.996094 227.714844 293.71875 228.484375 295.574219 C 228.90625 296.578125 229.394531 297.761719 229.371094 298.867188 C 229.34375 300.132812 228.441406 300.945312 227.265625 300.222656 C 225.761719 299.289062 224.992188 296.703125 224.363281 295.179688 C 223.832031 293.894531 223.410156 292.410156 222.535156 291.300781 C 222.328125 291.035156 221.964844 291.257812 221.9375 291.53125 C 221.589844 294.339844 221.175781 297.234375 219.9375 299.800781 C 218.585938 297.074219 219.050781 293.816406 219.066406 290.867188 C 219.066406 290.355469 218.28125 290.460938 218.273438 290.960938 C 218.25 294.324219 217.769531 297.886719 219.636719 300.878906 C 219.804688 301.152344 220.183594 301.050781 220.316406 300.8125 C 221.738281 298.269531 222.195312 295.351562 222.527344 292.484375 C 223.609375 294.222656 224.105469 296.488281 225.042969 298.261719 C 225.671875 299.453125 226.753906 301.457031 228.402344 301.1875 C 232.886719 300.457031 227.265625 291.566406 226.289062 289.882812 C 226.066406 289.515625 225.539062 289.867188 225.734375 290.230469 Z M 343.546875 265.828125 C 342.863281 267.863281 342.640625 269.785156 341.398438 271.601562 C 340.460938 272.976562 339.253906 274.136719 338.304688 275.488281 C 338.121094 275.753906 338.445312 276.175781 338.75 275.984375 C 340.15625 275.089844 341.28125 273.226562 342.175781 271.882812 C 343.40625 270.042969 343.589844 268.203125 344.285156 266.140625 C 344.441406 265.660156 343.707031 265.34375 343.546875 265.828125 Z M 338.867188 266.421875 C 338.890625 266.398438 338.914062 266.371094 338.933594 266.347656 C 339.246094 266.050781 338.765625 265.644531 338.460938 265.902344 C 337.605469 266.628906 336.96875 267.523438 336.507812 268.535156 C 336.425781 268.710938 336.53125 268.875 336.6875 268.964844 C 336.625 269.515625 336.695312 270.078125 336.789062 270.632812 C 336.835938 271.015625 336.929688 271.410156 337.046875 271.792969 C 337.160156 272.171875 337.746094 272.074219 337.65625 271.675781 C 337.566406 271.277344 337.46875 270.871094 337.402344 270.457031 C 337.335938 269.664062 337.5 268.925781 337.929688 268.089844 C 338.226562 267.53125 338.566406 266.984375 338.867188 266.421875 Z M 331.417969 257.082031 C 330.789062 258.46875 329.976562 259.769531 329.605469 261.261719 C 329.273438 262.59375 329.820312 263.730469 331.335938 263.015625 C 331.707031 262.835938 331.542969 262.261719 331.128906 262.394531 C 330.441406 262.617188 330.085938 262.652344 330.167969 261.847656 C 330.226562 261.234375 330.492188 260.621094 330.722656 260.050781 C 331.097656 259.136719 331.589844 258.277344 331.988281 257.375 C 332.15625 257.007812 331.589844 256.695312 331.417969 257.082031 Z M 324.523438 262.015625 C 324.714844 260.902344 324.65625 259.753906 325.03125 258.675781 C 325.070312 258.566406 325.1875 258.5 325.296875 258.484375 C 325.640625 258.433594 325.972656 258.402344 326.3125 258.476562 C 326.476562 258.515625 326.585938 258.667969 326.59375 258.832031 C 326.621094 258.800781 326.652344 258.765625 326.683594 258.734375 C 326.902344 258.527344 327.265625 258.90625 327.050781 259.121094 C 326.140625 260.015625 325.890625 261.328125 325.03125 262.269531 C 324.863281 262.460938 324.476562 262.277344 324.523438 262.015625 Z M 325.292969 260.871094 C 325.476562 260.546875 325.644531 260.207031 325.832031 259.882812 C 325.675781 259.917969 325.503906 259.851562 325.4375 259.726562 C 325.363281 260.101562 325.328125 260.488281 325.292969 260.871094 Z M 323.757812 260.738281 C 323.796875 260.390625 323.796875 260.050781 323.796875 259.703125 C 323.796875 259.203125 323.011719 259.261719 323.011719 259.761719 C 323.011719 260.082031 323.019531 260.382812 323.042969 260.703125 C 323.070312 261.085938 323.714844 261.152344 323.757812 260.738281 Z M 324.03125 287.527344 C 323.582031 287.496094 323.582031 288.199219 324.03125 288.226562 C 325.1875 288.300781 326.148438 288.648438 326.957031 289.1875 C 325.710938 289.476562 326.898438 291.8125 325.808594 292.335938 C 324.617188 292.914062 320.984375 291.914062 320.828125 290.460938 C 320.785156 290.007812 320 290.054688 320.023438 290.511719 C 320.113281 292.367188 322.894531 293.015625 324.359375 293.140625 C 325.054688 293.203125 326.0625 293.230469 326.59375 292.675781 C 327.042969 292.203125 326.859375 289.773438 327.230469 289.71875 C 327.332031 289.707031 327.390625 289.640625 327.421875 289.558594 C 328.488281 290.445312 329.265625 291.699219 329.828125 293.15625 C 329.980469 293.5625 330.566406 293.320312 330.449219 292.921875 C 329.554688 289.875 327.25 287.734375 324.03125 287.527344 Z M 318.085938 284.976562 C 317.160156 284.039062 316.300781 282.964844 315.703125 281.777344 C 313.609375 277.660156 314.058594 272.140625 314.785156 267.742188 C 314.851562 267.351562 314.28125 267.300781 314.183594 267.664062 C 313.171875 271.542969 313.222656 276.042969 314.25 279.921875 C 314.738281 281.761719 315.6875 283.394531 316.945312 284.820312 C 317.449219 285.390625 318.210938 285.871094 318.617188 286.511719 C 319.484375 287.894531 318.714844 289.515625 318.304688 290.941406 C 318.21875 291.257812 318.714844 291.382812 318.808594 291.066406 C 319.195312 289.800781 320.148438 288.324219 319.675781 286.964844 C 319.394531 286.171875 318.652344 285.554688 318.085938 284.976562 Z M 140.03125 293.164062 C 140.027344 293.164062 140.027344 293.164062 140.027344 293.164062 C 140.019531 293.164062 140.019531 293.171875 140.011719 293.171875 C 140.011719 293.164062 140.027344 293.164062 140.03125 293.164062 Z M 143.390625 292.039062 C 144.871094 291.613281 146.359375 291.183594 147.808594 290.660156 C 148.136719 290.539062 147.988281 290.113281 147.683594 290.179688 C 147.683594 290.179688 147.683594 290.171875 147.683594 290.171875 C 145.929688 290.769531 144.15625 291.28125 142.386719 291.8125 C 141.617188 292.039062 140.359375 292.179688 139.65625 292.550781 C 139.335938 292.527344 138.980469 292.566406 138.789062 292.542969 C 138.050781 292.460938 137.316406 292.320312 136.585938 292.21875 C 136.378906 292.1875 136.230469 292.5 136.390625 292.640625 C 136.460938 292.691406 136.519531 292.75 136.578125 292.808594 C 136.695312 292.933594 136.835938 292.875 136.902344 292.773438 C 137.382812 292.855469 137.859375 292.941406 138.339844 293.015625 C 138.398438 293.023438 138.804688 293.054688 139.167969 293.066406 C 139.203125 293.082031 139.25 293.089844 139.292969 293.074219 C 139.292969 293.082031 139.300781 293.089844 139.300781 293.097656 C 139.316406 293.089844 139.34375 293.082031 139.359375 293.074219 C 139.5 293.082031 139.617188 293.074219 139.691406 293.074219 C 139.765625 293.164062 139.890625 293.222656 140.027344 293.164062 C 140.171875 293.132812 140.277344 293 140.246094 292.855469 C 140.640625 292.792969 141.039062 292.75 141.351562 292.660156 C 142.03125 292.460938 142.703125 292.242188 143.390625 292.039062 Z M 153.425781 295.078125 C 151.441406 295.253906 149.421875 295.667969 147.527344 296.269531 C 145.773438 296.820312 144.117188 297.242188 142.269531 296.859375 C 141.957031 296.792969 141.917969 297.28125 142.222656 297.347656 C 143.902344 297.703125 145.441406 297.449219 147.054688 296.949219 C 149.1875 296.289062 151.363281 296.039062 153.507812 295.5 C 153.789062 295.433594 153.699219 295.054688 153.425781 295.078125 Z M 155.851562 298.941406 C 154.550781 299.105469 153.261719 299.371094 151.953125 299.488281 C 151 299.570312 150.074219 299.554688 149.15625 299.835938 C 148.867188 299.925781 149.023438 300.363281 149.3125 300.273438 C 150.316406 299.96875 151.355469 300.035156 152.390625 299.917969 C 153.574219 299.785156 154.742188 299.5625 155.925781 299.414062 C 156.238281 299.386719 156.164062 298.90625 155.851562 298.941406 Z M 137.40625 287.289062 C 139.730469 285.820312 142.898438 285.390625 145.554688 284.792969 C 148.566406 284.113281 151.574219 283.492188 154.683594 283.492188 C 155.054688 283.492188 155.054688 282.914062 154.683594 282.914062 C 151.339844 282.914062 148.039062 283.601562 144.804688 284.394531 C 142.28125 285.011719 139.359375 285.480469 137.140625 286.90625 C 136.882812 287.074219 137.15625 287.453125 137.40625 287.289062 Z M 131.847656 237.238281 C 131.78125 237.085938 131.613281 236.964844 131.433594 237.03125 C 130.738281 237.296875 130.703125 238.6875 130.546875 239.285156 C 129.957031 241.546875 128.949219 243.683594 128.214844 245.90625 C 127.601562 247.785156 127.003906 249.808594 127.089844 251.8125 C 127.1875 254.082031 128.355469 256.128906 129.414062 258.070312 C 129.644531 258.484375 130.316406 258.179688 130.089844 257.761719 C 129.058594 255.875 127.941406 253.941406 127.855469 251.753906 C 127.765625 249.652344 128.421875 247.539062 129.097656 245.574219 C 129.339844 244.851562 132.34375 238.222656 131.488281 237.691406 C 131.695312 237.816406 131.996094 237.5625 131.902344 237.34375 C 131.871094 237.304688 131.855469 237.269531 131.847656 237.238281 Z M 188.648438 205.507812 C 188.824219 205.457031 188.765625 205.21875 188.617188 205.183594 C 187.507812 204.902344 186.242188 205.117188 185.058594 205.265625 C 185.414062 204.183594 185.644531 203.097656 185.679688 201.992188 C 185.710938 201.984375 185.746094 201.976562 185.777344 201.96875 C 186.574219 201.820312 187.441406 201.820312 188.226562 201.597656 C 188.402344 201.546875 188.417969 201.289062 188.234375 201.238281 C 187.46875 201 186.484375 201.296875 185.6875 201.496094 C 185.671875 200.816406 185.574219 200.128906 185.382812 199.433594 C 185.265625 199.019531 184.652344 199.265625 184.761719 199.671875 C 184.945312 200.320312 185.015625 200.984375 185.007812 201.65625 C 184.097656 201.871094 183.1875 202.125 182.320312 202.472656 C 182.089844 202.558594 182.195312 202.929688 182.429688 202.839844 C 183.261719 202.539062 184.117188 202.308594 184.984375 202.125 C 184.910156 203.195312 184.644531 204.273438 184.28125 205.34375 C 184.25 205.34375 184.222656 205.351562 184.191406 205.351562 C 182.320312 205.492188 180.382812 205.597656 178.5625 205.066406 C 178.191406 204.953125 177.953125 205.507812 178.332031 205.625 C 179.96875 206.113281 181.65625 206.128906 183.339844 206.039062 C 183.570312 206.023438 183.808594 206.019531 184.042969 206.011719 C 183.453125 207.585938 182.691406 209.113281 182.097656 210.503906 C 181.394531 212.136719 179.632812 214.929688 180.070312 216.769531 C 180.136719 217.035156 180.523438 217.035156 180.558594 216.746094 C 180.980469 213.097656 183.460938 209.59375 184.820312 205.980469 C 186.109375 205.9375 187.46875 205.863281 188.648438 205.507812 Z M 99.046875 157.277344 C 100.039062 156.550781 99.375 154.550781 99.136719 153.648438 C 98.664062 151.859375 97.6875 150.046875 97.480469 148.214844 C 97.441406 147.867188 96.902344 147.929688 96.945312 148.273438 C 97.21875 150.78125 98.886719 153.054688 98.929688 155.621094 C 98.945312 156.664062 98.507812 157.1875 97.671875 156.300781 C 97.207031 155.804688 96.953125 154.890625 96.738281 154.261719 C 96.332031 153.078125 96.109375 151.828125 95.675781 150.65625 C 95.5625 150.351562 95.089844 150.484375 95.082031 150.78125 C 95.007812 153.117188 95.535156 155.503906 95.050781 157.816406 C 94.992188 158.082031 94.75 159.324219 94.386719 159.5 C 93.617188 159.882812 93.453125 158.125 93.378906 157.570312 C 93.238281 156.601562 93.238281 155.613281 93.136719 154.644531 C 93.097656 154.304688 92.582031 154.347656 92.601562 154.6875 C 92.757812 156.625 92.558594 158.777344 93.867188 160.378906 C 93.964844 160.488281 94.15625 160.5625 94.28125 160.453125 C 96.175781 158.804688 96.007812 156.003906 95.8125 153.441406 C 96.480469 155.664062 97.546875 158.363281 99.046875 157.277344 Z M 67.429688 168.648438 C 65.824219 172.992188 66.105469 177.894531 69.257812 181.492188 C 69.457031 181.722656 69.835938 181.433594 69.636719 181.195312 C 66.632812 177.625 66.34375 173.058594 67.75 168.75 C 67.808594 168.582031 67.496094 168.472656 67.429688 168.648438 Z M 164.953125 169.707031 C 155.636719 169.171875 146.25 170.332031 136.925781 170.398438 C 134.675781 170.414062 132.351562 170.488281 130.109375 170.273438 C 128.1875 170.089844 127.507812 168.820312 126.261719 167.578125 C 123.578125 164.910156 120.5 162.640625 117.074219 161.015625 C 118.9375 159.417969 120.378906 157.1875 121.875 155.265625 C 125.257812 150.941406 128.617188 146.597656 132.265625 142.496094 C 132.402344 142.339844 132.542969 142.195312 132.683594 142.039062 C 132.78125 142.105469 132.914062 142.125 133.027344 142.046875 C 136.066406 139.613281 140.261719 138.832031 143.886719 137.640625 C 147.65625 136.40625 151.390625 133.214844 155.453125 133.257812 C 155.816406 133.265625 155.882812 132.652344 155.511719 132.625 C 153.382812 132.417969 151.191406 133.585938 149.347656 134.5 C 147.476562 135.425781 145.664062 136.371094 143.679688 137.027344 C 141.492188 137.753906 139.269531 138.371094 137.117188 139.199219 C 136.140625 139.578125 135.039062 139.976562 134.078125 140.546875 C 137.160156 137.234375 140.386719 134.050781 143.332031 130.621094 C 144.40625 129.378906 145.414062 128.003906 145.40625 126.296875 C 145.398438 124.480469 144.355469 122.824219 143.519531 121.289062 C 142.007812 118.53125 140.085938 115.273438 136.902344 114.238281 C 132.8125 112.914062 128.222656 115.007812 124.570312 116.683594 C 121.070312 118.296875 117.398438 119.773438 114.914062 122.855469 C 113.078125 125.125 111.679688 127.769531 110.042969 130.183594 C 108.347656 132.691406 106.566406 135.039062 104.507812 137.257812 C 103.457031 138.386719 102.488281 139.585938 101.527344 140.796875 C 100.859375 139.464844 100.152344 138.167969 99.527344 136.8125 C 98.765625 135.152344 98.441406 133.496094 98.003906 131.738281 C 97.101562 128.125 95.214844 124.851562 94.15625 121.289062 C 94.0625 120.976562 93.574219 121.097656 93.660156 121.414062 C 94.667969 124.886719 96.449219 128.078125 97.367188 131.574219 C 97.804688 133.246094 98.054688 134.890625 98.722656 136.503906 C 99.417969 138.167969 100.296875 139.738281 101.074219 141.367188 C 100.644531 141.914062 100.21875 142.460938 99.78125 143.007812 C 98.714844 144.335938 97.375 145.84375 97.042969 147.566406 C 96.945312 148.066406 97.722656 148.203125 97.820312 147.699219 C 98.144531 146.035156 99.523438 144.582031 100.550781 143.300781 C 100.914062 142.851562 101.261719 142.398438 101.617188 141.941406 C 101.792969 141.921875 101.941406 141.773438 101.898438 141.582031 C 102.644531 140.621094 103.390625 139.660156 104.199219 138.757812 C 107.328125 135.253906 110.042969 131.671875 112.605469 127.71875 C 113.734375 125.964844 114.765625 124.089844 116.207031 122.558594 C 117.753906 120.925781 119.683594 119.832031 121.699219 118.871094 C 125.375 117.128906 129.324219 114.949219 133.453125 114.660156 C 138.324219 114.320312 140.847656 117.957031 142.949219 121.804688 C 143.808594 123.386719 144.960938 125.183594 144.597656 127.058594 C 144.175781 129.253906 141.949219 131.070312 140.492188 132.625 C 137.230469 136.105469 133.890625 139.511719 130.761719 143.109375 C 127.46875 146.886719 124.414062 150.855469 121.335938 154.800781 C 119.929688 156.601562 118.597656 158.621094 116.941406 160.210938 C 114.808594 162.25 111.722656 163.386719 109.035156 164.472656 C 105.109375 166.070312 101.074219 167.554688 97.871094 170.421875 C 97.628906 170.636719 97.976562 171 98.21875 170.785156 C 102.140625 167.339844 107.285156 165.996094 111.96875 163.925781 C 113.527344 163.238281 115.132812 162.476562 116.519531 161.445312 C 120.113281 163.113281 123.464844 165.515625 126.1875 168.40625 C 126.949219 169.21875 127.566406 170.207031 128.644531 170.636719 C 130.429688 171.34375 132.796875 171.027344 134.675781 171.042969 C 144.777344 171.140625 154.898438 170.414062 165 170.238281 C 165.332031 170.222656 165.28125 169.71875 164.953125 169.707031 Z M 139.691406 176.894531 C 139.285156 176.878906 139.277344 177.515625 139.683594 177.53125 C 145.574219 177.765625 151.367188 178.925781 157.175781 179.835938 C 163.191406 180.773438 169.238281 181.226562 175.203125 182.535156 C 175.660156 182.636719 175.925781 181.964844 175.453125 181.832031 C 169.816406 180.199219 163.84375 180.042969 158.066406 179.199219 C 151.953125 178.292969 145.886719 177.078125 139.691406 176.894531 Z M 187.019531 193.078125 C 190.097656 192.722656 191.488281 190.589844 193.367188 188.378906 C 193.613281 188.089844 193.191406 187.707031 192.929688 187.988281 C 191.960938 189.027344 191.175781 190.300781 190.082031 191.214844 C 188.394531 192.628906 186.167969 192.5625 184.074219 192.605469 C 179.789062 192.695312 175.542969 192.496094 171.273438 192.15625 C 167.019531 191.816406 162.851562 191.777344 158.589844 192.015625 C 156.414062 192.140625 154.203125 192.296875 152.027344 192.089844 C 150.042969 191.902344 148.113281 191.410156 146.109375 191.445312 C 145.78125 191.453125 145.773438 191.949219 146.101562 191.957031 C 148.542969 191.976562 150.910156 192.6875 153.351562 192.777344 C 155.609375 192.855469 157.867188 192.695312 160.113281 192.574219 C 164.710938 192.332031 169.207031 192.679688 173.78125 193.035156 C 178.125 193.359375 182.691406 193.582031 187.019531 193.078125 Z M 121.71875 138.675781 C 123.273438 138.167969 124.847656 137.753906 126.425781 137.324219 C 127.507812 137.027344 128.917969 136.8125 129.734375 135.992188 C 129.925781 135.800781 129.679688 135.503906 129.453125 135.574219 C 126.617188 136.363281 123.726562 137.308594 120.929688 138.269531 C 117.324219 139.503906 113.691406 140.828125 109.835938 140.738281 C 109.496094 140.730469 109.53125 141.253906 109.867188 141.261719 C 113.996094 141.386719 117.855469 139.941406 121.71875 138.675781 Z M 79.988281 97.738281 C 81.628906 97.324219 83.324219 97.257812 84.847656 98.070312 C 85.144531 98.226562 85.441406 97.753906 85.160156 97.566406 C 83.207031 96.265625 80.625 96.730469 78.53125 97.449219 C 77.09375 97.945312 75.496094 98.984375 77.101562 100.351562 C 77.492188 100.6875 77.96875 100.019531 77.566406 99.695312 C 76.316406 98.652344 79.425781 97.886719 79.988281 97.738281 Z M 82.886719 103.226562 C 82.917969 103.308594 82.984375 103.382812 83.074219 103.433594 C 83.375 104.003906 84.050781 104.394531 84.613281 103.945312 C 84.753906 103.832031 84.839844 103.714844 84.886719 103.605469 C 85.046875 103.433594 85.128906 103.183594 85.070312 102.851562 C 85.019531 102.578125 84.886719 102.347656 84.707031 102.171875 C 86.320312 101.898438 87.941406 101.949219 89.769531 102.472656 C 90.226562 102.605469 90.496094 101.914062 90.035156 101.78125 C 88.296875 101.285156 86.625 101.113281 84.980469 101.320312 C 84.980469 101.121094 84.988281 100.929688 84.988281 100.730469 C 84.996094 100.40625 84.484375 100.390625 84.484375 100.707031 C 84.484375 100.9375 84.492188 101.167969 84.492188 101.394531 C 84.027344 101.476562 83.570312 101.574219 83.109375 101.710938 C 82.859375 101.640625 82.605469 101.578125 82.347656 101.507812 C 81.933594 101.394531 81.59375 101.195312 81.214844 101.003906 C 81.007812 100.894531 80.757812 101.152344 80.941406 101.335938 C 81.320312 101.71875 81.851562 101.875 82.390625 101.972656 C 81.882812 102.164062 81.371094 102.386719 80.867188 102.660156 C 80.542969 102.835938 80.765625 103.332031 81.113281 103.242188 C 81.371094 103.175781 81.652344 103.152344 81.933594 103.152344 C 81.882812 103.21875 81.820312 103.28125 81.761719 103.347656 C 81.480469 103.679688 81.105469 103.996094 80.910156 104.386719 C 80.816406 104.578125 81.050781 104.734375 81.214844 104.640625 C 81.578125 104.425781 81.84375 104.003906 82.117188 103.6875 C 82.257812 103.523438 82.40625 103.359375 82.554688 103.199219 C 82.664062 103.214844 82.777344 103.21875 82.886719 103.226562 Z M 88.867188 114.140625 C 88.480469 114.28125 87.992188 114.3125 87.675781 114.007812 C 87.371094 113.722656 87.402344 113.320312 87.511719 112.960938 C 87.054688 113.09375 86.585938 113.210938 86.097656 113.253906 C 85.664062 113.300781 85.515625 112.628906 85.957031 112.582031 C 87.683594 112.40625 89.175781 111.386719 90.910156 111.269531 C 91.375 111.238281 91.492188 111.953125 91.019531 112 C 90.996094 112 90.984375 112.007812 90.960938 112.007812 C 90.433594 112.804688 89.769531 113.824219 88.867188 114.140625 Z M 89.449219 112.953125 C 89.679688 112.703125 89.878906 112.433594 90.074219 112.167969 C 89.445312 112.316406 88.828125 112.539062 88.222656 112.746094 C 88.230469 112.796875 88.230469 112.847656 88.199219 112.90625 C 88.015625 113.316406 87.972656 113.742188 88.546875 113.601562 C 88.917969 113.515625 89.207031 113.21875 89.449219 112.953125 Z M 91.308594 114.476562 C 90.621094 114.339844 89.960938 114.851562 89.398438 115.199219 C 89.027344 115.429688 89.308594 116.027344 89.710938 115.8125 C 89.96875 115.671875 90.214844 115.515625 90.480469 115.398438 C 90.761719 115.265625 91.0625 115.230469 91.351562 115.109375 C 91.613281 115 91.597656 114.527344 91.308594 114.476562 Z M 85.070312 109.8125 C 84.640625 109.921875 84.234375 110.285156 83.871094 110.535156 C 83.398438 110.859375 82.933594 111.203125 82.4375 111.480469 C 82.066406 111.6875 82.445312 112.234375 82.804688 112.019531 C 83.679688 111.527344 84.457031 110.882812 85.328125 110.394531 C 85.667969 110.210938 85.417969 109.722656 85.070312 109.8125 Z M 99.730469 113.582031 C 100.089844 113.128906 100.4375 112.679688 100.765625 112.199219 C 100.851562 112.074219 101 112.027344 101.132812 112.042969 C 101.628906 110.789062 101.949219 109.546875 102.117188 108.164062 C 102.230469 107.253906 102.386719 106.40625 102.761719 105.585938 C 102.667969 105.023438 102.511719 104.453125 102.257812 103.894531 C 101.769531 102.800781 100.632812 101.519531 100.492188 100.324219 C 100.363281 99.273438 101.1875 98.296875 101.578125 97.382812 C 101.761719 96.960938 102.378906 97.300781 102.207031 97.714844 C 101.703125 98.925781 101.082031 99.480469 101.5625 100.972656 C 101.785156 101.667969 102.304688 102.363281 102.613281 103.027344 C 102.96875 103.78125 103.222656 104.476562 103.355469 105.222656 C 103.429688 105.28125 103.480469 105.363281 103.480469 105.460938 C 103.582031 107.242188 103.503906 109.019531 103.53125 110.808594 C 103.554688 112.167969 103.671875 113.484375 103.257812 114.800781 C 103.207031 114.976562 102.941406 115.082031 102.777344 114.992188 C 102.058594 114.585938 101.386719 114.410156 100.640625 114.296875 C 101.480469 115.746094 102.386719 117.46875 103.925781 118.28125 C 105.722656 119.226562 108.421875 118.921875 110.167969 118.023438 C 113.210938 116.449219 114.511719 113.019531 116.886719 110.722656 C 117.207031 110.410156 117.648438 110.921875 117.347656 111.238281 C 114.550781 114.113281 112.871094 118.449219 108.542969 119.328125 C 106.832031 119.675781 104.828125 119.683594 103.300781 118.746094 C 101.808594 117.828125 100.898438 116.167969 100.046875 114.703125 C 99.941406 114.527344 100.011719 114.339844 100.128906 114.230469 C 100.0625 114.222656 100.011719 114.214844 99.941406 114.207031 C 99.601562 114.1875 99.566406 113.78125 99.730469 113.582031 Z M 101.414062 113.796875 C 101.957031 113.933594 102.472656 114.070312 102.585938 114.074219 C 102.546875 114.054688 102.503906 114.023438 102.480469 113.972656 C 102.445312 113.882812 102.421875 113.796875 102.390625 113.714844 C 102.378906 113.734375 102.371094 113.75 102.355469 113.773438 C 102.207031 113.949219 101.898438 113.957031 101.835938 113.691406 C 101.816406 113.59375 101.800781 113.5 101.785156 113.402344 C 101.675781 113.535156 101.550781 113.667969 101.414062 113.796875 Z M 52.996094 166.417969 C 52.875 166.363281 52.757812 166.320312 52.632812 166.277344 C 52.757812 166.867188 52.800781 167.464844 52.957031 168.050781 C 53.023438 168.300781 53.171875 168.730469 53.253906 168.820312 C 53.453125 169.023438 53.777344 169.164062 53.992188 169.386719 C 54.304688 169.710938 54.59375 170.046875 54.792969 170.453125 C 54.894531 170.664062 54.570312 170.820312 54.4375 170.644531 C 53.984375 170.058594 53.503906 169.59375 52.957031 169.136719 C 52.21875 168.507812 52.304688 167.15625 52.089844 166.292969 C 52.070312 166.210938 52.085938 166.136719 52.121094 166.078125 C 51.980469 166.011719 51.847656 165.929688 51.742188 165.8125 C 51.382812 165.425781 51.203125 164.828125 51.078125 164.289062 C 50.9375 164.148438 50.839844 163.976562 50.820312 163.757812 C 50.765625 163.222656 51.113281 162.675781 51.484375 162.332031 C 51.542969 162.269531 51.617188 162.25 51.683594 162.242188 C 52.46875 161.664062 54.894531 163.460938 54.148438 164.5625 C 53.667969 165.269531 52.484375 164.96875 51.796875 164.703125 C 51.964844 165.0625 52.195312 165.382812 52.574219 165.609375 C 53.015625 165.878906 53.570312 166.03125 54.039062 166.277344 C 55.332031 166.941406 56.628906 167.605469 57.921875 168.277344 C 58.21875 168.433594 57.980469 168.871094 57.683594 168.78125 C 56 168.285156 54.570312 167.148438 52.996094 166.417969 Z M 52.226562 164.140625 C 52.460938 164.214844 53.4375 164.523438 53.601562 164.15625 C 53.734375 163.851562 53.097656 163.34375 52.914062 163.203125 C 52.71875 163.054688 52.511719 162.921875 52.292969 162.839844 C 52.171875 162.796875 52.054688 162.796875 51.9375 162.796875 C 51.707031 163.015625 51.367188 163.425781 51.5 163.742188 C 51.597656 163.976562 52.003906 164.066406 52.226562 164.140625 Z M 47.957031 136.519531 C 49.074219 136.347656 49.921875 135.675781 50.894531 135.152344 C 52.171875 134.464844 53.59375 133.886719 54.96875 133.429688 C 55.035156 133.40625 55.058594 133.355469 55.074219 133.304688 C 55.8125 132.992188 56.566406 132.726562 57.269531 132.359375 C 58.300781 131.816406 59.070312 131.027344 59.933594 130.289062 C 60.355469 130.007812 60.761719 129.710938 61.164062 129.410156 C 61.289062 129.34375 61.421875 129.292969 61.546875 129.222656 C 61.5625 129.378906 61.585938 129.527344 61.601562 129.675781 C 61.777344 131.050781 61.925781 132.433594 62.242188 133.785156 C 62.863281 136.4375 63.863281 139.015625 64.945312 141.507812 C 65.535156 142.878906 65.949219 144.179688 65.941406 145.703125 C 65.9375 146.523438 65.921875 147.308594 66.34375 148.039062 C 67.015625 149.222656 68.40625 150.183594 69.296875 151.207031 C 70.367188 152.449219 71.507812 153.691406 71.632812 155.421875 C 71.65625 155.671875 71.988281 155.664062 72.019531 155.421875 C 72.246094 153.210938 70.152344 151.203125 68.777344 149.707031 C 67.75 148.601562 66.675781 148.015625 66.476562 146.433594 C 66.296875 145.023438 66.410156 143.871094 65.921875 142.472656 C 64.824219 139.328125 63.316406 136.378906 62.65625 133.074219 C 62.421875 131.914062 62.398438 130.378906 62.199219 128.9375 C 64.101562 128.234375 66.289062 128.125 68.199219 127.480469 C 68.511719 127.378906 68.386719 126.882812 68.074219 126.984375 C 66.15625 127.664062 64.042969 127.828125 62.140625 128.542969 C 61.960938 127.480469 61.671875 126.484375 61.089844 125.765625 C 60.875 125.507812 60.4375 125.796875 60.652344 126.0625 C 61.230469 126.777344 61.386719 127.785156 61.496094 128.738281 C 61.429688 128.796875 61.371094 128.855469 61.304688 128.921875 C 61.140625 129.003906 60.972656 129.078125 60.808594 129.171875 C 60.140625 129.566406 59.617188 130.082031 59.054688 130.605469 C 58.515625 130.953125 57.960938 131.285156 57.410156 131.65625 C 57.34375 131.699219 57.34375 131.773438 57.375 131.824219 C 56.472656 132.335938 55.515625 132.726562 54.539062 133.214844 C 53.3125 133.53125 52.113281 133.976562 50.980469 134.546875 C 49.945312 135.0625 49.042969 135.867188 47.875 136.074219 C 47.636719 136.117188 47.703125 136.554688 47.957031 136.519531 Z M 64.707031 149.863281 C 63.183594 150.800781 61.917969 151.933594 60.816406 153.351562 C 60.683594 153.523438 60.972656 153.75 61.105469 153.589844 C 62.222656 152.234375 63.515625 151.195312 64.980469 150.25 C 65.246094 150.078125 64.960938 149.707031 64.707031 149.863281 Z M 72.847656 188.695312 C 65.78125 190.816406 58.320312 192.148438 50.996094 192.929688 C 48.089844 193.242188 45.121094 193.390625 42.222656 192.988281 C 39.148438 192.574219 36.109375 191.976562 33.03125 191.578125 C 28.148438 190.941406 23.332031 189.996094 18.808594 187.988281 C 17.261719 187.300781 15.714844 186.566406 14.109375 186.035156 C 13.453125 185.816406 12.46875 185.386719 11.808594 185.808594 C 11.519531 185.992188 11.832031 186.5 12.136719 186.324219 C 13.105469 185.753906 16.269531 187.601562 17.179688 188 C 18.617188 188.636719 20.023438 189.273438 21.511719 189.777344 C 27.777344 191.882812 34.324219 192.390625 40.808594 193.515625 C 46.039062 194.421875 51.300781 193.757812 56.496094 192.929688 C 61.066406 192.207031 65.632812 191.410156 70.117188 190.25 C 70.722656 192.546875 70.457031 194.984375 70.285156 197.320312 C 70.085938 200.144531 70.152344 202.957031 70.199219 205.789062 C 70.316406 212.601562 70.332031 219.414062 70.199219 226.222656 C 70.070312 232.703125 69.65625 239.167969 69.804688 245.65625 C 69.945312 252.09375 70.265625 258.515625 70.414062 264.949219 C 70.457031 266.714844 70.582031 268.476562 70.605469 270.242188 C 70.621094 271.59375 71.019531 275.050781 69.71875 275.96875 C 69.207031 276.332031 69.746094 277.144531 70.257812 276.78125 C 71.195312 276.125 71.335938 274.734375 71.449219 273.683594 C 71.648438 271.808594 71.582031 269.910156 71.507812 268.03125 C 71.285156 262.453125 71.160156 256.875 70.914062 251.292969 C 70.292969 237.113281 71.316406 222.933594 71.09375 208.738281 C 71.035156 205.167969 70.804688 201.578125 71.019531 198.007812 C 71.167969 195.570312 71.492188 192.960938 70.886719 190.550781 C 71.027344 190.433594 71.101562 190.195312 70.929688 190.054688 C 70.921875 190.050781 70.921875 190.050781 70.914062 190.042969 C 71.640625 189.847656 72.367188 189.640625 73.089844 189.429688 C 73.59375 189.296875 73.328125 188.554688 72.847656 188.695312 Z M 72.847656 188.695312 " fill-opacity="1" fill-rule="nonzero"/><path fill="#d5986c" d="M 170.191406 254.632812 C 170.265625 255.035156 169.652344 255.167969 169.578125 254.773438 C 168.980469 251.671875 170.007812 248.632812 170.703125 245.632812 C 171.117188 243.832031 171.539062 241.894531 171.191406 240.046875 C 170.851562 238.214844 169.710938 236.945312 168.371094 235.722656 C 166.175781 233.722656 163.917969 232.042969 162.054688 229.710938 C 161.402344 228.890625 160.730469 228.082031 160.046875 227.292969 C 159.820312 227.328125 159.546875 227.195312 159.550781 226.886719 C 159.550781 226.828125 159.546875 226.777344 159.546875 226.714844 C 157.945312 224.863281 156.296875 223.042969 154.652344 221.21875 C 152.132812 218.417969 149.609375 215.609375 147.300781 212.625 C 145.351562 210.105469 143.894531 207.339844 142.105469 204.71875 C 140.128906 201.820312 137.15625 200.1875 133.921875 199.019531 C 130.71875 197.867188 127.792969 196.75 124.929688 194.882812 C 118.886719 190.941406 113.425781 186.132812 106.988281 182.8125 C 101.867188 180.582031 96.835938 178.234375 92.582031 174.539062 C 92.242188 174.242188 92.757812 173.777344 93.089844 174.066406 C 97.347656 177.789062 102.464844 180.152344 107.601562 182.40625 C 107.742188 182.46875 107.800781 182.601562 107.800781 182.726562 C 111.285156 184.535156 114.511719 186.789062 117.695312 189.101562 C 121.148438 191.617188 124.605469 194.429688 128.453125 196.328125 C 131.523438 197.84375 134.988281 198.457031 137.96875 200.164062 C 140.234375 201.457031 141.972656 203.292969 143.304688 205.5 C 147.21875 211.996094 152.152344 217.472656 157.207031 223.09375 C 158 223.980469 158.769531 224.914062 159.523438 225.851562 C 159.339844 222.703125 158.019531 219.902344 157.109375 216.886719 C 156.214844 213.910156 155.773438 210.828125 154.867188 207.84375 C 154.734375 207.390625 155.351562 207.171875 155.550781 207.59375 C 156.957031 210.511719 157.035156 213.945312 158.007812 217.019531 C 159.042969 220.308594 160.457031 223.382812 160.375 226.910156 C 161.660156 228.496094 162.957031 230.078125 164.390625 231.476562 C 166.335938 233.375 168.808594 234.859375 170.488281 237.023438 C 170.355469 233.597656 171.730469 230.050781 172.722656 226.84375 C 172.804688 226.574219 173.242188 226.6875 173.191406 226.953125 C 172.902344 228.511719 172.390625 230.003906 171.9375 231.527344 C 171.6875 232.382812 171.4375 233.242188 171.25 234.121094 C 171.125 234.734375 171.167969 236.699219 170.660156 237.222656 C 170.734375 237.15625 170.886719 237.203125 170.875 237.3125 L 170.859375 237.445312 C 170.859375 237.460938 170.84375 237.46875 170.835938 237.476562 C 174.253906 242.53125 169.140625 249.179688 170.191406 254.632812 Z M 185.015625 231.882812 C 182.46875 232.273438 179.796875 233.144531 177.453125 234.195312 C 175.5 235.066406 172.835938 236.300781 171.5625 238.074219 C 171.390625 238.3125 171.730469 238.621094 171.910156 238.378906 C 173.285156 236.523438 176.261719 235.265625 178.296875 234.421875 C 180.507812 233.507812 182.890625 233.144531 185.101562 232.265625 C 185.296875 232.191406 185.242188 231.84375 185.015625 231.882812 Z M 152.316406 218.867188 C 149.066406 216.953125 144.722656 217.871094 141.148438 217.980469 C 140.808594 217.988281 140.800781 218.582031 141.148438 218.582031 C 144.679688 218.617188 148.851562 217.523438 152.078125 219.414062 C 152.398438 219.609375 152.640625 219.0625 152.316406 218.867188 Z M 126.386719 199.757812 C 124.324219 200.21875 122.238281 200.835938 120.351562 201.796875 C 119.980469 201.992188 120.195312 202.609375 120.574219 202.417969 C 123.886719 200.742188 128.140625 199.515625 131.84375 200.203125 C 132.0625 200.246094 132.308594 199.929688 132.078125 199.765625 C 130.621094 198.703125 127.988281 199.402344 126.386719 199.757812 Z M 76.019531 156.804688 C 75.191406 156.359375 74.195312 155.988281 73.277344 156.351562 C 72.898438 156.5 73.179688 157.054688 73.550781 156.914062 C 74.378906 156.589844 75.429688 157.136719 76.117188 157.570312 C 76.738281 157.964844 77.078125 158.503906 77.589844 158.976562 C 77.714844 159.09375 77.960938 158.984375 77.972656 158.820312 C 78.027344 157.941406 76.664062 157.148438 76.019531 156.804688 Z M 120.882812 220.605469 C 120.121094 223 119.78125 219.496094 119.714844 218.859375 C 119.601562 217.765625 119.535156 216.675781 119.375 215.59375 C 119.152344 214.117188 118.773438 212.683594 117.671875 211.621094 C 117.539062 211.492188 117.363281 211.492188 117.226562 211.605469 C 114.757812 213.605469 115.613281 219.121094 116.316406 221.765625 C 116.40625 222.097656 116.945312 222.03125 116.859375 221.691406 C 116.523438 220.375 116.382812 219 116.347656 217.648438 C 116.3125 216.378906 116.109375 213.605469 117.132812 212.640625 C 117.636719 212.167969 117.222656 212.277344 117.722656 212.640625 C 118.125 212.925781 118.265625 213.605469 118.40625 214.074219 C 118.746094 215.136719 118.832031 216.265625 118.9375 217.375 C 119.09375 218.964844 119.167969 220.574219 119.707031 222.097656 C 119.765625 222.261719 119.9375 222.363281 120.113281 222.3125 C 121 222.054688 121.320312 221.550781 121.355469 220.632812 C 121.355469 220.339844 120.949219 220.375 120.882812 220.605469 Z M 82.917969 67.144531 C 81.214844 68.222656 79.410156 69.058594 78.035156 70.566406 C 76.679688 72.042969 75.480469 73.699219 74.296875 75.316406 C 72.996094 77.105469 71.664062 78.84375 70.316406 80.601562 C 69.4375 81.746094 68.792969 82.929688 69.28125 84.375 C 69.398438 84.722656 69.953125 84.589844 69.835938 84.242188 C 69.191406 82.441406 70.628906 81.066406 71.675781 79.789062 C 72.632812 78.628906 73.453125 77.363281 74.328125 76.144531 C 75.671875 74.269531 77.101562 72.101562 78.78125 70.492188 C 80.0625 69.257812 81.695312 68.511719 83.148438 67.507812 C 83.359375 67.359375 83.125 67.011719 82.917969 67.144531 Z M 113.535156 92.097656 C 113.726562 92.03125 113.625 91.707031 113.433594 91.757812 C 108.480469 93.097656 103.273438 93.339844 98.175781 93.15625 C 93.75 92.992188 89.042969 92.246094 85.441406 89.503906 C 85.203125 89.328125 84.898438 89.667969 85.136719 89.851562 C 88.816406 92.660156 93.59375 93.457031 98.117188 93.636719 C 103.207031 93.828125 108.660156 93.753906 113.535156 92.097656 Z M 107.253906 98.773438 C 110.804688 101.121094 115.363281 100.90625 119.433594 100.597656 C 119.632812 100.582031 119.625 100.234375 119.417969 100.242188 C 115.386719 100.308594 111.019531 100.722656 107.484375 98.394531 C 107.246094 98.230469 107.015625 98.617188 107.253906 98.773438 Z M 114.75 103.65625 C 114.519531 103.488281 114.203125 103.804688 114.4375 103.980469 C 116.792969 105.753906 119.722656 105.421875 122.429688 104.742188 C 122.703125 104.675781 122.609375 104.253906 122.332031 104.3125 C 119.773438 104.875 117.007812 105.347656 114.75 103.65625 Z M 86.792969 64.359375 C 87.386719 63.832031 88.089844 63.582031 88.84375 63.40625 C 89.066406 63.351562 89.015625 63.003906 88.792969 63.058594 C 87.984375 63.25 87.222656 63.523438 86.59375 64.085938 C 86.4375 64.226562 86.632812 64.507812 86.792969 64.359375 Z M 94.273438 79.5 C 96.101562 80.253906 97.929688 81.058594 99.921875 81.242188 C 102.148438 81.457031 104.382812 80.882812 106.566406 80.527344 C 106.808594 80.488281 106.714844 80.136719 106.476562 80.164062 C 103.671875 80.503906 100.972656 81.222656 98.160156 80.488281 C 95.910156 79.898438 93.859375 78.722656 91.625 78.089844 C 88.117188 77.097656 84.070312 76.929688 80.816406 78.769531 C 80.617188 78.886719 80.773438 79.210938 80.980469 79.09375 C 85.09375 76.832031 90.148438 77.800781 94.273438 79.5 Z M 94 84.636719 C 93.699219 84.539062 93.535156 84.996094 93.839844 85.09375 C 97.191406 86.179688 100.59375 85.582031 104.011719 85.101562 C 104.324219 85.054688 104.25 84.605469 103.9375 84.621094 C 100.527344 84.820312 97.398438 85.699219 94 84.636719 Z M 362.554688 277.585938 C 362.265625 277.4375 362.007812 277.875 362.296875 278.023438 C 369.183594 281.511719 368.570312 291.566406 368.808594 298.101562 C 368.8125 298.300781 369.148438 298.292969 369.15625 298.09375 C 369.382812 291.441406 369.578125 281.097656 362.554688 277.585938 Z M 358.09375 283.578125 C 358.09375 283.335938 357.714844 283.328125 357.714844 283.574219 C 357.664062 287.808594 354.4375 290.859375 353.476562 294.839844 C 353.089844 296.445312 352.964844 298.25 353.46875 299.84375 C 353.949219 301.359375 355.089844 302.445312 356.050781 303.664062 C 356.183594 303.835938 356.464844 303.628906 356.355469 303.441406 C 355.445312 301.980469 354.179688 300.847656 353.800781 299.089844 C 353.3125 296.800781 353.917969 294.375 354.882812 292.292969 C 356.21875 289.394531 358.0625 286.898438 358.09375 283.578125 Z M 335.925781 289.867188 C 336.6875 292.550781 337.109375 295.691406 336.152344 298.390625 C 335.644531 299.835938 333.976562 301.507812 333.976562 303.058594 C 333.976562 303.265625 334.230469 303.296875 334.332031 303.15625 C 337.359375 299.230469 337.855469 294.414062 336.472656 289.75 C 336.375 289.410156 335.828125 289.519531 335.925781 289.867188 Z M 341.945312 291.679688 C 344.269531 295.402344 342.621094 301.203125 339.660156 304.144531 C 339.476562 304.328125 339.710938 304.648438 339.917969 304.46875 C 343.359375 301.609375 344.757812 295.234375 342.316406 291.367188 C 342.152344 291.109375 341.785156 291.421875 341.945312 291.679688 Z M 326.867188 298.558594 C 325.039062 300.027344 323.167969 301.109375 320.84375 301.566406 C 320.519531 301.632812 320.644531 302.121094 320.96875 302.0625 C 323.136719 301.648438 325.816406 300.664062 327.148438 298.796875 C 327.273438 298.617188 327.023438 298.433594 326.867188 298.558594 Z M 326.867188 298.558594 " fill-opacity="1" fill-rule="nonzero"/></svg>