<svg xmlns="http://www.w3.org/2000/svg" xmlns:xlink="http://www.w3.org/1999/xlink" width="500" zoomAndPan="magnify" viewBox="0 0 375 374.999991" height="500" preserveAspectRatio="xMidYMid meet" version="1.0"><defs><clipPath id="19ddc8cbf5"><path d="M 103.023438 73.488281 L 372.03125 73.488281 L 372.03125 342.496094 L 103.023438 342.496094 Z M 103.023438 73.488281 " clip-rule="nonzero"/></clipPath><clipPath id="5cbe55bade"><path d="M 237.527344 73.488281 C 163.246094 73.488281 103.023438 133.707031 103.023438 207.992188 C 103.023438 282.273438 163.246094 342.496094 237.527344 342.496094 C 311.8125 342.496094 372.03125 282.273438 372.03125 207.992188 C 372.03125 133.707031 311.8125 73.488281 237.527344 73.488281 Z M 237.527344 73.488281 " clip-rule="nonzero"/></clipPath><clipPath id="7707fc57b3"><path d="M 94.503906 81.875 L 363.511719 81.875 L 363.511719 350.882812 L 94.503906 350.882812 Z M 94.503906 81.875 " clip-rule="nonzero"/></clipPath><clipPath id="28c21c1242"><path d="M 229.007812 81.875 C 154.726562 81.875 94.503906 142.09375 94.503906 216.378906 C 94.503906 290.664062 154.726562 350.882812 229.007812 350.882812 C 303.292969 350.882812 363.511719 290.664062 363.511719 216.378906 C 363.511719 142.09375 303.292969 81.875 229.007812 81.875 Z M 229.007812 81.875 " clip-rule="nonzero"/></clipPath><clipPath id="9989391fa6"><path d="M 164 113 L 325.507812 113 L 325.507812 304 L 164 304 Z M 164 113 " clip-rule="nonzero"/></clipPath><clipPath id="56cbf264ee"><path d="M 246 244 L 258 244 L 258 316.101562 L 246 316.101562 Z M 246 244 " clip-rule="nonzero"/></clipPath><clipPath id="1b1511387f"><path d="M 254 259 L 266 259 L 266 316.101562 L 254 316.101562 Z M 254 259 " clip-rule="nonzero"/></clipPath><clipPath id="2966fe33b2"><path d="M 241 247 L 251 247 L 251 316.101562 L 241 316.101562 Z M 241 247 " clip-rule="nonzero"/></clipPath><clipPath id="da34bc64ac"><path d="M 237 265 L 239 265 L 239 316.101562 L 237 316.101562 Z M 237 265 " clip-rule="nonzero"/></clipPath><clipPath id="ae05b03489"><path d="M 264 267 L 273 267 L 273 316.101562 L 264 316.101562 Z M 264 267 " clip-rule="nonzero"/></clipPath><clipPath id="44045674bf"><path d="M 258 306 L 260 306 L 260 316.101562 L 258 316.101562 Z M 258 306 " clip-rule="nonzero"/></clipPath><clipPath id="d898b8efba"><path d="M 250 287 L 257 287 L 257 316.101562 L 250 316.101562 Z M 250 287 " clip-rule="nonzero"/></clipPath><clipPath id="b7d1169f39"><path d="M 224 268 L 234 268 L 234 316.101562 L 224 316.101562 Z M 224 268 " clip-rule="nonzero"/></clipPath><clipPath id="644176d594"><path d="M 228 289 L 230 289 L 230 316.101562 L 228 316.101562 Z M 228 289 " clip-rule="nonzero"/></clipPath><clipPath id="95706af9cf"><path d="M 215 279 L 226 279 L 226 316.101562 L 215 316.101562 Z M 215 279 " clip-rule="nonzero"/></clipPath><clipPath id="1f4df1f4c2"><path d="M 254 239.410156 L 261 239.410156 L 261 246 L 254 246 Z M 254 239.410156 " clip-rule="nonzero"/></clipPath><clipPath id="63da32be78"><path d="M 212.894531 274 L 220 274 L 220 281 L 212.894531 281 Z M 212.894531 274 " clip-rule="nonzero"/></clipPath><clipPath id="7a361f2ac0"><path d="M 268 261 L 274.25 261 L 274.25 269 L 268 269 Z M 268 261 " clip-rule="nonzero"/></clipPath><clipPath id="df72514698"><path d="M 256 195 L 324.652344 195 L 324.652344 207 L 256 207 Z M 256 195 " clip-rule="nonzero"/></clipPath><clipPath id="f58e6fc67e"><path d="M 270 187 L 324.652344 187 L 324.652344 199 L 270 199 Z M 270 187 " clip-rule="nonzero"/></clipPath><clipPath id="8f30dc9442"><path d="M 258 202 L 324.652344 202 L 324.652344 211 L 258 211 Z M 258 202 " clip-rule="nonzero"/></clipPath><clipPath id="8f3b96311d"><path d="M 275 213 L 324.652344 213 L 324.652344 215 L 275 215 Z M 275 213 " clip-rule="nonzero"/></clipPath><clipPath id="ae71949ed3"><path d="M 277 181 L 324.652344 181 L 324.652344 189 L 277 189 Z M 277 181 " clip-rule="nonzero"/></clipPath><clipPath id="91ec786cf7"><path d="M 314 192 L 324.652344 192 L 324.652344 194 L 314 194 Z M 314 192 " clip-rule="nonzero"/></clipPath><clipPath id="381a87e216"><path d="M 296 196 L 324.652344 196 L 324.652344 203 L 296 203 Z M 296 196 " clip-rule="nonzero"/></clipPath><clipPath id="23030679b5"><path d="M 278 217 L 324.652344 217 L 324.652344 227 L 278 227 Z M 278 217 " clip-rule="nonzero"/></clipPath><clipPath id="c9c6219543"><path d="M 298 221 L 324.652344 221 L 324.652344 223 L 298 223 Z M 298 221 " clip-rule="nonzero"/></clipPath><clipPath id="a900a74789"><path d="M 289 225 L 324.652344 225 L 324.652344 236 L 289 236 Z M 289 225 " clip-rule="nonzero"/></clipPath><clipPath id="7a392dc930"><path d="M 251.367188 192 L 258 192 L 258 199 L 251.367188 199 Z M 251.367188 192 " clip-rule="nonzero"/></clipPath><clipPath id="6515666e34"><path d="M 284 231 L 291 231 L 291 237.761719 L 284 237.761719 Z M 284 231 " clip-rule="nonzero"/></clipPath><clipPath id="58dd0d4efc"><path d="M 272 178.113281 L 279 178.113281 L 279 185 L 272 185 Z M 272 178.113281 " clip-rule="nonzero"/></clipPath><clipPath id="171b67030e"><path d="M 218 111.320312 L 230 111.320312 L 230 180 L 218 180 Z M 218 111.320312 " clip-rule="nonzero"/></clipPath><clipPath id="93ecde6c45"><path d="M 210 111.320312 L 222 111.320312 L 222 166 L 210 166 Z M 210 111.320312 " clip-rule="nonzero"/></clipPath><clipPath id="9fedd6c49d"><path d="M 226 111.320312 L 235 111.320312 L 235 178 L 226 178 Z M 226 111.320312 " clip-rule="nonzero"/></clipPath><clipPath id="2f52cbd9fa"><path d="M 237 111.320312 L 239 111.320312 L 239 161 L 237 161 Z M 237 111.320312 " clip-rule="nonzero"/></clipPath><clipPath id="c18bee177b"><path d="M 204 111.320312 L 213 111.320312 L 213 159 L 204 159 Z M 204 111.320312 " clip-rule="nonzero"/></clipPath><clipPath id="00c40e928c"><path d="M 216 111.320312 L 218 111.320312 L 218 122 L 216 122 Z M 216 111.320312 " clip-rule="nonzero"/></clipPath><clipPath id="1890fff404"><path d="M 220 111.320312 L 226 111.320312 L 226 140 L 220 140 Z M 220 111.320312 " clip-rule="nonzero"/></clipPath><clipPath id="17e412c1f0"><path d="M 241 111.320312 L 251 111.320312 L 251 158 L 241 158 Z M 241 111.320312 " clip-rule="nonzero"/></clipPath><clipPath id="e4d72e4ed0"><path d="M 245 111.320312 L 247 111.320312 L 247 138 L 245 138 Z M 245 111.320312 " clip-rule="nonzero"/></clipPath><clipPath id="ae55d5115a"><path d="M 249 111.320312 L 259 111.320312 L 259 147 L 249 147 Z M 249 111.320312 " clip-rule="nonzero"/></clipPath><clipPath id="53500aa1cc"><path d="M 216 178 L 223 178 L 223 184.601562 L 216 184.601562 Z M 216 178 " clip-rule="nonzero"/></clipPath><clipPath id="d968a07f2c"><path d="M 255 145 L 261.394531 145 L 261.394531 152 L 255 152 Z M 255 145 " clip-rule="nonzero"/></clipPath></defs><g clip-path="url(#19ddc8cbf5)"><g clip-path="url(#5cbe55bade)"><path fill="#000000" d="M 103.023438 73.488281 L 372.03125 73.488281 L 372.03125 342.496094 L 103.023438 342.496094 Z M 103.023438 73.488281 " fill-opacity="1" fill-rule="nonzero"/></g></g><g clip-path="url(#7707fc57b3)"><g clip-path="url(#28c21c1242)"><path fill="#ffffff" d="M 94.503906 81.875 L 363.511719 81.875 L 363.511719 350.882812 L 94.503906 350.882812 Z M 94.503906 81.875 " fill-opacity="1" fill-rule="nonzero"/></g></g><g clip-path="url(#9989391fa6)"><path fill="#ff914d" d="M 325.027344 215.378906 L 325.050781 227.296875 C 325.050781 231.714844 321.425781 235.339844 317.003906 235.339844 L 266.792969 235.359375 C 262.378906 235.359375 258.753906 238.964844 258.753906 243.398438 L 258.773438 295.699219 C 258.773438 300.113281 255.148438 303.722656 250.734375 303.722656 L 238.8125 303.722656 C 234.398438 303.722656 227.144531 303.742188 222.726562 303.742188 L 210.808594 303.742188 C 206.390625 303.742188 202.765625 300.117188 202.765625 295.703125 L 202.746094 243.402344 C 202.746094 238.988281 199.144531 235.363281 194.703125 235.363281 L 164.367188 235.382812 L 164.367188 230.277344 L 178.953125 230.277344 L 178.953125 217.773438 L 169.929688 217.773438 L 169.929688 203.191406 L 184.515625 203.191406 L 184.515625 189.648438 L 175.136719 189.648438 L 175.136719 179.375 L 194.703125 179.355469 C 199.121094 179.355469 202.746094 175.75 202.746094 171.328125 L 202.722656 121.117188 C 202.722656 116.679688 206.328125 113.074219 210.765625 113.074219 L 222.683594 113.074219 C 227.101562 113.074219 234.332031 113.074219 238.769531 113.054688 L 250.6875 113.054688 C 255.105469 113.054688 258.730469 116.679688 258.730469 121.09375 L 258.730469 171.308594 C 258.730469 175.726562 262.355469 179.351562 266.769531 179.351562 L 316.984375 179.328125 C 321.425781 179.328125 325.027344 182.953125 325.027344 187.371094 L 325.027344 199.289062 C 325.027344 203.710938 325.027344 210.960938 325.027344 215.378906 Z M 325.027344 215.378906 " fill-opacity="1" fill-rule="nonzero"/></g><path fill="#ff914d" d="M 150.824219 203.191406 L 164.367188 203.191406 L 164.367188 216.734375 L 150.824219 216.734375 Z M 150.824219 203.191406 " fill-opacity="1" fill-rule="nonzero"/><path fill="#ff914d" d="M 150.824219 180.792969 L 164.367188 180.792969 L 164.367188 194.335938 L 150.824219 194.335938 Z M 150.824219 180.792969 " fill-opacity="1" fill-rule="nonzero"/><path fill="#ff914d" d="M 142.175781 234.191406 L 155.71875 234.191406 L 155.71875 247.734375 L 142.175781 247.734375 Z M 142.175781 234.191406 " fill-opacity="1" fill-rule="nonzero"/><path fill="#ff914d" d="M 128.632812 213.855469 L 142.175781 213.855469 L 142.175781 227.398438 L 128.632812 227.398438 Z M 128.632812 213.855469 " fill-opacity="1" fill-rule="nonzero"/><path fill="#ff914d" d="M 126.34375 189.648438 L 139.886719 189.648438 L 139.886719 203.191406 L 126.34375 203.191406 Z M 126.34375 189.648438 " fill-opacity="1" fill-rule="nonzero"/><path fill="#ff914d" d="M 115.089844 167.25 L 128.632812 167.25 L 128.632812 180.792969 L 115.089844 180.792969 Z M 115.089844 167.25 " fill-opacity="1" fill-rule="nonzero"/><path fill="#ff914d" d="M 91.652344 220.648438 L 105.195312 220.648438 L 105.195312 234.191406 L 91.652344 234.191406 Z M 91.652344 220.648438 " fill-opacity="1" fill-rule="nonzero"/><path fill="#ff914d" d="M 84.878906 189.648438 L 98.421875 189.648438 L 98.421875 203.191406 L 84.878906 203.191406 Z M 84.878906 189.648438 " fill-opacity="1" fill-rule="nonzero"/><path fill="#ff914d" d="M 59.878906 137.039062 L 73.421875 137.039062 L 73.421875 150.582031 L 59.878906 150.582031 Z M 59.878906 137.039062 " fill-opacity="1" fill-rule="nonzero"/><path fill="#ff914d" d="M 53.105469 169.332031 L 66.648438 169.332031 L 66.648438 182.875 L 53.105469 182.875 Z M 53.105469 169.332031 " fill-opacity="1" fill-rule="nonzero"/><path fill="#ff914d" d="M 39.5625 212.566406 L 53.105469 212.566406 L 53.105469 226.109375 L 39.5625 226.109375 Z M 39.5625 212.566406 " fill-opacity="1" fill-rule="nonzero"/><path fill="#ff914d" d="M 2.894531 182.875 L 16.4375 182.875 L 16.4375 196.417969 L 2.894531 196.417969 Z M 2.894531 182.875 " fill-opacity="1" fill-rule="nonzero"/><path fill="#ff914d" d="M -0.0234375 227.398438 L 13.519531 227.398438 L 13.519531 240.941406 L -0.0234375 240.941406 Z M -0.0234375 227.398438 " fill-opacity="1" fill-rule="nonzero"/><g clip-path="url(#56cbf264ee)"><path fill="#ffffff" d="M 247.117188 316.347656 L 247.117188 286.398438 L 257.628906 272.296875 C 257.695312 272.210938 257.730469 272.101562 257.730469 271.996094 L 257.730469 245.078125 C 257.730469 244.800781 257.503906 244.574219 257.226562 244.574219 C 256.949219 244.574219 256.726562 244.800781 256.726562 245.078125 L 256.726562 271.828125 L 246.214844 285.933594 C 246.148438 286.019531 246.113281 286.125 246.113281 286.234375 L 246.113281 316.347656 C 246.113281 316.625 246.339844 316.847656 246.617188 316.847656 C 246.894531 316.847656 247.117188 316.625 247.117188 316.347656 " fill-opacity="1" fill-rule="nonzero"/></g><g clip-path="url(#1b1511387f)"><path fill="#ffffff" d="M 255.378906 316.347656 L 255.378906 301.527344 L 265.890625 287.421875 C 265.957031 287.335938 265.992188 287.226562 265.992188 287.121094 L 265.992188 260.203125 C 265.992188 259.925781 265.765625 259.703125 265.488281 259.703125 C 265.210938 259.703125 264.988281 259.925781 264.988281 260.203125 L 264.988281 286.953125 L 254.476562 301.058594 C 254.414062 301.144531 254.378906 301.253906 254.378906 301.359375 L 254.378906 316.347656 C 254.378906 316.625 254.601562 316.847656 254.878906 316.847656 C 255.15625 316.847656 255.378906 316.625 255.378906 316.347656 " fill-opacity="1" fill-rule="nonzero"/></g><g clip-path="url(#2966fe33b2)"><path fill="#ffffff" d="M 242.597656 316.347656 L 242.597656 274.363281 L 249.890625 267.070312 C 249.984375 266.976562 250.035156 266.847656 250.035156 266.714844 L 250.035156 247.730469 C 250.035156 247.453125 249.8125 247.230469 249.535156 247.230469 C 249.257812 247.230469 249.035156 247.453125 249.035156 247.730469 L 249.035156 266.507812 L 241.738281 273.800781 C 241.644531 273.894531 241.59375 274.023438 241.59375 274.15625 L 241.59375 316.347656 C 241.59375 316.625 241.816406 316.847656 242.09375 316.847656 C 242.371094 316.847656 242.597656 316.625 242.597656 316.347656 " fill-opacity="1" fill-rule="nonzero"/></g><g clip-path="url(#da34bc64ac)"><path fill="#ffffff" d="M 238.390625 316.347656 L 238.390625 265.597656 C 238.390625 265.320312 238.167969 265.097656 237.890625 265.097656 C 237.613281 265.097656 237.386719 265.320312 237.386719 265.597656 L 237.386719 316.347656 C 237.386719 316.625 237.613281 316.847656 237.890625 316.847656 C 238.167969 316.847656 238.390625 316.625 238.390625 316.347656 " fill-opacity="1" fill-rule="nonzero"/></g><g clip-path="url(#ae05b03489)"><path fill="#ffffff" d="M 265.292969 316.347656 L 265.292969 298.488281 L 272.199219 288.5625 C 272.257812 288.476562 272.289062 288.378906 272.289062 288.277344 L 272.289062 267.550781 C 272.289062 267.273438 272.0625 267.046875 271.785156 267.046875 C 271.507812 267.046875 271.285156 267.273438 271.285156 267.550781 L 271.285156 288.117188 L 264.382812 298.042969 C 264.324219 298.128906 264.292969 298.226562 264.292969 298.328125 L 264.292969 316.347656 C 264.292969 316.625 264.515625 316.847656 264.792969 316.847656 C 265.070312 316.847656 265.292969 316.625 265.292969 316.347656 " fill-opacity="1" fill-rule="nonzero"/></g><g clip-path="url(#44045674bf)"><path fill="#ffffff" d="M 259.96875 316.347656 L 259.96875 306.777344 C 259.96875 306.5 259.746094 306.273438 259.46875 306.273438 C 259.191406 306.273438 258.964844 306.5 258.964844 306.777344 L 258.964844 316.347656 C 258.964844 316.625 259.191406 316.847656 259.46875 316.847656 C 259.746094 316.847656 259.96875 316.625 259.96875 316.347656 " fill-opacity="1" fill-rule="nonzero"/></g><g clip-path="url(#d898b8efba)"><path fill="#ffffff" d="M 255.507812 287.34375 L 250.558594 293.382812 C 250.484375 293.472656 250.445312 293.585938 250.445312 293.699219 L 250.445312 316.347656 C 250.445312 316.625 250.667969 316.847656 250.945312 316.847656 C 251.222656 316.847656 251.449219 316.625 251.449219 316.347656 L 251.449219 293.878906 L 256.28125 287.980469 C 256.457031 287.765625 256.425781 287.449219 256.214844 287.273438 C 256 287.097656 255.683594 287.128906 255.507812 287.34375 " fill-opacity="1" fill-rule="nonzero"/></g><g clip-path="url(#b7d1169f39)"><path fill="#ffffff" d="M 224.535156 269.164062 L 232.703125 282.542969 L 232.703125 316.347656 C 232.703125 316.625 232.925781 316.847656 233.203125 316.847656 C 233.480469 316.847656 233.707031 316.625 233.707031 316.347656 L 233.707031 282.402344 C 233.707031 282.308594 233.679688 282.21875 233.632812 282.140625 L 225.394531 268.640625 C 225.246094 268.40625 224.941406 268.332031 224.703125 268.476562 C 224.464844 268.621094 224.394531 268.929688 224.535156 269.164062 " fill-opacity="1" fill-rule="nonzero"/></g><g clip-path="url(#644176d594)"><path fill="#ffffff" d="M 229.585938 316.347656 L 229.585938 289.527344 C 229.585938 289.25 229.363281 289.027344 229.085938 289.027344 C 228.808594 289.027344 228.582031 289.25 228.582031 289.527344 L 228.582031 316.347656 C 228.582031 316.625 228.808594 316.847656 229.085938 316.847656 C 229.363281 316.847656 229.585938 316.625 229.585938 316.347656 " fill-opacity="1" fill-rule="nonzero"/></g><g clip-path="url(#95706af9cf)"><path fill="#ffffff" d="M 225.464844 316.347656 L 225.464844 297.449219 C 225.464844 297.316406 225.414062 297.1875 225.316406 297.09375 L 216.472656 288.308594 L 216.472656 280.058594 C 216.472656 279.78125 216.246094 279.558594 215.96875 279.558594 C 215.691406 279.558594 215.46875 279.78125 215.46875 280.058594 L 215.46875 288.515625 C 215.46875 288.652344 215.519531 288.777344 215.617188 288.871094 L 224.464844 297.660156 L 224.464844 316.347656 C 224.464844 316.625 224.6875 316.847656 224.964844 316.847656 C 225.242188 316.847656 225.464844 316.625 225.464844 316.347656 " fill-opacity="1" fill-rule="nonzero"/></g><g clip-path="url(#1f4df1f4c2)"><path fill="#ffffff" d="M 259.796875 242.507812 L 259.296875 242.507812 C 259.296875 243.078125 259.066406 243.59375 258.691406 243.96875 C 258.316406 244.34375 257.800781 244.574219 257.226562 244.574219 C 256.652344 244.574219 256.140625 244.34375 255.761719 243.96875 C 255.386719 243.59375 255.15625 243.078125 255.15625 242.507812 C 255.15625 241.933594 255.386719 241.417969 255.761719 241.042969 C 256.140625 240.667969 256.652344 240.4375 257.226562 240.4375 C 257.800781 240.4375 258.316406 240.667969 258.691406 241.042969 C 259.066406 241.417969 259.296875 241.933594 259.296875 242.507812 L 260.300781 242.507812 C 260.300781 240.808594 258.925781 239.433594 257.226562 239.433594 C 255.53125 239.433594 254.15625 240.808594 254.15625 242.507812 C 254.15625 244.203125 255.53125 245.578125 257.226562 245.578125 C 258.925781 245.578125 260.300781 244.203125 260.300781 242.507812 L 259.796875 242.507812 " fill-opacity="1" fill-rule="nonzero"/></g><path fill="#ffffff" d="M 252.105469 245.078125 L 251.605469 245.078125 C 251.605469 245.648438 251.375 246.164062 251 246.539062 C 250.621094 246.917969 250.109375 247.148438 249.535156 247.148438 C 248.960938 247.148438 248.449219 246.917969 248.070312 246.539062 C 247.695312 246.164062 247.464844 245.648438 247.464844 245.078125 C 247.464844 244.503906 247.695312 243.988281 248.070312 243.613281 C 248.449219 243.238281 248.960938 243.007812 249.535156 243.007812 C 250.109375 243.007812 250.621094 243.238281 251 243.613281 C 251.375 243.988281 251.605469 244.503906 251.605469 245.078125 L 252.609375 245.078125 C 252.609375 243.378906 251.234375 242.003906 249.535156 242.003906 C 247.839844 242.003906 246.460938 243.378906 246.460938 245.078125 C 246.460938 246.773438 247.839844 248.148438 249.535156 248.152344 C 251.234375 248.148438 252.609375 246.773438 252.609375 245.078125 L 252.105469 245.078125 " fill-opacity="1" fill-rule="nonzero"/><path fill="#ffffff" d="M 240.460938 263.027344 L 239.960938 263.027344 C 239.960938 263.601562 239.730469 264.113281 239.355469 264.488281 C 238.976562 264.867188 238.464844 265.097656 237.890625 265.097656 C 237.316406 265.097656 236.800781 264.867188 236.425781 264.488281 C 236.050781 264.113281 235.820312 263.601562 235.820312 263.027344 C 235.820312 262.453125 236.050781 261.9375 236.425781 261.5625 C 236.800781 261.1875 237.316406 260.957031 237.890625 260.957031 C 238.464844 260.957031 238.976562 261.1875 239.355469 261.5625 C 239.730469 261.9375 239.960938 262.453125 239.960938 263.027344 L 240.964844 263.027344 C 240.960938 261.328125 239.585938 259.953125 237.890625 259.953125 C 236.191406 259.953125 234.816406 261.328125 234.816406 263.027344 C 234.816406 264.722656 236.191406 266.101562 237.890625 266.101562 C 239.585938 266.097656 240.960938 264.722656 240.964844 263.027344 L 240.460938 263.027344 " fill-opacity="1" fill-rule="nonzero"/><path fill="#ffffff" d="M 226.105469 266.730469 L 225.605469 266.730469 C 225.605469 267.304688 225.375 267.816406 225 268.195312 C 224.621094 268.570312 224.109375 268.800781 223.535156 268.800781 C 222.960938 268.800781 222.445312 268.570312 222.070312 268.195312 C 221.695312 267.816406 221.464844 267.304688 221.464844 266.730469 C 221.464844 266.15625 221.695312 265.644531 222.070312 265.265625 C 222.445312 264.890625 222.960938 264.660156 223.535156 264.660156 C 224.109375 264.660156 224.621094 264.890625 224.996094 265.265625 C 225.375 265.644531 225.605469 266.15625 225.605469 266.730469 L 226.605469 266.730469 C 226.605469 265.035156 225.230469 263.660156 223.535156 263.660156 C 221.835938 263.660156 220.460938 265.035156 220.460938 266.730469 C 220.460938 268.429688 221.835938 269.804688 223.535156 269.804688 C 225.230469 269.804688 226.605469 268.429688 226.605469 266.730469 L 226.105469 266.730469 " fill-opacity="1" fill-rule="nonzero"/><g clip-path="url(#63da32be78)"><path fill="#ffffff" d="M 218.542969 277.488281 L 218.039062 277.488281 C 218.039062 278.0625 217.808594 278.574219 217.433594 278.953125 C 217.058594 279.328125 216.542969 279.558594 215.96875 279.558594 C 215.398438 279.558594 214.882812 279.328125 214.507812 278.953125 C 214.132812 278.574219 213.898438 278.0625 213.898438 277.488281 C 213.898438 276.914062 214.132812 276.398438 214.507812 276.023438 C 214.882812 275.648438 215.398438 275.417969 215.96875 275.417969 C 216.542969 275.417969 217.058594 275.648438 217.433594 276.023438 C 217.808594 276.398438 218.039062 276.914062 218.039062 277.488281 L 219.042969 277.488281 C 219.042969 275.789062 217.667969 274.414062 215.96875 274.414062 C 214.273438 274.414062 212.898438 275.789062 212.898438 277.488281 C 212.898438 279.183594 214.273438 280.5625 215.96875 280.5625 C 217.667969 280.5625 219.042969 279.183594 219.042969 277.488281 L 218.542969 277.488281 " fill-opacity="1" fill-rule="nonzero"/></g><g clip-path="url(#7a361f2ac0)"><path fill="#ffffff" d="M 274.359375 264.980469 L 273.855469 264.980469 C 273.855469 265.550781 273.625 266.066406 273.25 266.441406 C 272.875 266.816406 272.359375 267.046875 271.785156 267.046875 C 271.214844 267.046875 270.699219 266.816406 270.324219 266.441406 C 269.949219 266.066406 269.714844 265.550781 269.714844 264.980469 C 269.714844 264.40625 269.949219 263.890625 270.324219 263.515625 C 270.699219 263.140625 271.214844 262.910156 271.785156 262.90625 C 272.359375 262.910156 272.875 263.140625 273.25 263.515625 C 273.625 263.890625 273.855469 264.40625 273.855469 264.980469 L 274.859375 264.980469 C 274.859375 263.28125 273.484375 261.90625 271.785156 261.90625 C 270.089844 261.90625 268.714844 263.28125 268.714844 264.980469 C 268.714844 266.675781 270.089844 268.050781 271.785156 268.050781 C 273.484375 268.050781 274.859375 266.675781 274.859375 264.980469 L 274.359375 264.980469 " fill-opacity="1" fill-rule="nonzero"/></g><path fill="#ffffff" d="M 262.039062 304.203125 L 261.539062 304.203125 C 261.539062 304.777344 261.304688 305.292969 260.929688 305.667969 C 260.554688 306.042969 260.039062 306.273438 259.46875 306.273438 C 258.894531 306.273438 258.378906 306.042969 258.003906 305.667969 C 257.628906 305.292969 257.398438 304.777344 257.398438 304.203125 C 257.398438 303.632812 257.628906 303.117188 258.003906 302.742188 C 258.378906 302.367188 258.894531 302.136719 259.46875 302.136719 C 260.039062 302.136719 260.554688 302.367188 260.929688 302.742188 C 261.304688 303.117188 261.539062 303.632812 261.539062 304.203125 L 262.539062 304.203125 C 262.539062 302.507812 261.164062 301.132812 259.46875 301.132812 C 257.769531 301.132812 256.394531 302.507812 256.394531 304.203125 C 256.394531 305.902344 257.769531 307.277344 259.46875 307.277344 C 261.164062 307.277344 262.539062 305.902344 262.539062 304.203125 L 262.039062 304.203125 " fill-opacity="1" fill-rule="nonzero"/><path fill="#ffffff" d="M 260.023438 285.617188 L 259.519531 285.617188 C 259.519531 286.191406 259.289062 286.707031 258.914062 287.082031 C 258.539062 287.457031 258.023438 287.6875 257.449219 287.6875 C 256.878906 287.6875 256.363281 287.457031 255.988281 287.082031 C 255.613281 286.707031 255.378906 286.191406 255.378906 285.617188 C 255.378906 285.042969 255.613281 284.53125 255.988281 284.15625 C 256.363281 283.777344 256.878906 283.546875 257.449219 283.546875 C 258.023438 283.546875 258.539062 283.777344 258.914062 284.15625 C 259.289062 284.53125 259.519531 285.042969 259.519531 285.617188 L 260.523438 285.617188 C 260.523438 283.921875 259.148438 282.546875 257.449219 282.542969 C 255.753906 282.546875 254.378906 283.921875 254.378906 285.617188 C 254.378906 287.316406 255.753906 288.691406 257.449219 288.691406 C 259.148438 288.691406 260.523438 287.316406 260.523438 285.617188 L 260.023438 285.617188 " fill-opacity="1" fill-rule="nonzero"/><path fill="#ffffff" d="M 231.65625 286.953125 L 231.15625 286.953125 C 231.15625 287.527344 230.925781 288.042969 230.546875 288.417969 C 230.171875 288.792969 229.660156 289.023438 229.085938 289.027344 C 228.511719 289.023438 227.996094 288.792969 227.621094 288.417969 C 227.246094 288.042969 227.015625 287.527344 227.015625 286.953125 C 227.015625 286.382812 227.246094 285.867188 227.621094 285.492188 C 227.996094 285.117188 228.511719 284.886719 229.085938 284.886719 C 229.660156 284.886719 230.171875 285.117188 230.546875 285.492188 C 230.925781 285.867188 231.15625 286.382812 231.15625 286.953125 L 232.15625 286.953125 C 232.15625 285.257812 230.78125 283.882812 229.085938 283.882812 C 227.386719 283.882812 226.011719 285.257812 226.011719 286.953125 C 226.011719 288.652344 227.386719 290.027344 229.085938 290.027344 C 230.78125 290.027344 232.15625 288.652344 232.15625 286.953125 L 231.65625 286.953125 " fill-opacity="1" fill-rule="nonzero"/><path fill="#ffffff" d="M 268.0625 257.632812 L 267.558594 257.632812 C 267.558594 258.207031 267.328125 258.71875 266.953125 259.09375 C 266.578125 259.472656 266.0625 259.703125 265.488281 259.703125 C 264.917969 259.703125 264.402344 259.472656 264.027344 259.09375 C 263.652344 258.71875 263.421875 258.207031 263.421875 257.632812 C 263.421875 257.058594 263.652344 256.542969 264.027344 256.167969 C 264.402344 255.792969 264.917969 255.5625 265.488281 255.5625 C 266.0625 255.5625 266.578125 255.792969 266.953125 256.167969 C 267.328125 256.542969 267.558594 257.058594 267.558594 257.632812 L 268.5625 257.632812 C 268.5625 255.933594 267.1875 254.558594 265.488281 254.558594 C 263.792969 254.558594 262.417969 255.933594 262.417969 257.632812 C 262.417969 259.328125 263.792969 260.703125 265.488281 260.703125 C 267.1875 260.703125 268.5625 259.328125 268.5625 257.632812 L 268.0625 257.632812 " fill-opacity="1" fill-rule="nonzero"/><g clip-path="url(#df72514698)"><path fill="#ffffff" d="M 324.53125 205.214844 L 296.050781 205.214844 L 282.636719 195.21875 C 282.554688 195.15625 282.453125 195.125 282.351562 195.125 L 256.753906 195.125 C 256.488281 195.125 256.277344 195.335938 256.277344 195.601562 C 256.277344 195.863281 256.488281 196.078125 256.753906 196.078125 L 282.195312 196.078125 L 295.605469 206.074219 C 295.6875 206.136719 295.789062 206.167969 295.890625 206.167969 L 324.53125 206.167969 C 324.792969 206.167969 325.007812 205.957031 325.007812 205.691406 C 325.007812 205.429688 324.792969 205.214844 324.53125 205.214844 " fill-opacity="1" fill-rule="nonzero"/></g><g clip-path="url(#f58e6fc67e)"><path fill="#ffffff" d="M 324.53125 197.355469 L 310.433594 197.355469 L 297.023438 187.359375 C 296.941406 187.300781 296.839844 187.265625 296.738281 187.265625 L 271.136719 187.265625 C 270.875 187.265625 270.660156 187.480469 270.660156 187.742188 C 270.660156 188.007812 270.875 188.21875 271.136719 188.21875 L 296.578125 188.21875 L 309.992188 198.214844 C 310.074219 198.277344 310.175781 198.3125 310.277344 198.3125 L 324.53125 198.3125 C 324.792969 198.3125 325.007812 198.097656 325.007812 197.832031 C 325.007812 197.570312 324.792969 197.355469 324.53125 197.355469 " fill-opacity="1" fill-rule="nonzero"/></g><g clip-path="url(#8f30dc9442)"><path fill="#ffffff" d="M 324.53125 209.515625 L 284.605469 209.515625 L 277.667969 202.578125 C 277.578125 202.488281 277.457031 202.4375 277.332031 202.4375 L 259.277344 202.4375 C 259.011719 202.4375 258.796875 202.652344 258.796875 202.914062 C 258.796875 203.179688 259.011719 203.390625 259.277344 203.390625 L 277.132812 203.390625 L 284.070312 210.332031 C 284.15625 210.417969 284.28125 210.46875 284.40625 210.46875 L 324.53125 210.46875 C 324.792969 210.46875 325.007812 210.253906 325.007812 209.992188 C 325.007812 209.730469 324.792969 209.515625 324.53125 209.515625 " fill-opacity="1" fill-rule="nonzero"/></g><g clip-path="url(#8f3b96311d)"><path fill="#ffffff" d="M 324.53125 213.511719 L 276.269531 213.511719 C 276.003906 213.511719 275.789062 213.726562 275.789062 213.988281 C 275.789062 214.253906 276.003906 214.46875 276.269531 214.46875 L 324.53125 214.46875 C 324.792969 214.46875 325.007812 214.253906 325.007812 213.988281 C 325.007812 213.726562 324.792969 213.511719 324.53125 213.511719 " fill-opacity="1" fill-rule="nonzero"/></g><g clip-path="url(#ae71949ed3)"><path fill="#ffffff" d="M 324.53125 187.929688 L 307.546875 187.929688 L 298.105469 181.363281 C 298.027344 181.308594 297.929688 181.277344 297.835938 181.277344 L 278.125 181.277344 C 277.859375 181.277344 277.648438 181.492188 277.648438 181.753906 C 277.648438 182.019531 277.859375 182.230469 278.125 182.230469 L 297.683594 182.230469 L 307.125 188.796875 C 307.203125 188.851562 307.296875 188.882812 307.394531 188.882812 L 324.53125 188.882812 C 324.792969 188.882812 325.007812 188.667969 325.007812 188.40625 C 325.007812 188.140625 324.792969 187.929688 324.53125 187.929688 " fill-opacity="1" fill-rule="nonzero"/></g><g clip-path="url(#91ec786cf7)"><path fill="#ffffff" d="M 324.53125 192.992188 L 315.429688 192.992188 C 315.164062 192.992188 314.953125 193.207031 314.953125 193.46875 C 314.953125 193.734375 315.164062 193.945312 315.429688 193.945312 L 324.53125 193.945312 C 324.792969 193.945312 325.007812 193.734375 325.007812 193.46875 C 325.007812 193.207031 324.792969 192.992188 324.53125 192.992188 " fill-opacity="1" fill-rule="nonzero"/></g><g clip-path="url(#381a87e216)"><path fill="#ffffff" d="M 296.949219 197.238281 L 302.691406 201.941406 C 302.777344 202.011719 302.882812 202.050781 302.992188 202.050781 L 324.53125 202.050781 C 324.792969 202.050781 325.007812 201.835938 325.007812 201.574219 C 325.007812 201.308594 324.792969 201.097656 324.53125 201.097656 L 303.164062 201.097656 L 297.554688 196.5 C 297.351562 196.332031 297.050781 196.363281 296.882812 196.566406 C 296.714844 196.769531 296.746094 197.070312 296.949219 197.234375 " fill-opacity="1" fill-rule="nonzero"/></g><g clip-path="url(#23030679b5)"><path fill="#ffffff" d="M 279.660156 226.691406 L 292.382812 218.921875 L 324.53125 218.921875 C 324.792969 218.921875 325.007812 218.710938 325.007812 218.445312 C 325.007812 218.183594 324.792969 217.96875 324.53125 217.96875 L 292.25 217.96875 C 292.160156 217.96875 292.074219 217.992188 292 218.039062 L 279.164062 225.875 C 278.9375 226.011719 278.867188 226.304688 279.003906 226.53125 C 279.140625 226.757812 279.4375 226.828125 279.660156 226.691406 " fill-opacity="1" fill-rule="nonzero"/></g><g clip-path="url(#c9c6219543)"><path fill="#ffffff" d="M 324.53125 221.886719 L 299.023438 221.886719 C 298.761719 221.886719 298.546875 222.101562 298.546875 222.363281 C 298.546875 222.628906 298.761719 222.839844 299.023438 222.839844 L 324.53125 222.839844 C 324.792969 222.839844 325.007812 222.628906 325.007812 222.363281 C 325.007812 222.101562 324.792969 221.886719 324.53125 221.886719 " fill-opacity="1" fill-rule="nonzero"/></g><g clip-path="url(#a900a74789)"><path fill="#ffffff" d="M 324.53125 225.804688 L 306.558594 225.804688 C 306.433594 225.804688 306.3125 225.855469 306.222656 225.945312 L 297.863281 234.359375 L 290.019531 234.359375 C 289.757812 234.359375 289.542969 234.574219 289.542969 234.835938 C 289.542969 235.101562 289.757812 235.3125 290.019531 235.3125 L 298.0625 235.3125 C 298.191406 235.3125 298.3125 235.261719 298.402344 235.171875 L 306.757812 226.757812 L 324.53125 226.757812 C 324.792969 226.757812 325.007812 226.546875 325.007812 226.28125 C 325.007812 226.019531 324.792969 225.804688 324.53125 225.804688 " fill-opacity="1" fill-rule="nonzero"/></g><g clip-path="url(#7a392dc930)"><path fill="#ffffff" d="M 254.308594 193.15625 L 254.308594 193.632812 C 254.851562 193.632812 255.339844 193.851562 255.699219 194.207031 C 256.054688 194.566406 256.273438 195.054688 256.277344 195.601562 C 256.273438 196.144531 256.054688 196.632812 255.699219 196.992188 C 255.339844 197.351562 254.851562 197.570312 254.308594 197.570312 C 253.761719 197.570312 253.273438 197.351562 252.914062 196.992188 C 252.558594 196.632812 252.339844 196.144531 252.339844 195.601562 C 252.339844 195.054688 252.558594 194.566406 252.914062 194.207031 C 253.273438 193.851562 253.761719 193.632812 254.308594 193.632812 L 254.308594 192.679688 C 252.691406 192.679688 251.382812 193.988281 251.382812 195.601562 C 251.382812 197.214844 252.691406 198.523438 254.308594 198.523438 C 255.921875 198.523438 257.230469 197.214844 257.230469 195.601562 C 257.230469 193.988281 255.921875 192.679688 254.308594 192.679688 L 254.308594 193.15625 " fill-opacity="1" fill-rule="nonzero"/></g><path fill="#ffffff" d="M 256.753906 200.46875 L 256.753906 200.949219 C 257.296875 200.949219 257.785156 201.167969 258.144531 201.523438 C 258.5 201.882812 258.722656 202.371094 258.722656 202.914062 C 258.722656 203.460938 258.5 203.949219 258.144531 204.308594 C 257.785156 204.664062 257.296875 204.882812 256.753906 204.882812 C 256.207031 204.882812 255.71875 204.664062 255.359375 204.308594 C 255.003906 203.949219 254.785156 203.460938 254.785156 202.914062 C 254.785156 202.371094 255.003906 201.882812 255.359375 201.523438 C 255.71875 201.167969 256.207031 200.949219 256.753906 200.949219 L 256.753906 199.992188 C 255.136719 199.992188 253.832031 201.300781 253.828125 202.914062 C 253.832031 204.53125 255.136719 205.839844 256.753906 205.839844 C 258.367188 205.839844 259.675781 204.53125 259.675781 202.914062 C 259.675781 201.300781 258.367188 199.992188 256.753906 199.992188 L 256.753906 200.46875 " fill-opacity="1" fill-rule="nonzero"/><path fill="#ffffff" d="M 273.824219 211.546875 L 273.824219 212.023438 C 274.367188 212.023438 274.855469 212.242188 275.214844 212.597656 C 275.570312 212.957031 275.789062 213.445312 275.789062 213.988281 C 275.789062 214.535156 275.570312 215.023438 275.214844 215.382812 C 274.855469 215.738281 274.367188 215.957031 273.824219 215.960938 C 273.277344 215.957031 272.789062 215.738281 272.429688 215.382812 C 272.074219 215.023438 271.855469 214.535156 271.851562 213.988281 C 271.855469 213.445312 272.074219 212.957031 272.429688 212.597656 C 272.789062 212.242188 273.277344 212.023438 273.824219 212.023438 L 273.824219 211.066406 C 272.207031 211.066406 270.898438 212.375 270.898438 213.988281 C 270.898438 215.605469 272.207031 216.914062 273.824219 216.914062 C 275.4375 216.914062 276.746094 215.605469 276.746094 213.988281 C 276.746094 212.375 275.4375 211.066406 273.824219 211.066406 L 273.824219 211.546875 " fill-opacity="1" fill-rule="nonzero"/><path fill="#ffffff" d="M 277.34375 225.199219 L 277.34375 225.675781 C 277.890625 225.675781 278.378906 225.894531 278.738281 226.25 C 279.09375 226.609375 279.3125 227.097656 279.3125 227.644531 C 279.3125 228.1875 279.09375 228.675781 278.738281 229.035156 C 278.378906 229.390625 277.890625 229.613281 277.34375 229.613281 C 276.800781 229.613281 276.3125 229.390625 275.953125 229.035156 C 275.597656 228.675781 275.375 228.1875 275.375 227.644531 C 275.375 227.097656 275.597656 226.609375 275.953125 226.25 C 276.3125 225.894531 276.800781 225.675781 277.34375 225.675781 L 277.34375 224.71875 C 275.730469 224.71875 274.421875 226.027344 274.421875 227.644531 C 274.421875 229.257812 275.730469 230.566406 277.34375 230.566406 C 278.957031 230.566406 280.265625 229.257812 280.265625 227.644531 C 280.265625 226.027344 278.957031 224.71875 277.34375 224.71875 L 277.34375 225.199219 " fill-opacity="1" fill-rule="nonzero"/><g clip-path="url(#6515666e34)"><path fill="#ffffff" d="M 287.574219 232.390625 L 287.574219 232.867188 C 288.121094 232.867188 288.609375 233.085938 288.96875 233.445312 C 289.324219 233.800781 289.542969 234.292969 289.542969 234.835938 C 289.542969 235.382812 289.324219 235.871094 288.96875 236.230469 C 288.609375 236.585938 288.121094 236.804688 287.574219 236.804688 C 287.03125 236.804688 286.539062 236.585938 286.183594 236.230469 C 285.828125 235.871094 285.605469 235.382812 285.605469 234.835938 C 285.605469 234.292969 285.828125 233.800781 286.183594 233.445312 C 286.539062 233.085938 287.03125 232.867188 287.574219 232.867188 L 287.574219 231.914062 C 285.960938 231.914062 284.652344 233.222656 284.652344 234.835938 C 284.652344 236.449219 285.960938 237.757812 287.574219 237.757812 C 289.191406 237.757812 290.496094 236.449219 290.496094 234.835938 C 290.496094 233.222656 289.191406 231.914062 287.574219 231.914062 L 287.574219 232.390625 " fill-opacity="1" fill-rule="nonzero"/></g><g clip-path="url(#58dd0d4efc)"><path fill="#ffffff" d="M 275.679688 179.308594 L 275.679688 179.785156 C 276.222656 179.785156 276.714844 180.007812 277.070312 180.363281 C 277.429688 180.71875 277.648438 181.210938 277.648438 181.753906 C 277.648438 182.300781 277.429688 182.789062 277.070312 183.148438 C 276.714844 183.503906 276.222656 183.722656 275.679688 183.722656 C 275.132812 183.722656 274.644531 183.503906 274.285156 183.148438 C 273.929688 182.789062 273.710938 182.300781 273.710938 181.753906 C 273.710938 181.210938 273.929688 180.71875 274.285156 180.363281 C 274.644531 180.007812 275.132812 179.785156 275.679688 179.785156 L 275.679688 178.832031 C 274.066406 178.832031 272.757812 180.140625 272.757812 181.753906 C 272.757812 183.371094 274.0625 184.675781 275.679688 184.675781 C 277.292969 184.675781 278.601562 183.371094 278.601562 181.753906 C 278.601562 180.140625 277.292969 178.832031 275.679688 178.832031 L 275.679688 179.308594 " fill-opacity="1" fill-rule="nonzero"/></g><path fill="#ffffff" d="M 312.984375 191.023438 L 312.984375 191.5 C 313.527344 191.5 314.015625 191.722656 314.375 192.078125 C 314.730469 192.433594 314.953125 192.925781 314.953125 193.46875 C 314.953125 194.015625 314.730469 194.503906 314.375 194.863281 C 314.015625 195.21875 313.527344 195.4375 312.984375 195.4375 C 312.4375 195.4375 311.949219 195.21875 311.589844 194.863281 C 311.234375 194.503906 311.015625 194.015625 311.015625 193.46875 C 311.015625 192.925781 311.234375 192.433594 311.589844 192.078125 C 311.949219 191.722656 312.4375 191.5 312.984375 191.5 L 312.984375 190.546875 C 311.367188 190.546875 310.0625 191.855469 310.058594 193.46875 C 310.0625 195.085938 311.367188 196.390625 312.984375 196.390625 C 314.597656 196.390625 315.90625 195.085938 315.90625 193.46875 C 315.90625 191.855469 314.597656 190.546875 312.984375 190.546875 L 312.984375 191.023438 " fill-opacity="1" fill-rule="nonzero"/><path fill="#ffffff" d="M 295.308594 192.941406 L 295.308594 193.417969 C 295.851562 193.421875 296.339844 193.640625 296.699219 193.996094 C 297.054688 194.355469 297.273438 194.84375 297.273438 195.386719 C 297.273438 195.933594 297.054688 196.421875 296.699219 196.78125 C 296.339844 197.136719 295.851562 197.355469 295.308594 197.355469 C 294.761719 197.355469 294.273438 197.136719 293.914062 196.78125 C 293.558594 196.421875 293.339844 195.933594 293.339844 195.386719 C 293.339844 194.84375 293.558594 194.355469 293.914062 193.996094 C 294.273438 193.640625 294.761719 193.421875 295.308594 193.417969 L 295.308594 192.464844 C 293.691406 192.464844 292.386719 193.773438 292.382812 195.386719 C 292.386719 197.003906 293.691406 198.308594 295.308594 198.3125 C 296.921875 198.308594 298.230469 197.003906 298.230469 195.386719 C 298.230469 193.773438 296.921875 192.464844 295.308594 192.464844 L 295.308594 192.941406 " fill-opacity="1" fill-rule="nonzero"/><path fill="#ffffff" d="M 296.578125 219.917969 L 296.578125 220.394531 C 297.125 220.394531 297.613281 220.613281 297.972656 220.972656 C 298.328125 221.332031 298.546875 221.820312 298.546875 222.363281 C 298.546875 222.910156 298.328125 223.398438 297.972656 223.757812 C 297.613281 224.113281 297.125 224.332031 296.578125 224.332031 C 296.035156 224.332031 295.542969 224.113281 295.1875 223.757812 C 294.828125 223.398438 294.609375 222.910156 294.609375 222.363281 C 294.609375 221.820312 294.828125 221.332031 295.1875 220.972656 C 295.542969 220.613281 296.035156 220.394531 296.578125 220.394531 L 296.578125 219.441406 C 294.964844 219.441406 293.65625 220.75 293.65625 222.363281 C 293.65625 223.976562 294.964844 225.285156 296.578125 225.285156 C 298.191406 225.285156 299.5 223.976562 299.5 222.363281 C 299.5 220.75 298.191406 219.441406 296.578125 219.441406 L 296.578125 219.917969 " fill-opacity="1" fill-rule="nonzero"/><path fill="#ffffff" d="M 268.691406 185.296875 L 268.691406 185.773438 C 269.238281 185.773438 269.726562 185.996094 270.082031 186.351562 C 270.441406 186.710938 270.660156 187.199219 270.660156 187.742188 C 270.660156 188.289062 270.441406 188.777344 270.082031 189.136719 C 269.726562 189.492188 269.238281 189.710938 268.691406 189.710938 C 268.144531 189.710938 267.65625 189.492188 267.300781 189.136719 C 266.941406 188.777344 266.722656 188.289062 266.722656 187.742188 C 266.722656 187.199219 266.941406 186.710938 267.300781 186.351562 C 267.65625 185.996094 268.148438 185.773438 268.691406 185.773438 L 268.691406 184.820312 C 267.078125 184.820312 265.769531 186.128906 265.769531 187.742188 C 265.769531 189.359375 267.078125 190.664062 268.691406 190.664062 C 270.304688 190.664062 271.613281 189.359375 271.613281 187.742188 C 271.613281 186.128906 270.304688 184.820312 268.691406 184.820312 L 268.691406 185.296875 " fill-opacity="1" fill-rule="nonzero"/><g clip-path="url(#171b67030e)"><path fill="#ffffff" d="M 228.851562 111.441406 L 228.851562 139.921875 L 218.851562 153.335938 C 218.792969 153.417969 218.757812 153.519531 218.757812 153.621094 L 218.757812 179.21875 C 218.757812 179.480469 218.972656 179.695312 219.234375 179.695312 C 219.5 179.695312 219.710938 179.480469 219.710938 179.21875 L 219.710938 153.777344 L 229.710938 140.363281 C 229.769531 140.28125 229.804688 140.179688 229.804688 140.078125 L 229.804688 111.441406 C 229.804688 111.175781 229.589844 110.964844 229.328125 110.964844 C 229.0625 110.964844 228.851562 111.175781 228.851562 111.441406 " fill-opacity="1" fill-rule="nonzero"/></g><g clip-path="url(#93ecde6c45)"><path fill="#ffffff" d="M 220.992188 111.441406 L 220.992188 125.535156 L 210.996094 138.949219 C 210.933594 139.03125 210.902344 139.132812 210.902344 139.234375 L 210.902344 164.835938 C 210.902344 165.097656 211.113281 165.3125 211.378906 165.3125 C 211.640625 165.3125 211.855469 165.097656 211.855469 164.835938 L 211.855469 139.394531 L 221.851562 125.980469 C 221.914062 125.898438 221.945312 125.796875 221.945312 125.695312 L 221.945312 111.441406 C 221.945312 111.175781 221.734375 110.964844 221.46875 110.964844 C 221.207031 110.964844 220.992188 111.175781 220.992188 111.441406 " fill-opacity="1" fill-rule="nonzero"/></g><g clip-path="url(#9fedd6c49d)"><path fill="#ffffff" d="M 233.148438 111.441406 L 233.148438 151.367188 L 226.214844 158.304688 C 226.125 158.394531 226.074219 158.511719 226.074219 158.640625 L 226.074219 176.695312 C 226.074219 176.960938 226.289062 177.171875 226.550781 177.171875 C 226.8125 177.171875 227.027344 176.960938 227.027344 176.695312 L 227.027344 158.839844 L 233.964844 151.902344 C 234.054688 151.8125 234.105469 151.691406 234.105469 151.566406 L 234.105469 111.441406 C 234.105469 111.175781 233.890625 110.964844 233.628906 110.964844 C 233.363281 110.964844 233.148438 111.175781 233.148438 111.441406 " fill-opacity="1" fill-rule="nonzero"/></g><g clip-path="url(#2f52cbd9fa)"><path fill="#ffffff" d="M 237.148438 111.441406 L 237.148438 159.703125 C 237.148438 159.964844 237.363281 160.179688 237.625 160.179688 C 237.890625 160.179688 238.101562 159.964844 238.101562 159.703125 L 238.101562 111.441406 C 238.101562 111.175781 237.890625 110.964844 237.625 110.964844 C 237.363281 110.964844 237.148438 111.175781 237.148438 111.441406 " fill-opacity="1" fill-rule="nonzero"/></g><g clip-path="url(#c18bee177b)"><path fill="#ffffff" d="M 211.5625 111.441406 L 211.5625 128.425781 L 205 137.863281 C 204.941406 137.945312 204.914062 138.039062 204.914062 138.136719 L 204.914062 157.847656 C 204.914062 158.109375 205.125 158.324219 205.390625 158.324219 C 205.652344 158.324219 205.867188 158.109375 205.867188 157.847656 L 205.867188 138.289062 L 212.433594 128.847656 C 212.488281 128.765625 212.519531 128.671875 212.519531 128.574219 L 212.519531 111.441406 C 212.519531 111.175781 212.304688 110.964844 212.039062 110.964844 C 211.777344 110.964844 211.5625 111.175781 211.5625 111.441406 " fill-opacity="1" fill-rule="nonzero"/></g><g clip-path="url(#00c40e928c)"><path fill="#ffffff" d="M 216.628906 111.441406 L 216.628906 120.542969 C 216.628906 120.804688 216.839844 121.019531 217.105469 121.019531 C 217.367188 121.019531 217.582031 120.804688 217.582031 120.542969 L 217.582031 111.441406 C 217.582031 111.175781 217.367188 110.964844 217.105469 110.964844 C 216.839844 110.964844 216.628906 111.175781 216.628906 111.441406 " fill-opacity="1" fill-rule="nonzero"/></g><g clip-path="url(#1890fff404)"><path fill="#ffffff" d="M 220.871094 139.023438 L 225.578125 133.28125 C 225.648438 133.195312 225.6875 133.089844 225.6875 132.980469 L 225.6875 111.441406 C 225.6875 111.175781 225.472656 110.964844 225.210938 110.964844 C 224.945312 110.964844 224.730469 111.175781 224.730469 111.441406 L 224.730469 132.808594 L 220.132812 138.417969 C 219.964844 138.621094 219.996094 138.921875 220.199219 139.089844 C 220.402344 139.257812 220.703125 139.226562 220.871094 139.023438 " fill-opacity="1" fill-rule="nonzero"/></g><g clip-path="url(#17e412c1f0)"><path fill="#ffffff" d="M 250.324219 156.3125 L 242.558594 143.589844 L 242.558594 111.441406 C 242.558594 111.175781 242.34375 110.964844 242.082031 110.964844 C 241.816406 110.964844 241.605469 111.175781 241.605469 111.441406 L 241.605469 143.722656 C 241.605469 143.8125 241.628906 143.894531 241.675781 143.972656 L 249.511719 156.808594 C 249.648438 157.03125 249.941406 157.105469 250.167969 156.964844 C 250.390625 156.828125 250.460938 156.535156 250.324219 156.3125 " fill-opacity="1" fill-rule="nonzero"/></g><g clip-path="url(#e4d72e4ed0)"><path fill="#ffffff" d="M 245.523438 111.441406 L 245.523438 136.945312 C 245.523438 137.210938 245.734375 137.421875 246 137.421875 C 246.261719 137.421875 246.476562 137.210938 246.476562 136.945312 L 246.476562 111.441406 C 246.476562 111.175781 246.261719 110.964844 246 110.964844 C 245.734375 110.964844 245.523438 111.175781 245.523438 111.441406 " fill-opacity="1" fill-rule="nonzero"/></g><g clip-path="url(#ae55d5115a)"><path fill="#ffffff" d="M 249.441406 111.441406 L 249.441406 129.410156 C 249.441406 129.539062 249.492188 129.660156 249.582031 129.75 L 257.996094 138.105469 L 257.996094 145.949219 C 257.996094 146.214844 258.207031 146.425781 258.472656 146.425781 C 258.734375 146.425781 258.949219 146.214844 258.949219 145.949219 L 258.949219 137.90625 C 258.949219 137.78125 258.898438 137.660156 258.808594 137.570312 L 250.394531 129.214844 L 250.394531 111.441406 C 250.394531 111.175781 250.179688 110.964844 249.917969 110.964844 C 249.65625 110.964844 249.441406 111.175781 249.441406 111.441406 " fill-opacity="1" fill-rule="nonzero"/></g><g clip-path="url(#53500aa1cc)"><path fill="#ffffff" d="M 216.789062 181.664062 L 217.265625 181.664062 C 217.265625 181.117188 217.488281 180.628906 217.84375 180.273438 C 218.203125 179.914062 218.691406 179.695312 219.234375 179.695312 C 219.78125 179.695312 220.269531 179.914062 220.628906 180.273438 C 220.984375 180.628906 221.203125 181.117188 221.203125 181.664062 C 221.203125 182.210938 220.984375 182.699219 220.628906 183.054688 C 220.269531 183.414062 219.78125 183.632812 219.234375 183.632812 C 218.691406 183.632812 218.203125 183.414062 217.84375 183.054688 C 217.488281 182.699219 217.265625 182.210938 217.265625 181.664062 L 216.3125 181.664062 C 216.3125 183.277344 217.621094 184.585938 219.234375 184.585938 C 220.851562 184.585938 222.15625 183.277344 222.15625 181.664062 C 222.15625 180.050781 220.851562 178.742188 219.234375 178.742188 C 217.621094 178.742188 216.3125 180.050781 216.3125 181.664062 L 216.789062 181.664062 " fill-opacity="1" fill-rule="nonzero"/></g><path fill="#ffffff" d="M 224.105469 179.21875 L 224.582031 179.21875 C 224.582031 178.675781 224.800781 178.183594 225.15625 177.828125 C 225.515625 177.46875 226.007812 177.25 226.550781 177.25 C 227.097656 177.25 227.585938 177.46875 227.941406 177.828125 C 228.300781 178.183594 228.519531 178.675781 228.519531 179.21875 C 228.519531 179.765625 228.300781 180.253906 227.941406 180.609375 C 227.585938 180.96875 227.097656 181.1875 226.550781 181.1875 C 226.007812 181.1875 225.515625 180.96875 225.15625 180.609375 C 224.800781 180.253906 224.582031 179.765625 224.582031 179.21875 L 223.628906 179.21875 C 223.628906 180.832031 224.9375 182.140625 226.550781 182.140625 C 228.164062 182.140625 229.472656 180.832031 229.472656 179.21875 C 229.472656 177.605469 228.164062 176.296875 226.550781 176.296875 C 224.9375 176.296875 223.628906 177.605469 223.628906 179.21875 L 224.105469 179.21875 " fill-opacity="1" fill-rule="nonzero"/><path fill="#ffffff" d="M 235.179688 162.148438 L 235.65625 162.148438 C 235.65625 161.601562 235.875 161.113281 236.234375 160.757812 C 236.589844 160.398438 237.082031 160.179688 237.625 160.179688 C 238.171875 160.179688 238.660156 160.398438 239.019531 160.757812 C 239.375 161.113281 239.59375 161.601562 239.59375 162.148438 C 239.59375 162.695312 239.375 163.183594 239.019531 163.542969 C 238.660156 163.898438 238.171875 164.117188 237.625 164.117188 C 237.082031 164.117188 236.589844 163.898438 236.234375 163.542969 C 235.875 163.183594 235.65625 162.695312 235.65625 162.148438 L 234.703125 162.148438 C 234.703125 163.761719 236.011719 165.070312 237.625 165.070312 C 239.238281 165.070312 240.546875 163.761719 240.546875 162.148438 C 240.546875 160.535156 239.238281 159.226562 237.625 159.226562 C 236.011719 159.226562 234.703125 160.535156 234.703125 162.148438 L 235.179688 162.148438 " fill-opacity="1" fill-rule="nonzero"/><path fill="#ffffff" d="M 248.832031 158.625 L 249.308594 158.625 C 249.308594 158.082031 249.527344 157.59375 249.886719 157.234375 C 250.242188 156.878906 250.734375 156.65625 251.277344 156.65625 C 251.824219 156.65625 252.3125 156.878906 252.671875 157.234375 C 253.027344 157.59375 253.246094 158.082031 253.246094 158.625 C 253.246094 159.171875 253.027344 159.660156 252.671875 160.019531 C 252.3125 160.375 251.824219 160.59375 251.277344 160.59375 C 250.734375 160.59375 250.242188 160.375 249.886719 160.019531 C 249.527344 159.660156 249.308594 159.171875 249.308594 158.625 L 248.355469 158.625 C 248.355469 160.238281 249.664062 161.546875 251.277344 161.546875 C 252.890625 161.546875 254.199219 160.238281 254.199219 158.625 C 254.199219 157.011719 252.890625 155.703125 251.277344 155.703125 C 249.664062 155.703125 248.355469 157.011719 248.355469 158.625 L 248.832031 158.625 " fill-opacity="1" fill-rule="nonzero"/><g clip-path="url(#d968a07f2c)"><path fill="#ffffff" d="M 256.027344 148.394531 L 256.503906 148.394531 C 256.503906 147.851562 256.722656 147.363281 257.078125 147.003906 C 257.4375 146.648438 257.925781 146.429688 258.472656 146.425781 C 259.015625 146.429688 259.507812 146.648438 259.863281 147.003906 C 260.21875 147.363281 260.441406 147.851562 260.441406 148.394531 C 260.441406 148.941406 260.21875 149.429688 259.863281 149.789062 C 259.507812 150.144531 259.015625 150.363281 258.472656 150.363281 C 257.925781 150.363281 257.4375 150.144531 257.078125 149.789062 C 256.722656 149.429688 256.503906 148.941406 256.503906 148.394531 L 255.546875 148.394531 C 255.550781 150.011719 256.855469 151.316406 258.472656 151.316406 C 260.085938 151.316406 261.394531 150.011719 261.394531 148.394531 C 261.394531 146.78125 260.085938 145.472656 258.472656 145.472656 C 256.855469 145.472656 255.550781 146.78125 255.546875 148.394531 L 256.027344 148.394531 " fill-opacity="1" fill-rule="nonzero"/></g><path fill="#ffffff" d="M 202.945312 160.292969 L 203.421875 160.292969 C 203.421875 159.746094 203.640625 159.257812 203.996094 158.902344 C 204.355469 158.542969 204.84375 158.324219 205.390625 158.324219 C 205.933594 158.324219 206.421875 158.542969 206.78125 158.902344 C 207.140625 159.257812 207.359375 159.746094 207.359375 160.292969 C 207.359375 160.835938 207.140625 161.328125 206.78125 161.683594 C 206.421875 162.042969 205.933594 162.261719 205.390625 162.261719 C 204.84375 162.261719 204.355469 162.042969 203.996094 161.683594 C 203.640625 161.328125 203.421875 160.835938 203.421875 160.292969 L 202.46875 160.292969 C 202.46875 161.90625 203.777344 163.214844 205.390625 163.214844 C 207.003906 163.214844 208.3125 161.90625 208.3125 160.292969 C 208.3125 158.679688 207.003906 157.371094 205.390625 157.371094 C 203.777344 157.371094 202.46875 158.679688 202.46875 160.292969 L 202.945312 160.292969 " fill-opacity="1" fill-rule="nonzero"/><path fill="#ffffff" d="M 214.660156 122.988281 L 215.136719 122.988281 C 215.136719 122.441406 215.355469 121.953125 215.714844 121.59375 C 216.070312 121.238281 216.558594 121.019531 217.105469 121.019531 C 217.648438 121.019531 218.140625 121.238281 218.496094 121.59375 C 218.855469 121.953125 219.074219 122.441406 219.074219 122.988281 C 219.074219 123.535156 218.855469 124.023438 218.496094 124.378906 C 218.140625 124.738281 217.648438 124.957031 217.105469 124.957031 C 216.558594 124.957031 216.070312 124.738281 215.714844 124.378906 C 215.355469 124.023438 215.136719 123.535156 215.136719 122.988281 L 214.183594 122.988281 C 214.183594 124.601562 215.492188 125.910156 217.105469 125.910156 C 218.71875 125.910156 220.027344 124.601562 220.027344 122.988281 C 220.027344 121.375 218.71875 120.066406 217.105469 120.066406 C 215.492188 120.066406 214.183594 121.375 214.183594 122.988281 L 214.660156 122.988281 " fill-opacity="1" fill-rule="nonzero"/><path fill="#ffffff" d="M 216.578125 140.664062 L 217.054688 140.664062 C 217.054688 140.117188 217.273438 139.628906 217.632812 139.273438 C 217.988281 138.914062 218.476562 138.695312 219.023438 138.695312 C 219.566406 138.695312 220.058594 138.914062 220.414062 139.273438 C 220.773438 139.628906 220.992188 140.117188 220.992188 140.664062 C 220.992188 141.210938 220.773438 141.699219 220.414062 142.054688 C 220.058594 142.414062 219.566406 142.632812 219.023438 142.632812 C 218.476562 142.632812 217.988281 142.414062 217.632812 142.054688 C 217.273438 141.699219 217.054688 141.210938 217.054688 140.664062 L 216.101562 140.664062 C 216.101562 142.277344 217.410156 143.585938 219.023438 143.585938 C 220.636719 143.585938 221.945312 142.277344 221.945312 140.664062 C 221.945312 139.050781 220.636719 137.742188 219.023438 137.742188 C 217.410156 137.742188 216.101562 139.050781 216.101562 140.664062 L 216.578125 140.664062 " fill-opacity="1" fill-rule="nonzero"/><path fill="#ffffff" d="M 243.554688 139.394531 L 244.03125 139.394531 C 244.03125 138.847656 244.25 138.359375 244.609375 138 C 244.964844 137.644531 245.453125 137.425781 246 137.421875 C 246.542969 137.425781 247.035156 137.644531 247.390625 138 C 247.75 138.359375 247.96875 138.847656 247.96875 139.394531 C 247.96875 139.9375 247.75 140.425781 247.390625 140.785156 C 247.035156 141.140625 246.542969 141.359375 246 141.359375 C 245.453125 141.359375 244.964844 141.140625 244.609375 140.785156 C 244.25 140.425781 244.03125 139.9375 244.03125 139.394531 L 243.078125 139.394531 C 243.078125 141.007812 244.386719 142.3125 246 142.316406 C 247.613281 142.3125 248.921875 141.007812 248.921875 139.394531 C 248.921875 137.777344 247.613281 136.46875 246 136.46875 C 244.386719 136.46875 243.078125 137.777344 243.078125 139.394531 L 243.554688 139.394531 " fill-opacity="1" fill-rule="nonzero"/><path fill="#ffffff" d="M 208.933594 167.28125 L 209.410156 167.28125 C 209.410156 166.734375 209.628906 166.246094 209.984375 165.886719 C 210.34375 165.53125 210.832031 165.3125 211.378906 165.3125 C 211.921875 165.3125 212.414062 165.53125 212.769531 165.886719 C 213.128906 166.246094 213.347656 166.734375 213.347656 167.28125 C 213.347656 167.824219 213.128906 168.3125 212.769531 168.671875 C 212.414062 169.027344 211.921875 169.246094 211.378906 169.246094 C 210.832031 169.246094 210.34375 169.027344 209.984375 168.671875 C 209.628906 168.3125 209.410156 167.824219 209.410156 167.28125 L 208.457031 167.28125 C 208.457031 168.894531 209.765625 170.203125 211.378906 170.203125 C 212.992188 170.203125 214.300781 168.894531 214.300781 167.28125 C 214.300781 165.664062 212.992188 164.359375 211.378906 164.355469 C 209.765625 164.359375 208.457031 165.664062 208.457031 167.28125 L 208.933594 167.28125 " fill-opacity="1" fill-rule="nonzero"/></svg>