<svg xmlns="http://www.w3.org/2000/svg" xmlns:xlink="http://www.w3.org/1999/xlink" width="500" zoomAndPan="magnify" viewBox="0 0 375 374.999991" height="500" preserveAspectRatio="xMidYMid meet" version="1.0"><defs><clipPath id="f2edfa8e54"><path d="M 10.226562 10.226562 L 364.976562 10.226562 L 364.976562 364.976562 L 10.226562 364.976562 Z M 10.226562 10.226562 " clip-rule="nonzero"/></clipPath><clipPath id="9f29a03b4a"><path d="M 60.195312 69.585938 L 314.445312 69.585938 L 314.445312 305.085938 L 60.195312 305.085938 Z M 60.195312 69.585938 " clip-rule="nonzero"/></clipPath></defs><g clip-path="url(#f2edfa8e54)"><path fill="#ff914d" d="M 309.367188 364.765625 L 65.625 364.765625 C 35.15625 364.765625 10.226562 339.835938 10.226562 309.367188 L 10.226562 65.625 C 10.226562 35.15625 35.15625 10.226562 65.625 10.226562 L 309.367188 10.226562 C 339.835938 10.226562 364.765625 35.15625 364.765625 65.625 L 364.765625 309.367188 C 364.765625 339.835938 339.835938 364.765625 309.367188 364.765625 Z M 309.367188 364.765625 " fill-opacity="1" fill-rule="nonzero"/></g><path fill="#ff914d" d="M 144.21875 240.953125 C 140.132812 240.953125 136.253906 239.359375 133.347656 236.523438 C 130.300781 233.542969 128.636719 229.597656 128.636719 225.375 L 128.636719 149.480469 C 128.636719 127.113281 146.847656 108.902344 169.214844 108.902344 L 205.777344 108.902344 C 228.144531 108.902344 246.355469 127.113281 246.355469 149.480469 L 246.355469 225.304688 C 246.355469 229.527344 244.691406 233.542969 241.644531 236.453125 C 238.601562 239.429688 234.582031 240.953125 230.359375 240.882812 C 221.84375 240.675781 215.195312 233.820312 215.195312 225.304688 L 215.195312 148.234375 C 215.195312 146.570312 216.578125 145.1875 218.242188 145.1875 C 219.902344 145.1875 221.289062 146.570312 221.289062 148.234375 L 221.289062 225.375 C 221.289062 230.566406 225.375 234.722656 230.566406 234.859375 C 233.128906 234.929688 235.621094 233.960938 237.492188 232.160156 C 239.359375 230.359375 240.398438 227.9375 240.398438 225.304688 L 240.398438 149.480469 C 240.398438 130.4375 224.890625 114.925781 205.847656 114.925781 L 169.285156 114.925781 C 150.242188 114.925781 134.730469 130.4375 134.730469 149.480469 L 134.730469 225.304688 C 134.730469 227.867188 135.769531 230.289062 137.640625 232.160156 C 139.507812 233.960938 141.933594 234.929688 144.5625 234.859375 C 149.757812 234.722656 153.84375 230.566406 153.84375 225.375 L 153.84375 148.234375 C 153.84375 146.570312 155.226562 145.1875 156.890625 145.1875 C 158.550781 145.1875 159.9375 146.570312 159.9375 148.234375 L 159.9375 225.375 C 159.9375 233.890625 153.289062 240.746094 144.769531 240.953125 C 144.496094 240.953125 144.355469 240.953125 144.21875 240.953125 Z M 144.21875 240.953125 " fill-opacity="1" fill-rule="nonzero"/><path fill="#ff914d" d="M 187.496094 114.855469 C 170.945312 114.855469 157.445312 101.355469 157.445312 84.804688 C 157.445312 68.253906 170.945312 54.75 187.496094 54.75 C 204.046875 54.75 217.550781 68.253906 217.550781 84.804688 C 217.550781 101.355469 204.046875 114.855469 187.496094 114.855469 Z M 187.496094 60.84375 C 174.269531 60.84375 163.535156 71.578125 163.535156 84.804688 C 163.535156 98.03125 174.269531 108.761719 187.496094 108.761719 C 200.722656 108.761719 211.457031 98.03125 211.457031 84.804688 C 211.457031 71.578125 200.722656 60.84375 187.496094 60.84375 Z M 187.496094 60.84375 " fill-opacity="1" fill-rule="nonzero"/><path fill="#ff914d" d="M 174.476562 320.171875 L 173.4375 320.171875 C 164.574219 320.171875 157.375 312.96875 157.375 304.105469 L 157.375 222.671875 C 157.375 221.011719 158.757812 219.625 160.421875 219.625 L 187.425781 219.625 C 189.089844 219.625 190.472656 221.011719 190.472656 222.671875 L 190.472656 304.105469 C 190.542969 312.96875 183.339844 320.171875 174.476562 320.171875 Z M 163.46875 225.71875 L 163.46875 304.175781 C 163.46875 309.644531 167.96875 314.148438 173.4375 314.148438 L 174.476562 314.148438 C 179.949219 314.148438 184.449219 309.644531 184.449219 304.175781 L 184.449219 225.71875 Z M 163.46875 225.71875 " fill-opacity="1" fill-rule="nonzero"/><path fill="#ff914d" d="M 200.859375 320.171875 L 199.820312 320.171875 C 190.957031 320.171875 183.757812 312.96875 183.757812 304.105469 L 183.757812 222.671875 C 183.757812 221.011719 185.140625 219.625 186.804688 219.625 L 213.808594 219.625 C 215.472656 219.625 216.855469 221.011719 216.855469 222.671875 L 216.855469 304.105469 C 216.925781 312.96875 209.722656 320.171875 200.859375 320.171875 Z M 189.851562 225.71875 L 189.851562 304.175781 C 189.851562 309.644531 194.351562 314.148438 199.820312 314.148438 L 200.859375 314.148438 C 206.332031 314.148438 210.832031 309.644531 210.832031 304.175781 L 210.832031 225.71875 Z M 189.851562 225.71875 " fill-opacity="1" fill-rule="nonzero"/><path fill="#ff914d" d="M 187.703125 157.859375 C 186.042969 157.859375 184.65625 156.472656 184.65625 154.8125 C 184.65625 153.148438 186.042969 151.765625 187.703125 151.765625 C 189.988281 151.765625 192.136719 150.863281 193.660156 149.203125 C 195.25 147.542969 196.011719 145.394531 195.945312 143.109375 C 195.738281 138.746094 191.859375 135.214844 187.359375 135.214844 L 186.320312 135.214844 C 181.75 135.214844 178.078125 138.953125 178.078125 143.457031 C 178.078125 145.117188 176.695312 146.503906 175.03125 146.503906 C 173.371094 146.503906 171.984375 145.117188 171.984375 143.457031 C 171.984375 135.5625 178.425781 129.121094 186.320312 129.121094 L 187.359375 129.121094 C 195.183594 129.121094 201.621094 135.144531 202.039062 142.761719 C 202.246094 146.710938 200.792969 150.519531 198.089844 153.359375 C 195.390625 156.265625 191.652344 157.859375 187.703125 157.859375 Z M 187.703125 157.859375 " fill-opacity="1" fill-rule="nonzero"/><path fill="#ff914d" d="M 187.703125 167.621094 C 186.042969 167.621094 184.65625 166.238281 184.65625 164.574219 L 184.65625 154.8125 C 184.65625 153.148438 186.042969 151.765625 187.703125 151.765625 C 189.367188 151.765625 190.75 153.148438 190.75 154.8125 L 190.75 164.574219 C 190.75 166.238281 189.367188 167.621094 187.703125 167.621094 Z M 187.703125 167.621094 " fill-opacity="1" fill-rule="nonzero"/><path fill="#ff914d" d="M 192.828125 178.839844 C 192.828125 179.175781 192.796875 179.511719 192.730469 179.839844 C 192.664062 180.171875 192.566406 180.492188 192.4375 180.800781 C 192.308594 181.113281 192.152344 181.40625 191.964844 181.6875 C 191.777344 181.96875 191.566406 182.226562 191.328125 182.464844 C 191.089844 182.703125 190.832031 182.914062 190.550781 183.101562 C 190.269531 183.289062 189.976562 183.445312 189.664062 183.574219 C 189.355469 183.703125 189.035156 183.800781 188.703125 183.867188 C 188.375 183.933594 188.039062 183.964844 187.703125 183.964844 C 187.367188 183.964844 187.035156 183.933594 186.703125 183.867188 C 186.375 183.800781 186.054688 183.703125 185.742188 183.574219 C 185.433594 183.445312 185.136719 183.289062 184.855469 183.101562 C 184.578125 182.914062 184.320312 182.703125 184.082031 182.464844 C 183.84375 182.226562 183.628906 181.96875 183.441406 181.6875 C 183.257812 181.40625 183.097656 181.113281 182.96875 180.800781 C 182.839844 180.492188 182.742188 180.171875 182.679688 179.839844 C 182.613281 179.511719 182.578125 179.175781 182.578125 178.839844 C 182.578125 178.503906 182.613281 178.171875 182.679688 177.839844 C 182.742188 177.511719 182.839844 177.191406 182.96875 176.878906 C 183.097656 176.570312 183.257812 176.273438 183.441406 175.992188 C 183.628906 175.714844 183.84375 175.453125 184.082031 175.21875 C 184.320312 174.980469 184.578125 174.765625 184.855469 174.578125 C 185.136719 174.394531 185.433594 174.234375 185.742188 174.105469 C 186.054688 173.976562 186.375 173.878906 186.703125 173.816406 C 187.035156 173.75 187.367188 173.714844 187.703125 173.714844 C 188.039062 173.714844 188.375 173.75 188.703125 173.816406 C 189.035156 173.878906 189.355469 173.976562 189.664062 174.105469 C 189.976562 174.234375 190.269531 174.394531 190.550781 174.578125 C 190.832031 174.765625 191.089844 174.980469 191.328125 175.21875 C 191.566406 175.453125 191.777344 175.714844 191.964844 175.992188 C 192.152344 176.273438 192.308594 176.570312 192.4375 176.878906 C 192.566406 177.191406 192.664062 177.511719 192.730469 177.839844 C 192.796875 178.171875 192.828125 178.503906 192.828125 178.839844 Z M 192.828125 178.839844 " fill-opacity="1" fill-rule="nonzero"/><path fill="#000000" d="M 85.757812 288.359375 C 88.886719 279.933594 91.171875 272.234375 94.660156 265.132812 C 96.226562 261.882812 100.078125 259.117188 103.445312 257.550781 C 113.914062 252.980469 124.746094 249.128906 135.457031 245.039062 C 138.585938 243.835938 141.835938 242.75 144.84375 241.308594 C 159.886719 234.207031 163.015625 228.191406 160.847656 211.582031 C 160.605469 210.140625 160.003906 208.695312 159.285156 207.371094 C 158.5625 206.046875 157.839844 204.605469 156.757812 203.519531 C 151.703125 198.707031 155.914062 190.765625 149.898438 185.230469 C 145.804688 181.5 145.324219 173.074219 144.121094 166.578125 C 143.640625 163.929688 145.683594 160.921875 146.527344 158.035156 C 146.886719 156.589844 147.488281 154.90625 147.128906 153.460938 C 144.359375 140.222656 144.359375 126.746094 148.8125 114.230469 C 150.980469 108.214844 156.035156 102.558594 161.089844 98.585938 C 166.382812 94.496094 173 91.246094 179.5 90.042969 C 186 88.839844 193.097656 90.644531 199.957031 91.246094 C 205.371094 91.726562 210.667969 92.929688 212.832031 98.949219 C 221.136719 98.707031 227.753906 104.242188 229.800781 112.785156 C 232.929688 125.78125 230.882812 138.78125 229.199219 151.777344 C 228.839844 154.542969 227.515625 156.949219 230.882812 159.117188 C 232.207031 159.957031 232.570312 163.808594 232.207031 165.976562 C 231.367188 171.269531 229.800781 176.445312 228.597656 181.621094 C 228.359375 182.703125 227.996094 184.507812 227.273438 184.628906 C 221.738281 186.3125 222.941406 191.246094 221.980469 195.339844 C 221.378906 197.984375 220.898438 200.875 219.332031 202.800781 C 212.953125 210.863281 215.121094 219.886719 215.960938 228.792969 C 216.082031 230.476562 218.007812 232.28125 219.453125 233.726562 C 228.71875 242.390625 240.753906 244.554688 251.945312 248.886719 C 258.441406 251.414062 264.820312 254.183594 271.320312 256.589844 C 277.457031 258.996094 281.789062 263.089844 283.953125 269.585938 C 285.878906 275.601562 287.804688 281.5 289.972656 288.238281 C 221.738281 288.359375 154.589844 288.359375 85.757812 288.359375 Z M 85.757812 288.359375 " fill-opacity="1" fill-rule="nonzero"/><g clip-path="url(#9f29a03b4a)"><path fill="#000000" d="M 153.027344 302.4375 L 163.617188 302.4375 L 163.617188 304.84375 L 153.027344 304.84375 Z M 171.796875 304.84375 L 182.386719 304.84375 L 182.386719 302.4375 L 171.796875 302.4375 Z M 209.464844 304.964844 L 220.054688 304.964844 L 220.054688 302.558594 L 209.464844 302.558594 Z M 134.253906 304.84375 L 144.84375 304.84375 L 144.84375 302.4375 L 134.253906 302.4375 Z M 115.480469 304.84375 L 126.070312 304.84375 L 126.070312 302.4375 L 115.480469 302.4375 Z M 60.246094 304.726562 L 70.835938 304.726562 L 70.835938 302.316406 L 60.246094 302.316406 Z M 77.8125 304.726562 L 88.402344 304.726562 L 88.402344 302.316406 L 77.8125 302.316406 Z M 96.585938 304.84375 L 107.175781 304.84375 L 107.175781 302.4375 L 96.585938 302.4375 Z M 228.117188 304.964844 L 238.707031 304.964844 L 238.707031 302.558594 L 228.117188 302.558594 Z M 190.570312 304.964844 L 201.160156 304.964844 L 201.160156 302.558594 L 190.570312 302.558594 Z M 265.78125 304.964844 L 276.371094 304.964844 L 276.371094 302.558594 L 265.78125 302.558594 Z M 284.554688 305.085938 L 295.144531 305.085938 L 295.144531 302.679688 L 284.554688 302.679688 Z M 247.011719 304.964844 L 257.601562 304.964844 L 257.601562 302.558594 L 247.011719 302.558594 Z M 303.808594 304.964844 L 314.398438 304.964844 L 314.398438 302.558594 L 303.808594 302.558594 Z M 64.9375 275 C 65.660156 271.871094 66.503906 268.742188 67.707031 265.734375 L 67.945312 265.132812 L 65.660156 264.292969 L 65.417969 264.894531 C 64.214844 268.023438 63.253906 271.269531 62.53125 274.519531 L 62.410156 275.121094 L 64.816406 275.601562 Z M 137.621094 182.582031 C 137.984375 183.90625 138.222656 185.46875 138.34375 186.792969 C 138.585938 188.597656 138.824219 190.523438 139.546875 192.328125 L 139.789062 192.929688 L 142.074219 192.089844 L 141.835938 191.488281 C 141.234375 190.042969 140.992188 188.359375 140.75 186.554688 C 140.511719 185.109375 140.390625 183.546875 139.910156 181.980469 L 139.789062 181.378906 L 137.503906 182.101562 Z M 83.589844 253.582031 L 82.386719 251.535156 L 81.90625 251.777344 C 79.015625 253.460938 76.25 255.386719 73.601562 257.433594 L 73.121094 257.792969 L 74.566406 259.71875 L 75.046875 259.359375 C 77.574219 257.3125 80.222656 255.507812 82.988281 253.941406 Z M 60.246094 294.855469 L 62.652344 295.097656 L 63.613281 284.148438 L 61.207031 283.90625 Z M 181.066406 71.992188 C 181.546875 71.992188 181.90625 71.992188 182.386719 71.992188 C 184.796875 71.992188 187.441406 72.113281 190.8125 72.472656 L 191.414062 72.472656 L 191.652344 70.066406 L 191.050781 70.066406 C 187.683594 69.707031 184.914062 69.585938 182.386719 69.585938 C 181.90625 69.585938 181.546875 69.585938 181.066406 69.585938 L 180.460938 69.585938 L 180.460938 71.992188 Z M 145.324219 85.230469 C 147.007812 84.027344 148.695312 82.824219 150.5 81.621094 C 151.460938 81.019531 152.425781 80.535156 153.386719 79.933594 L 153.867188 79.695312 L 152.664062 77.527344 L 152.183594 77.769531 C 151.101562 78.371094 150.136719 78.851562 149.175781 79.453125 C 147.25 80.65625 145.445312 81.859375 143.757812 83.183594 L 143.277344 83.542969 L 144.722656 85.46875 Z M 133.167969 99.550781 C 133.410156 99.066406 133.53125 98.707031 133.769531 98.226562 C 134.734375 96.058594 136.296875 93.894531 138.222656 91.605469 L 138.585938 91.125 L 136.78125 89.5625 L 136.417969 90.042969 C 134.253906 92.449219 132.6875 94.855469 131.605469 97.261719 C 131.363281 97.746094 131.246094 98.226562 131.003906 98.585938 L 130.761719 99.1875 L 132.929688 100.152344 Z M 128.957031 127.347656 L 126.550781 127.589844 L 126.550781 128.191406 C 126.914062 131.4375 127.394531 134.6875 128.117188 138.058594 L 128.234375 138.660156 L 130.644531 138.179688 L 130.523438 137.578125 C 129.800781 134.328125 129.320312 131.078125 128.957031 128.070312 Z M 125.105469 156.710938 L 125.226562 157.3125 L 127.632812 156.832031 L 127.394531 156.226562 C 127.273438 155.867188 127.273438 155.507812 127.152344 155.144531 C 127.152344 154.90625 127.03125 154.785156 127.03125 154.542969 C 127.03125 153.21875 127.875 151.535156 128.835938 149.851562 C 129.199219 149.128906 129.558594 148.527344 129.921875 147.804688 L 130.160156 147.203125 L 127.996094 146.242188 L 127.753906 146.84375 C 127.515625 147.445312 127.152344 148.164062 126.792969 148.769531 C 125.828125 150.691406 124.746094 152.617188 124.746094 154.542969 C 124.746094 154.90625 124.746094 155.386719 124.867188 155.746094 C 124.867188 155.988281 124.988281 156.347656 125.105469 156.710938 Z M 148.332031 199.550781 L 147.488281 198.347656 L 145.445312 199.671875 L 146.285156 200.875 C 147.128906 202.078125 148.089844 203.640625 148.332031 205.085938 C 148.574219 206.410156 148.695312 207.613281 148.933594 208.816406 L 149.054688 209.417969 L 151.460938 209.175781 L 151.339844 208.574219 C 151.21875 207.371094 150.980469 206.167969 150.738281 204.722656 C 150.378906 202.800781 149.296875 200.992188 148.332031 199.550781 Z M 128.835938 118.324219 C 129.078125 115.074219 129.4375 111.824219 130.160156 108.816406 L 130.28125 108.214844 L 127.996094 107.734375 L 127.875 108.335938 C 127.152344 111.582031 126.671875 114.953125 126.429688 118.324219 L 126.429688 118.925781 L 128.835938 119.042969 Z M 100.917969 244.316406 L 95.863281 245.757812 C 94.179688 246.242188 92.496094 246.84375 90.8125 247.445312 L 90.328125 247.683594 L 91.171875 249.972656 L 91.773438 249.730469 C 93.335938 249.128906 95.023438 248.527344 96.585938 248.046875 L 101.640625 246.601562 Z M 139.066406 233.726562 L 137.984375 231.558594 L 137.503906 231.800781 C 135.09375 233.125 132.207031 234.328125 128.597656 235.769531 L 127.996094 236.011719 L 128.835938 238.296875 L 129.4375 238.058594 C 133.050781 236.613281 136.058594 235.289062 138.585938 233.964844 Z M 132.449219 175.964844 L 134.132812 174.277344 L 133.652344 173.917969 C 131.847656 172.113281 130.523438 169.585938 129.4375 165.855469 L 129.320312 165.253906 L 127.03125 165.855469 L 127.152344 166.457031 C 128.355469 170.667969 129.800781 173.558594 131.964844 175.601562 Z M 148.933594 218.203125 C 148.332031 221.453125 147.128906 223.976562 144.964844 226.265625 L 144.601562 226.746094 L 146.40625 228.429688 L 146.769531 227.949219 C 149.175781 225.300781 150.738281 222.292969 151.339844 218.683594 L 151.460938 218.082031 L 149.054688 217.722656 Z M 120.535156 241.066406 L 119.8125 238.78125 L 117.644531 239.382812 C 116.324219 239.742188 115 240.105469 113.675781 240.585938 C 112.351562 240.945312 111.148438 241.308594 109.824219 241.789062 L 109.222656 241.910156 L 109.945312 244.195312 L 110.546875 244.074219 C 111.871094 243.714844 113.074219 243.351562 114.398438 242.871094 C 115.71875 242.511719 117.042969 242.148438 118.367188 241.667969 Z M 210.789062 74.640625 L 211.269531 72.234375 L 210.667969 72.113281 C 208.984375 71.75 207.058594 71.632812 204.410156 71.390625 C 203.207031 71.269531 202.003906 71.148438 200.800781 71.03125 L 200.199219 71.03125 L 199.957031 73.4375 L 200.558594 73.4375 C 201.761719 73.558594 203.085938 73.675781 204.289062 73.796875 C 206.816406 74.039062 208.621094 74.160156 210.308594 74.519531 Z M 171.558594 70.667969 L 170.957031 70.789062 C 167.828125 71.511719 164.578125 72.472656 161.328125 73.675781 L 160.726562 73.917969 L 161.570312 76.203125 L 162.171875 75.964844 C 165.300781 74.761719 168.429688 73.917969 171.4375 73.195312 L 172.039062 73.074219 Z M 227.515625 82.582031 L 227.875 80.175781 L 227.273438 80.054688 C 225.949219 79.8125 224.507812 79.8125 223.0625 79.8125 C 222.339844 78.492188 221.378906 77.289062 220.292969 76.203125 L 219.8125 75.84375 L 218.25 77.648438 L 218.730469 78.007812 C 219.8125 78.972656 220.65625 80.054688 221.257812 81.5 L 221.617188 82.222656 L 222.460938 82.222656 C 224.023438 82.222656 225.589844 82.222656 227.035156 82.460938 Z M 246.289062 162.96875 L 248.574219 163.6875 L 248.695312 163.085938 C 249.65625 159.957031 250.378906 157.433594 250.859375 155.023438 C 250.980469 154.542969 250.980469 154.0625 250.980469 153.582031 L 250.980469 152.980469 L 248.574219 152.859375 L 248.574219 153.460938 C 248.574219 153.820312 248.453125 154.183594 248.453125 154.542969 C 247.972656 156.832031 247.371094 159.355469 246.410156 162.367188 Z M 249.539062 117.480469 L 247.128906 117.359375 L 247.128906 117.960938 C 246.890625 120.730469 246.648438 123.859375 246.167969 127.347656 L 246.046875 127.949219 L 248.453125 128.308594 L 248.574219 127.707031 C 249.054688 124.097656 249.417969 121.089844 249.65625 118.203125 Z M 242.316406 91.125 L 242.679688 91.605469 L 244.601562 90.164062 L 244.242188 89.683594 C 242.316406 87.035156 239.789062 84.867188 236.78125 83.183594 L 236.300781 82.941406 L 235.097656 85.109375 L 235.578125 85.351562 C 238.34375 86.792969 240.511719 88.71875 242.316406 91.125 Z M 243.28125 172.113281 C 242.796875 173.675781 242.4375 174.160156 242.4375 174.277344 C 240.152344 174.878906 238.464844 175.722656 237.261719 177.046875 L 236.902344 177.527344 L 238.585938 179.214844 L 238.949219 178.730469 C 239.789062 177.769531 241.113281 177.167969 243.039062 176.6875 C 244.601562 176.324219 245.203125 174.398438 245.6875 172.957031 L 246.046875 171.753906 L 243.761719 171.03125 Z M 232.449219 196.179688 C 234.496094 194.132812 235.335938 191.125 236.058594 188.597656 C 236.179688 188.238281 236.300781 187.878906 236.421875 187.515625 C 236.421875 187.394531 236.539062 187.277344 236.539062 187.035156 L 236.660156 186.433594 L 234.375 185.832031 L 234.253906 186.433594 C 234.253906 186.554688 234.132812 186.671875 234.132812 186.792969 C 234.011719 187.15625 233.894531 187.515625 233.773438 187.878906 C 233.050781 190.285156 232.328125 192.8125 230.765625 194.496094 L 230.28125 194.976562 L 231.96875 196.660156 Z M 248.816406 239.261719 L 249.65625 236.976562 L 249.054688 236.734375 C 245.804688 235.652344 243.039062 234.449219 240.390625 233.125 L 239.910156 232.882812 L 238.828125 235.050781 L 239.308594 235.289062 C 241.957031 236.613281 244.964844 237.816406 248.214844 239.019531 Z M 247.128906 108.574219 L 247.128906 109.175781 L 249.539062 109.054688 L 249.539062 108.453125 C 249.296875 105.085938 248.816406 101.957031 248.09375 98.828125 L 247.972656 98.226562 L 245.6875 98.828125 L 245.808594 99.429688 C 246.410156 102.316406 246.890625 105.324219 247.128906 108.574219 Z M 243.761719 140.464844 C 243.519531 141.308594 243.28125 142.269531 243.28125 143.230469 C 243.28125 144.554688 243.761719 145.757812 244.722656 146.722656 L 245.203125 147.203125 L 246.890625 145.519531 L 246.410156 145.039062 C 245.804688 144.554688 245.6875 143.953125 245.6875 143.230469 C 245.6875 142.628906 245.925781 141.910156 246.046875 141.066406 C 246.167969 140.464844 246.289062 139.863281 246.410156 139.382812 L 246.890625 136.371094 L 244.484375 136.011719 L 244 139.019531 C 244 139.5 243.882812 139.984375 243.761719 140.464844 Z M 226.671875 212.546875 C 226.671875 211.945312 226.671875 211.222656 226.671875 210.621094 C 226.671875 207.972656 227.035156 205.6875 227.753906 203.640625 L 227.996094 203.039062 L 225.710938 202.316406 L 225.46875 202.917969 C 224.628906 205.207031 224.265625 207.734375 224.265625 210.742188 C 224.265625 211.464844 224.265625 212.066406 224.265625 212.785156 L 224.265625 213.390625 L 226.671875 213.269531 Z M 267.828125 242.148438 L 265.664062 241.546875 C 263.136719 240.945312 260.609375 240.222656 258.082031 239.5 L 257.480469 239.382812 L 256.878906 241.667969 L 257.480469 241.789062 C 260.007812 242.511719 262.535156 243.113281 265.0625 243.835938 L 267.226562 244.4375 Z M 231.488281 230.71875 L 232.929688 228.792969 L 232.328125 228.308594 C 231.003906 227.347656 228.117188 225.300781 227.996094 223.738281 C 227.875 223.136719 227.875 222.414062 227.753906 221.8125 L 227.636719 221.210938 L 225.230469 221.570312 L 225.347656 222.171875 C 225.46875 222.773438 225.46875 223.375 225.589844 224.097656 C 225.832031 226.386719 228.359375 228.429688 230.882812 230.355469 Z M 312.59375 282.824219 L 310.1875 283.183594 L 311.992188 293.773438 L 314.398438 293.414062 Z M 307.539062 264.894531 L 307.300781 264.292969 L 305.132812 265.253906 L 305.375 265.855469 C 306.699219 268.742188 307.660156 271.632812 308.503906 274.640625 L 308.625 275.242188 L 310.910156 274.640625 L 310.789062 274.039062 C 309.945312 270.910156 308.863281 267.902344 307.539062 264.894531 Z M 286 248.167969 L 285.398438 247.925781 C 282.871094 246.84375 280.222656 245.757812 277.574219 245.039062 L 275.769531 244.4375 L 275.050781 246.722656 L 276.855469 247.324219 C 279.382812 248.046875 281.90625 249.007812 284.316406 250.089844 L 284.917969 250.332031 Z M 293.941406 252.5 L 293.460938 252.136719 L 292.136719 254.183594 L 292.617188 254.542969 C 295.265625 256.230469 297.671875 258.152344 300.078125 260.199219 L 300.5625 260.5625 L 302.125 258.753906 L 301.644531 258.394531 C 299.238281 256.230469 296.710938 254.304688 293.941406 252.5 Z M 293.941406 252.5 " fill-opacity="1" fill-rule="nonzero"/></g><path fill="#ffffff" d="M 182.507812 183.546875 L 182.269531 180.296875 C 181.546875 173.558594 183.832031 166.097656 190.089844 158.636719 C 195.746094 152.015625 198.875 147.082031 198.875 141.425781 C 198.875 135.050781 194.902344 130.71875 186.960938 130.597656 C 182.386719 130.597656 177.453125 132.160156 174.324219 134.449219 L 171.316406 126.503906 C 175.410156 123.496094 182.628906 121.449219 189.246094 121.449219 C 203.6875 121.449219 210.1875 130.355469 210.1875 139.863281 C 210.1875 148.40625 205.371094 154.542969 199.355469 161.644531 C 193.820312 168.140625 191.773438 173.675781 192.257812 180.054688 L 192.375 183.304688 L 182.507812 183.304688 Z M 179.742188 201.113281 C 179.742188 196.421875 182.871094 193.171875 187.320312 193.171875 C 191.773438 193.171875 194.78125 196.421875 194.78125 201.113281 C 194.78125 205.445312 191.894531 208.9375 187.203125 208.9375 C 182.75 208.816406 179.742188 205.445312 179.742188 201.113281 Z M 179.742188 201.113281 " fill-opacity="1" fill-rule="nonzero"/></svg>